G04 #@! TF.GenerationSoftware,KiCad,Pcbnew,(5.0.0-3-g5ebb6b6)*
G04 #@! TF.CreationDate,2019-07-16T20:37:29+09:00*
G04 #@! TF.ProjectId,KZ80-TMS9918A,4B5A38302D544D5339393138412E6B69,rev?*
G04 #@! TF.SameCoordinates,Original*
G04 #@! TF.FileFunction,Copper,L1,Top,Signal*
G04 #@! TF.FilePolarity,Positive*
%FSLAX46Y46*%
G04 Gerber Fmt 4.6, Leading zero omitted, Abs format (unit mm)*
G04 Created by KiCad (PCBNEW (5.0.0-3-g5ebb6b6)) date *
%MOMM*%
%LPD*%
G01*
G04 APERTURE LIST*
G04 #@! TA.AperFunction,ComponentPad*
%ADD10R,1.600000X1.600000*%
G04 #@! TD*
G04 #@! TA.AperFunction,ComponentPad*
%ADD11C,1.600000*%
G04 #@! TD*
G04 #@! TA.AperFunction,ComponentPad*
%ADD12O,3.500000X2.300000*%
G04 #@! TD*
G04 #@! TA.AperFunction,ComponentPad*
%ADD13O,2.300000X3.500000*%
G04 #@! TD*
G04 #@! TA.AperFunction,ComponentPad*
%ADD14O,1.600000X1.600000*%
G04 #@! TD*
G04 #@! TA.AperFunction,ComponentPad*
%ADD15R,1.700000X1.700000*%
G04 #@! TD*
G04 #@! TA.AperFunction,ComponentPad*
%ADD16O,1.700000X1.700000*%
G04 #@! TD*
G04 #@! TA.AperFunction,ComponentPad*
%ADD17C,1.500000*%
G04 #@! TD*
G04 #@! TA.AperFunction,ComponentPad*
%ADD18R,1.500000X1.500000*%
G04 #@! TD*
G04 #@! TA.AperFunction,ViaPad*
%ADD19C,0.800000*%
G04 #@! TD*
G04 #@! TA.AperFunction,Conductor*
%ADD20C,0.250000*%
G04 #@! TD*
G04 #@! TA.AperFunction,Conductor*
%ADD21C,0.600000*%
G04 #@! TD*
G04 #@! TA.AperFunction,Conductor*
%ADD22C,0.254000*%
G04 #@! TD*
G04 APERTURE END LIST*
D10*
G04 #@! TO.P,C3,1*
G04 #@! TO.N,Net-(C14-Pad1)*
X139000000Y-97500000D03*
D11*
G04 #@! TO.P,C3,2*
G04 #@! TO.N,GND*
X139000000Y-100000000D03*
G04 #@! TD*
D10*
G04 #@! TO.P,C15,1*
G04 #@! TO.N,Net-(C15-Pad1)*
X138000000Y-106500000D03*
D11*
G04 #@! TO.P,C15,2*
G04 #@! TO.N,Net-(C15-Pad2)*
X141500000Y-106500000D03*
G04 #@! TD*
G04 #@! TO.P,C14,1*
G04 #@! TO.N,Net-(C14-Pad1)*
X127000000Y-107500000D03*
G04 #@! TO.P,C14,2*
G04 #@! TO.N,GND*
X129500000Y-107500000D03*
G04 #@! TD*
D12*
G04 #@! TO.P,J1,2*
G04 #@! TO.N,GND*
X128000000Y-117500000D03*
D13*
G04 #@! TO.P,J1,1*
G04 #@! TO.N,Net-(J1-Pad1)*
X128000000Y-113000000D03*
G04 #@! TD*
D14*
G04 #@! TO.P,R4,2*
G04 #@! TO.N,Net-(C15-Pad2)*
X141000000Y-112340000D03*
D11*
G04 #@! TO.P,R4,1*
G04 #@! TO.N,Net-(J1-Pad1)*
X141000000Y-122500000D03*
G04 #@! TD*
G04 #@! TO.P,R5,1*
G04 #@! TO.N,Net-(C15-Pad2)*
X136500000Y-112500000D03*
D14*
G04 #@! TO.P,R5,2*
G04 #@! TO.N,GND*
X136500000Y-122660000D03*
G04 #@! TD*
D10*
G04 #@! TO.P,C13,1*
G04 #@! TO.N,VCC*
X118000000Y-62000000D03*
D11*
G04 #@! TO.P,C13,2*
G04 #@! TO.N,GND*
X118000000Y-59500000D03*
G04 #@! TD*
G04 #@! TO.P,C1,2*
G04 #@! TO.N,GND*
X129500000Y-72000000D03*
G04 #@! TO.P,C1,1*
G04 #@! TO.N,Net-(C1-Pad1)*
X129500000Y-74500000D03*
G04 #@! TD*
G04 #@! TO.P,C2,1*
G04 #@! TO.N,Net-(C2-Pad1)*
X129500000Y-69500000D03*
G04 #@! TO.P,C2,2*
G04 #@! TO.N,GND*
X129500000Y-67000000D03*
G04 #@! TD*
G04 #@! TO.P,C4,1*
G04 #@! TO.N,VCC*
X113500000Y-94500000D03*
G04 #@! TO.P,C4,2*
G04 #@! TO.N,GND*
X111000000Y-94500000D03*
G04 #@! TD*
G04 #@! TO.P,C5,2*
G04 #@! TO.N,GND*
X138500000Y-67500000D03*
G04 #@! TO.P,C5,1*
G04 #@! TO.N,VCC*
X141000000Y-67500000D03*
G04 #@! TD*
G04 #@! TO.P,C6,1*
G04 #@! TO.N,VCC*
X153500000Y-67500000D03*
G04 #@! TO.P,C6,2*
G04 #@! TO.N,GND*
X151000000Y-67500000D03*
G04 #@! TD*
G04 #@! TO.P,C7,2*
G04 #@! TO.N,GND*
X163500000Y-78500000D03*
G04 #@! TO.P,C7,1*
G04 #@! TO.N,VCC*
X166000000Y-78500000D03*
G04 #@! TD*
G04 #@! TO.P,C8,1*
G04 #@! TO.N,VCC*
X184500000Y-66500000D03*
G04 #@! TO.P,C8,2*
G04 #@! TO.N,GND*
X182000000Y-66500000D03*
G04 #@! TD*
G04 #@! TO.P,C9,2*
G04 #@! TO.N,GND*
X182000000Y-88000000D03*
G04 #@! TO.P,C9,1*
G04 #@! TO.N,VCC*
X184500000Y-88000000D03*
G04 #@! TD*
G04 #@! TO.P,C10,1*
G04 #@! TO.N,VCC*
X196500000Y-76500000D03*
G04 #@! TO.P,C10,2*
G04 #@! TO.N,GND*
X194000000Y-76500000D03*
G04 #@! TD*
G04 #@! TO.P,C11,2*
G04 #@! TO.N,GND*
X151000000Y-96500000D03*
G04 #@! TO.P,C11,1*
G04 #@! TO.N,VCC*
X153500000Y-96500000D03*
G04 #@! TD*
G04 #@! TO.P,C12,1*
G04 #@! TO.N,VCC*
X196500000Y-97500000D03*
G04 #@! TO.P,C12,2*
G04 #@! TO.N,GND*
X194000000Y-97500000D03*
G04 #@! TD*
D15*
G04 #@! TO.P,JP1,1*
G04 #@! TO.N,/A7*
X164000000Y-105500000D03*
D16*
G04 #@! TO.P,JP1,2*
G04 #@! TO.N,Net-(JP1-Pad2)*
X166540000Y-105500000D03*
G04 #@! TO.P,JP1,3*
G04 #@! TO.N,Net-(JP1-Pad3)*
X169080000Y-105500000D03*
G04 #@! TD*
D15*
G04 #@! TO.P,J3,1*
G04 #@! TO.N,/CLK*
X190650000Y-60500000D03*
D16*
G04 #@! TO.P,J3,2*
G04 #@! TO.N,/CPUCLK*
X190650000Y-63040000D03*
G04 #@! TO.P,J3,3*
G04 #@! TO.N,/GROMCLK*
X190650000Y-65580000D03*
G04 #@! TO.P,J3,4*
G04 #@! TO.N,/EXTVDP*
X190650000Y-68120000D03*
G04 #@! TO.P,J3,5*
G04 #@! TO.N,/INT*
X190650000Y-70660000D03*
G04 #@! TO.P,J3,6*
G04 #@! TO.N,GND*
X190650000Y-73200000D03*
G04 #@! TD*
G04 #@! TO.P,J4,8*
G04 #@! TO.N,Net-(J4-Pad2)*
X171540000Y-118620000D03*
G04 #@! TO.P,J4,7*
G04 #@! TO.N,Net-(J4-Pad7)*
X169000000Y-118620000D03*
G04 #@! TO.P,J4,6*
G04 #@! TO.N,Net-(J4-Pad2)*
X171540000Y-116080000D03*
G04 #@! TO.P,J4,5*
G04 #@! TO.N,Net-(J4-Pad5)*
X169000000Y-116080000D03*
G04 #@! TO.P,J4,4*
G04 #@! TO.N,Net-(J4-Pad2)*
X171540000Y-113540000D03*
G04 #@! TO.P,J4,3*
G04 #@! TO.N,Net-(J4-Pad3)*
X169000000Y-113540000D03*
G04 #@! TO.P,J4,2*
G04 #@! TO.N,Net-(J4-Pad2)*
X171540000Y-111000000D03*
D15*
G04 #@! TO.P,J4,1*
G04 #@! TO.N,Net-(J4-Pad1)*
X169000000Y-111000000D03*
G04 #@! TD*
G04 #@! TO.P,J5,1*
G04 #@! TO.N,Net-(J5-Pad1)*
X161500000Y-111000000D03*
D16*
G04 #@! TO.P,J5,2*
G04 #@! TO.N,Net-(J5-Pad2)*
X164040000Y-111000000D03*
G04 #@! TO.P,J5,3*
G04 #@! TO.N,Net-(J5-Pad3)*
X161500000Y-113540000D03*
G04 #@! TO.P,J5,4*
G04 #@! TO.N,Net-(J5-Pad2)*
X164040000Y-113540000D03*
G04 #@! TO.P,J5,5*
G04 #@! TO.N,Net-(J5-Pad5)*
X161500000Y-116080000D03*
G04 #@! TO.P,J5,6*
G04 #@! TO.N,Net-(J5-Pad2)*
X164040000Y-116080000D03*
G04 #@! TO.P,J5,7*
G04 #@! TO.N,Net-(J5-Pad7)*
X161500000Y-118620000D03*
G04 #@! TO.P,J5,8*
G04 #@! TO.N,Net-(J5-Pad2)*
X164040000Y-118620000D03*
G04 #@! TD*
D15*
G04 #@! TO.P,J2,1*
G04 #@! TO.N,VCC*
X126725000Y-62625000D03*
D16*
G04 #@! TO.P,J2,2*
G04 #@! TO.N,GND*
X126725000Y-60085000D03*
G04 #@! TO.P,J2,3*
G04 #@! TO.N,VCC*
X129265000Y-62625000D03*
G04 #@! TO.P,J2,4*
G04 #@! TO.N,GND*
X129265000Y-60085000D03*
G04 #@! TO.P,J2,5*
G04 #@! TO.N,Net-(J2-Pad5)*
X131805000Y-62625000D03*
G04 #@! TO.P,J2,6*
G04 #@! TO.N,Net-(J2-Pad6)*
X131805000Y-60085000D03*
G04 #@! TO.P,J2,7*
G04 #@! TO.N,Net-(J2-Pad7)*
X134345000Y-62625000D03*
G04 #@! TO.P,J2,8*
G04 #@! TO.N,/CLK*
X134345000Y-60085000D03*
G04 #@! TO.P,J2,9*
G04 #@! TO.N,/D0*
X136885000Y-62625000D03*
G04 #@! TO.P,J2,10*
G04 #@! TO.N,/D1*
X136885000Y-60085000D03*
G04 #@! TO.P,J2,11*
G04 #@! TO.N,/D2*
X139425000Y-62625000D03*
G04 #@! TO.P,J2,12*
G04 #@! TO.N,/D3*
X139425000Y-60085000D03*
G04 #@! TO.P,J2,13*
G04 #@! TO.N,/D4*
X141965000Y-62625000D03*
G04 #@! TO.P,J2,14*
G04 #@! TO.N,/D5*
X141965000Y-60085000D03*
G04 #@! TO.P,J2,15*
G04 #@! TO.N,/D6*
X144505000Y-62625000D03*
G04 #@! TO.P,J2,16*
G04 #@! TO.N,/D7*
X144505000Y-60085000D03*
G04 #@! TO.P,J2,17*
G04 #@! TO.N,/~IOR*
X147045000Y-62625000D03*
G04 #@! TO.P,J2,18*
G04 #@! TO.N,Net-(J2-Pad18)*
X147045000Y-60085000D03*
G04 #@! TO.P,J2,19*
G04 #@! TO.N,/~IOW*
X149585000Y-62625000D03*
G04 #@! TO.P,J2,20*
G04 #@! TO.N,Net-(J2-Pad20)*
X149585000Y-60085000D03*
G04 #@! TO.P,J2,21*
G04 #@! TO.N,/RES*
X152125000Y-62625000D03*
G04 #@! TO.P,J2,22*
G04 #@! TO.N,Net-(J2-Pad22)*
X152125000Y-60085000D03*
G04 #@! TO.P,J2,23*
G04 #@! TO.N,Net-(J2-Pad23)*
X154665000Y-62625000D03*
G04 #@! TO.P,J2,24*
G04 #@! TO.N,Net-(J2-Pad24)*
X154665000Y-60085000D03*
G04 #@! TO.P,J2,25*
G04 #@! TO.N,/A0*
X157205000Y-62625000D03*
G04 #@! TO.P,J2,26*
G04 #@! TO.N,Net-(J2-Pad26)*
X157205000Y-60085000D03*
G04 #@! TO.P,J2,27*
G04 #@! TO.N,Net-(J2-Pad27)*
X159745000Y-62625000D03*
G04 #@! TO.P,J2,28*
G04 #@! TO.N,/A3*
X159745000Y-60085000D03*
G04 #@! TO.P,J2,29*
G04 #@! TO.N,/A4*
X162285000Y-62625000D03*
G04 #@! TO.P,J2,30*
G04 #@! TO.N,/A5*
X162285000Y-60085000D03*
G04 #@! TO.P,J2,31*
G04 #@! TO.N,/A6*
X164825000Y-62625000D03*
G04 #@! TO.P,J2,32*
G04 #@! TO.N,/A7*
X164825000Y-60085000D03*
G04 #@! TO.P,J2,33*
G04 #@! TO.N,Net-(J2-Pad33)*
X167365000Y-62625000D03*
G04 #@! TO.P,J2,34*
G04 #@! TO.N,Net-(J2-Pad34)*
X167365000Y-60085000D03*
G04 #@! TO.P,J2,35*
G04 #@! TO.N,Net-(J2-Pad35)*
X169905000Y-62625000D03*
G04 #@! TO.P,J2,36*
G04 #@! TO.N,Net-(J2-Pad36)*
X169905000Y-60085000D03*
G04 #@! TO.P,J2,37*
G04 #@! TO.N,Net-(J2-Pad37)*
X172445000Y-62625000D03*
G04 #@! TO.P,J2,38*
G04 #@! TO.N,Net-(J2-Pad38)*
X172445000Y-60085000D03*
G04 #@! TO.P,J2,39*
G04 #@! TO.N,Net-(J2-Pad39)*
X174985000Y-62625000D03*
G04 #@! TO.P,J2,40*
G04 #@! TO.N,Net-(J2-Pad40)*
X174985000Y-60085000D03*
G04 #@! TD*
D17*
G04 #@! TO.P,Y1,1*
G04 #@! TO.N,Net-(C1-Pad1)*
X125000000Y-74000000D03*
G04 #@! TO.P,Y1,2*
G04 #@! TO.N,Net-(C2-Pad1)*
X125000000Y-69120000D03*
G04 #@! TD*
D11*
G04 #@! TO.P,L1,1*
G04 #@! TO.N,VCC*
X123500000Y-100000000D03*
D14*
G04 #@! TO.P,L1,2*
G04 #@! TO.N,Net-(C14-Pad1)*
X133660000Y-100000000D03*
G04 #@! TD*
D10*
G04 #@! TO.P,U1,1*
G04 #@! TO.N,/R~W*
X188500000Y-79500000D03*
D14*
G04 #@! TO.P,U1,8*
G04 #@! TO.N,Net-(U1-Pad11)*
X196120000Y-94740000D03*
G04 #@! TO.P,U1,2*
G04 #@! TO.N,/~R~W*
X188500000Y-82040000D03*
G04 #@! TO.P,U1,9*
G04 #@! TO.N,Net-(U1-Pad6)*
X196120000Y-92200000D03*
G04 #@! TO.P,U1,3*
G04 #@! TO.N,/~RAS*
X188500000Y-84580000D03*
G04 #@! TO.P,U1,10*
G04 #@! TO.N,/COL*
X196120000Y-89660000D03*
G04 #@! TO.P,U1,4*
G04 #@! TO.N,/ROW*
X188500000Y-87120000D03*
G04 #@! TO.P,U1,11*
G04 #@! TO.N,Net-(U1-Pad11)*
X196120000Y-87120000D03*
G04 #@! TO.P,U1,5*
G04 #@! TO.N,/~CAS*
X188500000Y-89660000D03*
G04 #@! TO.P,U1,12*
G04 #@! TO.N,/INT*
X196120000Y-84580000D03*
G04 #@! TO.P,U1,6*
G04 #@! TO.N,Net-(U1-Pad6)*
X188500000Y-92200000D03*
G04 #@! TO.P,U1,13*
G04 #@! TO.N,/~INT*
X196120000Y-82040000D03*
G04 #@! TO.P,U1,7*
G04 #@! TO.N,GND*
X188500000Y-94740000D03*
G04 #@! TO.P,U1,14*
G04 #@! TO.N,VCC*
X196120000Y-79500000D03*
G04 #@! TD*
G04 #@! TO.P,U3,14*
G04 #@! TO.N,VCC*
X196120000Y-100500000D03*
G04 #@! TO.P,U3,7*
G04 #@! TO.N,GND*
X188500000Y-115740000D03*
G04 #@! TO.P,U3,13*
X196120000Y-103040000D03*
G04 #@! TO.P,U3,6*
G04 #@! TO.N,/~CSW*
X188500000Y-113200000D03*
G04 #@! TO.P,U3,12*
G04 #@! TO.N,GND*
X196120000Y-105580000D03*
G04 #@! TO.P,U3,5*
G04 #@! TO.N,/~IOW*
X188500000Y-110660000D03*
G04 #@! TO.P,U3,11*
G04 #@! TO.N,Net-(U3-Pad11)*
X196120000Y-108120000D03*
G04 #@! TO.P,U3,4*
G04 #@! TO.N,Net-(J4-Pad2)*
X188500000Y-108120000D03*
G04 #@! TO.P,U3,10*
G04 #@! TO.N,GND*
X196120000Y-110660000D03*
G04 #@! TO.P,U3,3*
G04 #@! TO.N,/~CSR*
X188500000Y-105580000D03*
G04 #@! TO.P,U3,9*
G04 #@! TO.N,GND*
X196120000Y-113200000D03*
G04 #@! TO.P,U3,2*
G04 #@! TO.N,/~IOR*
X188500000Y-103040000D03*
G04 #@! TO.P,U3,8*
G04 #@! TO.N,Net-(U3-Pad8)*
X196120000Y-115740000D03*
D10*
G04 #@! TO.P,U3,1*
G04 #@! TO.N,Net-(J4-Pad2)*
X188500000Y-100500000D03*
G04 #@! TD*
G04 #@! TO.P,U5,1*
G04 #@! TO.N,/A7*
X176500000Y-70000000D03*
D14*
G04 #@! TO.P,U5,8*
G04 #@! TO.N,Net-(U5-Pad8)*
X184120000Y-85240000D03*
G04 #@! TO.P,U5,2*
G04 #@! TO.N,Net-(JP1-Pad3)*
X176500000Y-72540000D03*
G04 #@! TO.P,U5,9*
G04 #@! TO.N,GND*
X184120000Y-82700000D03*
G04 #@! TO.P,U5,3*
G04 #@! TO.N,/RES*
X176500000Y-75080000D03*
G04 #@! TO.P,U5,10*
G04 #@! TO.N,Net-(U5-Pad10)*
X184120000Y-80160000D03*
G04 #@! TO.P,U5,4*
G04 #@! TO.N,/~RES*
X176500000Y-77620000D03*
G04 #@! TO.P,U5,11*
G04 #@! TO.N,GND*
X184120000Y-77620000D03*
G04 #@! TO.P,U5,5*
X176500000Y-80160000D03*
G04 #@! TO.P,U5,12*
G04 #@! TO.N,Net-(U5-Pad12)*
X184120000Y-75080000D03*
G04 #@! TO.P,U5,6*
G04 #@! TO.N,Net-(U5-Pad6)*
X176500000Y-82700000D03*
G04 #@! TO.P,U5,13*
G04 #@! TO.N,GND*
X184120000Y-72540000D03*
G04 #@! TO.P,U5,7*
X176500000Y-85240000D03*
G04 #@! TO.P,U5,14*
G04 #@! TO.N,VCC*
X184120000Y-70000000D03*
G04 #@! TD*
G04 #@! TO.P,U2,16*
G04 #@! TO.N,VCC*
X184120000Y-90500000D03*
G04 #@! TO.P,U2,8*
G04 #@! TO.N,GND*
X176500000Y-108280000D03*
G04 #@! TO.P,U2,15*
G04 #@! TO.N,Net-(J5-Pad2)*
X184120000Y-93040000D03*
G04 #@! TO.P,U2,7*
G04 #@! TO.N,Net-(J5-Pad7)*
X176500000Y-105740000D03*
G04 #@! TO.P,U2,14*
G04 #@! TO.N,/A3*
X184120000Y-95580000D03*
G04 #@! TO.P,U2,6*
G04 #@! TO.N,Net-(J5-Pad5)*
X176500000Y-103200000D03*
G04 #@! TO.P,U2,13*
G04 #@! TO.N,/A4*
X184120000Y-98120000D03*
G04 #@! TO.P,U2,5*
G04 #@! TO.N,Net-(J5-Pad3)*
X176500000Y-100660000D03*
G04 #@! TO.P,U2,12*
G04 #@! TO.N,Net-(J4-Pad1)*
X184120000Y-100660000D03*
G04 #@! TO.P,U2,4*
G04 #@! TO.N,Net-(J5-Pad1)*
X176500000Y-98120000D03*
G04 #@! TO.P,U2,11*
G04 #@! TO.N,Net-(J4-Pad3)*
X184120000Y-103200000D03*
G04 #@! TO.P,U2,3*
G04 #@! TO.N,/A6*
X176500000Y-95580000D03*
G04 #@! TO.P,U2,10*
G04 #@! TO.N,Net-(J4-Pad5)*
X184120000Y-105740000D03*
G04 #@! TO.P,U2,2*
G04 #@! TO.N,/A5*
X176500000Y-93040000D03*
G04 #@! TO.P,U2,9*
G04 #@! TO.N,Net-(J4-Pad7)*
X184120000Y-108280000D03*
D10*
G04 #@! TO.P,U2,1*
G04 #@! TO.N,Net-(JP1-Pad2)*
X176500000Y-90500000D03*
G04 #@! TD*
G04 #@! TO.P,U6,1*
G04 #@! TO.N,/R~W*
X146000000Y-99000000D03*
D14*
G04 #@! TO.P,U6,11*
G04 #@! TO.N,/~R~W*
X153620000Y-121860000D03*
G04 #@! TO.P,U6,2*
G04 #@! TO.N,/AD0*
X146000000Y-101540000D03*
G04 #@! TO.P,U6,12*
G04 #@! TO.N,/VD7*
X153620000Y-119320000D03*
G04 #@! TO.P,U6,3*
G04 #@! TO.N,/AD1*
X146000000Y-104080000D03*
G04 #@! TO.P,U6,13*
G04 #@! TO.N,/VD6*
X153620000Y-116780000D03*
G04 #@! TO.P,U6,4*
G04 #@! TO.N,/AD2*
X146000000Y-106620000D03*
G04 #@! TO.P,U6,14*
G04 #@! TO.N,/VD5*
X153620000Y-114240000D03*
G04 #@! TO.P,U6,5*
G04 #@! TO.N,/AD3*
X146000000Y-109160000D03*
G04 #@! TO.P,U6,15*
G04 #@! TO.N,/VD4*
X153620000Y-111700000D03*
G04 #@! TO.P,U6,6*
G04 #@! TO.N,/AD4*
X146000000Y-111700000D03*
G04 #@! TO.P,U6,16*
G04 #@! TO.N,/VD3*
X153620000Y-109160000D03*
G04 #@! TO.P,U6,7*
G04 #@! TO.N,/AD5*
X146000000Y-114240000D03*
G04 #@! TO.P,U6,17*
G04 #@! TO.N,/VD2*
X153620000Y-106620000D03*
G04 #@! TO.P,U6,8*
G04 #@! TO.N,/AD6*
X146000000Y-116780000D03*
G04 #@! TO.P,U6,18*
G04 #@! TO.N,/VD1*
X153620000Y-104080000D03*
G04 #@! TO.P,U6,9*
G04 #@! TO.N,/AD7*
X146000000Y-119320000D03*
G04 #@! TO.P,U6,19*
G04 #@! TO.N,/VD0*
X153620000Y-101540000D03*
G04 #@! TO.P,U6,10*
G04 #@! TO.N,GND*
X146000000Y-121860000D03*
G04 #@! TO.P,U6,20*
G04 #@! TO.N,VCC*
X153620000Y-99000000D03*
G04 #@! TD*
G04 #@! TO.P,U7,20*
G04 #@! TO.N,VCC*
X153120000Y-70500000D03*
G04 #@! TO.P,U7,10*
G04 #@! TO.N,GND*
X145500000Y-93360000D03*
G04 #@! TO.P,U7,19*
G04 #@! TO.N,Net-(U7-Pad19)*
X153120000Y-73040000D03*
G04 #@! TO.P,U7,9*
G04 #@! TO.N,/AD7*
X145500000Y-90820000D03*
G04 #@! TO.P,U7,18*
G04 #@! TO.N,/VA0*
X153120000Y-75580000D03*
G04 #@! TO.P,U7,8*
G04 #@! TO.N,/AD6*
X145500000Y-88280000D03*
G04 #@! TO.P,U7,17*
G04 #@! TO.N,/VA1*
X153120000Y-78120000D03*
G04 #@! TO.P,U7,7*
G04 #@! TO.N,/AD5*
X145500000Y-85740000D03*
G04 #@! TO.P,U7,16*
G04 #@! TO.N,/VA2*
X153120000Y-80660000D03*
G04 #@! TO.P,U7,6*
G04 #@! TO.N,/AD4*
X145500000Y-83200000D03*
G04 #@! TO.P,U7,15*
G04 #@! TO.N,/VA3*
X153120000Y-83200000D03*
G04 #@! TO.P,U7,5*
G04 #@! TO.N,/AD3*
X145500000Y-80660000D03*
G04 #@! TO.P,U7,14*
G04 #@! TO.N,/VA4*
X153120000Y-85740000D03*
G04 #@! TO.P,U7,4*
G04 #@! TO.N,/AD2*
X145500000Y-78120000D03*
G04 #@! TO.P,U7,13*
G04 #@! TO.N,/VA5*
X153120000Y-88280000D03*
G04 #@! TO.P,U7,3*
G04 #@! TO.N,/AD1*
X145500000Y-75580000D03*
G04 #@! TO.P,U7,12*
G04 #@! TO.N,/VA6*
X153120000Y-90820000D03*
G04 #@! TO.P,U7,2*
G04 #@! TO.N,/AD0*
X145500000Y-73040000D03*
G04 #@! TO.P,U7,11*
G04 #@! TO.N,/ROW*
X153120000Y-93360000D03*
D10*
G04 #@! TO.P,U7,1*
G04 #@! TO.N,GND*
X145500000Y-70500000D03*
G04 #@! TD*
G04 #@! TO.P,U9,1*
G04 #@! TO.N,GND*
X133500000Y-70500000D03*
D14*
G04 #@! TO.P,U9,11*
G04 #@! TO.N,/COL*
X141120000Y-93360000D03*
G04 #@! TO.P,U9,2*
G04 #@! TO.N,/AD0*
X133500000Y-73040000D03*
G04 #@! TO.P,U9,12*
G04 #@! TO.N,/VA13*
X141120000Y-90820000D03*
G04 #@! TO.P,U9,3*
G04 #@! TO.N,/AD1*
X133500000Y-75580000D03*
G04 #@! TO.P,U9,13*
G04 #@! TO.N,/VA12*
X141120000Y-88280000D03*
G04 #@! TO.P,U9,4*
G04 #@! TO.N,/AD2*
X133500000Y-78120000D03*
G04 #@! TO.P,U9,14*
G04 #@! TO.N,/VA11*
X141120000Y-85740000D03*
G04 #@! TO.P,U9,5*
G04 #@! TO.N,/AD3*
X133500000Y-80660000D03*
G04 #@! TO.P,U9,15*
G04 #@! TO.N,/VA10*
X141120000Y-83200000D03*
G04 #@! TO.P,U9,6*
G04 #@! TO.N,/AD4*
X133500000Y-83200000D03*
G04 #@! TO.P,U9,16*
G04 #@! TO.N,/VA9*
X141120000Y-80660000D03*
G04 #@! TO.P,U9,7*
G04 #@! TO.N,/AD5*
X133500000Y-85740000D03*
G04 #@! TO.P,U9,17*
G04 #@! TO.N,/VA8*
X141120000Y-78120000D03*
G04 #@! TO.P,U9,8*
G04 #@! TO.N,/AD6*
X133500000Y-88280000D03*
G04 #@! TO.P,U9,18*
G04 #@! TO.N,/VA7*
X141120000Y-75580000D03*
G04 #@! TO.P,U9,9*
G04 #@! TO.N,/AD7*
X133500000Y-90820000D03*
G04 #@! TO.P,U9,19*
G04 #@! TO.N,Net-(U9-Pad19)*
X141120000Y-73040000D03*
G04 #@! TO.P,U9,10*
G04 #@! TO.N,GND*
X133500000Y-93360000D03*
G04 #@! TO.P,U9,20*
G04 #@! TO.N,VCC*
X141120000Y-70500000D03*
G04 #@! TD*
D10*
G04 #@! TO.P,U8,1*
G04 #@! TO.N,/VA13*
X156775000Y-67925000D03*
D14*
G04 #@! TO.P,U8,15*
G04 #@! TO.N,/VD3*
X172015000Y-100945000D03*
G04 #@! TO.P,U8,2*
G04 #@! TO.N,/VA12*
X156775000Y-70465000D03*
G04 #@! TO.P,U8,16*
G04 #@! TO.N,/VD4*
X172015000Y-98405000D03*
G04 #@! TO.P,U8,3*
G04 #@! TO.N,/VA7*
X156775000Y-73005000D03*
G04 #@! TO.P,U8,17*
G04 #@! TO.N,/VD5*
X172015000Y-95865000D03*
G04 #@! TO.P,U8,4*
G04 #@! TO.N,/VA6*
X156775000Y-75545000D03*
G04 #@! TO.P,U8,18*
G04 #@! TO.N,/VD6*
X172015000Y-93325000D03*
G04 #@! TO.P,U8,5*
G04 #@! TO.N,/VA5*
X156775000Y-78085000D03*
G04 #@! TO.P,U8,19*
G04 #@! TO.N,/VD7*
X172015000Y-90785000D03*
G04 #@! TO.P,U8,6*
G04 #@! TO.N,/VA4*
X156775000Y-80625000D03*
G04 #@! TO.P,U8,20*
G04 #@! TO.N,/~CAS*
X172015000Y-88245000D03*
G04 #@! TO.P,U8,7*
G04 #@! TO.N,/VA3*
X156775000Y-83165000D03*
G04 #@! TO.P,U8,21*
G04 #@! TO.N,/VA10*
X172015000Y-85705000D03*
G04 #@! TO.P,U8,8*
G04 #@! TO.N,/VA2*
X156775000Y-85705000D03*
G04 #@! TO.P,U8,22*
G04 #@! TO.N,/~R~W*
X172015000Y-83165000D03*
G04 #@! TO.P,U8,9*
G04 #@! TO.N,/VA1*
X156775000Y-88245000D03*
G04 #@! TO.P,U8,23*
G04 #@! TO.N,/VA11*
X172015000Y-80625000D03*
G04 #@! TO.P,U8,10*
G04 #@! TO.N,/VA0*
X156775000Y-90785000D03*
G04 #@! TO.P,U8,24*
G04 #@! TO.N,/VA9*
X172015000Y-78085000D03*
G04 #@! TO.P,U8,11*
G04 #@! TO.N,/VD0*
X156775000Y-93325000D03*
G04 #@! TO.P,U8,25*
G04 #@! TO.N,/VA8*
X172015000Y-75545000D03*
G04 #@! TO.P,U8,12*
G04 #@! TO.N,/VD1*
X156775000Y-95865000D03*
G04 #@! TO.P,U8,26*
G04 #@! TO.N,/VA13*
X172015000Y-73005000D03*
G04 #@! TO.P,U8,13*
G04 #@! TO.N,/VD2*
X156775000Y-98405000D03*
G04 #@! TO.P,U8,27*
G04 #@! TO.N,/R~W*
X172015000Y-70465000D03*
G04 #@! TO.P,U8,14*
G04 #@! TO.N,GND*
X156775000Y-100945000D03*
G04 #@! TO.P,U8,28*
G04 #@! TO.N,VCC*
X172015000Y-67925000D03*
G04 #@! TD*
D10*
G04 #@! TO.P,U4,1*
G04 #@! TO.N,/~RAS*
X104850000Y-66350000D03*
D14*
G04 #@! TO.P,U4,21*
G04 #@! TO.N,/D4*
X120090000Y-114610000D03*
G04 #@! TO.P,U4,2*
G04 #@! TO.N,/~CAS*
X104850000Y-68890000D03*
G04 #@! TO.P,U4,22*
G04 #@! TO.N,/D5*
X120090000Y-112070000D03*
G04 #@! TO.P,U4,3*
G04 #@! TO.N,/AD7*
X104850000Y-71430000D03*
G04 #@! TO.P,U4,23*
G04 #@! TO.N,/D6*
X120090000Y-109530000D03*
G04 #@! TO.P,U4,4*
G04 #@! TO.N,/AD6*
X104850000Y-73970000D03*
G04 #@! TO.P,U4,24*
G04 #@! TO.N,/D7*
X120090000Y-106990000D03*
G04 #@! TO.P,U4,5*
G04 #@! TO.N,/AD5*
X104850000Y-76510000D03*
G04 #@! TO.P,U4,25*
G04 #@! TO.N,/VD7*
X120090000Y-104450000D03*
G04 #@! TO.P,U4,6*
G04 #@! TO.N,/AD4*
X104850000Y-79050000D03*
G04 #@! TO.P,U4,26*
G04 #@! TO.N,/VD6*
X120090000Y-101910000D03*
G04 #@! TO.P,U4,7*
G04 #@! TO.N,/AD3*
X104850000Y-81590000D03*
G04 #@! TO.P,U4,27*
G04 #@! TO.N,/VD5*
X120090000Y-99370000D03*
G04 #@! TO.P,U4,8*
G04 #@! TO.N,/AD2*
X104850000Y-84130000D03*
G04 #@! TO.P,U4,28*
G04 #@! TO.N,/VD4*
X120090000Y-96830000D03*
G04 #@! TO.P,U4,9*
G04 #@! TO.N,/AD1*
X104850000Y-86670000D03*
G04 #@! TO.P,U4,29*
G04 #@! TO.N,/VD3*
X120090000Y-94290000D03*
G04 #@! TO.P,U4,10*
G04 #@! TO.N,/AD0*
X104850000Y-89210000D03*
G04 #@! TO.P,U4,30*
G04 #@! TO.N,/VD2*
X120090000Y-91750000D03*
G04 #@! TO.P,U4,11*
G04 #@! TO.N,/R~W*
X104850000Y-91750000D03*
G04 #@! TO.P,U4,31*
G04 #@! TO.N,/VD1*
X120090000Y-89210000D03*
G04 #@! TO.P,U4,12*
G04 #@! TO.N,GND*
X104850000Y-94290000D03*
G04 #@! TO.P,U4,32*
G04 #@! TO.N,/VD0*
X120090000Y-86670000D03*
G04 #@! TO.P,U4,13*
G04 #@! TO.N,/A0*
X104850000Y-96830000D03*
G04 #@! TO.P,U4,33*
G04 #@! TO.N,VCC*
X120090000Y-84130000D03*
G04 #@! TO.P,U4,14*
G04 #@! TO.N,/~CSW*
X104850000Y-99370000D03*
G04 #@! TO.P,U4,34*
G04 #@! TO.N,/~RES*
X120090000Y-81590000D03*
G04 #@! TO.P,U4,15*
G04 #@! TO.N,/~CSR*
X104850000Y-101910000D03*
G04 #@! TO.P,U4,35*
G04 #@! TO.N,/EXTVDP*
X120090000Y-79050000D03*
G04 #@! TO.P,U4,16*
G04 #@! TO.N,/~INT*
X104850000Y-104450000D03*
G04 #@! TO.P,U4,36*
G04 #@! TO.N,Net-(R2-Pad1)*
X120090000Y-76510000D03*
G04 #@! TO.P,U4,17*
G04 #@! TO.N,/D0*
X104850000Y-106990000D03*
G04 #@! TO.P,U4,37*
G04 #@! TO.N,/GROMCLK*
X120090000Y-73970000D03*
G04 #@! TO.P,U4,18*
G04 #@! TO.N,/D1*
X104850000Y-109530000D03*
G04 #@! TO.P,U4,38*
G04 #@! TO.N,/CPUCLK*
X120090000Y-71430000D03*
G04 #@! TO.P,U4,19*
G04 #@! TO.N,/D2*
X104850000Y-112070000D03*
G04 #@! TO.P,U4,39*
G04 #@! TO.N,Net-(C1-Pad1)*
X120090000Y-68890000D03*
G04 #@! TO.P,U4,20*
G04 #@! TO.N,/D3*
X104850000Y-114610000D03*
G04 #@! TO.P,U4,40*
G04 #@! TO.N,Net-(C2-Pad1)*
X120090000Y-66350000D03*
G04 #@! TD*
D17*
G04 #@! TO.P,Q1,2*
G04 #@! TO.N,Net-(C14-Pad1)*
X126040000Y-95000000D03*
G04 #@! TO.P,Q1,3*
G04 #@! TO.N,Net-(Q1-Pad3)*
X128580000Y-95000000D03*
D18*
G04 #@! TO.P,Q1,1*
G04 #@! TO.N,Net-(C15-Pad1)*
X123500000Y-95000000D03*
G04 #@! TD*
D11*
G04 #@! TO.P,R1,1*
G04 #@! TO.N,Net-(C15-Pad1)*
X123500000Y-104000000D03*
D14*
G04 #@! TO.P,R1,2*
G04 #@! TO.N,GND*
X133660000Y-104000000D03*
G04 #@! TD*
G04 #@! TO.P,R2,2*
G04 #@! TO.N,Net-(Q1-Pad3)*
X129000000Y-89660000D03*
D11*
G04 #@! TO.P,R2,1*
G04 #@! TO.N,Net-(R2-Pad1)*
X129000000Y-79500000D03*
G04 #@! TD*
G04 #@! TO.P,R3,1*
G04 #@! TO.N,Net-(Q1-Pad3)*
X125000000Y-89500000D03*
D14*
G04 #@! TO.P,R3,2*
G04 #@! TO.N,GND*
X125000000Y-79340000D03*
G04 #@! TD*
D19*
G04 #@! TO.N,/AD6*
X130270100Y-73242600D03*
G04 #@! TO.N,/VD6*
X169245100Y-93578900D03*
G04 #@! TO.N,/VD3*
X145105200Y-97041800D03*
G04 #@! TO.N,/~RES*
X144291200Y-71830900D03*
X136457600Y-79534600D03*
G04 #@! TO.N,/EXTVDP*
X161634900Y-69339700D03*
G04 #@! TO.N,/D7*
X119187300Y-58639500D03*
G04 #@! TO.N,/CPUCLK*
X132300900Y-64902100D03*
G04 #@! TO.N,/D5*
X130060300Y-58637100D03*
G04 #@! TO.N,/VA13*
X148406300Y-88234600D03*
G04 #@! TO.N,/VA12*
X151187100Y-84985700D03*
G04 #@! TO.N,Net-(JP1-Pad2)*
X173736600Y-90634200D03*
G04 #@! TO.N,/RES*
X165772800Y-71735000D03*
G04 #@! TO.N,/~IOW*
X177322000Y-63620200D03*
G04 #@! TO.N,/~IOR*
X166534400Y-91756900D03*
G04 #@! TD*
D20*
G04 #@! TO.N,Net-(Q1-Pad3)*
X129000000Y-89660000D02*
X127874700Y-89660000D01*
X125000000Y-89500000D02*
X127714700Y-89500000D01*
X127714700Y-89500000D02*
X127874700Y-89660000D01*
D21*
G04 #@! TO.N,GND*
X176500000Y-85240000D02*
X177800300Y-85240000D01*
X182000000Y-88000000D02*
X180560300Y-88000000D01*
X180560300Y-88000000D02*
X177800300Y-85240000D01*
X188500000Y-94740000D02*
X189800300Y-94740000D01*
X189800300Y-94740000D02*
X192560300Y-97500000D01*
X192560300Y-97500000D02*
X194000000Y-97500000D01*
X182000000Y-66500000D02*
X181291300Y-65791300D01*
X181291300Y-65791300D02*
X152708700Y-65791300D01*
X152708700Y-65791300D02*
X151000000Y-67500000D01*
X190650000Y-73200000D02*
X189299700Y-73200000D01*
X184120000Y-72540000D02*
X188639700Y-72540000D01*
X188639700Y-72540000D02*
X189299700Y-73200000D01*
X129500000Y-72000000D02*
X130699700Y-72000000D01*
X130699700Y-72000000D02*
X132199700Y-70500000D01*
X126725000Y-60085000D02*
X129265000Y-60085000D01*
X146000000Y-121860000D02*
X144699700Y-121860000D01*
X136500000Y-122660000D02*
X137800300Y-122660000D01*
X137800300Y-122660000D02*
X139263200Y-121197100D01*
X139263200Y-121197100D02*
X144036800Y-121197100D01*
X144036800Y-121197100D02*
X144699700Y-121860000D01*
X138500000Y-67500000D02*
X135500000Y-70500000D01*
X135500000Y-70500000D02*
X133500000Y-70500000D01*
X129500000Y-67000000D02*
X132199700Y-69699700D01*
X132199700Y-69699700D02*
X132199700Y-70500000D01*
X190650000Y-73200000D02*
X192000300Y-73200000D01*
X192000300Y-73200000D02*
X192000300Y-74500300D01*
X192000300Y-74500300D02*
X194000000Y-76500000D01*
X176500000Y-80160000D02*
X177800300Y-80160000D01*
X177800300Y-80160000D02*
X180340300Y-77620000D01*
X180340300Y-77620000D02*
X184120000Y-77620000D01*
X188500000Y-115740000D02*
X189800300Y-115740000D01*
X196120000Y-113200000D02*
X192340300Y-113200000D01*
X192340300Y-113200000D02*
X189800300Y-115740000D01*
X133500000Y-70500000D02*
X132199700Y-70500000D01*
X104850000Y-94290000D02*
X110790000Y-94290000D01*
X110790000Y-94290000D02*
X111000000Y-94500000D01*
D20*
G04 #@! TO.N,Net-(R2-Pad1)*
X121215300Y-76510000D02*
X122130100Y-77424800D01*
X122130100Y-77424800D02*
X126924800Y-77424800D01*
X126924800Y-77424800D02*
X129000000Y-79500000D01*
X120090000Y-76510000D02*
X121215300Y-76510000D01*
G04 #@! TO.N,/~CAS*
X172015000Y-88245000D02*
X173140300Y-88245000D01*
X188500000Y-89660000D02*
X187374700Y-89660000D01*
X187374700Y-89660000D02*
X186908300Y-89193600D01*
X186908300Y-89193600D02*
X174088900Y-89193600D01*
X174088900Y-89193600D02*
X173140300Y-88245000D01*
G04 #@! TO.N,/AD7*
X133500000Y-90820000D02*
X134625300Y-90820000D01*
X145500000Y-90820000D02*
X144374700Y-90820000D01*
X144374700Y-90820000D02*
X143249400Y-91945300D01*
X143249400Y-91945300D02*
X135750600Y-91945300D01*
X135750600Y-91945300D02*
X134625300Y-90820000D01*
G04 #@! TO.N,/AD6*
X104850000Y-73970000D02*
X105975300Y-73970000D01*
X105975300Y-73970000D02*
X107111900Y-72833400D01*
X107111900Y-72833400D02*
X128533200Y-72833400D01*
X128533200Y-72833400D02*
X128942400Y-73242600D01*
X128942400Y-73242600D02*
X130270100Y-73242600D01*
X144374700Y-88280000D02*
X143249400Y-89405300D01*
X143249400Y-89405300D02*
X135750600Y-89405300D01*
X135750600Y-89405300D02*
X134625300Y-88280000D01*
X145500000Y-88280000D02*
X144374700Y-88280000D01*
X133500000Y-88280000D02*
X134625300Y-88280000D01*
G04 #@! TO.N,/D0*
X136885000Y-62625000D02*
X135709700Y-62625000D01*
X104850000Y-106990000D02*
X104850000Y-105864700D01*
X104850000Y-105864700D02*
X104568700Y-105864700D01*
X104568700Y-105864700D02*
X101858900Y-103154900D01*
X101858900Y-103154900D02*
X101858900Y-75363600D01*
X101858900Y-75363600D02*
X104522500Y-72700000D01*
X104522500Y-72700000D02*
X105215400Y-72700000D01*
X105215400Y-72700000D02*
X117040800Y-60874600D01*
X117040800Y-60874600D02*
X124508700Y-60874600D01*
X124508700Y-60874600D02*
X125083800Y-61449700D01*
X125083800Y-61449700D02*
X134901800Y-61449700D01*
X134901800Y-61449700D02*
X135709700Y-62257600D01*
X135709700Y-62257600D02*
X135709700Y-62625000D01*
G04 #@! TO.N,/AD5*
X104850000Y-77635300D02*
X104568700Y-77635300D01*
X104568700Y-77635300D02*
X102317200Y-79886800D01*
X102317200Y-79886800D02*
X102317200Y-93402400D01*
X102317200Y-93402400D02*
X104474800Y-95560000D01*
X104474800Y-95560000D02*
X106177200Y-95560000D01*
X106177200Y-95560000D02*
X111257200Y-100640000D01*
X111257200Y-100640000D02*
X121577900Y-100640000D01*
X121577900Y-100640000D02*
X123759200Y-102821300D01*
X123759200Y-102821300D02*
X136389200Y-102821300D01*
X136389200Y-102821300D02*
X139125400Y-105557500D01*
X139125400Y-105557500D02*
X139125400Y-106521400D01*
X139125400Y-106521400D02*
X145718700Y-113114700D01*
X145718700Y-113114700D02*
X146000000Y-113114700D01*
X146000000Y-114240000D02*
X146000000Y-113114700D01*
X104850000Y-76510000D02*
X104850000Y-77635300D01*
X144374700Y-85740000D02*
X143249400Y-86865300D01*
X143249400Y-86865300D02*
X135750600Y-86865300D01*
X135750600Y-86865300D02*
X134625300Y-85740000D01*
X133500000Y-85740000D02*
X134625300Y-85740000D01*
X145500000Y-85740000D02*
X144374700Y-85740000D01*
G04 #@! TO.N,/VD7*
X153620000Y-119320000D02*
X152494700Y-119320000D01*
X120090000Y-104450000D02*
X121215300Y-104450000D01*
X121215300Y-104450000D02*
X127096600Y-110331300D01*
X127096600Y-110331300D02*
X130979100Y-110331300D01*
X130979100Y-110331300D02*
X138842500Y-118194700D01*
X138842500Y-118194700D02*
X151369400Y-118194700D01*
X151369400Y-118194700D02*
X152494700Y-119320000D01*
G04 #@! TO.N,/AD4*
X132374700Y-83200000D02*
X130259400Y-85315300D01*
X130259400Y-85315300D02*
X117604200Y-85315300D01*
X117604200Y-85315300D02*
X115087100Y-87832400D01*
X115087100Y-87832400D02*
X104392900Y-87832400D01*
X104392900Y-87832400D02*
X102779000Y-86218500D01*
X102779000Y-86218500D02*
X102779000Y-81121000D01*
X102779000Y-81121000D02*
X104850000Y-79050000D01*
X133500000Y-83200000D02*
X132374700Y-83200000D01*
X145500000Y-83200000D02*
X144374700Y-83200000D01*
X133500000Y-83200000D02*
X134625300Y-83200000D01*
X134625300Y-83200000D02*
X135750600Y-84325300D01*
X135750600Y-84325300D02*
X143249400Y-84325300D01*
X143249400Y-84325300D02*
X144374700Y-83200000D01*
G04 #@! TO.N,/VD6*
X170889700Y-93325000D02*
X170635800Y-93578900D01*
X170635800Y-93578900D02*
X169245100Y-93578900D01*
X172015000Y-93325000D02*
X170889700Y-93325000D01*
X153620000Y-116780000D02*
X152494700Y-116780000D01*
X120090000Y-101910000D02*
X120090000Y-103035300D01*
X120090000Y-103035300D02*
X120934100Y-103035300D01*
X120934100Y-103035300D02*
X123839300Y-105940500D01*
X123839300Y-105940500D02*
X131731800Y-105940500D01*
X131731800Y-105940500D02*
X141446000Y-115654700D01*
X141446000Y-115654700D02*
X151369400Y-115654700D01*
X151369400Y-115654700D02*
X152494700Y-116780000D01*
G04 #@! TO.N,/AD3*
X133500000Y-80660000D02*
X132374700Y-80660000D01*
X104850000Y-81590000D02*
X104850000Y-82715300D01*
X104850000Y-82715300D02*
X104568700Y-82715300D01*
X104568700Y-82715300D02*
X103682700Y-83601300D01*
X103682700Y-83601300D02*
X103682700Y-84554400D01*
X103682700Y-84554400D02*
X104388800Y-85260500D01*
X104388800Y-85260500D02*
X115223800Y-85260500D01*
X115223800Y-85260500D02*
X117624300Y-82860000D01*
X117624300Y-82860000D02*
X130174700Y-82860000D01*
X130174700Y-82860000D02*
X132374700Y-80660000D01*
X145500000Y-80660000D02*
X144374700Y-80660000D01*
X133500000Y-80660000D02*
X134625300Y-80660000D01*
X134625300Y-80660000D02*
X135750600Y-81785300D01*
X135750600Y-81785300D02*
X143249400Y-81785300D01*
X143249400Y-81785300D02*
X144374700Y-80660000D01*
G04 #@! TO.N,/VD5*
X153620000Y-114240000D02*
X152494700Y-114240000D01*
X120090000Y-99370000D02*
X121215300Y-99370000D01*
X121215300Y-99370000D02*
X123920000Y-102074700D01*
X123920000Y-102074700D02*
X136318300Y-102074700D01*
X136318300Y-102074700D02*
X140022300Y-105778700D01*
X140022300Y-105778700D02*
X140022300Y-106645300D01*
X140022300Y-106645300D02*
X143903200Y-110526200D01*
X143903200Y-110526200D02*
X148780900Y-110526200D01*
X148780900Y-110526200D02*
X152494700Y-114240000D01*
X172015000Y-95865000D02*
X172015000Y-96990300D01*
X153620000Y-114240000D02*
X154745300Y-114240000D01*
X154745300Y-114240000D02*
X159160700Y-109824600D01*
X159160700Y-109824600D02*
X163879600Y-109824600D01*
X163879600Y-109824600D02*
X167810000Y-105894200D01*
X167810000Y-105894200D02*
X167810000Y-105011300D01*
X167810000Y-105011300D02*
X170390800Y-102430500D01*
X170390800Y-102430500D02*
X172136700Y-102430500D01*
X172136700Y-102430500D02*
X173140300Y-101426900D01*
X173140300Y-101426900D02*
X173140300Y-97834200D01*
X173140300Y-97834200D02*
X172296400Y-96990300D01*
X172296400Y-96990300D02*
X172015000Y-96990300D01*
G04 #@! TO.N,/AD2*
X133500000Y-78120000D02*
X132374700Y-78120000D01*
X104850000Y-84130000D02*
X105975300Y-84130000D01*
X105975300Y-84130000D02*
X109670500Y-80434800D01*
X109670500Y-80434800D02*
X120706500Y-80434800D01*
X120706500Y-80434800D02*
X120904700Y-80633000D01*
X120904700Y-80633000D02*
X129861700Y-80633000D01*
X129861700Y-80633000D02*
X132374700Y-78120000D01*
G04 #@! TO.N,/VD4*
X151369400Y-109778900D02*
X151369400Y-110574700D01*
X151369400Y-110574700D02*
X152494700Y-111700000D01*
X172015000Y-98405000D02*
X163635200Y-98405000D01*
X163635200Y-98405000D02*
X154150200Y-107890000D01*
X154150200Y-107890000D02*
X153258300Y-107890000D01*
X153258300Y-107890000D02*
X151369400Y-109778900D01*
X120090000Y-96830000D02*
X121921500Y-96830000D01*
X121921500Y-96830000D02*
X126715900Y-101624400D01*
X126715900Y-101624400D02*
X138364900Y-101624400D01*
X138364900Y-101624400D02*
X144630500Y-107890000D01*
X144630500Y-107890000D02*
X149480500Y-107890000D01*
X149480500Y-107890000D02*
X151369400Y-109778900D01*
X153620000Y-111700000D02*
X152494700Y-111700000D01*
G04 #@! TO.N,/AD1*
X104850000Y-86670000D02*
X103232300Y-85052300D01*
X103232300Y-85052300D02*
X103232300Y-81615000D01*
X103232300Y-81615000D02*
X104637600Y-80209700D01*
X104637600Y-80209700D02*
X107172700Y-80209700D01*
X107172700Y-80209700D02*
X112006300Y-75376100D01*
X112006300Y-75376100D02*
X120744800Y-75376100D01*
X120744800Y-75376100D02*
X121463500Y-76094800D01*
X121463500Y-76094800D02*
X131859900Y-76094800D01*
X131859900Y-76094800D02*
X132374700Y-75580000D01*
X133500000Y-75580000D02*
X132374700Y-75580000D01*
X133500000Y-75580000D02*
X134625300Y-75580000D01*
X145500000Y-75580000D02*
X144374700Y-75580000D01*
X144374700Y-75580000D02*
X143249400Y-76705300D01*
X143249400Y-76705300D02*
X135750600Y-76705300D01*
X135750600Y-76705300D02*
X134625300Y-75580000D01*
G04 #@! TO.N,/VD3*
X120090000Y-94290000D02*
X121215300Y-94290000D01*
X121215300Y-94290000D02*
X121215300Y-94675400D01*
X121215300Y-94675400D02*
X122826600Y-96286700D01*
X122826600Y-96286700D02*
X144350100Y-96286700D01*
X144350100Y-96286700D02*
X145105200Y-97041800D01*
X154745300Y-109160000D02*
X162960300Y-100945000D01*
X162960300Y-100945000D02*
X172015000Y-100945000D01*
X153620000Y-109160000D02*
X154745300Y-109160000D01*
G04 #@! TO.N,/AD0*
X146000000Y-100414700D02*
X146703400Y-100414700D01*
X146703400Y-100414700D02*
X147125300Y-99992800D01*
X147125300Y-99992800D02*
X147125300Y-97922900D01*
X147125300Y-97922900D02*
X145038800Y-95836400D01*
X145038800Y-95836400D02*
X130937400Y-95836400D01*
X130937400Y-95836400D02*
X128980200Y-93879200D01*
X128980200Y-93879200D02*
X122485600Y-93879200D01*
X122485600Y-93879200D02*
X121481800Y-92875400D01*
X121481800Y-92875400D02*
X118061900Y-92875400D01*
X118061900Y-92875400D02*
X114396500Y-89210000D01*
X114396500Y-89210000D02*
X104850000Y-89210000D01*
X133500000Y-73040000D02*
X134625300Y-73040000D01*
X145500000Y-73040000D02*
X143655300Y-73040000D01*
X143655300Y-73040000D02*
X142530000Y-74165300D01*
X142530000Y-74165300D02*
X135750600Y-74165300D01*
X135750600Y-74165300D02*
X134625300Y-73040000D01*
X146000000Y-101540000D02*
X146000000Y-100414700D01*
G04 #@! TO.N,/VD2*
X153620000Y-106620000D02*
X153620000Y-105494700D01*
X155649700Y-98405000D02*
X155649700Y-103746300D01*
X155649700Y-103746300D02*
X153901300Y-105494700D01*
X153901300Y-105494700D02*
X153620000Y-105494700D01*
X121215300Y-91750000D02*
X122894100Y-93428800D01*
X122894100Y-93428800D02*
X130081700Y-93428800D01*
X130081700Y-93428800D02*
X132038900Y-95386000D01*
X132038900Y-95386000D02*
X147386300Y-95386000D01*
X147386300Y-95386000D02*
X149751300Y-97751000D01*
X149751300Y-97751000D02*
X154995700Y-97751000D01*
X154995700Y-97751000D02*
X155649700Y-98405000D01*
X120090000Y-91750000D02*
X121215300Y-91750000D01*
X156775000Y-98405000D02*
X155649700Y-98405000D01*
G04 #@! TO.N,/R~W*
X104850000Y-91750000D02*
X113758300Y-91750000D01*
X113758300Y-91750000D02*
X117623500Y-95615200D01*
X117623500Y-95615200D02*
X121343700Y-95615200D01*
X121343700Y-95615200D02*
X126902500Y-101174000D01*
X126902500Y-101174000D02*
X142700700Y-101174000D01*
X142700700Y-101174000D02*
X144874700Y-99000000D01*
X146000000Y-99000000D02*
X144874700Y-99000000D01*
X188500000Y-79500000D02*
X187374700Y-79500000D01*
X172015000Y-70465000D02*
X173140300Y-70465000D01*
X173140300Y-70465000D02*
X173140300Y-70781500D01*
X173140300Y-70781500D02*
X176168800Y-73810000D01*
X176168800Y-73810000D02*
X181049800Y-73810000D01*
X181049800Y-73810000D02*
X183589800Y-76350000D01*
X183589800Y-76350000D02*
X184506000Y-76350000D01*
X184506000Y-76350000D02*
X187374700Y-79218700D01*
X187374700Y-79218700D02*
X187374700Y-79500000D01*
G04 #@! TO.N,/VD1*
X121215300Y-89210000D02*
X124943300Y-92938000D01*
X124943300Y-92938000D02*
X130670000Y-92938000D01*
X130670000Y-92938000D02*
X132667600Y-94935600D01*
X132667600Y-94935600D02*
X154720300Y-94935600D01*
X154720300Y-94935600D02*
X155649700Y-95865000D01*
X156775000Y-95865000D02*
X155649700Y-95865000D01*
X120090000Y-89210000D02*
X121215300Y-89210000D01*
G04 #@! TO.N,/VD0*
X156775000Y-93325000D02*
X155649700Y-93325000D01*
X120090000Y-86670000D02*
X121215300Y-86670000D01*
X121215300Y-86670000D02*
X121215300Y-87373300D01*
X121215300Y-87373300D02*
X125932000Y-92090000D01*
X125932000Y-92090000D02*
X134319800Y-92090000D01*
X134319800Y-92090000D02*
X136715100Y-94485300D01*
X136715100Y-94485300D02*
X149013100Y-94485300D01*
X149013100Y-94485300D02*
X151280300Y-92218100D01*
X151280300Y-92218100D02*
X154542800Y-92218100D01*
X154542800Y-92218100D02*
X155649700Y-93325000D01*
D21*
G04 #@! TO.N,VCC*
X172015000Y-67925000D02*
X170714700Y-67925000D01*
X153500000Y-67500000D02*
X154375300Y-66624700D01*
X154375300Y-66624700D02*
X169414400Y-66624700D01*
X169414400Y-66624700D02*
X170714700Y-67925000D01*
X129265000Y-63975300D02*
X131461000Y-66171300D01*
X131461000Y-66171300D02*
X139671300Y-66171300D01*
X139671300Y-66171300D02*
X141000000Y-67500000D01*
X129265000Y-62625000D02*
X129265000Y-63975300D01*
X129265000Y-62625000D02*
X126725000Y-62625000D01*
X153120000Y-70500000D02*
X151819700Y-70500000D01*
X141120000Y-70500000D02*
X142420300Y-70500000D01*
X142420300Y-70500000D02*
X143720600Y-69199700D01*
X143720600Y-69199700D02*
X150519400Y-69199700D01*
X150519400Y-69199700D02*
X151819700Y-70500000D01*
X172015000Y-67925000D02*
X180744700Y-67925000D01*
X180744700Y-67925000D02*
X182819700Y-70000000D01*
X184120000Y-70000000D02*
X182819700Y-70000000D01*
X126725000Y-62625000D02*
X125374700Y-62625000D01*
X118000000Y-62000000D02*
X124749700Y-62000000D01*
X124749700Y-62000000D02*
X125374700Y-62625000D01*
D20*
G04 #@! TO.N,/~CSW*
X187374700Y-113200000D02*
X176788300Y-123786400D01*
X176788300Y-123786400D02*
X130348200Y-123786400D01*
X130348200Y-123786400D02*
X125087000Y-118525200D01*
X125087000Y-118525200D02*
X121316100Y-118525200D01*
X121316100Y-118525200D02*
X106044800Y-103253900D01*
X106044800Y-103253900D02*
X104558500Y-103253900D01*
X104558500Y-103253900D02*
X103677600Y-102373000D01*
X103677600Y-102373000D02*
X103677600Y-101386400D01*
X103677600Y-101386400D02*
X104568700Y-100495300D01*
X104568700Y-100495300D02*
X104850000Y-100495300D01*
X188500000Y-113200000D02*
X187374700Y-113200000D01*
X104850000Y-99370000D02*
X104850000Y-100495300D01*
G04 #@! TO.N,/~RES*
X136457600Y-79534600D02*
X132150400Y-79534600D01*
X132150400Y-79534600D02*
X130095000Y-81590000D01*
X130095000Y-81590000D02*
X120090000Y-81590000D01*
X176500000Y-77620000D02*
X175374700Y-77620000D01*
X144291200Y-71830900D02*
X157996300Y-71830900D01*
X157996300Y-71830900D02*
X160440400Y-74275000D01*
X160440400Y-74275000D02*
X172346200Y-74275000D01*
X172346200Y-74275000D02*
X175374700Y-77303500D01*
X175374700Y-77303500D02*
X175374700Y-77620000D01*
G04 #@! TO.N,/~CSR*
X188500000Y-106705300D02*
X187943100Y-106705300D01*
X187943100Y-106705300D02*
X174203000Y-120445400D01*
X174203000Y-120445400D02*
X137019400Y-120445400D01*
X137019400Y-120445400D02*
X131824000Y-115250000D01*
X131824000Y-115250000D02*
X125417700Y-115250000D01*
X125417700Y-115250000D02*
X120967700Y-110800000D01*
X120967700Y-110800000D02*
X114865300Y-110800000D01*
X114865300Y-110800000D02*
X105975300Y-101910000D01*
X188500000Y-105580000D02*
X188500000Y-106705300D01*
X104850000Y-101910000D02*
X105975300Y-101910000D01*
G04 #@! TO.N,/EXTVDP*
X161634900Y-69339700D02*
X172802900Y-69339700D01*
X172802900Y-69339700D02*
X174638200Y-71175000D01*
X174638200Y-71175000D02*
X186419700Y-71175000D01*
X186419700Y-71175000D02*
X189474700Y-68120000D01*
X190650000Y-68120000D02*
X189474700Y-68120000D01*
G04 #@! TO.N,/~INT*
X196120000Y-82040000D02*
X196120000Y-83165300D01*
X104850000Y-104450000D02*
X105975300Y-104450000D01*
X105975300Y-104450000D02*
X105975300Y-104872000D01*
X105975300Y-104872000D02*
X125340100Y-124236800D01*
X125340100Y-124236800D02*
X178203000Y-124236800D01*
X178203000Y-124236800D02*
X187969800Y-114470000D01*
X187969800Y-114470000D02*
X188873900Y-114470000D01*
X188873900Y-114470000D02*
X194900100Y-108443800D01*
X194900100Y-108443800D02*
X194900100Y-99288900D01*
X194900100Y-99288900D02*
X195250000Y-98939000D01*
X195250000Y-98939000D02*
X195250000Y-97158500D01*
X195250000Y-97158500D02*
X196339100Y-96069400D01*
X196339100Y-96069400D02*
X196452500Y-96069400D01*
X196452500Y-96069400D02*
X197245300Y-95276600D01*
X197245300Y-95276600D02*
X197245300Y-84009200D01*
X197245300Y-84009200D02*
X196401400Y-83165300D01*
X196401400Y-83165300D02*
X196120000Y-83165300D01*
G04 #@! TO.N,/D7*
X143329700Y-60085000D02*
X143329700Y-59717700D01*
X143329700Y-59717700D02*
X141489100Y-57877100D01*
X141489100Y-57877100D02*
X119949700Y-57877100D01*
X119949700Y-57877100D02*
X119187300Y-58639500D01*
X144505000Y-60085000D02*
X143329700Y-60085000D01*
G04 #@! TO.N,/GROMCLK*
X121215300Y-73970000D02*
X122889700Y-75644400D01*
X122889700Y-75644400D02*
X129959100Y-75644400D01*
X129959100Y-75644400D02*
X131815700Y-73787800D01*
X131815700Y-73787800D02*
X131815700Y-73044500D01*
X131815700Y-73044500D02*
X132970700Y-71889500D01*
X132970700Y-71889500D02*
X138027000Y-71889500D01*
X138027000Y-71889500D02*
X140541900Y-69374600D01*
X140541900Y-69374600D02*
X141325100Y-69374600D01*
X141325100Y-69374600D02*
X145536300Y-65163400D01*
X145536300Y-65163400D02*
X189058100Y-65163400D01*
X189058100Y-65163400D02*
X189474700Y-65580000D01*
X190650000Y-65580000D02*
X189474700Y-65580000D01*
X120090000Y-73970000D02*
X121215300Y-73970000D01*
G04 #@! TO.N,/CPUCLK*
X189474700Y-63040000D02*
X187801700Y-64713000D01*
X187801700Y-64713000D02*
X132490000Y-64713000D01*
X132490000Y-64713000D02*
X132300900Y-64902100D01*
X190650000Y-63040000D02*
X189474700Y-63040000D01*
G04 #@! TO.N,/D5*
X141965000Y-60085000D02*
X140789700Y-60085000D01*
X130060300Y-58637100D02*
X139709100Y-58637100D01*
X139709100Y-58637100D02*
X140789700Y-59717700D01*
X140789700Y-59717700D02*
X140789700Y-60085000D01*
G04 #@! TO.N,Net-(C1-Pad1)*
X125000000Y-74000000D02*
X129000000Y-74000000D01*
X129000000Y-74000000D02*
X129500000Y-74500000D01*
G04 #@! TO.N,Net-(C2-Pad1)*
X120090000Y-66350000D02*
X121215300Y-66350000D01*
X121215300Y-66350000D02*
X123985300Y-69120000D01*
X123985300Y-69120000D02*
X125000000Y-69120000D01*
X129500000Y-69500000D02*
X125380000Y-69500000D01*
X125380000Y-69500000D02*
X125000000Y-69120000D01*
G04 #@! TO.N,/VA13*
X148406300Y-88234600D02*
X147235500Y-89405400D01*
X147235500Y-89405400D02*
X145152400Y-89405400D01*
X145152400Y-89405400D02*
X143737800Y-90820000D01*
X143737800Y-90820000D02*
X141120000Y-90820000D01*
X172015000Y-73005000D02*
X162980300Y-73005000D01*
X162980300Y-73005000D02*
X157900300Y-67925000D01*
X156775000Y-67925000D02*
X157900300Y-67925000D01*
G04 #@! TO.N,/VA12*
X151187100Y-84985700D02*
X149307400Y-86865400D01*
X149307400Y-86865400D02*
X145152400Y-86865400D01*
X145152400Y-86865400D02*
X143737800Y-88280000D01*
X143737800Y-88280000D02*
X141120000Y-88280000D01*
G04 #@! TO.N,/VA7*
X141120000Y-75580000D02*
X142245300Y-75580000D01*
X156775000Y-73005000D02*
X155649700Y-73005000D01*
X155649700Y-73005000D02*
X154200000Y-74454700D01*
X154200000Y-74454700D02*
X143370600Y-74454700D01*
X143370600Y-74454700D02*
X142245300Y-75580000D01*
G04 #@! TO.N,/VA3*
X153120000Y-83200000D02*
X154245300Y-83200000D01*
X156775000Y-83165000D02*
X154280300Y-83165000D01*
X154280300Y-83165000D02*
X154245300Y-83200000D01*
G04 #@! TO.N,/VA10*
X172015000Y-84579700D02*
X171733700Y-84579700D01*
X171733700Y-84579700D02*
X170889600Y-83735600D01*
X170889600Y-83735600D02*
X170889600Y-82692900D01*
X170889600Y-82692900D02*
X171687500Y-81895000D01*
X171687500Y-81895000D02*
X172336700Y-81895000D01*
X172336700Y-81895000D02*
X173143900Y-81087800D01*
X173143900Y-81087800D02*
X173143900Y-80141600D01*
X173143900Y-80141600D02*
X172489300Y-79487000D01*
X172489300Y-79487000D02*
X170507500Y-79487000D01*
X170507500Y-79487000D02*
X168209100Y-81785400D01*
X168209100Y-81785400D02*
X145152400Y-81785400D01*
X145152400Y-81785400D02*
X143737800Y-83200000D01*
X143737800Y-83200000D02*
X141120000Y-83200000D01*
X172015000Y-85705000D02*
X172015000Y-84579700D01*
G04 #@! TO.N,/~R~W*
X188500000Y-82040000D02*
X187374700Y-82040000D01*
X172015000Y-83165000D02*
X173140300Y-83165000D01*
X173140300Y-83165000D02*
X174731400Y-81573900D01*
X174731400Y-81573900D02*
X186908600Y-81573900D01*
X186908600Y-81573900D02*
X187374700Y-82040000D01*
G04 #@! TO.N,/VA11*
X170889700Y-80625000D02*
X167189300Y-84325400D01*
X167189300Y-84325400D02*
X151552600Y-84325400D01*
X151552600Y-84325400D02*
X151487600Y-84260400D01*
X151487600Y-84260400D02*
X150886700Y-84260400D01*
X150886700Y-84260400D02*
X150821700Y-84325400D01*
X150821700Y-84325400D02*
X145152400Y-84325400D01*
X145152400Y-84325400D02*
X143737800Y-85740000D01*
X143737800Y-85740000D02*
X141120000Y-85740000D01*
X172015000Y-80625000D02*
X170889700Y-80625000D01*
G04 #@! TO.N,/VA9*
X141120000Y-80660000D02*
X142245300Y-80660000D01*
X170889700Y-78085000D02*
X169331000Y-79643700D01*
X169331000Y-79643700D02*
X163052200Y-79643700D01*
X163052200Y-79643700D02*
X162853000Y-79444500D01*
X162853000Y-79444500D02*
X143460800Y-79444500D01*
X143460800Y-79444500D02*
X142245300Y-80660000D01*
X172015000Y-78085000D02*
X170889700Y-78085000D01*
G04 #@! TO.N,/VA8*
X172015000Y-75545000D02*
X170889700Y-75545000D01*
X170889700Y-75545000D02*
X169584700Y-76850000D01*
X169584700Y-76850000D02*
X144680300Y-76850000D01*
X144680300Y-76850000D02*
X143410300Y-78120000D01*
X143410300Y-78120000D02*
X141120000Y-78120000D01*
G04 #@! TO.N,/COL*
X194994700Y-89660000D02*
X191184700Y-85850000D01*
X191184700Y-85850000D02*
X186718200Y-85850000D01*
X186718200Y-85850000D02*
X184972800Y-84104600D01*
X184972800Y-84104600D02*
X175233600Y-84104600D01*
X175233600Y-84104600D02*
X172289300Y-87048900D01*
X172289300Y-87048900D02*
X169034300Y-87048900D01*
X169034300Y-87048900D02*
X166568200Y-89515000D01*
X166568200Y-89515000D02*
X152407200Y-89515000D01*
X152407200Y-89515000D02*
X149832200Y-92090000D01*
X149832200Y-92090000D02*
X144234700Y-92090000D01*
X144234700Y-92090000D02*
X142964700Y-93360000D01*
X142964700Y-93360000D02*
X141120000Y-93360000D01*
X196120000Y-89660000D02*
X194994700Y-89660000D01*
G04 #@! TO.N,/ROW*
X188500000Y-87120000D02*
X188500000Y-88245300D01*
X153120000Y-93360000D02*
X154245300Y-93360000D01*
X154245300Y-93360000D02*
X155335700Y-94450400D01*
X155335700Y-94450400D02*
X162031300Y-94450400D01*
X162031300Y-94450400D02*
X165469600Y-91012100D01*
X165469600Y-91012100D02*
X169132800Y-91012100D01*
X169132800Y-91012100D02*
X170035300Y-91914600D01*
X170035300Y-91914600D02*
X185680200Y-91914600D01*
X185680200Y-91914600D02*
X186664800Y-90930000D01*
X186664800Y-90930000D02*
X188821800Y-90930000D01*
X188821800Y-90930000D02*
X189625300Y-90126500D01*
X189625300Y-90126500D02*
X189625300Y-89089200D01*
X189625300Y-89089200D02*
X188781400Y-88245300D01*
X188781400Y-88245300D02*
X188500000Y-88245300D01*
G04 #@! TO.N,Net-(JP1-Pad2)*
X176500000Y-90500000D02*
X173870800Y-90500000D01*
X173870800Y-90500000D02*
X173736600Y-90634200D01*
G04 #@! TO.N,Net-(J5-Pad2)*
X165215300Y-118620000D02*
X166390600Y-119795300D01*
X166390600Y-119795300D02*
X174205100Y-119795300D01*
X174205100Y-119795300D02*
X186924400Y-107076000D01*
X186924400Y-107076000D02*
X186924400Y-105482700D01*
X186924400Y-105482700D02*
X188097100Y-104310000D01*
X188097100Y-104310000D02*
X188869100Y-104310000D01*
X188869100Y-104310000D02*
X190093200Y-103085900D01*
X190093200Y-103085900D02*
X190093200Y-99289600D01*
X190093200Y-99289600D02*
X184968900Y-94165300D01*
X184968900Y-94165300D02*
X184120000Y-94165300D01*
X164040000Y-118620000D02*
X165215300Y-118620000D01*
X184120000Y-93040000D02*
X184120000Y-94165300D01*
X164040000Y-111000000D02*
X164040000Y-113540000D01*
X164040000Y-116080000D02*
X164040000Y-113540000D01*
X164040000Y-118620000D02*
X164040000Y-116080000D01*
G04 #@! TO.N,Net-(J4-Pad3)*
X169000000Y-113540000D02*
X170175300Y-113540000D01*
X184120000Y-103200000D02*
X182994700Y-103200000D01*
X182994700Y-103200000D02*
X182994700Y-103481300D01*
X182994700Y-103481300D02*
X174111300Y-112364700D01*
X174111300Y-112364700D02*
X170983200Y-112364700D01*
X170983200Y-112364700D02*
X170175300Y-113172600D01*
X170175300Y-113172600D02*
X170175300Y-113540000D01*
G04 #@! TO.N,Net-(J4-Pad2)*
X187374700Y-100500000D02*
X187374700Y-101542100D01*
X187374700Y-101542100D02*
X184591400Y-104325400D01*
X184591400Y-104325400D02*
X183772400Y-104325400D01*
X183772400Y-104325400D02*
X174557800Y-113540000D01*
X174557800Y-113540000D02*
X171540000Y-113540000D01*
X188500000Y-100500000D02*
X187374700Y-100500000D01*
G04 #@! TO.N,Net-(J4-Pad1)*
X169000000Y-111000000D02*
X170175300Y-111000000D01*
X184120000Y-100660000D02*
X182994700Y-100660000D01*
X182994700Y-100660000D02*
X179184700Y-104470000D01*
X179184700Y-104470000D02*
X176117600Y-104470000D01*
X176117600Y-104470000D02*
X170175300Y-110412300D01*
X170175300Y-110412300D02*
X170175300Y-111000000D01*
G04 #@! TO.N,/RES*
X175374700Y-75080000D02*
X175374700Y-74763500D01*
X175374700Y-74763500D02*
X172346200Y-71735000D01*
X172346200Y-71735000D02*
X165772800Y-71735000D01*
X176500000Y-75080000D02*
X175374700Y-75080000D01*
G04 #@! TO.N,/~IOW*
X149585000Y-62625000D02*
X150760300Y-62625000D01*
X177322000Y-63620200D02*
X176679600Y-64262600D01*
X176679600Y-64262600D02*
X152030600Y-64262600D01*
X152030600Y-64262600D02*
X150760300Y-62992300D01*
X150760300Y-62992300D02*
X150760300Y-62625000D01*
G04 #@! TO.N,Net-(J4-Pad5)*
X169000000Y-116080000D02*
X170175300Y-116080000D01*
X184120000Y-105740000D02*
X182994700Y-105740000D01*
X182994700Y-105740000D02*
X173830000Y-114904700D01*
X173830000Y-114904700D02*
X170983200Y-114904700D01*
X170983200Y-114904700D02*
X170175300Y-115712600D01*
X170175300Y-115712600D02*
X170175300Y-116080000D01*
G04 #@! TO.N,/~IOR*
X188500000Y-101914700D02*
X189203300Y-101914700D01*
X189203300Y-101914700D02*
X189642900Y-101475100D01*
X189642900Y-101475100D02*
X189642900Y-99555800D01*
X189642900Y-99555800D02*
X187081700Y-96994600D01*
X187081700Y-96994600D02*
X180682900Y-96994600D01*
X180682900Y-96994600D02*
X178138700Y-94450400D01*
X178138700Y-94450400D02*
X169090900Y-94450400D01*
X169090900Y-94450400D02*
X166534400Y-91893900D01*
X166534400Y-91893900D02*
X166534400Y-91756900D01*
X188500000Y-103040000D02*
X188500000Y-101914700D01*
G04 #@! TO.N,Net-(U1-Pad6)*
X188500000Y-92200000D02*
X196120000Y-92200000D01*
G04 #@! TO.N,/CLK*
X190650000Y-60500000D02*
X189474700Y-60500000D01*
X134345000Y-60085000D02*
X135520300Y-60085000D01*
X135520300Y-60085000D02*
X135520300Y-60452300D01*
X135520300Y-60452300D02*
X136369600Y-61301600D01*
X136369600Y-61301600D02*
X188673100Y-61301600D01*
X188673100Y-61301600D02*
X189474700Y-60500000D01*
G04 #@! TO.N,Net-(C15-Pad1)*
X136874700Y-106500000D02*
X135749400Y-105374700D01*
X135749400Y-105374700D02*
X124874700Y-105374700D01*
X124874700Y-105374700D02*
X123500000Y-104000000D01*
X138000000Y-106500000D02*
X136874700Y-106500000D01*
G04 #@! TO.N,Net-(C14-Pad1)*
X133660000Y-100000000D02*
X134785300Y-100000000D01*
X134785300Y-100000000D02*
X137285300Y-97500000D01*
X137285300Y-97500000D02*
X139000000Y-97500000D01*
G04 #@! TO.N,Net-(J4-Pad7)*
X169000000Y-118620000D02*
X170175300Y-118620000D01*
X184120000Y-108280000D02*
X182994700Y-108280000D01*
X182994700Y-108280000D02*
X173830000Y-117444700D01*
X173830000Y-117444700D02*
X170983200Y-117444700D01*
X170983200Y-117444700D02*
X170175300Y-118252600D01*
X170175300Y-118252600D02*
X170175300Y-118620000D01*
G04 #@! TD*
D22*
G04 #@! TO.N,GND*
G36*
X199265000Y-124265000D02*
X179249601Y-124265000D01*
X183459170Y-120055431D01*
X192265000Y-120055431D01*
X192265000Y-120944569D01*
X192605259Y-121766026D01*
X193233974Y-122394741D01*
X194055431Y-122735000D01*
X194944569Y-122735000D01*
X195766026Y-122394741D01*
X196394741Y-121766026D01*
X196735000Y-120944569D01*
X196735000Y-120055431D01*
X196394741Y-119233974D01*
X195766026Y-118605259D01*
X194944569Y-118265000D01*
X194055431Y-118265000D01*
X193233974Y-118605259D01*
X192605259Y-119233974D01*
X192265000Y-120055431D01*
X183459170Y-120055431D01*
X187201075Y-116313526D01*
X187268959Y-116477423D01*
X187644866Y-116892389D01*
X188150959Y-117131914D01*
X188373000Y-117010629D01*
X188373000Y-115867000D01*
X188627000Y-115867000D01*
X188627000Y-117010629D01*
X188849041Y-117131914D01*
X189355134Y-116892389D01*
X189731041Y-116477423D01*
X189891904Y-116089039D01*
X189769915Y-115867000D01*
X188627000Y-115867000D01*
X188373000Y-115867000D01*
X188353000Y-115867000D01*
X188353000Y-115740000D01*
X194656887Y-115740000D01*
X194768260Y-116299909D01*
X195085423Y-116774577D01*
X195560091Y-117091740D01*
X195978667Y-117175000D01*
X196261333Y-117175000D01*
X196679909Y-117091740D01*
X197154577Y-116774577D01*
X197471740Y-116299909D01*
X197583113Y-115740000D01*
X197471740Y-115180091D01*
X197154577Y-114705423D01*
X196770892Y-114449053D01*
X196975134Y-114352389D01*
X197351041Y-113937423D01*
X197511904Y-113549039D01*
X197389915Y-113327000D01*
X196247000Y-113327000D01*
X196247000Y-113347000D01*
X195993000Y-113347000D01*
X195993000Y-113327000D01*
X194850085Y-113327000D01*
X194728096Y-113549039D01*
X194888959Y-113937423D01*
X195264866Y-114352389D01*
X195469108Y-114449053D01*
X195085423Y-114705423D01*
X194768260Y-115180091D01*
X194656887Y-115740000D01*
X188353000Y-115740000D01*
X188353000Y-115613000D01*
X188373000Y-115613000D01*
X188373000Y-115593000D01*
X188627000Y-115593000D01*
X188627000Y-115613000D01*
X189769915Y-115613000D01*
X189891904Y-115390961D01*
X189731041Y-115002577D01*
X189581359Y-114837342D01*
X193409662Y-111009039D01*
X194728096Y-111009039D01*
X194888959Y-111397423D01*
X195264866Y-111812389D01*
X195513367Y-111930000D01*
X195264866Y-112047611D01*
X194888959Y-112462577D01*
X194728096Y-112850961D01*
X194850085Y-113073000D01*
X195993000Y-113073000D01*
X195993000Y-110787000D01*
X196247000Y-110787000D01*
X196247000Y-113073000D01*
X197389915Y-113073000D01*
X197511904Y-112850961D01*
X197351041Y-112462577D01*
X196975134Y-112047611D01*
X196726633Y-111930000D01*
X196975134Y-111812389D01*
X197351041Y-111397423D01*
X197511904Y-111009039D01*
X197389915Y-110787000D01*
X196247000Y-110787000D01*
X195993000Y-110787000D01*
X194850085Y-110787000D01*
X194728096Y-111009039D01*
X193409662Y-111009039D01*
X195192547Y-109226155D01*
X195469108Y-109410947D01*
X195264866Y-109507611D01*
X194888959Y-109922577D01*
X194728096Y-110310961D01*
X194850085Y-110533000D01*
X195993000Y-110533000D01*
X195993000Y-110513000D01*
X196247000Y-110513000D01*
X196247000Y-110533000D01*
X197389915Y-110533000D01*
X197511904Y-110310961D01*
X197351041Y-109922577D01*
X196975134Y-109507611D01*
X196770892Y-109410947D01*
X197154577Y-109154577D01*
X197471740Y-108679909D01*
X197583113Y-108120000D01*
X197471740Y-107560091D01*
X197154577Y-107085423D01*
X196770892Y-106829053D01*
X196975134Y-106732389D01*
X197351041Y-106317423D01*
X197511904Y-105929039D01*
X197389915Y-105707000D01*
X196247000Y-105707000D01*
X196247000Y-105727000D01*
X195993000Y-105727000D01*
X195993000Y-105707000D01*
X195973000Y-105707000D01*
X195973000Y-105453000D01*
X195993000Y-105453000D01*
X195993000Y-103167000D01*
X196247000Y-103167000D01*
X196247000Y-105453000D01*
X197389915Y-105453000D01*
X197511904Y-105230961D01*
X197351041Y-104842577D01*
X196975134Y-104427611D01*
X196726633Y-104310000D01*
X196975134Y-104192389D01*
X197351041Y-103777423D01*
X197511904Y-103389039D01*
X197389915Y-103167000D01*
X196247000Y-103167000D01*
X195993000Y-103167000D01*
X195973000Y-103167000D01*
X195973000Y-102913000D01*
X195993000Y-102913000D01*
X195993000Y-102893000D01*
X196247000Y-102893000D01*
X196247000Y-102913000D01*
X197389915Y-102913000D01*
X197511904Y-102690961D01*
X197351041Y-102302577D01*
X196975134Y-101887611D01*
X196770892Y-101790947D01*
X197154577Y-101534577D01*
X197471740Y-101059909D01*
X197583113Y-100500000D01*
X197471740Y-99940091D01*
X197154577Y-99465423D01*
X196679909Y-99148260D01*
X196261333Y-99065000D01*
X195999826Y-99065000D01*
X196010000Y-99013852D01*
X196010000Y-99013848D01*
X196024888Y-98939001D01*
X196010000Y-98864154D01*
X196010000Y-98850268D01*
X196214561Y-98935000D01*
X196785439Y-98935000D01*
X197312862Y-98716534D01*
X197716534Y-98312862D01*
X197935000Y-97785439D01*
X197935000Y-97214561D01*
X197716534Y-96687138D01*
X197313049Y-96283653D01*
X197729773Y-95866929D01*
X197793229Y-95824529D01*
X197961204Y-95573137D01*
X198005300Y-95351452D01*
X198005300Y-95351448D01*
X198020188Y-95276600D01*
X198005300Y-95201752D01*
X198005300Y-84084048D01*
X198020188Y-84009200D01*
X198005300Y-83934352D01*
X198005300Y-83934348D01*
X197968219Y-83747929D01*
X197961204Y-83712662D01*
X197835629Y-83524727D01*
X197793229Y-83461271D01*
X197729773Y-83418871D01*
X197247063Y-82936162D01*
X197471740Y-82599909D01*
X197583113Y-82040000D01*
X197471740Y-81480091D01*
X197154577Y-81005423D01*
X196802242Y-80770000D01*
X197154577Y-80534577D01*
X197471740Y-80059909D01*
X197583113Y-79500000D01*
X197471740Y-78940091D01*
X197154577Y-78465423D01*
X196679909Y-78148260D01*
X196261333Y-78065000D01*
X195978667Y-78065000D01*
X195560091Y-78148260D01*
X195085423Y-78465423D01*
X194768260Y-78940091D01*
X194656887Y-79500000D01*
X194768260Y-80059909D01*
X195085423Y-80534577D01*
X195437758Y-80770000D01*
X195085423Y-81005423D01*
X194768260Y-81480091D01*
X194656887Y-82040000D01*
X194768260Y-82599909D01*
X195085423Y-83074577D01*
X195364104Y-83260786D01*
X195381386Y-83347667D01*
X195085423Y-83545423D01*
X194768260Y-84020091D01*
X194656887Y-84580000D01*
X194768260Y-85139909D01*
X195085423Y-85614577D01*
X195437758Y-85850000D01*
X195085423Y-86085423D01*
X194768260Y-86560091D01*
X194656887Y-87120000D01*
X194768260Y-87679909D01*
X195085423Y-88154577D01*
X195437758Y-88390000D01*
X195085423Y-88625423D01*
X195065196Y-88655694D01*
X191775031Y-85365530D01*
X191732629Y-85302071D01*
X191481237Y-85134096D01*
X191259552Y-85090000D01*
X191259547Y-85090000D01*
X191184700Y-85075112D01*
X191109853Y-85090000D01*
X189861668Y-85090000D01*
X189963113Y-84580000D01*
X189851740Y-84020091D01*
X189534577Y-83545423D01*
X189182242Y-83310000D01*
X189534577Y-83074577D01*
X189851740Y-82599909D01*
X189963113Y-82040000D01*
X189851740Y-81480091D01*
X189534577Y-81005423D01*
X189413894Y-80924785D01*
X189547765Y-80898157D01*
X189757809Y-80757809D01*
X189898157Y-80547765D01*
X189947440Y-80300000D01*
X189947440Y-78700000D01*
X189898157Y-78452235D01*
X189757809Y-78242191D01*
X189547765Y-78101843D01*
X189300000Y-78052560D01*
X187700000Y-78052560D01*
X187452235Y-78101843D01*
X187380547Y-78149744D01*
X186738548Y-77507745D01*
X193171861Y-77507745D01*
X193245995Y-77753864D01*
X193783223Y-77946965D01*
X194353454Y-77919778D01*
X194754005Y-77753864D01*
X194828139Y-77507745D01*
X194000000Y-76679605D01*
X193171861Y-77507745D01*
X186738548Y-77507745D01*
X185514025Y-76283223D01*
X192553035Y-76283223D01*
X192580222Y-76853454D01*
X192746136Y-77254005D01*
X192992255Y-77328139D01*
X193820395Y-76500000D01*
X194179605Y-76500000D01*
X195007745Y-77328139D01*
X195253864Y-77254005D01*
X195256290Y-77247254D01*
X195283466Y-77312862D01*
X195687138Y-77716534D01*
X196214561Y-77935000D01*
X196785439Y-77935000D01*
X197312862Y-77716534D01*
X197716534Y-77312862D01*
X197935000Y-76785439D01*
X197935000Y-76214561D01*
X197716534Y-75687138D01*
X197312862Y-75283466D01*
X196785439Y-75065000D01*
X196214561Y-75065000D01*
X195687138Y-75283466D01*
X195283466Y-75687138D01*
X195256475Y-75752299D01*
X195253864Y-75745995D01*
X195007745Y-75671861D01*
X194179605Y-76500000D01*
X193820395Y-76500000D01*
X192992255Y-75671861D01*
X192746136Y-75745995D01*
X192553035Y-76283223D01*
X185514025Y-76283223D01*
X185231001Y-76000200D01*
X185471740Y-75639909D01*
X185501110Y-75492255D01*
X193171861Y-75492255D01*
X194000000Y-76320395D01*
X194828139Y-75492255D01*
X194754005Y-75246136D01*
X194216777Y-75053035D01*
X193646546Y-75080222D01*
X193245995Y-75246136D01*
X193171861Y-75492255D01*
X185501110Y-75492255D01*
X185583113Y-75080000D01*
X185471740Y-74520091D01*
X185154577Y-74045423D01*
X184770892Y-73789053D01*
X184975134Y-73692389D01*
X185097879Y-73556890D01*
X189208524Y-73556890D01*
X189378355Y-73966924D01*
X189768642Y-74395183D01*
X190293108Y-74641486D01*
X190523000Y-74520819D01*
X190523000Y-73327000D01*
X190777000Y-73327000D01*
X190777000Y-74520819D01*
X191006892Y-74641486D01*
X191531358Y-74395183D01*
X191921645Y-73966924D01*
X192091476Y-73556890D01*
X191970155Y-73327000D01*
X190777000Y-73327000D01*
X190523000Y-73327000D01*
X189329845Y-73327000D01*
X189208524Y-73556890D01*
X185097879Y-73556890D01*
X185351041Y-73277423D01*
X185511904Y-72889039D01*
X185389915Y-72667000D01*
X184247000Y-72667000D01*
X184247000Y-72687000D01*
X183993000Y-72687000D01*
X183993000Y-72667000D01*
X182850085Y-72667000D01*
X182728096Y-72889039D01*
X182888959Y-73277423D01*
X183264866Y-73692389D01*
X183469108Y-73789053D01*
X183085423Y-74045423D01*
X182794869Y-74480267D01*
X181640131Y-73325530D01*
X181597729Y-73262071D01*
X181346337Y-73094096D01*
X181124652Y-73050000D01*
X181124647Y-73050000D01*
X181049800Y-73035112D01*
X180974953Y-73050000D01*
X177861668Y-73050000D01*
X177963113Y-72540000D01*
X177851740Y-71980091D01*
X177821611Y-71935000D01*
X182834111Y-71935000D01*
X182728096Y-72190961D01*
X182850085Y-72413000D01*
X183993000Y-72413000D01*
X183993000Y-72393000D01*
X184247000Y-72393000D01*
X184247000Y-72413000D01*
X185389915Y-72413000D01*
X185511904Y-72190961D01*
X185405889Y-71935000D01*
X186344853Y-71935000D01*
X186419700Y-71949888D01*
X186494547Y-71935000D01*
X186494552Y-71935000D01*
X186716237Y-71890904D01*
X186967629Y-71722929D01*
X187010031Y-71659470D01*
X189539121Y-69130381D01*
X189579375Y-69190625D01*
X189877761Y-69390000D01*
X189579375Y-69589375D01*
X189251161Y-70080582D01*
X189135908Y-70660000D01*
X189251161Y-71239418D01*
X189579375Y-71730625D01*
X189898478Y-71943843D01*
X189768642Y-72004817D01*
X189378355Y-72433076D01*
X189208524Y-72843110D01*
X189329845Y-73073000D01*
X190523000Y-73073000D01*
X190523000Y-73053000D01*
X190777000Y-73053000D01*
X190777000Y-73073000D01*
X191970155Y-73073000D01*
X192091476Y-72843110D01*
X191921645Y-72433076D01*
X191531358Y-72004817D01*
X191401522Y-71943843D01*
X191720625Y-71730625D01*
X192048839Y-71239418D01*
X192164092Y-70660000D01*
X192048839Y-70080582D01*
X191720625Y-69589375D01*
X191422239Y-69390000D01*
X191720625Y-69190625D01*
X192048839Y-68699418D01*
X192164092Y-68120000D01*
X192048839Y-67540582D01*
X191720625Y-67049375D01*
X191422239Y-66850000D01*
X191720625Y-66650625D01*
X192048839Y-66159418D01*
X192164092Y-65580000D01*
X192048839Y-65000582D01*
X191720625Y-64509375D01*
X191422239Y-64310000D01*
X191720625Y-64110625D01*
X192048839Y-63619418D01*
X192164092Y-63040000D01*
X192048839Y-62460582D01*
X191720625Y-61969375D01*
X191702381Y-61957184D01*
X191747765Y-61948157D01*
X191957809Y-61807809D01*
X192098157Y-61597765D01*
X192147440Y-61350000D01*
X192147440Y-59650000D01*
X192098157Y-59402235D01*
X191957809Y-59192191D01*
X191747765Y-59051843D01*
X191500000Y-59002560D01*
X189800000Y-59002560D01*
X189552235Y-59051843D01*
X189342191Y-59192191D01*
X189201843Y-59402235D01*
X189152560Y-59650000D01*
X189152560Y-59801203D01*
X188926771Y-59952071D01*
X188884371Y-60015527D01*
X188358299Y-60541600D01*
X176408269Y-60541600D01*
X176499092Y-60085000D01*
X176383839Y-59505582D01*
X176055625Y-59014375D01*
X175564418Y-58686161D01*
X175131256Y-58600000D01*
X174838744Y-58600000D01*
X174405582Y-58686161D01*
X173914375Y-59014375D01*
X173715000Y-59312761D01*
X173515625Y-59014375D01*
X173024418Y-58686161D01*
X172591256Y-58600000D01*
X172298744Y-58600000D01*
X171865582Y-58686161D01*
X171374375Y-59014375D01*
X171175000Y-59312761D01*
X170975625Y-59014375D01*
X170484418Y-58686161D01*
X170051256Y-58600000D01*
X169758744Y-58600000D01*
X169325582Y-58686161D01*
X168834375Y-59014375D01*
X168635000Y-59312761D01*
X168435625Y-59014375D01*
X167944418Y-58686161D01*
X167511256Y-58600000D01*
X167218744Y-58600000D01*
X166785582Y-58686161D01*
X166294375Y-59014375D01*
X166095000Y-59312761D01*
X165895625Y-59014375D01*
X165404418Y-58686161D01*
X164971256Y-58600000D01*
X164678744Y-58600000D01*
X164245582Y-58686161D01*
X163754375Y-59014375D01*
X163555000Y-59312761D01*
X163355625Y-59014375D01*
X162864418Y-58686161D01*
X162431256Y-58600000D01*
X162138744Y-58600000D01*
X161705582Y-58686161D01*
X161214375Y-59014375D01*
X161015000Y-59312761D01*
X160815625Y-59014375D01*
X160324418Y-58686161D01*
X159891256Y-58600000D01*
X159598744Y-58600000D01*
X159165582Y-58686161D01*
X158674375Y-59014375D01*
X158475000Y-59312761D01*
X158275625Y-59014375D01*
X157784418Y-58686161D01*
X157351256Y-58600000D01*
X157058744Y-58600000D01*
X156625582Y-58686161D01*
X156134375Y-59014375D01*
X155935000Y-59312761D01*
X155735625Y-59014375D01*
X155244418Y-58686161D01*
X154811256Y-58600000D01*
X154518744Y-58600000D01*
X154085582Y-58686161D01*
X153594375Y-59014375D01*
X153395000Y-59312761D01*
X153195625Y-59014375D01*
X152704418Y-58686161D01*
X152271256Y-58600000D01*
X151978744Y-58600000D01*
X151545582Y-58686161D01*
X151054375Y-59014375D01*
X150855000Y-59312761D01*
X150655625Y-59014375D01*
X150164418Y-58686161D01*
X149731256Y-58600000D01*
X149438744Y-58600000D01*
X149005582Y-58686161D01*
X148514375Y-59014375D01*
X148315000Y-59312761D01*
X148115625Y-59014375D01*
X147624418Y-58686161D01*
X147191256Y-58600000D01*
X146898744Y-58600000D01*
X146465582Y-58686161D01*
X145974375Y-59014375D01*
X145775000Y-59312761D01*
X145575625Y-59014375D01*
X145084418Y-58686161D01*
X144651256Y-58600000D01*
X144358744Y-58600000D01*
X143925582Y-58686161D01*
X143594312Y-58907509D01*
X142079431Y-57392630D01*
X142037029Y-57329171D01*
X141785637Y-57161196D01*
X141563952Y-57117100D01*
X141563947Y-57117100D01*
X141489100Y-57102212D01*
X141414253Y-57117100D01*
X120024546Y-57117100D01*
X119949699Y-57102212D01*
X119874852Y-57117100D01*
X119874848Y-57117100D01*
X119653163Y-57161196D01*
X119653161Y-57161197D01*
X119653162Y-57161197D01*
X119465226Y-57286771D01*
X119465224Y-57286773D01*
X119401771Y-57329171D01*
X119359373Y-57392625D01*
X119147498Y-57604500D01*
X118981426Y-57604500D01*
X118601020Y-57762069D01*
X118309869Y-58053220D01*
X118297872Y-58082184D01*
X118216777Y-58053035D01*
X117646546Y-58080222D01*
X117245995Y-58246136D01*
X117171861Y-58492255D01*
X118000000Y-59320395D01*
X118014143Y-59306253D01*
X118193748Y-59485858D01*
X118179605Y-59500000D01*
X118193748Y-59514142D01*
X118014142Y-59693748D01*
X118000000Y-59679605D01*
X117985858Y-59693748D01*
X117806252Y-59514142D01*
X117820395Y-59500000D01*
X116992255Y-58671861D01*
X116746136Y-58745995D01*
X116553035Y-59283223D01*
X116580222Y-59853454D01*
X116714809Y-60178376D01*
X116492871Y-60326671D01*
X116450471Y-60390127D01*
X106109121Y-70731477D01*
X105884577Y-70395423D01*
X105532242Y-70160000D01*
X105884577Y-69924577D01*
X106201740Y-69449909D01*
X106313113Y-68890000D01*
X106201740Y-68330091D01*
X105884577Y-67855423D01*
X105763894Y-67774785D01*
X105897765Y-67748157D01*
X106107809Y-67607809D01*
X106248157Y-67397765D01*
X106297440Y-67150000D01*
X106297440Y-65550000D01*
X106248157Y-65302235D01*
X106107809Y-65092191D01*
X105897765Y-64951843D01*
X105650000Y-64902560D01*
X104050000Y-64902560D01*
X103802235Y-64951843D01*
X103592191Y-65092191D01*
X103451843Y-65302235D01*
X103402560Y-65550000D01*
X103402560Y-67150000D01*
X103451843Y-67397765D01*
X103592191Y-67607809D01*
X103802235Y-67748157D01*
X103936106Y-67774785D01*
X103815423Y-67855423D01*
X103498260Y-68330091D01*
X103386887Y-68890000D01*
X103498260Y-69449909D01*
X103815423Y-69924577D01*
X104167758Y-70160000D01*
X103815423Y-70395423D01*
X103498260Y-70870091D01*
X103386887Y-71430000D01*
X103498260Y-71989909D01*
X103762430Y-72385268D01*
X101374428Y-74773271D01*
X101310972Y-74815671D01*
X101268572Y-74879127D01*
X101268571Y-74879128D01*
X101142997Y-75067063D01*
X101084012Y-75363600D01*
X101098901Y-75438452D01*
X101098900Y-103080053D01*
X101084012Y-103154900D01*
X101098900Y-103229747D01*
X101098900Y-103229751D01*
X101142996Y-103451436D01*
X101310971Y-103702829D01*
X101374430Y-103745231D01*
X103722977Y-106093779D01*
X103498260Y-106430091D01*
X103386887Y-106990000D01*
X103498260Y-107549909D01*
X103815423Y-108024577D01*
X104167758Y-108260000D01*
X103815423Y-108495423D01*
X103498260Y-108970091D01*
X103386887Y-109530000D01*
X103498260Y-110089909D01*
X103815423Y-110564577D01*
X104167758Y-110800000D01*
X103815423Y-111035423D01*
X103498260Y-111510091D01*
X103386887Y-112070000D01*
X103498260Y-112629909D01*
X103815423Y-113104577D01*
X104167758Y-113340000D01*
X103815423Y-113575423D01*
X103498260Y-114050091D01*
X103386887Y-114610000D01*
X103498260Y-115169909D01*
X103815423Y-115644577D01*
X104290091Y-115961740D01*
X104708667Y-116045000D01*
X104991333Y-116045000D01*
X105409909Y-115961740D01*
X105884577Y-115644577D01*
X106201740Y-115169909D01*
X106313113Y-114610000D01*
X106201740Y-114050091D01*
X105884577Y-113575423D01*
X105532242Y-113340000D01*
X105884577Y-113104577D01*
X106201740Y-112629909D01*
X106313113Y-112070000D01*
X106201740Y-111510091D01*
X105884577Y-111035423D01*
X105532242Y-110800000D01*
X105884577Y-110564577D01*
X106201740Y-110089909D01*
X106313113Y-109530000D01*
X106201740Y-108970091D01*
X105884577Y-108495423D01*
X105532242Y-108260000D01*
X105884577Y-108024577D01*
X106201740Y-107549909D01*
X106313113Y-106990000D01*
X106201740Y-106430091D01*
X105884577Y-105955423D01*
X105605896Y-105769214D01*
X105588614Y-105682333D01*
X105661878Y-105633379D01*
X124293498Y-124265000D01*
X100735000Y-124265000D01*
X100735000Y-120055431D01*
X103265000Y-120055431D01*
X103265000Y-120944569D01*
X103605259Y-121766026D01*
X104233974Y-122394741D01*
X105055431Y-122735000D01*
X105944569Y-122735000D01*
X106766026Y-122394741D01*
X107394741Y-121766026D01*
X107735000Y-120944569D01*
X107735000Y-120055431D01*
X107394741Y-119233974D01*
X106766026Y-118605259D01*
X105944569Y-118265000D01*
X105055431Y-118265000D01*
X104233974Y-118605259D01*
X103605259Y-119233974D01*
X103265000Y-120055431D01*
X100735000Y-120055431D01*
X100735000Y-54055431D01*
X103265000Y-54055431D01*
X103265000Y-54944569D01*
X103605259Y-55766026D01*
X104233974Y-56394741D01*
X105055431Y-56735000D01*
X105944569Y-56735000D01*
X106766026Y-56394741D01*
X107394741Y-55766026D01*
X107735000Y-54944569D01*
X107735000Y-54055431D01*
X192265000Y-54055431D01*
X192265000Y-54944569D01*
X192605259Y-55766026D01*
X193233974Y-56394741D01*
X194055431Y-56735000D01*
X194944569Y-56735000D01*
X195766026Y-56394741D01*
X196394741Y-55766026D01*
X196735000Y-54944569D01*
X196735000Y-54055431D01*
X196394741Y-53233974D01*
X195766026Y-52605259D01*
X194944569Y-52265000D01*
X194055431Y-52265000D01*
X193233974Y-52605259D01*
X192605259Y-53233974D01*
X192265000Y-54055431D01*
X107735000Y-54055431D01*
X107394741Y-53233974D01*
X106766026Y-52605259D01*
X105944569Y-52265000D01*
X105055431Y-52265000D01*
X104233974Y-52605259D01*
X103605259Y-53233974D01*
X103265000Y-54055431D01*
X100735000Y-54055431D01*
X100735000Y-50735000D01*
X199265001Y-50735000D01*
X199265000Y-124265000D01*
X199265000Y-124265000D01*
G37*
X199265000Y-124265000D02*
X179249601Y-124265000D01*
X183459170Y-120055431D01*
X192265000Y-120055431D01*
X192265000Y-120944569D01*
X192605259Y-121766026D01*
X193233974Y-122394741D01*
X194055431Y-122735000D01*
X194944569Y-122735000D01*
X195766026Y-122394741D01*
X196394741Y-121766026D01*
X196735000Y-120944569D01*
X196735000Y-120055431D01*
X196394741Y-119233974D01*
X195766026Y-118605259D01*
X194944569Y-118265000D01*
X194055431Y-118265000D01*
X193233974Y-118605259D01*
X192605259Y-119233974D01*
X192265000Y-120055431D01*
X183459170Y-120055431D01*
X187201075Y-116313526D01*
X187268959Y-116477423D01*
X187644866Y-116892389D01*
X188150959Y-117131914D01*
X188373000Y-117010629D01*
X188373000Y-115867000D01*
X188627000Y-115867000D01*
X188627000Y-117010629D01*
X188849041Y-117131914D01*
X189355134Y-116892389D01*
X189731041Y-116477423D01*
X189891904Y-116089039D01*
X189769915Y-115867000D01*
X188627000Y-115867000D01*
X188373000Y-115867000D01*
X188353000Y-115867000D01*
X188353000Y-115740000D01*
X194656887Y-115740000D01*
X194768260Y-116299909D01*
X195085423Y-116774577D01*
X195560091Y-117091740D01*
X195978667Y-117175000D01*
X196261333Y-117175000D01*
X196679909Y-117091740D01*
X197154577Y-116774577D01*
X197471740Y-116299909D01*
X197583113Y-115740000D01*
X197471740Y-115180091D01*
X197154577Y-114705423D01*
X196770892Y-114449053D01*
X196975134Y-114352389D01*
X197351041Y-113937423D01*
X197511904Y-113549039D01*
X197389915Y-113327000D01*
X196247000Y-113327000D01*
X196247000Y-113347000D01*
X195993000Y-113347000D01*
X195993000Y-113327000D01*
X194850085Y-113327000D01*
X194728096Y-113549039D01*
X194888959Y-113937423D01*
X195264866Y-114352389D01*
X195469108Y-114449053D01*
X195085423Y-114705423D01*
X194768260Y-115180091D01*
X194656887Y-115740000D01*
X188353000Y-115740000D01*
X188353000Y-115613000D01*
X188373000Y-115613000D01*
X188373000Y-115593000D01*
X188627000Y-115593000D01*
X188627000Y-115613000D01*
X189769915Y-115613000D01*
X189891904Y-115390961D01*
X189731041Y-115002577D01*
X189581359Y-114837342D01*
X193409662Y-111009039D01*
X194728096Y-111009039D01*
X194888959Y-111397423D01*
X195264866Y-111812389D01*
X195513367Y-111930000D01*
X195264866Y-112047611D01*
X194888959Y-112462577D01*
X194728096Y-112850961D01*
X194850085Y-113073000D01*
X195993000Y-113073000D01*
X195993000Y-110787000D01*
X196247000Y-110787000D01*
X196247000Y-113073000D01*
X197389915Y-113073000D01*
X197511904Y-112850961D01*
X197351041Y-112462577D01*
X196975134Y-112047611D01*
X196726633Y-111930000D01*
X196975134Y-111812389D01*
X197351041Y-111397423D01*
X197511904Y-111009039D01*
X197389915Y-110787000D01*
X196247000Y-110787000D01*
X195993000Y-110787000D01*
X194850085Y-110787000D01*
X194728096Y-111009039D01*
X193409662Y-111009039D01*
X195192547Y-109226155D01*
X195469108Y-109410947D01*
X195264866Y-109507611D01*
X194888959Y-109922577D01*
X194728096Y-110310961D01*
X194850085Y-110533000D01*
X195993000Y-110533000D01*
X195993000Y-110513000D01*
X196247000Y-110513000D01*
X196247000Y-110533000D01*
X197389915Y-110533000D01*
X197511904Y-110310961D01*
X197351041Y-109922577D01*
X196975134Y-109507611D01*
X196770892Y-109410947D01*
X197154577Y-109154577D01*
X197471740Y-108679909D01*
X197583113Y-108120000D01*
X197471740Y-107560091D01*
X197154577Y-107085423D01*
X196770892Y-106829053D01*
X196975134Y-106732389D01*
X197351041Y-106317423D01*
X197511904Y-105929039D01*
X197389915Y-105707000D01*
X196247000Y-105707000D01*
X196247000Y-105727000D01*
X195993000Y-105727000D01*
X195993000Y-105707000D01*
X195973000Y-105707000D01*
X195973000Y-105453000D01*
X195993000Y-105453000D01*
X195993000Y-103167000D01*
X196247000Y-103167000D01*
X196247000Y-105453000D01*
X197389915Y-105453000D01*
X197511904Y-105230961D01*
X197351041Y-104842577D01*
X196975134Y-104427611D01*
X196726633Y-104310000D01*
X196975134Y-104192389D01*
X197351041Y-103777423D01*
X197511904Y-103389039D01*
X197389915Y-103167000D01*
X196247000Y-103167000D01*
X195993000Y-103167000D01*
X195973000Y-103167000D01*
X195973000Y-102913000D01*
X195993000Y-102913000D01*
X195993000Y-102893000D01*
X196247000Y-102893000D01*
X196247000Y-102913000D01*
X197389915Y-102913000D01*
X197511904Y-102690961D01*
X197351041Y-102302577D01*
X196975134Y-101887611D01*
X196770892Y-101790947D01*
X197154577Y-101534577D01*
X197471740Y-101059909D01*
X197583113Y-100500000D01*
X197471740Y-99940091D01*
X197154577Y-99465423D01*
X196679909Y-99148260D01*
X196261333Y-99065000D01*
X195999826Y-99065000D01*
X196010000Y-99013852D01*
X196010000Y-99013848D01*
X196024888Y-98939001D01*
X196010000Y-98864154D01*
X196010000Y-98850268D01*
X196214561Y-98935000D01*
X196785439Y-98935000D01*
X197312862Y-98716534D01*
X197716534Y-98312862D01*
X197935000Y-97785439D01*
X197935000Y-97214561D01*
X197716534Y-96687138D01*
X197313049Y-96283653D01*
X197729773Y-95866929D01*
X197793229Y-95824529D01*
X197961204Y-95573137D01*
X198005300Y-95351452D01*
X198005300Y-95351448D01*
X198020188Y-95276600D01*
X198005300Y-95201752D01*
X198005300Y-84084048D01*
X198020188Y-84009200D01*
X198005300Y-83934352D01*
X198005300Y-83934348D01*
X197968219Y-83747929D01*
X197961204Y-83712662D01*
X197835629Y-83524727D01*
X197793229Y-83461271D01*
X197729773Y-83418871D01*
X197247063Y-82936162D01*
X197471740Y-82599909D01*
X197583113Y-82040000D01*
X197471740Y-81480091D01*
X197154577Y-81005423D01*
X196802242Y-80770000D01*
X197154577Y-80534577D01*
X197471740Y-80059909D01*
X197583113Y-79500000D01*
X197471740Y-78940091D01*
X197154577Y-78465423D01*
X196679909Y-78148260D01*
X196261333Y-78065000D01*
X195978667Y-78065000D01*
X195560091Y-78148260D01*
X195085423Y-78465423D01*
X194768260Y-78940091D01*
X194656887Y-79500000D01*
X194768260Y-80059909D01*
X195085423Y-80534577D01*
X195437758Y-80770000D01*
X195085423Y-81005423D01*
X194768260Y-81480091D01*
X194656887Y-82040000D01*
X194768260Y-82599909D01*
X195085423Y-83074577D01*
X195364104Y-83260786D01*
X195381386Y-83347667D01*
X195085423Y-83545423D01*
X194768260Y-84020091D01*
X194656887Y-84580000D01*
X194768260Y-85139909D01*
X195085423Y-85614577D01*
X195437758Y-85850000D01*
X195085423Y-86085423D01*
X194768260Y-86560091D01*
X194656887Y-87120000D01*
X194768260Y-87679909D01*
X195085423Y-88154577D01*
X195437758Y-88390000D01*
X195085423Y-88625423D01*
X195065196Y-88655694D01*
X191775031Y-85365530D01*
X191732629Y-85302071D01*
X191481237Y-85134096D01*
X191259552Y-85090000D01*
X191259547Y-85090000D01*
X191184700Y-85075112D01*
X191109853Y-85090000D01*
X189861668Y-85090000D01*
X189963113Y-84580000D01*
X189851740Y-84020091D01*
X189534577Y-83545423D01*
X189182242Y-83310000D01*
X189534577Y-83074577D01*
X189851740Y-82599909D01*
X189963113Y-82040000D01*
X189851740Y-81480091D01*
X189534577Y-81005423D01*
X189413894Y-80924785D01*
X189547765Y-80898157D01*
X189757809Y-80757809D01*
X189898157Y-80547765D01*
X189947440Y-80300000D01*
X189947440Y-78700000D01*
X189898157Y-78452235D01*
X189757809Y-78242191D01*
X189547765Y-78101843D01*
X189300000Y-78052560D01*
X187700000Y-78052560D01*
X187452235Y-78101843D01*
X187380547Y-78149744D01*
X186738548Y-77507745D01*
X193171861Y-77507745D01*
X193245995Y-77753864D01*
X193783223Y-77946965D01*
X194353454Y-77919778D01*
X194754005Y-77753864D01*
X194828139Y-77507745D01*
X194000000Y-76679605D01*
X193171861Y-77507745D01*
X186738548Y-77507745D01*
X185514025Y-76283223D01*
X192553035Y-76283223D01*
X192580222Y-76853454D01*
X192746136Y-77254005D01*
X192992255Y-77328139D01*
X193820395Y-76500000D01*
X194179605Y-76500000D01*
X195007745Y-77328139D01*
X195253864Y-77254005D01*
X195256290Y-77247254D01*
X195283466Y-77312862D01*
X195687138Y-77716534D01*
X196214561Y-77935000D01*
X196785439Y-77935000D01*
X197312862Y-77716534D01*
X197716534Y-77312862D01*
X197935000Y-76785439D01*
X197935000Y-76214561D01*
X197716534Y-75687138D01*
X197312862Y-75283466D01*
X196785439Y-75065000D01*
X196214561Y-75065000D01*
X195687138Y-75283466D01*
X195283466Y-75687138D01*
X195256475Y-75752299D01*
X195253864Y-75745995D01*
X195007745Y-75671861D01*
X194179605Y-76500000D01*
X193820395Y-76500000D01*
X192992255Y-75671861D01*
X192746136Y-75745995D01*
X192553035Y-76283223D01*
X185514025Y-76283223D01*
X185231001Y-76000200D01*
X185471740Y-75639909D01*
X185501110Y-75492255D01*
X193171861Y-75492255D01*
X194000000Y-76320395D01*
X194828139Y-75492255D01*
X194754005Y-75246136D01*
X194216777Y-75053035D01*
X193646546Y-75080222D01*
X193245995Y-75246136D01*
X193171861Y-75492255D01*
X185501110Y-75492255D01*
X185583113Y-75080000D01*
X185471740Y-74520091D01*
X185154577Y-74045423D01*
X184770892Y-73789053D01*
X184975134Y-73692389D01*
X185097879Y-73556890D01*
X189208524Y-73556890D01*
X189378355Y-73966924D01*
X189768642Y-74395183D01*
X190293108Y-74641486D01*
X190523000Y-74520819D01*
X190523000Y-73327000D01*
X190777000Y-73327000D01*
X190777000Y-74520819D01*
X191006892Y-74641486D01*
X191531358Y-74395183D01*
X191921645Y-73966924D01*
X192091476Y-73556890D01*
X191970155Y-73327000D01*
X190777000Y-73327000D01*
X190523000Y-73327000D01*
X189329845Y-73327000D01*
X189208524Y-73556890D01*
X185097879Y-73556890D01*
X185351041Y-73277423D01*
X185511904Y-72889039D01*
X185389915Y-72667000D01*
X184247000Y-72667000D01*
X184247000Y-72687000D01*
X183993000Y-72687000D01*
X183993000Y-72667000D01*
X182850085Y-72667000D01*
X182728096Y-72889039D01*
X182888959Y-73277423D01*
X183264866Y-73692389D01*
X183469108Y-73789053D01*
X183085423Y-74045423D01*
X182794869Y-74480267D01*
X181640131Y-73325530D01*
X181597729Y-73262071D01*
X181346337Y-73094096D01*
X181124652Y-73050000D01*
X181124647Y-73050000D01*
X181049800Y-73035112D01*
X180974953Y-73050000D01*
X177861668Y-73050000D01*
X177963113Y-72540000D01*
X177851740Y-71980091D01*
X177821611Y-71935000D01*
X182834111Y-71935000D01*
X182728096Y-72190961D01*
X182850085Y-72413000D01*
X183993000Y-72413000D01*
X183993000Y-72393000D01*
X184247000Y-72393000D01*
X184247000Y-72413000D01*
X185389915Y-72413000D01*
X185511904Y-72190961D01*
X185405889Y-71935000D01*
X186344853Y-71935000D01*
X186419700Y-71949888D01*
X186494547Y-71935000D01*
X186494552Y-71935000D01*
X186716237Y-71890904D01*
X186967629Y-71722929D01*
X187010031Y-71659470D01*
X189539121Y-69130381D01*
X189579375Y-69190625D01*
X189877761Y-69390000D01*
X189579375Y-69589375D01*
X189251161Y-70080582D01*
X189135908Y-70660000D01*
X189251161Y-71239418D01*
X189579375Y-71730625D01*
X189898478Y-71943843D01*
X189768642Y-72004817D01*
X189378355Y-72433076D01*
X189208524Y-72843110D01*
X189329845Y-73073000D01*
X190523000Y-73073000D01*
X190523000Y-73053000D01*
X190777000Y-73053000D01*
X190777000Y-73073000D01*
X191970155Y-73073000D01*
X192091476Y-72843110D01*
X191921645Y-72433076D01*
X191531358Y-72004817D01*
X191401522Y-71943843D01*
X191720625Y-71730625D01*
X192048839Y-71239418D01*
X192164092Y-70660000D01*
X192048839Y-70080582D01*
X191720625Y-69589375D01*
X191422239Y-69390000D01*
X191720625Y-69190625D01*
X192048839Y-68699418D01*
X192164092Y-68120000D01*
X192048839Y-67540582D01*
X191720625Y-67049375D01*
X191422239Y-66850000D01*
X191720625Y-66650625D01*
X192048839Y-66159418D01*
X192164092Y-65580000D01*
X192048839Y-65000582D01*
X191720625Y-64509375D01*
X191422239Y-64310000D01*
X191720625Y-64110625D01*
X192048839Y-63619418D01*
X192164092Y-63040000D01*
X192048839Y-62460582D01*
X191720625Y-61969375D01*
X191702381Y-61957184D01*
X191747765Y-61948157D01*
X191957809Y-61807809D01*
X192098157Y-61597765D01*
X192147440Y-61350000D01*
X192147440Y-59650000D01*
X192098157Y-59402235D01*
X191957809Y-59192191D01*
X191747765Y-59051843D01*
X191500000Y-59002560D01*
X189800000Y-59002560D01*
X189552235Y-59051843D01*
X189342191Y-59192191D01*
X189201843Y-59402235D01*
X189152560Y-59650000D01*
X189152560Y-59801203D01*
X188926771Y-59952071D01*
X188884371Y-60015527D01*
X188358299Y-60541600D01*
X176408269Y-60541600D01*
X176499092Y-60085000D01*
X176383839Y-59505582D01*
X176055625Y-59014375D01*
X175564418Y-58686161D01*
X175131256Y-58600000D01*
X174838744Y-58600000D01*
X174405582Y-58686161D01*
X173914375Y-59014375D01*
X173715000Y-59312761D01*
X173515625Y-59014375D01*
X173024418Y-58686161D01*
X172591256Y-58600000D01*
X172298744Y-58600000D01*
X171865582Y-58686161D01*
X171374375Y-59014375D01*
X171175000Y-59312761D01*
X170975625Y-59014375D01*
X170484418Y-58686161D01*
X170051256Y-58600000D01*
X169758744Y-58600000D01*
X169325582Y-58686161D01*
X168834375Y-59014375D01*
X168635000Y-59312761D01*
X168435625Y-59014375D01*
X167944418Y-58686161D01*
X167511256Y-58600000D01*
X167218744Y-58600000D01*
X166785582Y-58686161D01*
X166294375Y-59014375D01*
X166095000Y-59312761D01*
X165895625Y-59014375D01*
X165404418Y-58686161D01*
X164971256Y-58600000D01*
X164678744Y-58600000D01*
X164245582Y-58686161D01*
X163754375Y-59014375D01*
X163555000Y-59312761D01*
X163355625Y-59014375D01*
X162864418Y-58686161D01*
X162431256Y-58600000D01*
X162138744Y-58600000D01*
X161705582Y-58686161D01*
X161214375Y-59014375D01*
X161015000Y-59312761D01*
X160815625Y-59014375D01*
X160324418Y-58686161D01*
X159891256Y-58600000D01*
X159598744Y-58600000D01*
X159165582Y-58686161D01*
X158674375Y-59014375D01*
X158475000Y-59312761D01*
X158275625Y-59014375D01*
X157784418Y-58686161D01*
X157351256Y-58600000D01*
X157058744Y-58600000D01*
X156625582Y-58686161D01*
X156134375Y-59014375D01*
X155935000Y-59312761D01*
X155735625Y-59014375D01*
X155244418Y-58686161D01*
X154811256Y-58600000D01*
X154518744Y-58600000D01*
X154085582Y-58686161D01*
X153594375Y-59014375D01*
X153395000Y-59312761D01*
X153195625Y-59014375D01*
X152704418Y-58686161D01*
X152271256Y-58600000D01*
X151978744Y-58600000D01*
X151545582Y-58686161D01*
X151054375Y-59014375D01*
X150855000Y-59312761D01*
X150655625Y-59014375D01*
X150164418Y-58686161D01*
X149731256Y-58600000D01*
X149438744Y-58600000D01*
X149005582Y-58686161D01*
X148514375Y-59014375D01*
X148315000Y-59312761D01*
X148115625Y-59014375D01*
X147624418Y-58686161D01*
X147191256Y-58600000D01*
X146898744Y-58600000D01*
X146465582Y-58686161D01*
X145974375Y-59014375D01*
X145775000Y-59312761D01*
X145575625Y-59014375D01*
X145084418Y-58686161D01*
X144651256Y-58600000D01*
X144358744Y-58600000D01*
X143925582Y-58686161D01*
X143594312Y-58907509D01*
X142079431Y-57392630D01*
X142037029Y-57329171D01*
X141785637Y-57161196D01*
X141563952Y-57117100D01*
X141563947Y-57117100D01*
X141489100Y-57102212D01*
X141414253Y-57117100D01*
X120024546Y-57117100D01*
X119949699Y-57102212D01*
X119874852Y-57117100D01*
X119874848Y-57117100D01*
X119653163Y-57161196D01*
X119653161Y-57161197D01*
X119653162Y-57161197D01*
X119465226Y-57286771D01*
X119465224Y-57286773D01*
X119401771Y-57329171D01*
X119359373Y-57392625D01*
X119147498Y-57604500D01*
X118981426Y-57604500D01*
X118601020Y-57762069D01*
X118309869Y-58053220D01*
X118297872Y-58082184D01*
X118216777Y-58053035D01*
X117646546Y-58080222D01*
X117245995Y-58246136D01*
X117171861Y-58492255D01*
X118000000Y-59320395D01*
X118014143Y-59306253D01*
X118193748Y-59485858D01*
X118179605Y-59500000D01*
X118193748Y-59514142D01*
X118014142Y-59693748D01*
X118000000Y-59679605D01*
X117985858Y-59693748D01*
X117806252Y-59514142D01*
X117820395Y-59500000D01*
X116992255Y-58671861D01*
X116746136Y-58745995D01*
X116553035Y-59283223D01*
X116580222Y-59853454D01*
X116714809Y-60178376D01*
X116492871Y-60326671D01*
X116450471Y-60390127D01*
X106109121Y-70731477D01*
X105884577Y-70395423D01*
X105532242Y-70160000D01*
X105884577Y-69924577D01*
X106201740Y-69449909D01*
X106313113Y-68890000D01*
X106201740Y-68330091D01*
X105884577Y-67855423D01*
X105763894Y-67774785D01*
X105897765Y-67748157D01*
X106107809Y-67607809D01*
X106248157Y-67397765D01*
X106297440Y-67150000D01*
X106297440Y-65550000D01*
X106248157Y-65302235D01*
X106107809Y-65092191D01*
X105897765Y-64951843D01*
X105650000Y-64902560D01*
X104050000Y-64902560D01*
X103802235Y-64951843D01*
X103592191Y-65092191D01*
X103451843Y-65302235D01*
X103402560Y-65550000D01*
X103402560Y-67150000D01*
X103451843Y-67397765D01*
X103592191Y-67607809D01*
X103802235Y-67748157D01*
X103936106Y-67774785D01*
X103815423Y-67855423D01*
X103498260Y-68330091D01*
X103386887Y-68890000D01*
X103498260Y-69449909D01*
X103815423Y-69924577D01*
X104167758Y-70160000D01*
X103815423Y-70395423D01*
X103498260Y-70870091D01*
X103386887Y-71430000D01*
X103498260Y-71989909D01*
X103762430Y-72385268D01*
X101374428Y-74773271D01*
X101310972Y-74815671D01*
X101268572Y-74879127D01*
X101268571Y-74879128D01*
X101142997Y-75067063D01*
X101084012Y-75363600D01*
X101098901Y-75438452D01*
X101098900Y-103080053D01*
X101084012Y-103154900D01*
X101098900Y-103229747D01*
X101098900Y-103229751D01*
X101142996Y-103451436D01*
X101310971Y-103702829D01*
X101374430Y-103745231D01*
X103722977Y-106093779D01*
X103498260Y-106430091D01*
X103386887Y-106990000D01*
X103498260Y-107549909D01*
X103815423Y-108024577D01*
X104167758Y-108260000D01*
X103815423Y-108495423D01*
X103498260Y-108970091D01*
X103386887Y-109530000D01*
X103498260Y-110089909D01*
X103815423Y-110564577D01*
X104167758Y-110800000D01*
X103815423Y-111035423D01*
X103498260Y-111510091D01*
X103386887Y-112070000D01*
X103498260Y-112629909D01*
X103815423Y-113104577D01*
X104167758Y-113340000D01*
X103815423Y-113575423D01*
X103498260Y-114050091D01*
X103386887Y-114610000D01*
X103498260Y-115169909D01*
X103815423Y-115644577D01*
X104290091Y-115961740D01*
X104708667Y-116045000D01*
X104991333Y-116045000D01*
X105409909Y-115961740D01*
X105884577Y-115644577D01*
X106201740Y-115169909D01*
X106313113Y-114610000D01*
X106201740Y-114050091D01*
X105884577Y-113575423D01*
X105532242Y-113340000D01*
X105884577Y-113104577D01*
X106201740Y-112629909D01*
X106313113Y-112070000D01*
X106201740Y-111510091D01*
X105884577Y-111035423D01*
X105532242Y-110800000D01*
X105884577Y-110564577D01*
X106201740Y-110089909D01*
X106313113Y-109530000D01*
X106201740Y-108970091D01*
X105884577Y-108495423D01*
X105532242Y-108260000D01*
X105884577Y-108024577D01*
X106201740Y-107549909D01*
X106313113Y-106990000D01*
X106201740Y-106430091D01*
X105884577Y-105955423D01*
X105605896Y-105769214D01*
X105588614Y-105682333D01*
X105661878Y-105633379D01*
X124293498Y-124265000D01*
X100735000Y-124265000D01*
X100735000Y-120055431D01*
X103265000Y-120055431D01*
X103265000Y-120944569D01*
X103605259Y-121766026D01*
X104233974Y-122394741D01*
X105055431Y-122735000D01*
X105944569Y-122735000D01*
X106766026Y-122394741D01*
X107394741Y-121766026D01*
X107735000Y-120944569D01*
X107735000Y-120055431D01*
X107394741Y-119233974D01*
X106766026Y-118605259D01*
X105944569Y-118265000D01*
X105055431Y-118265000D01*
X104233974Y-118605259D01*
X103605259Y-119233974D01*
X103265000Y-120055431D01*
X100735000Y-120055431D01*
X100735000Y-54055431D01*
X103265000Y-54055431D01*
X103265000Y-54944569D01*
X103605259Y-55766026D01*
X104233974Y-56394741D01*
X105055431Y-56735000D01*
X105944569Y-56735000D01*
X106766026Y-56394741D01*
X107394741Y-55766026D01*
X107735000Y-54944569D01*
X107735000Y-54055431D01*
X192265000Y-54055431D01*
X192265000Y-54944569D01*
X192605259Y-55766026D01*
X193233974Y-56394741D01*
X194055431Y-56735000D01*
X194944569Y-56735000D01*
X195766026Y-56394741D01*
X196394741Y-55766026D01*
X196735000Y-54944569D01*
X196735000Y-54055431D01*
X196394741Y-53233974D01*
X195766026Y-52605259D01*
X194944569Y-52265000D01*
X194055431Y-52265000D01*
X193233974Y-52605259D01*
X192605259Y-53233974D01*
X192265000Y-54055431D01*
X107735000Y-54055431D01*
X107394741Y-53233974D01*
X106766026Y-52605259D01*
X105944569Y-52265000D01*
X105055431Y-52265000D01*
X104233974Y-52605259D01*
X103605259Y-53233974D01*
X103265000Y-54055431D01*
X100735000Y-54055431D01*
X100735000Y-50735000D01*
X199265001Y-50735000D01*
X199265000Y-124265000D01*
G36*
X144608096Y-121510961D02*
X144730085Y-121733000D01*
X145873000Y-121733000D01*
X145873000Y-121713000D01*
X146127000Y-121713000D01*
X146127000Y-121733000D01*
X147269915Y-121733000D01*
X147391904Y-121510961D01*
X147265345Y-121205400D01*
X152331530Y-121205400D01*
X152268260Y-121300091D01*
X152156887Y-121860000D01*
X152268260Y-122419909D01*
X152585423Y-122894577D01*
X152782710Y-123026400D01*
X146825530Y-123026400D01*
X146855134Y-123012389D01*
X147231041Y-122597423D01*
X147391904Y-122209039D01*
X147269915Y-121987000D01*
X146127000Y-121987000D01*
X146127000Y-122007000D01*
X145873000Y-122007000D01*
X145873000Y-121987000D01*
X144730085Y-121987000D01*
X144608096Y-122209039D01*
X144768959Y-122597423D01*
X145144866Y-123012389D01*
X145174470Y-123026400D01*
X142335191Y-123026400D01*
X142435000Y-122785439D01*
X142435000Y-122214561D01*
X142216534Y-121687138D01*
X141812862Y-121283466D01*
X141624394Y-121205400D01*
X144734655Y-121205400D01*
X144608096Y-121510961D01*
X144608096Y-121510961D01*
G37*
X144608096Y-121510961D02*
X144730085Y-121733000D01*
X145873000Y-121733000D01*
X145873000Y-121713000D01*
X146127000Y-121713000D01*
X146127000Y-121733000D01*
X147269915Y-121733000D01*
X147391904Y-121510961D01*
X147265345Y-121205400D01*
X152331530Y-121205400D01*
X152268260Y-121300091D01*
X152156887Y-121860000D01*
X152268260Y-122419909D01*
X152585423Y-122894577D01*
X152782710Y-123026400D01*
X146825530Y-123026400D01*
X146855134Y-123012389D01*
X147231041Y-122597423D01*
X147391904Y-122209039D01*
X147269915Y-121987000D01*
X146127000Y-121987000D01*
X146127000Y-122007000D01*
X145873000Y-122007000D01*
X145873000Y-121987000D01*
X144730085Y-121987000D01*
X144608096Y-122209039D01*
X144768959Y-122597423D01*
X145144866Y-123012389D01*
X145174470Y-123026400D01*
X142335191Y-123026400D01*
X142435000Y-122785439D01*
X142435000Y-122214561D01*
X142216534Y-121687138D01*
X141812862Y-121283466D01*
X141624394Y-121205400D01*
X144734655Y-121205400D01*
X144608096Y-121510961D01*
G36*
X124827373Y-115734476D02*
X124869771Y-115797929D01*
X124933224Y-115840327D01*
X124933226Y-115840329D01*
X125058602Y-115924102D01*
X125121163Y-115965904D01*
X125342848Y-116010000D01*
X125342852Y-116010000D01*
X125417699Y-116024888D01*
X125492546Y-116010000D01*
X126457191Y-116010000D01*
X126048012Y-116327617D01*
X125702274Y-116934243D01*
X125661312Y-117096036D01*
X125778717Y-117373000D01*
X127873000Y-117373000D01*
X127873000Y-117353000D01*
X128127000Y-117353000D01*
X128127000Y-117373000D01*
X130221283Y-117373000D01*
X130338688Y-117096036D01*
X130297726Y-116934243D01*
X129951988Y-116327617D01*
X129542809Y-116010000D01*
X131509199Y-116010000D01*
X136429071Y-120929873D01*
X136471471Y-120993329D01*
X136722863Y-121161304D01*
X136944548Y-121205400D01*
X136944552Y-121205400D01*
X137019399Y-121220288D01*
X137094246Y-121205400D01*
X140375606Y-121205400D01*
X140187138Y-121283466D01*
X139783466Y-121687138D01*
X139565000Y-122214561D01*
X139565000Y-122785439D01*
X139664809Y-123026400D01*
X137883698Y-123026400D01*
X137891914Y-123009041D01*
X137770629Y-122787000D01*
X136627000Y-122787000D01*
X136627000Y-122807000D01*
X136373000Y-122807000D01*
X136373000Y-122787000D01*
X135229371Y-122787000D01*
X135108086Y-123009041D01*
X135116302Y-123026400D01*
X130663003Y-123026400D01*
X127951435Y-120314833D01*
X130565000Y-120314833D01*
X130565000Y-120985167D01*
X130821526Y-121604476D01*
X131295524Y-122078474D01*
X131914833Y-122335000D01*
X132585167Y-122335000D01*
X132643207Y-122310959D01*
X135108086Y-122310959D01*
X135229371Y-122533000D01*
X136373000Y-122533000D01*
X136373000Y-121390085D01*
X136627000Y-121390085D01*
X136627000Y-122533000D01*
X137770629Y-122533000D01*
X137891914Y-122310959D01*
X137652389Y-121804866D01*
X137237423Y-121428959D01*
X136849039Y-121268096D01*
X136627000Y-121390085D01*
X136373000Y-121390085D01*
X136150961Y-121268096D01*
X135762577Y-121428959D01*
X135347611Y-121804866D01*
X135108086Y-122310959D01*
X132643207Y-122310959D01*
X133204476Y-122078474D01*
X133678474Y-121604476D01*
X133935000Y-120985167D01*
X133935000Y-120314833D01*
X133678474Y-119695524D01*
X133204476Y-119221526D01*
X132585167Y-118965000D01*
X131914833Y-118965000D01*
X131295524Y-119221526D01*
X130821526Y-119695524D01*
X130565000Y-120314833D01*
X127951435Y-120314833D01*
X126789021Y-119152420D01*
X127273000Y-119285000D01*
X127873000Y-119285000D01*
X127873000Y-117627000D01*
X128127000Y-117627000D01*
X128127000Y-119285000D01*
X128727000Y-119285000D01*
X129400423Y-119100524D01*
X129951988Y-118672383D01*
X130297726Y-118065757D01*
X130338688Y-117903964D01*
X130221283Y-117627000D01*
X128127000Y-117627000D01*
X127873000Y-117627000D01*
X125778717Y-117627000D01*
X125661312Y-117903964D01*
X125702246Y-118065644D01*
X125677331Y-118040730D01*
X125634929Y-117977271D01*
X125383537Y-117809296D01*
X125161852Y-117765200D01*
X125161847Y-117765200D01*
X125087000Y-117750312D01*
X125012153Y-117765200D01*
X121630902Y-117765200D01*
X119901275Y-116035573D01*
X119948667Y-116045000D01*
X120231333Y-116045000D01*
X120649909Y-115961740D01*
X121124577Y-115644577D01*
X121441740Y-115169909D01*
X121553113Y-114610000D01*
X121441740Y-114050091D01*
X121124577Y-113575423D01*
X120772242Y-113340000D01*
X121124577Y-113104577D01*
X121441740Y-112629909D01*
X121488372Y-112395474D01*
X124827373Y-115734476D01*
X124827373Y-115734476D01*
G37*
X124827373Y-115734476D02*
X124869771Y-115797929D01*
X124933224Y-115840327D01*
X124933226Y-115840329D01*
X125058602Y-115924102D01*
X125121163Y-115965904D01*
X125342848Y-116010000D01*
X125342852Y-116010000D01*
X125417699Y-116024888D01*
X125492546Y-116010000D01*
X126457191Y-116010000D01*
X126048012Y-116327617D01*
X125702274Y-116934243D01*
X125661312Y-117096036D01*
X125778717Y-117373000D01*
X127873000Y-117373000D01*
X127873000Y-117353000D01*
X128127000Y-117353000D01*
X128127000Y-117373000D01*
X130221283Y-117373000D01*
X130338688Y-117096036D01*
X130297726Y-116934243D01*
X129951988Y-116327617D01*
X129542809Y-116010000D01*
X131509199Y-116010000D01*
X136429071Y-120929873D01*
X136471471Y-120993329D01*
X136722863Y-121161304D01*
X136944548Y-121205400D01*
X136944552Y-121205400D01*
X137019399Y-121220288D01*
X137094246Y-121205400D01*
X140375606Y-121205400D01*
X140187138Y-121283466D01*
X139783466Y-121687138D01*
X139565000Y-122214561D01*
X139565000Y-122785439D01*
X139664809Y-123026400D01*
X137883698Y-123026400D01*
X137891914Y-123009041D01*
X137770629Y-122787000D01*
X136627000Y-122787000D01*
X136627000Y-122807000D01*
X136373000Y-122807000D01*
X136373000Y-122787000D01*
X135229371Y-122787000D01*
X135108086Y-123009041D01*
X135116302Y-123026400D01*
X130663003Y-123026400D01*
X127951435Y-120314833D01*
X130565000Y-120314833D01*
X130565000Y-120985167D01*
X130821526Y-121604476D01*
X131295524Y-122078474D01*
X131914833Y-122335000D01*
X132585167Y-122335000D01*
X132643207Y-122310959D01*
X135108086Y-122310959D01*
X135229371Y-122533000D01*
X136373000Y-122533000D01*
X136373000Y-121390085D01*
X136627000Y-121390085D01*
X136627000Y-122533000D01*
X137770629Y-122533000D01*
X137891914Y-122310959D01*
X137652389Y-121804866D01*
X137237423Y-121428959D01*
X136849039Y-121268096D01*
X136627000Y-121390085D01*
X136373000Y-121390085D01*
X136150961Y-121268096D01*
X135762577Y-121428959D01*
X135347611Y-121804866D01*
X135108086Y-122310959D01*
X132643207Y-122310959D01*
X133204476Y-122078474D01*
X133678474Y-121604476D01*
X133935000Y-120985167D01*
X133935000Y-120314833D01*
X133678474Y-119695524D01*
X133204476Y-119221526D01*
X132585167Y-118965000D01*
X131914833Y-118965000D01*
X131295524Y-119221526D01*
X130821526Y-119695524D01*
X130565000Y-120314833D01*
X127951435Y-120314833D01*
X126789021Y-119152420D01*
X127273000Y-119285000D01*
X127873000Y-119285000D01*
X127873000Y-117627000D01*
X128127000Y-117627000D01*
X128127000Y-119285000D01*
X128727000Y-119285000D01*
X129400423Y-119100524D01*
X129951988Y-118672383D01*
X130297726Y-118065757D01*
X130338688Y-117903964D01*
X130221283Y-117627000D01*
X128127000Y-117627000D01*
X127873000Y-117627000D01*
X125778717Y-117627000D01*
X125661312Y-117903964D01*
X125702246Y-118065644D01*
X125677331Y-118040730D01*
X125634929Y-117977271D01*
X125383537Y-117809296D01*
X125161852Y-117765200D01*
X125161847Y-117765200D01*
X125087000Y-117750312D01*
X125012153Y-117765200D01*
X121630902Y-117765200D01*
X119901275Y-116035573D01*
X119948667Y-116045000D01*
X120231333Y-116045000D01*
X120649909Y-115961740D01*
X121124577Y-115644577D01*
X121441740Y-115169909D01*
X121553113Y-114610000D01*
X121441740Y-114050091D01*
X121124577Y-113575423D01*
X120772242Y-113340000D01*
X121124577Y-113104577D01*
X121441740Y-112629909D01*
X121488372Y-112395474D01*
X124827373Y-115734476D01*
G36*
X135908339Y-111191841D02*
X135687138Y-111283466D01*
X135283466Y-111687138D01*
X135065000Y-112214561D01*
X135065000Y-112785439D01*
X135283466Y-113312862D01*
X135687138Y-113716534D01*
X136214561Y-113935000D01*
X136785439Y-113935000D01*
X137312862Y-113716534D01*
X137716534Y-113312862D01*
X137808159Y-113091661D01*
X140855673Y-116139176D01*
X140898071Y-116202629D01*
X140961524Y-116245027D01*
X140961526Y-116245029D01*
X141048180Y-116302929D01*
X141149463Y-116370604D01*
X141371148Y-116414700D01*
X141371152Y-116414700D01*
X141445999Y-116429588D01*
X141520846Y-116414700D01*
X144609550Y-116414700D01*
X144536887Y-116780000D01*
X144648260Y-117339909D01*
X144711597Y-117434700D01*
X139157302Y-117434700D01*
X131569431Y-109846830D01*
X131527029Y-109783371D01*
X131275637Y-109615396D01*
X131053952Y-109571300D01*
X131053947Y-109571300D01*
X130979100Y-109556412D01*
X130904253Y-109571300D01*
X127411402Y-109571300D01*
X126775102Y-108935000D01*
X127285439Y-108935000D01*
X127812862Y-108716534D01*
X128021651Y-108507745D01*
X128671861Y-108507745D01*
X128745995Y-108753864D01*
X129283223Y-108946965D01*
X129853454Y-108919778D01*
X130254005Y-108753864D01*
X130328139Y-108507745D01*
X129500000Y-107679605D01*
X128671861Y-108507745D01*
X128021651Y-108507745D01*
X128216534Y-108312862D01*
X128243525Y-108247701D01*
X128246136Y-108254005D01*
X128492255Y-108328139D01*
X129320395Y-107500000D01*
X129306252Y-107485858D01*
X129485858Y-107306252D01*
X129500000Y-107320395D01*
X129514142Y-107306252D01*
X129693748Y-107485858D01*
X129679605Y-107500000D01*
X130507745Y-108328139D01*
X130753864Y-108254005D01*
X130946965Y-107716777D01*
X130919778Y-107146546D01*
X130753864Y-106745995D01*
X130602824Y-106700500D01*
X131416999Y-106700500D01*
X135908339Y-111191841D01*
X135908339Y-111191841D01*
G37*
X135908339Y-111191841D02*
X135687138Y-111283466D01*
X135283466Y-111687138D01*
X135065000Y-112214561D01*
X135065000Y-112785439D01*
X135283466Y-113312862D01*
X135687138Y-113716534D01*
X136214561Y-113935000D01*
X136785439Y-113935000D01*
X137312862Y-113716534D01*
X137716534Y-113312862D01*
X137808159Y-113091661D01*
X140855673Y-116139176D01*
X140898071Y-116202629D01*
X140961524Y-116245027D01*
X140961526Y-116245029D01*
X141048180Y-116302929D01*
X141149463Y-116370604D01*
X141371148Y-116414700D01*
X141371152Y-116414700D01*
X141445999Y-116429588D01*
X141520846Y-116414700D01*
X144609550Y-116414700D01*
X144536887Y-116780000D01*
X144648260Y-117339909D01*
X144711597Y-117434700D01*
X139157302Y-117434700D01*
X131569431Y-109846830D01*
X131527029Y-109783371D01*
X131275637Y-109615396D01*
X131053952Y-109571300D01*
X131053947Y-109571300D01*
X130979100Y-109556412D01*
X130904253Y-109571300D01*
X127411402Y-109571300D01*
X126775102Y-108935000D01*
X127285439Y-108935000D01*
X127812862Y-108716534D01*
X128021651Y-108507745D01*
X128671861Y-108507745D01*
X128745995Y-108753864D01*
X129283223Y-108946965D01*
X129853454Y-108919778D01*
X130254005Y-108753864D01*
X130328139Y-108507745D01*
X129500000Y-107679605D01*
X128671861Y-108507745D01*
X128021651Y-108507745D01*
X128216534Y-108312862D01*
X128243525Y-108247701D01*
X128246136Y-108254005D01*
X128492255Y-108328139D01*
X129320395Y-107500000D01*
X129306252Y-107485858D01*
X129485858Y-107306252D01*
X129500000Y-107320395D01*
X129514142Y-107306252D01*
X129693748Y-107485858D01*
X129679605Y-107500000D01*
X130507745Y-108328139D01*
X130753864Y-108254005D01*
X130946965Y-107716777D01*
X130919778Y-107146546D01*
X130753864Y-106745995D01*
X130602824Y-106700500D01*
X131416999Y-106700500D01*
X135908339Y-111191841D01*
G36*
X187036887Y-92200000D02*
X187148260Y-92759909D01*
X187465423Y-93234577D01*
X187849108Y-93490947D01*
X187644866Y-93587611D01*
X187268959Y-94002577D01*
X187108096Y-94390961D01*
X187230085Y-94613000D01*
X188373000Y-94613000D01*
X188373000Y-94593000D01*
X188627000Y-94593000D01*
X188627000Y-94613000D01*
X189769915Y-94613000D01*
X189891904Y-94390961D01*
X189731041Y-94002577D01*
X189355134Y-93587611D01*
X189150892Y-93490947D01*
X189534577Y-93234577D01*
X189718043Y-92960000D01*
X194901957Y-92960000D01*
X195085423Y-93234577D01*
X195437758Y-93470000D01*
X195085423Y-93705423D01*
X194768260Y-94180091D01*
X194656887Y-94740000D01*
X194768260Y-95299909D01*
X195085423Y-95774577D01*
X195369384Y-95964314D01*
X194949667Y-96384031D01*
X194943014Y-96377378D01*
X194828139Y-96492253D01*
X194754005Y-96246136D01*
X194216777Y-96053035D01*
X193646546Y-96080222D01*
X193245995Y-96246136D01*
X193171861Y-96492255D01*
X194000000Y-97320395D01*
X194014143Y-97306253D01*
X194193748Y-97485858D01*
X194179605Y-97500000D01*
X194193748Y-97514142D01*
X194014142Y-97693748D01*
X194000000Y-97679605D01*
X193171861Y-98507745D01*
X193245995Y-98753864D01*
X193783223Y-98946965D01*
X194228723Y-98925725D01*
X194184197Y-98992363D01*
X194125212Y-99288900D01*
X194140101Y-99363752D01*
X194140100Y-108128998D01*
X189762526Y-112506573D01*
X189534577Y-112165423D01*
X189182242Y-111930000D01*
X189534577Y-111694577D01*
X189851740Y-111219909D01*
X189963113Y-110660000D01*
X189851740Y-110100091D01*
X189534577Y-109625423D01*
X189182242Y-109390000D01*
X189534577Y-109154577D01*
X189851740Y-108679909D01*
X189963113Y-108120000D01*
X189851740Y-107560091D01*
X189534577Y-107085423D01*
X189238614Y-106887667D01*
X189255896Y-106800786D01*
X189534577Y-106614577D01*
X189851740Y-106139909D01*
X189963113Y-105580000D01*
X189851740Y-105020091D01*
X189604232Y-104649669D01*
X190577673Y-103676229D01*
X190641129Y-103633829D01*
X190707090Y-103535112D01*
X190809104Y-103382438D01*
X190828665Y-103284097D01*
X190853200Y-103160752D01*
X190853200Y-103160748D01*
X190868088Y-103085900D01*
X190853200Y-103011052D01*
X190853200Y-99364448D01*
X190868088Y-99289600D01*
X190853200Y-99214752D01*
X190853200Y-99214748D01*
X190809104Y-98993063D01*
X190641129Y-98741671D01*
X190577673Y-98699271D01*
X189161625Y-97283223D01*
X192553035Y-97283223D01*
X192580222Y-97853454D01*
X192746136Y-98254005D01*
X192992255Y-98328139D01*
X193820395Y-97500000D01*
X192992255Y-96671861D01*
X192746136Y-96745995D01*
X192553035Y-97283223D01*
X189161625Y-97283223D01*
X187883940Y-96005539D01*
X188150959Y-96131914D01*
X188373000Y-96010629D01*
X188373000Y-94867000D01*
X188627000Y-94867000D01*
X188627000Y-96010629D01*
X188849041Y-96131914D01*
X189355134Y-95892389D01*
X189731041Y-95477423D01*
X189891904Y-95089039D01*
X189769915Y-94867000D01*
X188627000Y-94867000D01*
X188373000Y-94867000D01*
X187230085Y-94867000D01*
X187108096Y-95089039D01*
X187207543Y-95329142D01*
X185559231Y-93680830D01*
X185516829Y-93617371D01*
X185473964Y-93588729D01*
X185583113Y-93040000D01*
X185510430Y-92674600D01*
X185605353Y-92674600D01*
X185680200Y-92689488D01*
X185755047Y-92674600D01*
X185755052Y-92674600D01*
X185976737Y-92630504D01*
X186228129Y-92462529D01*
X186270531Y-92399070D01*
X186979602Y-91690000D01*
X187138332Y-91690000D01*
X187036887Y-92200000D01*
X187036887Y-92200000D01*
G37*
X187036887Y-92200000D02*
X187148260Y-92759909D01*
X187465423Y-93234577D01*
X187849108Y-93490947D01*
X187644866Y-93587611D01*
X187268959Y-94002577D01*
X187108096Y-94390961D01*
X187230085Y-94613000D01*
X188373000Y-94613000D01*
X188373000Y-94593000D01*
X188627000Y-94593000D01*
X188627000Y-94613000D01*
X189769915Y-94613000D01*
X189891904Y-94390961D01*
X189731041Y-94002577D01*
X189355134Y-93587611D01*
X189150892Y-93490947D01*
X189534577Y-93234577D01*
X189718043Y-92960000D01*
X194901957Y-92960000D01*
X195085423Y-93234577D01*
X195437758Y-93470000D01*
X195085423Y-93705423D01*
X194768260Y-94180091D01*
X194656887Y-94740000D01*
X194768260Y-95299909D01*
X195085423Y-95774577D01*
X195369384Y-95964314D01*
X194949667Y-96384031D01*
X194943014Y-96377378D01*
X194828139Y-96492253D01*
X194754005Y-96246136D01*
X194216777Y-96053035D01*
X193646546Y-96080222D01*
X193245995Y-96246136D01*
X193171861Y-96492255D01*
X194000000Y-97320395D01*
X194014143Y-97306253D01*
X194193748Y-97485858D01*
X194179605Y-97500000D01*
X194193748Y-97514142D01*
X194014142Y-97693748D01*
X194000000Y-97679605D01*
X193171861Y-98507745D01*
X193245995Y-98753864D01*
X193783223Y-98946965D01*
X194228723Y-98925725D01*
X194184197Y-98992363D01*
X194125212Y-99288900D01*
X194140101Y-99363752D01*
X194140100Y-108128998D01*
X189762526Y-112506573D01*
X189534577Y-112165423D01*
X189182242Y-111930000D01*
X189534577Y-111694577D01*
X189851740Y-111219909D01*
X189963113Y-110660000D01*
X189851740Y-110100091D01*
X189534577Y-109625423D01*
X189182242Y-109390000D01*
X189534577Y-109154577D01*
X189851740Y-108679909D01*
X189963113Y-108120000D01*
X189851740Y-107560091D01*
X189534577Y-107085423D01*
X189238614Y-106887667D01*
X189255896Y-106800786D01*
X189534577Y-106614577D01*
X189851740Y-106139909D01*
X189963113Y-105580000D01*
X189851740Y-105020091D01*
X189604232Y-104649669D01*
X190577673Y-103676229D01*
X190641129Y-103633829D01*
X190707090Y-103535112D01*
X190809104Y-103382438D01*
X190828665Y-103284097D01*
X190853200Y-103160752D01*
X190853200Y-103160748D01*
X190868088Y-103085900D01*
X190853200Y-103011052D01*
X190853200Y-99364448D01*
X190868088Y-99289600D01*
X190853200Y-99214752D01*
X190853200Y-99214748D01*
X190809104Y-98993063D01*
X190641129Y-98741671D01*
X190577673Y-98699271D01*
X189161625Y-97283223D01*
X192553035Y-97283223D01*
X192580222Y-97853454D01*
X192746136Y-98254005D01*
X192992255Y-98328139D01*
X193820395Y-97500000D01*
X192992255Y-96671861D01*
X192746136Y-96745995D01*
X192553035Y-97283223D01*
X189161625Y-97283223D01*
X187883940Y-96005539D01*
X188150959Y-96131914D01*
X188373000Y-96010629D01*
X188373000Y-94867000D01*
X188627000Y-94867000D01*
X188627000Y-96010629D01*
X188849041Y-96131914D01*
X189355134Y-95892389D01*
X189731041Y-95477423D01*
X189891904Y-95089039D01*
X189769915Y-94867000D01*
X188627000Y-94867000D01*
X188373000Y-94867000D01*
X187230085Y-94867000D01*
X187108096Y-95089039D01*
X187207543Y-95329142D01*
X185559231Y-93680830D01*
X185516829Y-93617371D01*
X185473964Y-93588729D01*
X185583113Y-93040000D01*
X185510430Y-92674600D01*
X185605353Y-92674600D01*
X185680200Y-92689488D01*
X185755047Y-92674600D01*
X185755052Y-92674600D01*
X185976737Y-92630504D01*
X186228129Y-92462529D01*
X186270531Y-92399070D01*
X186979602Y-91690000D01*
X187138332Y-91690000D01*
X187036887Y-92200000D01*
G36*
X175465423Y-106774577D02*
X175849108Y-107030947D01*
X175644866Y-107127611D01*
X175268959Y-107542577D01*
X175108096Y-107930961D01*
X175230085Y-108153000D01*
X176373000Y-108153000D01*
X176373000Y-108133000D01*
X176627000Y-108133000D01*
X176627000Y-108153000D01*
X176647000Y-108153000D01*
X176647000Y-108407000D01*
X176627000Y-108407000D01*
X176627000Y-108427000D01*
X176373000Y-108427000D01*
X176373000Y-108407000D01*
X175230085Y-108407000D01*
X175108096Y-108629039D01*
X175268959Y-109017423D01*
X175644866Y-109432389D01*
X175864745Y-109536454D01*
X173796499Y-111604700D01*
X172921946Y-111604700D01*
X172938839Y-111579418D01*
X173054092Y-111000000D01*
X172938839Y-110420582D01*
X172610625Y-109929375D01*
X172119418Y-109601161D01*
X172070893Y-109591509D01*
X175234070Y-106428332D01*
X175465423Y-106774577D01*
X175465423Y-106774577D01*
G37*
X175465423Y-106774577D02*
X175849108Y-107030947D01*
X175644866Y-107127611D01*
X175268959Y-107542577D01*
X175108096Y-107930961D01*
X175230085Y-108153000D01*
X176373000Y-108153000D01*
X176373000Y-108133000D01*
X176627000Y-108133000D01*
X176627000Y-108153000D01*
X176647000Y-108153000D01*
X176647000Y-108407000D01*
X176627000Y-108407000D01*
X176627000Y-108427000D01*
X176373000Y-108427000D01*
X176373000Y-108407000D01*
X175230085Y-108407000D01*
X175108096Y-108629039D01*
X175268959Y-109017423D01*
X175644866Y-109432389D01*
X175864745Y-109536454D01*
X173796499Y-111604700D01*
X172921946Y-111604700D01*
X172938839Y-111579418D01*
X173054092Y-111000000D01*
X172938839Y-110420582D01*
X172610625Y-109929375D01*
X172119418Y-109601161D01*
X172070893Y-109591509D01*
X175234070Y-106428332D01*
X175465423Y-106774577D01*
G36*
X165656969Y-92343180D02*
X165948120Y-92634331D01*
X166328526Y-92791900D01*
X166357599Y-92791900D01*
X168500570Y-94934872D01*
X168542971Y-94998329D01*
X168794363Y-95166304D01*
X169016048Y-95210400D01*
X169016053Y-95210400D01*
X169090900Y-95225288D01*
X169165747Y-95210400D01*
X170726530Y-95210400D01*
X170663260Y-95305091D01*
X170551887Y-95865000D01*
X170663260Y-96424909D01*
X170980423Y-96899577D01*
X171259104Y-97085786D01*
X171276386Y-97172667D01*
X170980423Y-97370423D01*
X170796957Y-97645000D01*
X163710048Y-97645000D01*
X163635200Y-97630112D01*
X163560352Y-97645000D01*
X163560348Y-97645000D01*
X163338663Y-97689096D01*
X163087271Y-97857071D01*
X163044871Y-97920527D01*
X154945131Y-106020268D01*
X154747023Y-105723778D01*
X156134173Y-104336629D01*
X156197629Y-104294229D01*
X156365604Y-104042837D01*
X156409700Y-103821152D01*
X156409700Y-103821147D01*
X156424588Y-103746300D01*
X156409700Y-103671453D01*
X156409700Y-102329219D01*
X156425959Y-102336914D01*
X156648000Y-102215629D01*
X156648000Y-101072000D01*
X156902000Y-101072000D01*
X156902000Y-102215629D01*
X157124041Y-102336914D01*
X157630134Y-102097389D01*
X158006041Y-101682423D01*
X158166904Y-101294039D01*
X158044915Y-101072000D01*
X156902000Y-101072000D01*
X156648000Y-101072000D01*
X156628000Y-101072000D01*
X156628000Y-100818000D01*
X156648000Y-100818000D01*
X156648000Y-100798000D01*
X156902000Y-100798000D01*
X156902000Y-100818000D01*
X158044915Y-100818000D01*
X158166904Y-100595961D01*
X158006041Y-100207577D01*
X157630134Y-99792611D01*
X157425892Y-99695947D01*
X157809577Y-99439577D01*
X158126740Y-98964909D01*
X158238113Y-98405000D01*
X158126740Y-97845091D01*
X157809577Y-97370423D01*
X157457242Y-97135000D01*
X157809577Y-96899577D01*
X158126740Y-96424909D01*
X158238113Y-95865000D01*
X158126740Y-95305091D01*
X158063470Y-95210400D01*
X161956453Y-95210400D01*
X162031300Y-95225288D01*
X162106147Y-95210400D01*
X162106152Y-95210400D01*
X162327837Y-95166304D01*
X162579229Y-94998329D01*
X162621631Y-94934870D01*
X165527028Y-92029475D01*
X165656969Y-92343180D01*
X165656969Y-92343180D01*
G37*
X165656969Y-92343180D02*
X165948120Y-92634331D01*
X166328526Y-92791900D01*
X166357599Y-92791900D01*
X168500570Y-94934872D01*
X168542971Y-94998329D01*
X168794363Y-95166304D01*
X169016048Y-95210400D01*
X169016053Y-95210400D01*
X169090900Y-95225288D01*
X169165747Y-95210400D01*
X170726530Y-95210400D01*
X170663260Y-95305091D01*
X170551887Y-95865000D01*
X170663260Y-96424909D01*
X170980423Y-96899577D01*
X171259104Y-97085786D01*
X171276386Y-97172667D01*
X170980423Y-97370423D01*
X170796957Y-97645000D01*
X163710048Y-97645000D01*
X163635200Y-97630112D01*
X163560352Y-97645000D01*
X163560348Y-97645000D01*
X163338663Y-97689096D01*
X163087271Y-97857071D01*
X163044871Y-97920527D01*
X154945131Y-106020268D01*
X154747023Y-105723778D01*
X156134173Y-104336629D01*
X156197629Y-104294229D01*
X156365604Y-104042837D01*
X156409700Y-103821152D01*
X156409700Y-103821147D01*
X156424588Y-103746300D01*
X156409700Y-103671453D01*
X156409700Y-102329219D01*
X156425959Y-102336914D01*
X156648000Y-102215629D01*
X156648000Y-101072000D01*
X156902000Y-101072000D01*
X156902000Y-102215629D01*
X157124041Y-102336914D01*
X157630134Y-102097389D01*
X158006041Y-101682423D01*
X158166904Y-101294039D01*
X158044915Y-101072000D01*
X156902000Y-101072000D01*
X156648000Y-101072000D01*
X156628000Y-101072000D01*
X156628000Y-100818000D01*
X156648000Y-100818000D01*
X156648000Y-100798000D01*
X156902000Y-100798000D01*
X156902000Y-100818000D01*
X158044915Y-100818000D01*
X158166904Y-100595961D01*
X158006041Y-100207577D01*
X157630134Y-99792611D01*
X157425892Y-99695947D01*
X157809577Y-99439577D01*
X158126740Y-98964909D01*
X158238113Y-98405000D01*
X158126740Y-97845091D01*
X157809577Y-97370423D01*
X157457242Y-97135000D01*
X157809577Y-96899577D01*
X158126740Y-96424909D01*
X158238113Y-95865000D01*
X158126740Y-95305091D01*
X158063470Y-95210400D01*
X161956453Y-95210400D01*
X162031300Y-95225288D01*
X162106147Y-95210400D01*
X162106152Y-95210400D01*
X162327837Y-95166304D01*
X162579229Y-94998329D01*
X162621631Y-94934870D01*
X165527028Y-92029475D01*
X165656969Y-92343180D01*
G36*
X132268096Y-103650961D02*
X132390085Y-103873000D01*
X133533000Y-103873000D01*
X133533000Y-103853000D01*
X133787000Y-103853000D01*
X133787000Y-103873000D01*
X134929915Y-103873000D01*
X135051904Y-103650961D01*
X135023051Y-103581300D01*
X136074399Y-103581300D01*
X137545658Y-105052560D01*
X137200000Y-105052560D01*
X136952235Y-105101843D01*
X136742191Y-105242191D01*
X136721964Y-105272463D01*
X136339731Y-104890230D01*
X136297329Y-104826771D01*
X136045937Y-104658796D01*
X135824252Y-104614700D01*
X135824247Y-104614700D01*
X135749400Y-104599812D01*
X135674553Y-104614700D01*
X134941871Y-104614700D01*
X135051904Y-104349039D01*
X134929915Y-104127000D01*
X133787000Y-104127000D01*
X133787000Y-104147000D01*
X133533000Y-104147000D01*
X133533000Y-104127000D01*
X132390085Y-104127000D01*
X132268096Y-104349039D01*
X132378129Y-104614700D01*
X125189503Y-104614700D01*
X124913104Y-104338301D01*
X124935000Y-104285439D01*
X124935000Y-103714561D01*
X124879801Y-103581300D01*
X132296949Y-103581300D01*
X132268096Y-103650961D01*
X132268096Y-103650961D01*
G37*
X132268096Y-103650961D02*
X132390085Y-103873000D01*
X133533000Y-103873000D01*
X133533000Y-103853000D01*
X133787000Y-103853000D01*
X133787000Y-103873000D01*
X134929915Y-103873000D01*
X135051904Y-103650961D01*
X135023051Y-103581300D01*
X136074399Y-103581300D01*
X137545658Y-105052560D01*
X137200000Y-105052560D01*
X136952235Y-105101843D01*
X136742191Y-105242191D01*
X136721964Y-105272463D01*
X136339731Y-104890230D01*
X136297329Y-104826771D01*
X136045937Y-104658796D01*
X135824252Y-104614700D01*
X135824247Y-104614700D01*
X135749400Y-104599812D01*
X135674553Y-104614700D01*
X134941871Y-104614700D01*
X135051904Y-104349039D01*
X134929915Y-104127000D01*
X133787000Y-104127000D01*
X133787000Y-104147000D01*
X133533000Y-104147000D01*
X133533000Y-104127000D01*
X132390085Y-104127000D01*
X132268096Y-104349039D01*
X132378129Y-104614700D01*
X125189503Y-104614700D01*
X124913104Y-104338301D01*
X124935000Y-104285439D01*
X124935000Y-103714561D01*
X124879801Y-103581300D01*
X132296949Y-103581300D01*
X132268096Y-103650961D01*
G36*
X144070200Y-97081601D02*
X144070200Y-97247674D01*
X144227769Y-97628080D01*
X144518920Y-97919231D01*
X144601596Y-97953476D01*
X144552560Y-98200000D01*
X144552560Y-98301203D01*
X144326771Y-98452071D01*
X144284371Y-98515527D01*
X142385899Y-100414000D01*
X140376075Y-100414000D01*
X140446965Y-100216777D01*
X140419778Y-99646546D01*
X140253864Y-99245995D01*
X140007745Y-99171861D01*
X139179605Y-100000000D01*
X139193748Y-100014143D01*
X139014143Y-100193748D01*
X139000000Y-100179605D01*
X138985858Y-100193748D01*
X138806253Y-100014143D01*
X138820395Y-100000000D01*
X137992255Y-99171861D01*
X137746136Y-99245995D01*
X137553035Y-99783223D01*
X137580222Y-100353454D01*
X137605301Y-100414000D01*
X135446101Y-100414000D01*
X137553811Y-98306291D01*
X137601843Y-98547765D01*
X137742191Y-98757809D01*
X137952235Y-98898157D01*
X138186187Y-98944693D01*
X138171861Y-98992255D01*
X139000000Y-99820395D01*
X139828139Y-98992255D01*
X139813813Y-98944693D01*
X140047765Y-98898157D01*
X140257809Y-98757809D01*
X140398157Y-98547765D01*
X140447440Y-98300000D01*
X140447440Y-97046700D01*
X144035299Y-97046700D01*
X144070200Y-97081601D01*
X144070200Y-97081601D01*
G37*
X144070200Y-97081601D02*
X144070200Y-97247674D01*
X144227769Y-97628080D01*
X144518920Y-97919231D01*
X144601596Y-97953476D01*
X144552560Y-98200000D01*
X144552560Y-98301203D01*
X144326771Y-98452071D01*
X144284371Y-98515527D01*
X142385899Y-100414000D01*
X140376075Y-100414000D01*
X140446965Y-100216777D01*
X140419778Y-99646546D01*
X140253864Y-99245995D01*
X140007745Y-99171861D01*
X139179605Y-100000000D01*
X139193748Y-100014143D01*
X139014143Y-100193748D01*
X139000000Y-100179605D01*
X138985858Y-100193748D01*
X138806253Y-100014143D01*
X138820395Y-100000000D01*
X137992255Y-99171861D01*
X137746136Y-99245995D01*
X137553035Y-99783223D01*
X137580222Y-100353454D01*
X137605301Y-100414000D01*
X135446101Y-100414000D01*
X137553811Y-98306291D01*
X137601843Y-98547765D01*
X137742191Y-98757809D01*
X137952235Y-98898157D01*
X138186187Y-98944693D01*
X138171861Y-98992255D01*
X139000000Y-99820395D01*
X139828139Y-98992255D01*
X139813813Y-98944693D01*
X140047765Y-98898157D01*
X140257809Y-98757809D01*
X140398157Y-98547765D01*
X140447440Y-98300000D01*
X140447440Y-97046700D01*
X144035299Y-97046700D01*
X144070200Y-97081601D01*
G36*
X114149155Y-93215656D02*
X113785439Y-93065000D01*
X113214561Y-93065000D01*
X112687138Y-93283466D01*
X112283466Y-93687138D01*
X112256475Y-93752299D01*
X112253864Y-93745995D01*
X112007745Y-93671861D01*
X111179605Y-94500000D01*
X112007745Y-95328139D01*
X112253864Y-95254005D01*
X112256290Y-95247254D01*
X112283466Y-95312862D01*
X112687138Y-95716534D01*
X113214561Y-95935000D01*
X113785439Y-95935000D01*
X114312862Y-95716534D01*
X114716534Y-95312862D01*
X114935000Y-94785439D01*
X114935000Y-94214561D01*
X114784344Y-93850845D01*
X117033170Y-96099672D01*
X117075571Y-96163129D01*
X117326963Y-96331104D01*
X117548648Y-96375200D01*
X117548652Y-96375200D01*
X117623499Y-96390088D01*
X117698346Y-96375200D01*
X118717352Y-96375200D01*
X118626887Y-96830000D01*
X118738260Y-97389909D01*
X119055423Y-97864577D01*
X119407758Y-98100000D01*
X119055423Y-98335423D01*
X118738260Y-98810091D01*
X118626887Y-99370000D01*
X118728332Y-99880000D01*
X111572002Y-99880000D01*
X107199747Y-95507745D01*
X110171861Y-95507745D01*
X110245995Y-95753864D01*
X110783223Y-95946965D01*
X111353454Y-95919778D01*
X111754005Y-95753864D01*
X111828139Y-95507745D01*
X111000000Y-94679605D01*
X110171861Y-95507745D01*
X107199747Y-95507745D01*
X106767531Y-95075530D01*
X106725129Y-95012071D01*
X106473737Y-94844096D01*
X106252052Y-94800000D01*
X106252047Y-94800000D01*
X106181083Y-94785884D01*
X106241904Y-94639039D01*
X106119915Y-94417000D01*
X104977000Y-94417000D01*
X104977000Y-94437000D01*
X104723000Y-94437000D01*
X104723000Y-94417000D01*
X104703000Y-94417000D01*
X104703000Y-94283223D01*
X109553035Y-94283223D01*
X109580222Y-94853454D01*
X109746136Y-95254005D01*
X109992255Y-95328139D01*
X110820395Y-94500000D01*
X109992255Y-93671861D01*
X109746136Y-93745995D01*
X109553035Y-94283223D01*
X104703000Y-94283223D01*
X104703000Y-94163000D01*
X104723000Y-94163000D01*
X104723000Y-94143000D01*
X104977000Y-94143000D01*
X104977000Y-94163000D01*
X106119915Y-94163000D01*
X106241904Y-93940961D01*
X106081041Y-93552577D01*
X106026397Y-93492255D01*
X110171861Y-93492255D01*
X111000000Y-94320395D01*
X111828139Y-93492255D01*
X111754005Y-93246136D01*
X111216777Y-93053035D01*
X110646546Y-93080222D01*
X110245995Y-93246136D01*
X110171861Y-93492255D01*
X106026397Y-93492255D01*
X105705134Y-93137611D01*
X105500892Y-93040947D01*
X105884577Y-92784577D01*
X106068043Y-92510000D01*
X113443499Y-92510000D01*
X114149155Y-93215656D01*
X114149155Y-93215656D01*
G37*
X114149155Y-93215656D02*
X113785439Y-93065000D01*
X113214561Y-93065000D01*
X112687138Y-93283466D01*
X112283466Y-93687138D01*
X112256475Y-93752299D01*
X112253864Y-93745995D01*
X112007745Y-93671861D01*
X111179605Y-94500000D01*
X112007745Y-95328139D01*
X112253864Y-95254005D01*
X112256290Y-95247254D01*
X112283466Y-95312862D01*
X112687138Y-95716534D01*
X113214561Y-95935000D01*
X113785439Y-95935000D01*
X114312862Y-95716534D01*
X114716534Y-95312862D01*
X114935000Y-94785439D01*
X114935000Y-94214561D01*
X114784344Y-93850845D01*
X117033170Y-96099672D01*
X117075571Y-96163129D01*
X117326963Y-96331104D01*
X117548648Y-96375200D01*
X117548652Y-96375200D01*
X117623499Y-96390088D01*
X117698346Y-96375200D01*
X118717352Y-96375200D01*
X118626887Y-96830000D01*
X118738260Y-97389909D01*
X119055423Y-97864577D01*
X119407758Y-98100000D01*
X119055423Y-98335423D01*
X118738260Y-98810091D01*
X118626887Y-99370000D01*
X118728332Y-99880000D01*
X111572002Y-99880000D01*
X107199747Y-95507745D01*
X110171861Y-95507745D01*
X110245995Y-95753864D01*
X110783223Y-95946965D01*
X111353454Y-95919778D01*
X111754005Y-95753864D01*
X111828139Y-95507745D01*
X111000000Y-94679605D01*
X110171861Y-95507745D01*
X107199747Y-95507745D01*
X106767531Y-95075530D01*
X106725129Y-95012071D01*
X106473737Y-94844096D01*
X106252052Y-94800000D01*
X106252047Y-94800000D01*
X106181083Y-94785884D01*
X106241904Y-94639039D01*
X106119915Y-94417000D01*
X104977000Y-94417000D01*
X104977000Y-94437000D01*
X104723000Y-94437000D01*
X104723000Y-94417000D01*
X104703000Y-94417000D01*
X104703000Y-94283223D01*
X109553035Y-94283223D01*
X109580222Y-94853454D01*
X109746136Y-95254005D01*
X109992255Y-95328139D01*
X110820395Y-94500000D01*
X109992255Y-93671861D01*
X109746136Y-93745995D01*
X109553035Y-94283223D01*
X104703000Y-94283223D01*
X104703000Y-94163000D01*
X104723000Y-94163000D01*
X104723000Y-94143000D01*
X104977000Y-94143000D01*
X104977000Y-94163000D01*
X106119915Y-94163000D01*
X106241904Y-93940961D01*
X106081041Y-93552577D01*
X106026397Y-93492255D01*
X110171861Y-93492255D01*
X111000000Y-94320395D01*
X111828139Y-93492255D01*
X111754005Y-93246136D01*
X111216777Y-93053035D01*
X110646546Y-93080222D01*
X110245995Y-93246136D01*
X110171861Y-93492255D01*
X106026397Y-93492255D01*
X105705134Y-93137611D01*
X105500892Y-93040947D01*
X105884577Y-92784577D01*
X106068043Y-92510000D01*
X113443499Y-92510000D01*
X114149155Y-93215656D01*
G36*
X151193748Y-96485858D02*
X151179605Y-96500000D01*
X151193748Y-96514142D01*
X151014143Y-96693748D01*
X151000000Y-96679605D01*
X150985858Y-96693748D01*
X150806252Y-96514142D01*
X150820395Y-96500000D01*
X150806252Y-96485858D01*
X150985858Y-96306252D01*
X151000000Y-96320395D01*
X151014142Y-96306252D01*
X151193748Y-96485858D01*
X151193748Y-96485858D01*
G37*
X151193748Y-96485858D02*
X151179605Y-96500000D01*
X151193748Y-96514142D01*
X151014143Y-96693748D01*
X151000000Y-96679605D01*
X150985858Y-96693748D01*
X150806252Y-96514142D01*
X150820395Y-96500000D01*
X150806252Y-96485858D01*
X150985858Y-96306252D01*
X151000000Y-96320395D01*
X151014142Y-96306252D01*
X151193748Y-96485858D01*
G36*
X148698299Y-93725300D02*
X146885169Y-93725300D01*
X146891904Y-93709039D01*
X146769915Y-93487000D01*
X145627000Y-93487000D01*
X145627000Y-93507000D01*
X145373000Y-93507000D01*
X145373000Y-93487000D01*
X144230085Y-93487000D01*
X144108096Y-93709039D01*
X144114831Y-93725300D01*
X143674201Y-93725300D01*
X144207539Y-93191963D01*
X144230085Y-93233000D01*
X145373000Y-93233000D01*
X145373000Y-93213000D01*
X145627000Y-93213000D01*
X145627000Y-93233000D01*
X146769915Y-93233000D01*
X146891904Y-93010961D01*
X146825236Y-92850000D01*
X149573599Y-92850000D01*
X148698299Y-93725300D01*
X148698299Y-93725300D01*
G37*
X148698299Y-93725300D02*
X146885169Y-93725300D01*
X146891904Y-93709039D01*
X146769915Y-93487000D01*
X145627000Y-93487000D01*
X145627000Y-93507000D01*
X145373000Y-93507000D01*
X145373000Y-93487000D01*
X144230085Y-93487000D01*
X144108096Y-93709039D01*
X144114831Y-93725300D01*
X143674201Y-93725300D01*
X144207539Y-93191963D01*
X144230085Y-93233000D01*
X145373000Y-93233000D01*
X145373000Y-93213000D01*
X145627000Y-93213000D01*
X145627000Y-93233000D01*
X146769915Y-93233000D01*
X146891904Y-93010961D01*
X146825236Y-92850000D01*
X149573599Y-92850000D01*
X148698299Y-93725300D01*
G36*
X133627000Y-93233000D02*
X133647000Y-93233000D01*
X133647000Y-93487000D01*
X133627000Y-93487000D01*
X133627000Y-93507000D01*
X133373000Y-93507000D01*
X133373000Y-93487000D01*
X133353000Y-93487000D01*
X133353000Y-93233000D01*
X133373000Y-93233000D01*
X133373000Y-93213000D01*
X133627000Y-93213000D01*
X133627000Y-93233000D01*
X133627000Y-93233000D01*
G37*
X133627000Y-93233000D02*
X133647000Y-93233000D01*
X133647000Y-93487000D01*
X133627000Y-93487000D01*
X133627000Y-93507000D01*
X133373000Y-93507000D01*
X133373000Y-93487000D01*
X133353000Y-93487000D01*
X133353000Y-93233000D01*
X133373000Y-93233000D01*
X133373000Y-93213000D01*
X133627000Y-93213000D01*
X133627000Y-93233000D01*
G36*
X182656887Y-85240000D02*
X182768260Y-85799909D01*
X183085423Y-86274577D01*
X183560091Y-86591740D01*
X183958623Y-86671013D01*
X183687138Y-86783466D01*
X183283466Y-87187138D01*
X183256475Y-87252299D01*
X183253864Y-87245995D01*
X183007745Y-87171861D01*
X182179605Y-88000000D01*
X182193748Y-88014142D01*
X182014143Y-88193748D01*
X182000000Y-88179605D01*
X181985858Y-88193748D01*
X181806252Y-88014142D01*
X181820395Y-88000000D01*
X180992255Y-87171861D01*
X180746136Y-87245995D01*
X180553035Y-87783223D01*
X180580222Y-88353454D01*
X180613420Y-88433600D01*
X174403702Y-88433600D01*
X173730631Y-87760530D01*
X173688229Y-87697071D01*
X173436837Y-87529096D01*
X173235786Y-87489104D01*
X173110861Y-87302140D01*
X173420746Y-86992255D01*
X181171861Y-86992255D01*
X182000000Y-87820395D01*
X182828139Y-86992255D01*
X182754005Y-86746136D01*
X182216777Y-86553035D01*
X181646546Y-86580222D01*
X181245995Y-86746136D01*
X181171861Y-86992255D01*
X173420746Y-86992255D01*
X175065000Y-85348002D01*
X175065000Y-85367002D01*
X175230084Y-85367002D01*
X175108096Y-85589039D01*
X175268959Y-85977423D01*
X175644866Y-86392389D01*
X176150959Y-86631914D01*
X176373000Y-86510629D01*
X176373000Y-85367000D01*
X176627000Y-85367000D01*
X176627000Y-86510629D01*
X176849041Y-86631914D01*
X177355134Y-86392389D01*
X177731041Y-85977423D01*
X177891904Y-85589039D01*
X177769915Y-85367000D01*
X176627000Y-85367000D01*
X176373000Y-85367000D01*
X176353000Y-85367000D01*
X176353000Y-85113000D01*
X176373000Y-85113000D01*
X176373000Y-85093000D01*
X176627000Y-85093000D01*
X176627000Y-85113000D01*
X177769915Y-85113000D01*
X177891904Y-84890961D01*
X177880986Y-84864600D01*
X182731559Y-84864600D01*
X182656887Y-85240000D01*
X182656887Y-85240000D01*
G37*
X182656887Y-85240000D02*
X182768260Y-85799909D01*
X183085423Y-86274577D01*
X183560091Y-86591740D01*
X183958623Y-86671013D01*
X183687138Y-86783466D01*
X183283466Y-87187138D01*
X183256475Y-87252299D01*
X183253864Y-87245995D01*
X183007745Y-87171861D01*
X182179605Y-88000000D01*
X182193748Y-88014142D01*
X182014143Y-88193748D01*
X182000000Y-88179605D01*
X181985858Y-88193748D01*
X181806252Y-88014142D01*
X181820395Y-88000000D01*
X180992255Y-87171861D01*
X180746136Y-87245995D01*
X180553035Y-87783223D01*
X180580222Y-88353454D01*
X180613420Y-88433600D01*
X174403702Y-88433600D01*
X173730631Y-87760530D01*
X173688229Y-87697071D01*
X173436837Y-87529096D01*
X173235786Y-87489104D01*
X173110861Y-87302140D01*
X173420746Y-86992255D01*
X181171861Y-86992255D01*
X182000000Y-87820395D01*
X182828139Y-86992255D01*
X182754005Y-86746136D01*
X182216777Y-86553035D01*
X181646546Y-86580222D01*
X181245995Y-86746136D01*
X181171861Y-86992255D01*
X173420746Y-86992255D01*
X175065000Y-85348002D01*
X175065000Y-85367002D01*
X175230084Y-85367002D01*
X175108096Y-85589039D01*
X175268959Y-85977423D01*
X175644866Y-86392389D01*
X176150959Y-86631914D01*
X176373000Y-86510629D01*
X176373000Y-85367000D01*
X176627000Y-85367000D01*
X176627000Y-86510629D01*
X176849041Y-86631914D01*
X177355134Y-86392389D01*
X177731041Y-85977423D01*
X177891904Y-85589039D01*
X177769915Y-85367000D01*
X176627000Y-85367000D01*
X176373000Y-85367000D01*
X176353000Y-85367000D01*
X176353000Y-85113000D01*
X176373000Y-85113000D01*
X176373000Y-85093000D01*
X176627000Y-85093000D01*
X176627000Y-85113000D01*
X177769915Y-85113000D01*
X177891904Y-84890961D01*
X177880986Y-84864600D01*
X182731559Y-84864600D01*
X182656887Y-85240000D01*
G36*
X182728096Y-82350961D02*
X182850085Y-82573000D01*
X183993000Y-82573000D01*
X183993000Y-82553000D01*
X184247000Y-82553000D01*
X184247000Y-82573000D01*
X185389915Y-82573000D01*
X185511904Y-82350961D01*
X185504838Y-82333900D01*
X186593799Y-82333900D01*
X186784369Y-82524470D01*
X186826771Y-82587929D01*
X187078163Y-82755904D01*
X187279214Y-82795896D01*
X187465423Y-83074577D01*
X187817758Y-83310000D01*
X187465423Y-83545423D01*
X187148260Y-84020091D01*
X187036887Y-84580000D01*
X187138332Y-85090000D01*
X187033003Y-85090000D01*
X185563131Y-83620130D01*
X185520729Y-83556671D01*
X185347731Y-83441077D01*
X185351041Y-83437423D01*
X185511904Y-83049039D01*
X185389915Y-82827000D01*
X184247000Y-82827000D01*
X184247000Y-82847000D01*
X183993000Y-82847000D01*
X183993000Y-82827000D01*
X182850085Y-82827000D01*
X182728096Y-83049039D01*
X182850513Y-83344600D01*
X177795151Y-83344600D01*
X177851740Y-83259909D01*
X177963113Y-82700000D01*
X177890291Y-82333900D01*
X182735162Y-82333900D01*
X182728096Y-82350961D01*
X182728096Y-82350961D01*
G37*
X182728096Y-82350961D02*
X182850085Y-82573000D01*
X183993000Y-82573000D01*
X183993000Y-82553000D01*
X184247000Y-82553000D01*
X184247000Y-82573000D01*
X185389915Y-82573000D01*
X185511904Y-82350961D01*
X185504838Y-82333900D01*
X186593799Y-82333900D01*
X186784369Y-82524470D01*
X186826771Y-82587929D01*
X187078163Y-82755904D01*
X187279214Y-82795896D01*
X187465423Y-83074577D01*
X187817758Y-83310000D01*
X187465423Y-83545423D01*
X187148260Y-84020091D01*
X187036887Y-84580000D01*
X187138332Y-85090000D01*
X187033003Y-85090000D01*
X185563131Y-83620130D01*
X185520729Y-83556671D01*
X185347731Y-83441077D01*
X185351041Y-83437423D01*
X185511904Y-83049039D01*
X185389915Y-82827000D01*
X184247000Y-82827000D01*
X184247000Y-82847000D01*
X183993000Y-82847000D01*
X183993000Y-82827000D01*
X182850085Y-82827000D01*
X182728096Y-83049039D01*
X182850513Y-83344600D01*
X177795151Y-83344600D01*
X177851740Y-83259909D01*
X177963113Y-82700000D01*
X177890291Y-82333900D01*
X182735162Y-82333900D01*
X182728096Y-82350961D01*
G36*
X182964350Y-76799353D02*
X182888959Y-76882577D01*
X182728096Y-77270961D01*
X182850085Y-77493000D01*
X183993000Y-77493000D01*
X183993000Y-77473000D01*
X184247000Y-77473000D01*
X184247000Y-77493000D01*
X184267000Y-77493000D01*
X184267000Y-77747000D01*
X184247000Y-77747000D01*
X184247000Y-77767000D01*
X183993000Y-77767000D01*
X183993000Y-77747000D01*
X182850085Y-77747000D01*
X182728096Y-77969039D01*
X182888959Y-78357423D01*
X183264866Y-78772389D01*
X183469108Y-78869053D01*
X183085423Y-79125423D01*
X182768260Y-79600091D01*
X182656887Y-80160000D01*
X182768260Y-80719909D01*
X182831063Y-80813900D01*
X177765635Y-80813900D01*
X177891904Y-80509039D01*
X177769915Y-80287000D01*
X176627000Y-80287000D01*
X176627000Y-80307000D01*
X176373000Y-80307000D01*
X176373000Y-80287000D01*
X175230085Y-80287000D01*
X175108096Y-80509039D01*
X175234365Y-80813900D01*
X174806246Y-80813900D01*
X174731399Y-80799012D01*
X174656552Y-80813900D01*
X174656548Y-80813900D01*
X174434863Y-80857996D01*
X174183471Y-81025971D01*
X174141071Y-81089427D01*
X173863192Y-81367307D01*
X173903900Y-81162652D01*
X173903900Y-81162648D01*
X173918788Y-81087801D01*
X173903900Y-81012954D01*
X173903900Y-80216446D01*
X173918788Y-80141599D01*
X173903900Y-80066752D01*
X173903900Y-80066748D01*
X173859804Y-79845063D01*
X173691829Y-79593671D01*
X173628373Y-79551271D01*
X173108497Y-79031396D01*
X173366740Y-78644909D01*
X173478113Y-78085000D01*
X173366740Y-77525091D01*
X173049577Y-77050423D01*
X172697242Y-76815000D01*
X173049577Y-76579577D01*
X173260423Y-76264024D01*
X174602563Y-77606165D01*
X174599811Y-77620000D01*
X174658796Y-77916537D01*
X174826771Y-78167929D01*
X175078163Y-78335904D01*
X175279214Y-78375896D01*
X175465423Y-78654577D01*
X175849108Y-78910947D01*
X175644866Y-79007611D01*
X175268959Y-79422577D01*
X175108096Y-79810961D01*
X175230085Y-80033000D01*
X176373000Y-80033000D01*
X176373000Y-80013000D01*
X176627000Y-80013000D01*
X176627000Y-80033000D01*
X177769915Y-80033000D01*
X177891904Y-79810961D01*
X177731041Y-79422577D01*
X177355134Y-79007611D01*
X177150892Y-78910947D01*
X177534577Y-78654577D01*
X177851740Y-78179909D01*
X177963113Y-77620000D01*
X177851740Y-77060091D01*
X177534577Y-76585423D01*
X177182242Y-76350000D01*
X177534577Y-76114577D01*
X177851740Y-75639909D01*
X177963113Y-75080000D01*
X177861668Y-74570000D01*
X180734999Y-74570000D01*
X182964350Y-76799353D01*
X182964350Y-76799353D01*
G37*
X182964350Y-76799353D02*
X182888959Y-76882577D01*
X182728096Y-77270961D01*
X182850085Y-77493000D01*
X183993000Y-77493000D01*
X183993000Y-77473000D01*
X184247000Y-77473000D01*
X184247000Y-77493000D01*
X184267000Y-77493000D01*
X184267000Y-77747000D01*
X184247000Y-77747000D01*
X184247000Y-77767000D01*
X183993000Y-77767000D01*
X183993000Y-77747000D01*
X182850085Y-77747000D01*
X182728096Y-77969039D01*
X182888959Y-78357423D01*
X183264866Y-78772389D01*
X183469108Y-78869053D01*
X183085423Y-79125423D01*
X182768260Y-79600091D01*
X182656887Y-80160000D01*
X182768260Y-80719909D01*
X182831063Y-80813900D01*
X177765635Y-80813900D01*
X177891904Y-80509039D01*
X177769915Y-80287000D01*
X176627000Y-80287000D01*
X176627000Y-80307000D01*
X176373000Y-80307000D01*
X176373000Y-80287000D01*
X175230085Y-80287000D01*
X175108096Y-80509039D01*
X175234365Y-80813900D01*
X174806246Y-80813900D01*
X174731399Y-80799012D01*
X174656552Y-80813900D01*
X174656548Y-80813900D01*
X174434863Y-80857996D01*
X174183471Y-81025971D01*
X174141071Y-81089427D01*
X173863192Y-81367307D01*
X173903900Y-81162652D01*
X173903900Y-81162648D01*
X173918788Y-81087801D01*
X173903900Y-81012954D01*
X173903900Y-80216446D01*
X173918788Y-80141599D01*
X173903900Y-80066752D01*
X173903900Y-80066748D01*
X173859804Y-79845063D01*
X173691829Y-79593671D01*
X173628373Y-79551271D01*
X173108497Y-79031396D01*
X173366740Y-78644909D01*
X173478113Y-78085000D01*
X173366740Y-77525091D01*
X173049577Y-77050423D01*
X172697242Y-76815000D01*
X173049577Y-76579577D01*
X173260423Y-76264024D01*
X174602563Y-77606165D01*
X174599811Y-77620000D01*
X174658796Y-77916537D01*
X174826771Y-78167929D01*
X175078163Y-78335904D01*
X175279214Y-78375896D01*
X175465423Y-78654577D01*
X175849108Y-78910947D01*
X175644866Y-79007611D01*
X175268959Y-79422577D01*
X175108096Y-79810961D01*
X175230085Y-80033000D01*
X176373000Y-80033000D01*
X176373000Y-80013000D01*
X176627000Y-80013000D01*
X176627000Y-80033000D01*
X177769915Y-80033000D01*
X177891904Y-79810961D01*
X177731041Y-79422577D01*
X177355134Y-79007611D01*
X177150892Y-78910947D01*
X177534577Y-78654577D01*
X177851740Y-78179909D01*
X177963113Y-77620000D01*
X177851740Y-77060091D01*
X177534577Y-76585423D01*
X177182242Y-76350000D01*
X177534577Y-76114577D01*
X177851740Y-75639909D01*
X177963113Y-75080000D01*
X177861668Y-74570000D01*
X180734999Y-74570000D01*
X182964350Y-76799353D01*
G36*
X121539770Y-77909272D02*
X121582171Y-77972729D01*
X121833563Y-78140704D01*
X122055248Y-78184800D01*
X122055252Y-78184800D01*
X122130100Y-78199688D01*
X122204948Y-78184800D01*
X124178856Y-78184800D01*
X123847611Y-78484866D01*
X123608086Y-78990959D01*
X123729371Y-79213000D01*
X124873000Y-79213000D01*
X124873000Y-79193000D01*
X125127000Y-79193000D01*
X125127000Y-79213000D01*
X126270629Y-79213000D01*
X126391914Y-78990959D01*
X126152389Y-78484866D01*
X125821144Y-78184800D01*
X126609999Y-78184800D01*
X127586897Y-79161698D01*
X127565000Y-79214561D01*
X127565000Y-79785439D01*
X127601269Y-79873000D01*
X126304849Y-79873000D01*
X126391914Y-79689041D01*
X126270629Y-79467000D01*
X125127000Y-79467000D01*
X125127000Y-79487000D01*
X124873000Y-79487000D01*
X124873000Y-79467000D01*
X123729371Y-79467000D01*
X123608086Y-79689041D01*
X123695151Y-79873000D01*
X121265948Y-79873000D01*
X121441740Y-79609909D01*
X121553113Y-79050000D01*
X121441740Y-78490091D01*
X121124577Y-78015423D01*
X120772242Y-77780000D01*
X121124577Y-77544577D01*
X121144804Y-77514305D01*
X121539770Y-77909272D01*
X121539770Y-77909272D01*
G37*
X121539770Y-77909272D02*
X121582171Y-77972729D01*
X121833563Y-78140704D01*
X122055248Y-78184800D01*
X122055252Y-78184800D01*
X122130100Y-78199688D01*
X122204948Y-78184800D01*
X124178856Y-78184800D01*
X123847611Y-78484866D01*
X123608086Y-78990959D01*
X123729371Y-79213000D01*
X124873000Y-79213000D01*
X124873000Y-79193000D01*
X125127000Y-79193000D01*
X125127000Y-79213000D01*
X126270629Y-79213000D01*
X126391914Y-78990959D01*
X126152389Y-78484866D01*
X125821144Y-78184800D01*
X126609999Y-78184800D01*
X127586897Y-79161698D01*
X127565000Y-79214561D01*
X127565000Y-79785439D01*
X127601269Y-79873000D01*
X126304849Y-79873000D01*
X126391914Y-79689041D01*
X126270629Y-79467000D01*
X125127000Y-79467000D01*
X125127000Y-79487000D01*
X124873000Y-79487000D01*
X124873000Y-79467000D01*
X123729371Y-79467000D01*
X123608086Y-79689041D01*
X123695151Y-79873000D01*
X121265948Y-79873000D01*
X121441740Y-79609909D01*
X121553113Y-79050000D01*
X121441740Y-78490091D01*
X121124577Y-78015423D01*
X120772242Y-77780000D01*
X121124577Y-77544577D01*
X121144804Y-77514305D01*
X121539770Y-77909272D01*
G36*
X163693748Y-78485858D02*
X163679605Y-78500000D01*
X163693748Y-78514143D01*
X163514143Y-78693748D01*
X163500000Y-78679605D01*
X163485858Y-78693748D01*
X163306253Y-78514143D01*
X163320395Y-78500000D01*
X163306252Y-78485858D01*
X163485858Y-78306252D01*
X163500000Y-78320395D01*
X163514142Y-78306252D01*
X163693748Y-78485858D01*
X163693748Y-78485858D01*
G37*
X163693748Y-78485858D02*
X163679605Y-78500000D01*
X163693748Y-78514143D01*
X163514143Y-78693748D01*
X163500000Y-78679605D01*
X163485858Y-78693748D01*
X163306253Y-78514143D01*
X163320395Y-78500000D01*
X163306252Y-78485858D01*
X163485858Y-78306252D01*
X163500000Y-78320395D01*
X163514142Y-78306252D01*
X163693748Y-78485858D01*
G36*
X151068310Y-71070900D02*
X146935000Y-71070900D01*
X146935000Y-70785750D01*
X146776250Y-70627000D01*
X145627000Y-70627000D01*
X145627000Y-70647000D01*
X145373000Y-70647000D01*
X145373000Y-70627000D01*
X144223750Y-70627000D01*
X144065000Y-70785750D01*
X144065000Y-70804319D01*
X143704920Y-70953469D01*
X143413769Y-71244620D01*
X143256200Y-71625026D01*
X143256200Y-72036774D01*
X143373960Y-72321073D01*
X143358763Y-72324096D01*
X143107371Y-72492071D01*
X143064971Y-72555527D01*
X142582679Y-73037819D01*
X142471740Y-72480091D01*
X142154577Y-72005423D01*
X141802242Y-71770000D01*
X142154577Y-71534577D01*
X142221112Y-71435000D01*
X142328214Y-71435000D01*
X142420300Y-71453317D01*
X142512386Y-71435000D01*
X142785119Y-71380750D01*
X143094397Y-71174097D01*
X143146561Y-71096028D01*
X144065000Y-70177590D01*
X144065000Y-70214250D01*
X144223750Y-70373000D01*
X145373000Y-70373000D01*
X145373000Y-70353000D01*
X145627000Y-70353000D01*
X145627000Y-70373000D01*
X146776250Y-70373000D01*
X146935000Y-70214250D01*
X146935000Y-70134700D01*
X150132111Y-70134700D01*
X151068310Y-71070900D01*
X151068310Y-71070900D01*
G37*
X151068310Y-71070900D02*
X146935000Y-71070900D01*
X146935000Y-70785750D01*
X146776250Y-70627000D01*
X145627000Y-70627000D01*
X145627000Y-70647000D01*
X145373000Y-70647000D01*
X145373000Y-70627000D01*
X144223750Y-70627000D01*
X144065000Y-70785750D01*
X144065000Y-70804319D01*
X143704920Y-70953469D01*
X143413769Y-71244620D01*
X143256200Y-71625026D01*
X143256200Y-72036774D01*
X143373960Y-72321073D01*
X143358763Y-72324096D01*
X143107371Y-72492071D01*
X143064971Y-72555527D01*
X142582679Y-73037819D01*
X142471740Y-72480091D01*
X142154577Y-72005423D01*
X141802242Y-71770000D01*
X142154577Y-71534577D01*
X142221112Y-71435000D01*
X142328214Y-71435000D01*
X142420300Y-71453317D01*
X142512386Y-71435000D01*
X142785119Y-71380750D01*
X143094397Y-71174097D01*
X143146561Y-71096028D01*
X144065000Y-70177590D01*
X144065000Y-70214250D01*
X144223750Y-70373000D01*
X145373000Y-70373000D01*
X145373000Y-70353000D01*
X145627000Y-70353000D01*
X145627000Y-70373000D01*
X146776250Y-70373000D01*
X146935000Y-70214250D01*
X146935000Y-70134700D01*
X150132111Y-70134700D01*
X151068310Y-71070900D01*
G36*
X116552560Y-62800000D02*
X116601843Y-63047765D01*
X116742191Y-63257809D01*
X116952235Y-63398157D01*
X117200000Y-63447440D01*
X118800000Y-63447440D01*
X119047765Y-63398157D01*
X119257809Y-63257809D01*
X119398157Y-63047765D01*
X119420587Y-62935000D01*
X124362411Y-62935000D01*
X124648441Y-63221030D01*
X124700603Y-63299097D01*
X125009881Y-63505750D01*
X125242896Y-63552100D01*
X125276843Y-63722765D01*
X125417191Y-63932809D01*
X125627235Y-64073157D01*
X125875000Y-64122440D01*
X127575000Y-64122440D01*
X127822765Y-64073157D01*
X128032809Y-63932809D01*
X128173157Y-63722765D01*
X128182184Y-63677381D01*
X128194375Y-63695625D01*
X128330001Y-63786247D01*
X128330001Y-63883210D01*
X128311683Y-63975300D01*
X128384250Y-64340118D01*
X128530594Y-64559137D01*
X128590904Y-64649397D01*
X128668970Y-64701559D01*
X129529380Y-65561970D01*
X129146546Y-65580222D01*
X128745995Y-65746136D01*
X128671861Y-65992255D01*
X129500000Y-66820395D01*
X129514142Y-66806252D01*
X129693748Y-66985858D01*
X129679605Y-67000000D01*
X130507745Y-67828139D01*
X130753864Y-67754005D01*
X130946965Y-67216777D01*
X130933943Y-66943646D01*
X131096181Y-67052050D01*
X131461000Y-67124617D01*
X131553086Y-67106300D01*
X137116628Y-67106300D01*
X137053035Y-67283223D01*
X137080222Y-67853454D01*
X137246136Y-68254005D01*
X137492255Y-68328139D01*
X138320395Y-67500000D01*
X138306253Y-67485858D01*
X138485858Y-67306253D01*
X138500000Y-67320395D01*
X138514143Y-67306253D01*
X138693748Y-67485858D01*
X138679605Y-67500000D01*
X139507745Y-68328139D01*
X139753864Y-68254005D01*
X139756290Y-68247254D01*
X139783466Y-68312862D01*
X140175788Y-68705184D01*
X140102934Y-68753864D01*
X139993971Y-68826671D01*
X139951571Y-68890127D01*
X137712199Y-71129500D01*
X134935000Y-71129500D01*
X134935000Y-70785750D01*
X134776250Y-70627000D01*
X133627000Y-70627000D01*
X133627000Y-70647000D01*
X133373000Y-70647000D01*
X133373000Y-70627000D01*
X132223750Y-70627000D01*
X132065000Y-70785750D01*
X132065000Y-71426310D01*
X132151137Y-71634262D01*
X131331228Y-72454171D01*
X131267772Y-72496571D01*
X131225372Y-72560027D01*
X131225371Y-72560028D01*
X131188640Y-72615000D01*
X131152697Y-72668792D01*
X131147531Y-72656320D01*
X130883779Y-72392568D01*
X130946965Y-72216777D01*
X130919778Y-71646546D01*
X130753864Y-71245995D01*
X130507745Y-71171861D01*
X129679605Y-72000000D01*
X129693748Y-72014143D01*
X129514143Y-72193748D01*
X129500000Y-72179605D01*
X129485858Y-72193748D01*
X129306253Y-72014143D01*
X129320395Y-72000000D01*
X128492255Y-71171861D01*
X128246136Y-71245995D01*
X128053035Y-71783223D01*
X128066870Y-72073400D01*
X121385953Y-72073400D01*
X121441740Y-71989909D01*
X121553113Y-71430000D01*
X121441740Y-70870091D01*
X121124577Y-70395423D01*
X120772242Y-70160000D01*
X121124577Y-69924577D01*
X121441740Y-69449909D01*
X121553113Y-68890000D01*
X121441740Y-68330091D01*
X121124577Y-67855423D01*
X120772242Y-67620000D01*
X121124577Y-67384577D01*
X121144804Y-67354305D01*
X123394970Y-69604472D01*
X123437371Y-69667929D01*
X123688763Y-69835904D01*
X123807180Y-69859459D01*
X123825853Y-69904540D01*
X124215460Y-70294147D01*
X124724506Y-70505000D01*
X125275494Y-70505000D01*
X125784540Y-70294147D01*
X125818687Y-70260000D01*
X128261570Y-70260000D01*
X128283466Y-70312862D01*
X128687138Y-70716534D01*
X128752299Y-70743525D01*
X128745995Y-70746136D01*
X128671861Y-70992255D01*
X129500000Y-71820395D01*
X130328139Y-70992255D01*
X130254005Y-70746136D01*
X130247254Y-70743710D01*
X130312862Y-70716534D01*
X130716534Y-70312862D01*
X130935000Y-69785439D01*
X130935000Y-69573690D01*
X132065000Y-69573690D01*
X132065000Y-70214250D01*
X132223750Y-70373000D01*
X133373000Y-70373000D01*
X133373000Y-69223750D01*
X133627000Y-69223750D01*
X133627000Y-70373000D01*
X134776250Y-70373000D01*
X134935000Y-70214250D01*
X134935000Y-69573690D01*
X134838327Y-69340301D01*
X134659698Y-69161673D01*
X134426309Y-69065000D01*
X133785750Y-69065000D01*
X133627000Y-69223750D01*
X133373000Y-69223750D01*
X133214250Y-69065000D01*
X132573691Y-69065000D01*
X132340302Y-69161673D01*
X132161673Y-69340301D01*
X132065000Y-69573690D01*
X130935000Y-69573690D01*
X130935000Y-69214561D01*
X130716534Y-68687138D01*
X130537141Y-68507745D01*
X137671861Y-68507745D01*
X137745995Y-68753864D01*
X138283223Y-68946965D01*
X138853454Y-68919778D01*
X139254005Y-68753864D01*
X139328139Y-68507745D01*
X138500000Y-67679605D01*
X137671861Y-68507745D01*
X130537141Y-68507745D01*
X130312862Y-68283466D01*
X130247701Y-68256475D01*
X130254005Y-68253864D01*
X130328139Y-68007745D01*
X129500000Y-67179605D01*
X128671861Y-68007745D01*
X128745995Y-68253864D01*
X128752746Y-68256290D01*
X128687138Y-68283466D01*
X128283466Y-68687138D01*
X128261570Y-68740000D01*
X126341712Y-68740000D01*
X126174147Y-68335460D01*
X125784540Y-67945853D01*
X125275494Y-67735000D01*
X124724506Y-67735000D01*
X124215460Y-67945853D01*
X124050707Y-68110606D01*
X122723324Y-66783223D01*
X128053035Y-66783223D01*
X128080222Y-67353454D01*
X128246136Y-67754005D01*
X128492255Y-67828139D01*
X129320395Y-67000000D01*
X128492255Y-66171861D01*
X128246136Y-66245995D01*
X128053035Y-66783223D01*
X122723324Y-66783223D01*
X121805631Y-65865530D01*
X121763229Y-65802071D01*
X121511837Y-65634096D01*
X121310786Y-65594104D01*
X121124577Y-65315423D01*
X120649909Y-64998260D01*
X120231333Y-64915000D01*
X119948667Y-64915000D01*
X119530091Y-64998260D01*
X119055423Y-65315423D01*
X118738260Y-65790091D01*
X118626887Y-66350000D01*
X118738260Y-66909909D01*
X119055423Y-67384577D01*
X119407758Y-67620000D01*
X119055423Y-67855423D01*
X118738260Y-68330091D01*
X118626887Y-68890000D01*
X118738260Y-69449909D01*
X119055423Y-69924577D01*
X119407758Y-70160000D01*
X119055423Y-70395423D01*
X118738260Y-70870091D01*
X118626887Y-71430000D01*
X118738260Y-71989909D01*
X118794047Y-72073400D01*
X107186746Y-72073400D01*
X107111899Y-72058512D01*
X107037052Y-72073400D01*
X107037048Y-72073400D01*
X106886943Y-72103258D01*
X116552560Y-62437642D01*
X116552560Y-62800000D01*
X116552560Y-62800000D01*
G37*
X116552560Y-62800000D02*
X116601843Y-63047765D01*
X116742191Y-63257809D01*
X116952235Y-63398157D01*
X117200000Y-63447440D01*
X118800000Y-63447440D01*
X119047765Y-63398157D01*
X119257809Y-63257809D01*
X119398157Y-63047765D01*
X119420587Y-62935000D01*
X124362411Y-62935000D01*
X124648441Y-63221030D01*
X124700603Y-63299097D01*
X125009881Y-63505750D01*
X125242896Y-63552100D01*
X125276843Y-63722765D01*
X125417191Y-63932809D01*
X125627235Y-64073157D01*
X125875000Y-64122440D01*
X127575000Y-64122440D01*
X127822765Y-64073157D01*
X128032809Y-63932809D01*
X128173157Y-63722765D01*
X128182184Y-63677381D01*
X128194375Y-63695625D01*
X128330001Y-63786247D01*
X128330001Y-63883210D01*
X128311683Y-63975300D01*
X128384250Y-64340118D01*
X128530594Y-64559137D01*
X128590904Y-64649397D01*
X128668970Y-64701559D01*
X129529380Y-65561970D01*
X129146546Y-65580222D01*
X128745995Y-65746136D01*
X128671861Y-65992255D01*
X129500000Y-66820395D01*
X129514142Y-66806252D01*
X129693748Y-66985858D01*
X129679605Y-67000000D01*
X130507745Y-67828139D01*
X130753864Y-67754005D01*
X130946965Y-67216777D01*
X130933943Y-66943646D01*
X131096181Y-67052050D01*
X131461000Y-67124617D01*
X131553086Y-67106300D01*
X137116628Y-67106300D01*
X137053035Y-67283223D01*
X137080222Y-67853454D01*
X137246136Y-68254005D01*
X137492255Y-68328139D01*
X138320395Y-67500000D01*
X138306253Y-67485858D01*
X138485858Y-67306253D01*
X138500000Y-67320395D01*
X138514143Y-67306253D01*
X138693748Y-67485858D01*
X138679605Y-67500000D01*
X139507745Y-68328139D01*
X139753864Y-68254005D01*
X139756290Y-68247254D01*
X139783466Y-68312862D01*
X140175788Y-68705184D01*
X140102934Y-68753864D01*
X139993971Y-68826671D01*
X139951571Y-68890127D01*
X137712199Y-71129500D01*
X134935000Y-71129500D01*
X134935000Y-70785750D01*
X134776250Y-70627000D01*
X133627000Y-70627000D01*
X133627000Y-70647000D01*
X133373000Y-70647000D01*
X133373000Y-70627000D01*
X132223750Y-70627000D01*
X132065000Y-70785750D01*
X132065000Y-71426310D01*
X132151137Y-71634262D01*
X131331228Y-72454171D01*
X131267772Y-72496571D01*
X131225372Y-72560027D01*
X131225371Y-72560028D01*
X131188640Y-72615000D01*
X131152697Y-72668792D01*
X131147531Y-72656320D01*
X130883779Y-72392568D01*
X130946965Y-72216777D01*
X130919778Y-71646546D01*
X130753864Y-71245995D01*
X130507745Y-71171861D01*
X129679605Y-72000000D01*
X129693748Y-72014143D01*
X129514143Y-72193748D01*
X129500000Y-72179605D01*
X129485858Y-72193748D01*
X129306253Y-72014143D01*
X129320395Y-72000000D01*
X128492255Y-71171861D01*
X128246136Y-71245995D01*
X128053035Y-71783223D01*
X128066870Y-72073400D01*
X121385953Y-72073400D01*
X121441740Y-71989909D01*
X121553113Y-71430000D01*
X121441740Y-70870091D01*
X121124577Y-70395423D01*
X120772242Y-70160000D01*
X121124577Y-69924577D01*
X121441740Y-69449909D01*
X121553113Y-68890000D01*
X121441740Y-68330091D01*
X121124577Y-67855423D01*
X120772242Y-67620000D01*
X121124577Y-67384577D01*
X121144804Y-67354305D01*
X123394970Y-69604472D01*
X123437371Y-69667929D01*
X123688763Y-69835904D01*
X123807180Y-69859459D01*
X123825853Y-69904540D01*
X124215460Y-70294147D01*
X124724506Y-70505000D01*
X125275494Y-70505000D01*
X125784540Y-70294147D01*
X125818687Y-70260000D01*
X128261570Y-70260000D01*
X128283466Y-70312862D01*
X128687138Y-70716534D01*
X128752299Y-70743525D01*
X128745995Y-70746136D01*
X128671861Y-70992255D01*
X129500000Y-71820395D01*
X130328139Y-70992255D01*
X130254005Y-70746136D01*
X130247254Y-70743710D01*
X130312862Y-70716534D01*
X130716534Y-70312862D01*
X130935000Y-69785439D01*
X130935000Y-69573690D01*
X132065000Y-69573690D01*
X132065000Y-70214250D01*
X132223750Y-70373000D01*
X133373000Y-70373000D01*
X133373000Y-69223750D01*
X133627000Y-69223750D01*
X133627000Y-70373000D01*
X134776250Y-70373000D01*
X134935000Y-70214250D01*
X134935000Y-69573690D01*
X134838327Y-69340301D01*
X134659698Y-69161673D01*
X134426309Y-69065000D01*
X133785750Y-69065000D01*
X133627000Y-69223750D01*
X133373000Y-69223750D01*
X133214250Y-69065000D01*
X132573691Y-69065000D01*
X132340302Y-69161673D01*
X132161673Y-69340301D01*
X132065000Y-69573690D01*
X130935000Y-69573690D01*
X130935000Y-69214561D01*
X130716534Y-68687138D01*
X130537141Y-68507745D01*
X137671861Y-68507745D01*
X137745995Y-68753864D01*
X138283223Y-68946965D01*
X138853454Y-68919778D01*
X139254005Y-68753864D01*
X139328139Y-68507745D01*
X138500000Y-67679605D01*
X137671861Y-68507745D01*
X130537141Y-68507745D01*
X130312862Y-68283466D01*
X130247701Y-68256475D01*
X130254005Y-68253864D01*
X130328139Y-68007745D01*
X129500000Y-67179605D01*
X128671861Y-68007745D01*
X128745995Y-68253864D01*
X128752746Y-68256290D01*
X128687138Y-68283466D01*
X128283466Y-68687138D01*
X128261570Y-68740000D01*
X126341712Y-68740000D01*
X126174147Y-68335460D01*
X125784540Y-67945853D01*
X125275494Y-67735000D01*
X124724506Y-67735000D01*
X124215460Y-67945853D01*
X124050707Y-68110606D01*
X122723324Y-66783223D01*
X128053035Y-66783223D01*
X128080222Y-67353454D01*
X128246136Y-67754005D01*
X128492255Y-67828139D01*
X129320395Y-67000000D01*
X128492255Y-66171861D01*
X128246136Y-66245995D01*
X128053035Y-66783223D01*
X122723324Y-66783223D01*
X121805631Y-65865530D01*
X121763229Y-65802071D01*
X121511837Y-65634096D01*
X121310786Y-65594104D01*
X121124577Y-65315423D01*
X120649909Y-64998260D01*
X120231333Y-64915000D01*
X119948667Y-64915000D01*
X119530091Y-64998260D01*
X119055423Y-65315423D01*
X118738260Y-65790091D01*
X118626887Y-66350000D01*
X118738260Y-66909909D01*
X119055423Y-67384577D01*
X119407758Y-67620000D01*
X119055423Y-67855423D01*
X118738260Y-68330091D01*
X118626887Y-68890000D01*
X118738260Y-69449909D01*
X119055423Y-69924577D01*
X119407758Y-70160000D01*
X119055423Y-70395423D01*
X118738260Y-70870091D01*
X118626887Y-71430000D01*
X118738260Y-71989909D01*
X118794047Y-72073400D01*
X107186746Y-72073400D01*
X107111899Y-72058512D01*
X107037052Y-72073400D01*
X107037048Y-72073400D01*
X106886943Y-72103258D01*
X116552560Y-62437642D01*
X116552560Y-62800000D01*
G36*
X153701203Y-65950603D02*
X153649041Y-66028670D01*
X153612710Y-66065000D01*
X153214561Y-66065000D01*
X152687138Y-66283466D01*
X152283466Y-66687138D01*
X152256475Y-66752299D01*
X152253864Y-66745995D01*
X152007745Y-66671861D01*
X151179605Y-67500000D01*
X152007745Y-68328139D01*
X152253864Y-68254005D01*
X152256290Y-68247254D01*
X152283466Y-68312862D01*
X152687138Y-68716534D01*
X153214561Y-68935000D01*
X153785439Y-68935000D01*
X154312862Y-68716534D01*
X154716534Y-68312862D01*
X154935000Y-67785439D01*
X154935000Y-67559700D01*
X155327560Y-67559700D01*
X155327560Y-68725000D01*
X155376843Y-68972765D01*
X155517191Y-69182809D01*
X155727235Y-69323157D01*
X155861106Y-69349785D01*
X155740423Y-69430423D01*
X155423260Y-69905091D01*
X155311887Y-70465000D01*
X155423260Y-71024909D01*
X155453990Y-71070900D01*
X154464396Y-71070900D01*
X154471740Y-71059909D01*
X154583113Y-70500000D01*
X154471740Y-69940091D01*
X154154577Y-69465423D01*
X153679909Y-69148260D01*
X153261333Y-69065000D01*
X152978667Y-69065000D01*
X152560091Y-69148260D01*
X152098605Y-69456615D01*
X151500754Y-68858764D01*
X151754005Y-68753864D01*
X151828139Y-68507745D01*
X151000000Y-67679605D01*
X150985858Y-67693748D01*
X150806252Y-67514142D01*
X150820395Y-67500000D01*
X149992255Y-66671861D01*
X149746136Y-66745995D01*
X149553035Y-67283223D01*
X149580222Y-67853454D01*
X149746136Y-68254005D01*
X149781643Y-68264700D01*
X143812686Y-68264700D01*
X143720600Y-68246383D01*
X143628514Y-68264700D01*
X143480325Y-68294177D01*
X145282247Y-66492255D01*
X150171861Y-66492255D01*
X151000000Y-67320395D01*
X151828139Y-66492255D01*
X151754005Y-66246136D01*
X151216777Y-66053035D01*
X150646546Y-66080222D01*
X150245995Y-66246136D01*
X150171861Y-66492255D01*
X145282247Y-66492255D01*
X145851102Y-65923400D01*
X153741915Y-65923400D01*
X153701203Y-65950603D01*
X153701203Y-65950603D01*
G37*
X153701203Y-65950603D02*
X153649041Y-66028670D01*
X153612710Y-66065000D01*
X153214561Y-66065000D01*
X152687138Y-66283466D01*
X152283466Y-66687138D01*
X152256475Y-66752299D01*
X152253864Y-66745995D01*
X152007745Y-66671861D01*
X151179605Y-67500000D01*
X152007745Y-68328139D01*
X152253864Y-68254005D01*
X152256290Y-68247254D01*
X152283466Y-68312862D01*
X152687138Y-68716534D01*
X153214561Y-68935000D01*
X153785439Y-68935000D01*
X154312862Y-68716534D01*
X154716534Y-68312862D01*
X154935000Y-67785439D01*
X154935000Y-67559700D01*
X155327560Y-67559700D01*
X155327560Y-68725000D01*
X155376843Y-68972765D01*
X155517191Y-69182809D01*
X155727235Y-69323157D01*
X155861106Y-69349785D01*
X155740423Y-69430423D01*
X155423260Y-69905091D01*
X155311887Y-70465000D01*
X155423260Y-71024909D01*
X155453990Y-71070900D01*
X154464396Y-71070900D01*
X154471740Y-71059909D01*
X154583113Y-70500000D01*
X154471740Y-69940091D01*
X154154577Y-69465423D01*
X153679909Y-69148260D01*
X153261333Y-69065000D01*
X152978667Y-69065000D01*
X152560091Y-69148260D01*
X152098605Y-69456615D01*
X151500754Y-68858764D01*
X151754005Y-68753864D01*
X151828139Y-68507745D01*
X151000000Y-67679605D01*
X150985858Y-67693748D01*
X150806252Y-67514142D01*
X150820395Y-67500000D01*
X149992255Y-66671861D01*
X149746136Y-66745995D01*
X149553035Y-67283223D01*
X149580222Y-67853454D01*
X149746136Y-68254005D01*
X149781643Y-68264700D01*
X143812686Y-68264700D01*
X143720600Y-68246383D01*
X143628514Y-68264700D01*
X143480325Y-68294177D01*
X145282247Y-66492255D01*
X150171861Y-66492255D01*
X151000000Y-67320395D01*
X151828139Y-66492255D01*
X151754005Y-66246136D01*
X151216777Y-66053035D01*
X150646546Y-66080222D01*
X150245995Y-66246136D01*
X150171861Y-66492255D01*
X145282247Y-66492255D01*
X145851102Y-65923400D01*
X153741915Y-65923400D01*
X153701203Y-65950603D01*
G36*
X188884371Y-66064472D02*
X188926771Y-66127929D01*
X189178163Y-66295904D01*
X189367526Y-66333571D01*
X189579375Y-66650625D01*
X189877761Y-66850000D01*
X189579375Y-67049375D01*
X189367526Y-67366429D01*
X189178163Y-67404096D01*
X189178161Y-67404097D01*
X189178162Y-67404097D01*
X188990226Y-67529671D01*
X188990224Y-67529673D01*
X188926771Y-67572071D01*
X188884373Y-67635524D01*
X186104899Y-70415000D01*
X185500564Y-70415000D01*
X185583113Y-70000000D01*
X185471740Y-69440091D01*
X185154577Y-68965423D01*
X184679909Y-68648260D01*
X184261333Y-68565000D01*
X183978667Y-68565000D01*
X183560091Y-68648260D01*
X183098605Y-68956615D01*
X182075041Y-67933052D01*
X182353454Y-67919778D01*
X182754005Y-67753864D01*
X182828139Y-67507745D01*
X182000000Y-66679605D01*
X181985858Y-66693748D01*
X181806253Y-66514143D01*
X181820395Y-66500000D01*
X181806252Y-66485858D01*
X181985858Y-66306253D01*
X182000000Y-66320395D01*
X182014143Y-66306253D01*
X182193748Y-66485858D01*
X182179605Y-66500000D01*
X183007745Y-67328139D01*
X183253864Y-67254005D01*
X183256290Y-67247254D01*
X183283466Y-67312862D01*
X183687138Y-67716534D01*
X184214561Y-67935000D01*
X184785439Y-67935000D01*
X185312862Y-67716534D01*
X185716534Y-67312862D01*
X185935000Y-66785439D01*
X185935000Y-66214561D01*
X185814397Y-65923400D01*
X188743298Y-65923400D01*
X188884371Y-66064472D01*
X188884371Y-66064472D01*
G37*
X188884371Y-66064472D02*
X188926771Y-66127929D01*
X189178163Y-66295904D01*
X189367526Y-66333571D01*
X189579375Y-66650625D01*
X189877761Y-66850000D01*
X189579375Y-67049375D01*
X189367526Y-67366429D01*
X189178163Y-67404096D01*
X189178161Y-67404097D01*
X189178162Y-67404097D01*
X188990226Y-67529671D01*
X188990224Y-67529673D01*
X188926771Y-67572071D01*
X188884373Y-67635524D01*
X186104899Y-70415000D01*
X185500564Y-70415000D01*
X185583113Y-70000000D01*
X185471740Y-69440091D01*
X185154577Y-68965423D01*
X184679909Y-68648260D01*
X184261333Y-68565000D01*
X183978667Y-68565000D01*
X183560091Y-68648260D01*
X183098605Y-68956615D01*
X182075041Y-67933052D01*
X182353454Y-67919778D01*
X182754005Y-67753864D01*
X182828139Y-67507745D01*
X182000000Y-66679605D01*
X181985858Y-66693748D01*
X181806253Y-66514143D01*
X181820395Y-66500000D01*
X181806252Y-66485858D01*
X181985858Y-66306253D01*
X182000000Y-66320395D01*
X182014143Y-66306253D01*
X182193748Y-66485858D01*
X182179605Y-66500000D01*
X183007745Y-67328139D01*
X183253864Y-67254005D01*
X183256290Y-67247254D01*
X183283466Y-67312862D01*
X183687138Y-67716534D01*
X184214561Y-67935000D01*
X184785439Y-67935000D01*
X185312862Y-67716534D01*
X185716534Y-67312862D01*
X185935000Y-66785439D01*
X185935000Y-66214561D01*
X185814397Y-65923400D01*
X188743298Y-65923400D01*
X188884371Y-66064472D01*
G36*
X126597998Y-58764844D02*
X126368110Y-58643524D01*
X125958076Y-58813355D01*
X125529817Y-59203642D01*
X125283514Y-59728108D01*
X125404181Y-59958000D01*
X126598000Y-59958000D01*
X126598000Y-59938000D01*
X126852000Y-59938000D01*
X126852000Y-59958000D01*
X129138000Y-59958000D01*
X129138000Y-59938000D01*
X129392000Y-59938000D01*
X129392000Y-59958000D01*
X129412000Y-59958000D01*
X129412000Y-60212000D01*
X129392000Y-60212000D01*
X129392000Y-60232000D01*
X129138000Y-60232000D01*
X129138000Y-60212000D01*
X126852000Y-60212000D01*
X126852000Y-60232000D01*
X126598000Y-60232000D01*
X126598000Y-60212000D01*
X125404181Y-60212000D01*
X125283514Y-60441892D01*
X125399891Y-60689700D01*
X125398602Y-60689700D01*
X125099031Y-60390130D01*
X125056629Y-60326671D01*
X124805237Y-60158696D01*
X124583552Y-60114600D01*
X124583547Y-60114600D01*
X124508700Y-60099712D01*
X124433853Y-60114600D01*
X119303972Y-60114600D01*
X119446965Y-59716777D01*
X119443947Y-59653469D01*
X119773580Y-59516931D01*
X120064731Y-59225780D01*
X120222300Y-58845374D01*
X120222300Y-58679302D01*
X120264502Y-58637100D01*
X126597998Y-58637100D01*
X126597998Y-58764844D01*
X126597998Y-58764844D01*
G37*
X126597998Y-58764844D02*
X126368110Y-58643524D01*
X125958076Y-58813355D01*
X125529817Y-59203642D01*
X125283514Y-59728108D01*
X125404181Y-59958000D01*
X126598000Y-59958000D01*
X126598000Y-59938000D01*
X126852000Y-59938000D01*
X126852000Y-59958000D01*
X129138000Y-59958000D01*
X129138000Y-59938000D01*
X129392000Y-59938000D01*
X129392000Y-59958000D01*
X129412000Y-59958000D01*
X129412000Y-60212000D01*
X129392000Y-60212000D01*
X129392000Y-60232000D01*
X129138000Y-60232000D01*
X129138000Y-60212000D01*
X126852000Y-60212000D01*
X126852000Y-60232000D01*
X126598000Y-60232000D01*
X126598000Y-60212000D01*
X125404181Y-60212000D01*
X125283514Y-60441892D01*
X125399891Y-60689700D01*
X125398602Y-60689700D01*
X125099031Y-60390130D01*
X125056629Y-60326671D01*
X124805237Y-60158696D01*
X124583552Y-60114600D01*
X124583547Y-60114600D01*
X124508700Y-60099712D01*
X124433853Y-60114600D01*
X119303972Y-60114600D01*
X119446965Y-59716777D01*
X119443947Y-59653469D01*
X119773580Y-59516931D01*
X120064731Y-59225780D01*
X120222300Y-58845374D01*
X120222300Y-58679302D01*
X120264502Y-58637100D01*
X126597998Y-58637100D01*
X126597998Y-58764844D01*
G04 #@! TD*
M02*
