M48
;DRILL file {KiCad (5.0.0-3-g5ebb6b6)} date 
;FORMAT={-:-/ absolute / metric / decimal}
FMAT,2
METRIC,TZ
T1C0.400
T2C0.800
T3C1.000
T4C1.200
T5C2.100
T6C3.200
%
G90
G05
M71
T1
X116.674Y-67.927
X117.37Y-70.293
X118.618Y-99.027
X118.678Y-88.84
X121.506Y-72.845
X122.208Y-83.246
X122.365Y-97.905
X130.173Y-87.929
X130.303Y-103.726
X132.086Y-93.002
X143.812Y-95.135
X144.538Y-94.41
X151.044Y-74.663
X155.535Y-91.832
X163.622Y-72.522
X170.589Y-71.88
X180.211Y-92.516
T2
X176.5Y-98.
X176.5Y-100.54
X176.5Y-103.08
X176.5Y-105.62
X176.5Y-108.16
X176.5Y-110.7
X176.5Y-113.24
X176.5Y-115.78
X184.12Y-98.
X184.12Y-100.54
X184.12Y-103.08
X184.12Y-105.62
X184.12Y-108.16
X184.12Y-110.7
X184.12Y-113.24
X184.12Y-115.78
X129.5Y-72.
X129.5Y-74.5
X151.Y-67.5
X153.5Y-67.5
X141.Y-112.34
X141.Y-122.5
X104.85Y-66.35
X104.85Y-68.89
X104.85Y-71.43
X104.85Y-73.97
X104.85Y-76.51
X104.85Y-79.05
X104.85Y-81.59
X104.85Y-84.13
X104.85Y-86.67
X104.85Y-89.21
X104.85Y-91.75
X104.85Y-94.29
X104.85Y-96.83
X104.85Y-99.37
X104.85Y-101.91
X104.85Y-104.45
X104.85Y-106.99
X104.85Y-109.53
X104.85Y-112.07
X104.85Y-114.61
X120.09Y-66.35
X120.09Y-68.89
X120.09Y-71.43
X120.09Y-73.97
X120.09Y-76.51
X120.09Y-79.05
X120.09Y-81.59
X120.09Y-84.13
X120.09Y-86.67
X120.09Y-89.21
X120.09Y-91.75
X120.09Y-94.29
X120.09Y-96.83
X120.09Y-99.37
X120.09Y-101.91
X120.09Y-104.45
X120.09Y-106.99
X120.09Y-109.53
X120.09Y-112.07
X120.09Y-114.61
X194.Y-76.5
X196.5Y-76.5
X146.Y-99.
X146.Y-101.54
X146.Y-104.08
X146.Y-106.62
X146.Y-109.16
X146.Y-111.7
X146.Y-114.24
X146.Y-116.78
X146.Y-119.32
X146.Y-121.86
X153.62Y-99.
X153.62Y-101.54
X153.62Y-104.08
X153.62Y-106.62
X153.62Y-109.16
X153.62Y-111.7
X153.62Y-114.24
X153.62Y-116.78
X153.62Y-119.32
X153.62Y-121.86
X156.775Y-67.925
X156.775Y-70.465
X156.775Y-73.005
X156.775Y-75.545
X156.775Y-78.085
X156.775Y-80.625
X156.775Y-83.165
X156.775Y-85.705
X156.775Y-88.245
X156.775Y-90.785
X156.775Y-93.325
X156.775Y-95.865
X156.775Y-98.405
X156.775Y-100.945
X172.015Y-67.925
X172.015Y-70.465
X172.015Y-73.005
X172.015Y-75.545
X172.015Y-78.085
X172.015Y-80.625
X172.015Y-83.165
X172.015Y-85.705
X172.015Y-88.245
X172.015Y-90.785
X172.015Y-93.325
X172.015Y-95.865
X172.015Y-98.405
X172.015Y-100.945
X188.5Y-79.5
X188.5Y-82.04
X188.5Y-84.58
X188.5Y-87.12
X188.5Y-89.66
X188.5Y-92.2
X188.5Y-94.74
X196.12Y-79.5
X196.12Y-82.04
X196.12Y-84.58
X196.12Y-87.12
X196.12Y-89.66
X196.12Y-92.2
X196.12Y-94.74
X123.5Y-104.
X133.66Y-104.
X123.5Y-100.
X133.66Y-100.
X139.Y-97.5
X139.Y-100.
X125.Y-79.34
X125.Y-89.5
X194.Y-97.5
X196.5Y-97.5
X188.5Y-100.5
X188.5Y-103.04
X188.5Y-105.58
X188.5Y-108.12
X188.5Y-110.66
X188.5Y-113.2
X188.5Y-115.74
X196.12Y-100.5
X196.12Y-103.04
X196.12Y-105.58
X196.12Y-108.12
X196.12Y-110.66
X196.12Y-113.2
X196.12Y-115.74
X118.Y-59.5
X118.Y-62.
X176.5Y-77.5
X176.5Y-80.04
X176.5Y-82.58
X176.5Y-85.12
X176.5Y-87.66
X176.5Y-90.2
X176.5Y-92.74
X184.12Y-77.5
X184.12Y-80.04
X184.12Y-82.58
X184.12Y-85.12
X184.12Y-87.66
X184.12Y-90.2
X184.12Y-92.74
X182.Y-95.5
X184.5Y-95.5
X133.5Y-70.5
X133.5Y-73.04
X133.5Y-75.58
X133.5Y-78.12
X133.5Y-80.66
X133.5Y-83.2
X133.5Y-85.74
X133.5Y-88.28
X133.5Y-90.82
X133.5Y-93.36
X141.12Y-70.5
X141.12Y-73.04
X141.12Y-75.58
X141.12Y-78.12
X141.12Y-80.66
X141.12Y-83.2
X141.12Y-85.74
X141.12Y-88.28
X141.12Y-90.82
X141.12Y-93.36
X129.5Y-67.
X129.5Y-69.5
X163.5Y-76.
X166.Y-76.
X138.5Y-67.5
X141.Y-67.5
X111.Y-94.5
X113.5Y-94.5
X182.Y-74.
X184.5Y-74.
X127.Y-107.5
X129.5Y-107.5
X151.Y-96.5
X153.5Y-96.5
X125.Y-69.12
X125.Y-74.
X136.5Y-112.5
X136.5Y-122.66
X138.Y-106.5
X141.5Y-106.5
X129.Y-79.5
X129.Y-89.66
X123.5Y-95.
X126.04Y-95.
X128.58Y-95.
X145.5Y-70.5
X145.5Y-73.04
X145.5Y-75.58
X145.5Y-78.12
X145.5Y-80.66
X145.5Y-83.2
X145.5Y-85.74
X145.5Y-88.28
X145.5Y-90.82
X145.5Y-93.36
X153.12Y-70.5
X153.12Y-73.04
X153.12Y-75.58
X153.12Y-78.12
X153.12Y-80.66
X153.12Y-83.2
X153.12Y-85.74
X153.12Y-88.28
X153.12Y-90.82
X153.12Y-93.36
T3
X167.5Y-111.
X167.5Y-113.54
X167.5Y-116.08
X167.5Y-118.62
X170.04Y-111.
X170.04Y-113.54
X170.04Y-116.08
X170.04Y-118.62
X160.Y-111.
X160.Y-113.54
X160.Y-116.08
X160.Y-118.62
X162.54Y-111.
X162.54Y-113.54
X162.54Y-116.08
X162.54Y-118.62
X162.Y-105.5
X164.54Y-105.5
X167.08Y-105.5
X126.725Y-60.085
X126.725Y-62.625
X129.265Y-60.085
X129.265Y-62.625
X131.805Y-60.085
X131.805Y-62.625
X134.345Y-60.085
X134.345Y-62.625
X136.885Y-60.085
X136.885Y-62.625
X139.425Y-60.085
X139.425Y-62.625
X141.965Y-60.085
X141.965Y-62.625
X144.505Y-60.085
X144.505Y-62.625
X147.045Y-60.085
X147.045Y-62.625
X149.585Y-60.085
X149.585Y-62.625
X152.125Y-60.085
X152.125Y-62.625
X154.665Y-60.085
X154.665Y-62.625
X157.205Y-60.085
X157.205Y-62.625
X159.745Y-60.085
X159.745Y-62.625
X162.285Y-60.085
X162.285Y-62.625
X164.825Y-60.085
X164.825Y-62.625
X167.365Y-60.085
X167.365Y-62.625
X169.905Y-60.085
X169.905Y-62.625
X172.445Y-60.085
X172.445Y-62.625
X174.985Y-60.085
X174.985Y-62.625
X176.42Y-68.
X178.96Y-68.
X181.5Y-68.
X190.65Y-60.5
X190.65Y-63.04
X190.65Y-65.58
X190.65Y-68.12
X190.65Y-70.66
X190.65Y-73.2
T5
X123.75Y-120.65
X132.25Y-120.65
T6
X105.5Y-54.5
X194.5Y-120.5
X194.5Y-54.5
X105.5Y-120.5
T4
X128.Y-112.25G85X128.Y-113.75
G05
X128.75Y-117.5G85X127.25Y-117.5
G05
T0
M30
