G04 #@! TF.GenerationSoftware,KiCad,Pcbnew,(5.0.0-3-g5ebb6b6)*
G04 #@! TF.CreationDate,2019-07-15T21:03:11+09:00*
G04 #@! TF.ProjectId,KZ80-TMS9918A,4B5A38302D544D5339393138412E6B69,rev?*
G04 #@! TF.SameCoordinates,Original*
G04 #@! TF.FileFunction,Soldermask,Top*
G04 #@! TF.FilePolarity,Negative*
%FSLAX46Y46*%
G04 Gerber Fmt 4.6, Leading zero omitted, Abs format (unit mm)*
G04 Created by KiCad (PCBNEW (5.0.0-3-g5ebb6b6)) date *
%MOMM*%
%LPD*%
G01*
G04 APERTURE LIST*
%ADD10R,2.000000X2.000000*%
%ADD11C,2.000000*%
%ADD12C,2.500000*%
%ADD13O,3.900000X2.700000*%
%ADD14O,2.700000X3.900000*%
%ADD15O,2.000000X2.000000*%
%ADD16R,2.100000X2.100000*%
%ADD17O,2.100000X2.100000*%
%ADD18C,1.900000*%
%ADD19C,3.600000*%
%ADD20R,1.900000X1.900000*%
G04 APERTURE END LIST*
D10*
G04 #@! TO.C,C3*
X139000000Y-97500000D03*
D11*
X139000000Y-100000000D03*
G04 #@! TD*
D10*
G04 #@! TO.C,C15*
X138000000Y-106500000D03*
D11*
X141500000Y-106500000D03*
G04 #@! TD*
G04 #@! TO.C,C14*
X127000000Y-107500000D03*
X129500000Y-107500000D03*
G04 #@! TD*
D12*
G04 #@! TO.C,J1*
X132250000Y-120650000D03*
D13*
X128000000Y-117500000D03*
D14*
X128000000Y-113000000D03*
D12*
X123750000Y-120650000D03*
G04 #@! TD*
D15*
G04 #@! TO.C,R4*
X141000000Y-112340000D03*
D11*
X141000000Y-122500000D03*
G04 #@! TD*
G04 #@! TO.C,R5*
X136500000Y-112500000D03*
D15*
X136500000Y-122660000D03*
G04 #@! TD*
D10*
G04 #@! TO.C,C13*
X118000000Y-62000000D03*
D11*
X118000000Y-59500000D03*
G04 #@! TD*
G04 #@! TO.C,C1*
X129500000Y-72000000D03*
X129500000Y-74500000D03*
G04 #@! TD*
G04 #@! TO.C,C2*
X129500000Y-69500000D03*
X129500000Y-67000000D03*
G04 #@! TD*
G04 #@! TO.C,C4*
X113500000Y-94500000D03*
X111000000Y-94500000D03*
G04 #@! TD*
G04 #@! TO.C,C5*
X138500000Y-67500000D03*
X141000000Y-67500000D03*
G04 #@! TD*
G04 #@! TO.C,C6*
X153500000Y-67500000D03*
X151000000Y-67500000D03*
G04 #@! TD*
G04 #@! TO.C,C7*
X163500000Y-78500000D03*
X166000000Y-78500000D03*
G04 #@! TD*
G04 #@! TO.C,C8*
X184500000Y-66500000D03*
X182000000Y-66500000D03*
G04 #@! TD*
G04 #@! TO.C,C9*
X182000000Y-88000000D03*
X184500000Y-88000000D03*
G04 #@! TD*
G04 #@! TO.C,C10*
X196500000Y-76500000D03*
X194000000Y-76500000D03*
G04 #@! TD*
G04 #@! TO.C,C11*
X151000000Y-96500000D03*
X153500000Y-96500000D03*
G04 #@! TD*
G04 #@! TO.C,C12*
X196500000Y-97500000D03*
X194000000Y-97500000D03*
G04 #@! TD*
D16*
G04 #@! TO.C,JP1*
X164000000Y-105500000D03*
D17*
X166540000Y-105500000D03*
X169080000Y-105500000D03*
G04 #@! TD*
D16*
G04 #@! TO.C,J3*
X190650000Y-60500000D03*
D17*
X190650000Y-63040000D03*
X190650000Y-65580000D03*
X190650000Y-68120000D03*
X190650000Y-70660000D03*
X190650000Y-73200000D03*
G04 #@! TD*
G04 #@! TO.C,J4*
X171540000Y-118620000D03*
X169000000Y-118620000D03*
X171540000Y-116080000D03*
X169000000Y-116080000D03*
X171540000Y-113540000D03*
X169000000Y-113540000D03*
X171540000Y-111000000D03*
D16*
X169000000Y-111000000D03*
G04 #@! TD*
G04 #@! TO.C,J5*
X161500000Y-111000000D03*
D17*
X164040000Y-111000000D03*
X161500000Y-113540000D03*
X164040000Y-113540000D03*
X161500000Y-116080000D03*
X164040000Y-116080000D03*
X161500000Y-118620000D03*
X164040000Y-118620000D03*
G04 #@! TD*
D16*
G04 #@! TO.C,J2*
X126725000Y-62625000D03*
D17*
X126725000Y-60085000D03*
X129265000Y-62625000D03*
X129265000Y-60085000D03*
X131805000Y-62625000D03*
X131805000Y-60085000D03*
X134345000Y-62625000D03*
X134345000Y-60085000D03*
X136885000Y-62625000D03*
X136885000Y-60085000D03*
X139425000Y-62625000D03*
X139425000Y-60085000D03*
X141965000Y-62625000D03*
X141965000Y-60085000D03*
X144505000Y-62625000D03*
X144505000Y-60085000D03*
X147045000Y-62625000D03*
X147045000Y-60085000D03*
X149585000Y-62625000D03*
X149585000Y-60085000D03*
X152125000Y-62625000D03*
X152125000Y-60085000D03*
X154665000Y-62625000D03*
X154665000Y-60085000D03*
X157205000Y-62625000D03*
X157205000Y-60085000D03*
X159745000Y-62625000D03*
X159745000Y-60085000D03*
X162285000Y-62625000D03*
X162285000Y-60085000D03*
X164825000Y-62625000D03*
X164825000Y-60085000D03*
X167365000Y-62625000D03*
X167365000Y-60085000D03*
X169905000Y-62625000D03*
X169905000Y-60085000D03*
X172445000Y-62625000D03*
X172445000Y-60085000D03*
X174985000Y-62625000D03*
X174985000Y-60085000D03*
G04 #@! TD*
D18*
G04 #@! TO.C,Y1*
X125000000Y-74000000D03*
X125000000Y-69120000D03*
G04 #@! TD*
D11*
G04 #@! TO.C,L1*
X123500000Y-100000000D03*
D15*
X133660000Y-100000000D03*
G04 #@! TD*
D19*
G04 #@! TO.C,MH1*
X105500000Y-120500000D03*
G04 #@! TD*
G04 #@! TO.C,MH2*
X194500000Y-54500000D03*
G04 #@! TD*
G04 #@! TO.C,MH3*
X105500000Y-54500000D03*
G04 #@! TD*
G04 #@! TO.C,MH4*
X194500000Y-120500000D03*
G04 #@! TD*
D10*
G04 #@! TO.C,U1*
X188500000Y-79500000D03*
D15*
X196120000Y-94740000D03*
X188500000Y-82040000D03*
X196120000Y-92200000D03*
X188500000Y-84580000D03*
X196120000Y-89660000D03*
X188500000Y-87120000D03*
X196120000Y-87120000D03*
X188500000Y-89660000D03*
X196120000Y-84580000D03*
X188500000Y-92200000D03*
X196120000Y-82040000D03*
X188500000Y-94740000D03*
X196120000Y-79500000D03*
G04 #@! TD*
G04 #@! TO.C,U3*
X196120000Y-100500000D03*
X188500000Y-115740000D03*
X196120000Y-103040000D03*
X188500000Y-113200000D03*
X196120000Y-105580000D03*
X188500000Y-110660000D03*
X196120000Y-108120000D03*
X188500000Y-108120000D03*
X196120000Y-110660000D03*
X188500000Y-105580000D03*
X196120000Y-113200000D03*
X188500000Y-103040000D03*
X196120000Y-115740000D03*
D10*
X188500000Y-100500000D03*
G04 #@! TD*
G04 #@! TO.C,U5*
X176500000Y-70000000D03*
D15*
X184120000Y-85240000D03*
X176500000Y-72540000D03*
X184120000Y-82700000D03*
X176500000Y-75080000D03*
X184120000Y-80160000D03*
X176500000Y-77620000D03*
X184120000Y-77620000D03*
X176500000Y-80160000D03*
X184120000Y-75080000D03*
X176500000Y-82700000D03*
X184120000Y-72540000D03*
X176500000Y-85240000D03*
X184120000Y-70000000D03*
G04 #@! TD*
G04 #@! TO.C,U2*
X184120000Y-90500000D03*
X176500000Y-108280000D03*
X184120000Y-93040000D03*
X176500000Y-105740000D03*
X184120000Y-95580000D03*
X176500000Y-103200000D03*
X184120000Y-98120000D03*
X176500000Y-100660000D03*
X184120000Y-100660000D03*
X176500000Y-98120000D03*
X184120000Y-103200000D03*
X176500000Y-95580000D03*
X184120000Y-105740000D03*
X176500000Y-93040000D03*
X184120000Y-108280000D03*
D10*
X176500000Y-90500000D03*
G04 #@! TD*
G04 #@! TO.C,U6*
X146000000Y-99000000D03*
D15*
X153620000Y-121860000D03*
X146000000Y-101540000D03*
X153620000Y-119320000D03*
X146000000Y-104080000D03*
X153620000Y-116780000D03*
X146000000Y-106620000D03*
X153620000Y-114240000D03*
X146000000Y-109160000D03*
X153620000Y-111700000D03*
X146000000Y-111700000D03*
X153620000Y-109160000D03*
X146000000Y-114240000D03*
X153620000Y-106620000D03*
X146000000Y-116780000D03*
X153620000Y-104080000D03*
X146000000Y-119320000D03*
X153620000Y-101540000D03*
X146000000Y-121860000D03*
X153620000Y-99000000D03*
G04 #@! TD*
G04 #@! TO.C,U7*
X153120000Y-70500000D03*
X145500000Y-93360000D03*
X153120000Y-73040000D03*
X145500000Y-90820000D03*
X153120000Y-75580000D03*
X145500000Y-88280000D03*
X153120000Y-78120000D03*
X145500000Y-85740000D03*
X153120000Y-80660000D03*
X145500000Y-83200000D03*
X153120000Y-83200000D03*
X145500000Y-80660000D03*
X153120000Y-85740000D03*
X145500000Y-78120000D03*
X153120000Y-88280000D03*
X145500000Y-75580000D03*
X153120000Y-90820000D03*
X145500000Y-73040000D03*
X153120000Y-93360000D03*
D10*
X145500000Y-70500000D03*
G04 #@! TD*
G04 #@! TO.C,U9*
X133500000Y-70500000D03*
D15*
X141120000Y-93360000D03*
X133500000Y-73040000D03*
X141120000Y-90820000D03*
X133500000Y-75580000D03*
X141120000Y-88280000D03*
X133500000Y-78120000D03*
X141120000Y-85740000D03*
X133500000Y-80660000D03*
X141120000Y-83200000D03*
X133500000Y-83200000D03*
X141120000Y-80660000D03*
X133500000Y-85740000D03*
X141120000Y-78120000D03*
X133500000Y-88280000D03*
X141120000Y-75580000D03*
X133500000Y-90820000D03*
X141120000Y-73040000D03*
X133500000Y-93360000D03*
X141120000Y-70500000D03*
G04 #@! TD*
D10*
G04 #@! TO.C,U8*
X156775000Y-67925000D03*
D15*
X172015000Y-100945000D03*
X156775000Y-70465000D03*
X172015000Y-98405000D03*
X156775000Y-73005000D03*
X172015000Y-95865000D03*
X156775000Y-75545000D03*
X172015000Y-93325000D03*
X156775000Y-78085000D03*
X172015000Y-90785000D03*
X156775000Y-80625000D03*
X172015000Y-88245000D03*
X156775000Y-83165000D03*
X172015000Y-85705000D03*
X156775000Y-85705000D03*
X172015000Y-83165000D03*
X156775000Y-88245000D03*
X172015000Y-80625000D03*
X156775000Y-90785000D03*
X172015000Y-78085000D03*
X156775000Y-93325000D03*
X172015000Y-75545000D03*
X156775000Y-95865000D03*
X172015000Y-73005000D03*
X156775000Y-98405000D03*
X172015000Y-70465000D03*
X156775000Y-100945000D03*
X172015000Y-67925000D03*
G04 #@! TD*
D10*
G04 #@! TO.C,U4*
X104850000Y-66350000D03*
D15*
X120090000Y-114610000D03*
X104850000Y-68890000D03*
X120090000Y-112070000D03*
X104850000Y-71430000D03*
X120090000Y-109530000D03*
X104850000Y-73970000D03*
X120090000Y-106990000D03*
X104850000Y-76510000D03*
X120090000Y-104450000D03*
X104850000Y-79050000D03*
X120090000Y-101910000D03*
X104850000Y-81590000D03*
X120090000Y-99370000D03*
X104850000Y-84130000D03*
X120090000Y-96830000D03*
X104850000Y-86670000D03*
X120090000Y-94290000D03*
X104850000Y-89210000D03*
X120090000Y-91750000D03*
X104850000Y-91750000D03*
X120090000Y-89210000D03*
X104850000Y-94290000D03*
X120090000Y-86670000D03*
X104850000Y-96830000D03*
X120090000Y-84130000D03*
X104850000Y-99370000D03*
X120090000Y-81590000D03*
X104850000Y-101910000D03*
X120090000Y-79050000D03*
X104850000Y-104450000D03*
X120090000Y-76510000D03*
X104850000Y-106990000D03*
X120090000Y-73970000D03*
X104850000Y-109530000D03*
X120090000Y-71430000D03*
X104850000Y-112070000D03*
X120090000Y-68890000D03*
X104850000Y-114610000D03*
X120090000Y-66350000D03*
G04 #@! TD*
D18*
G04 #@! TO.C,Q1*
X126040000Y-95000000D03*
X128580000Y-95000000D03*
D20*
X123500000Y-95000000D03*
G04 #@! TD*
D11*
G04 #@! TO.C,R1*
X123500000Y-104000000D03*
D15*
X133660000Y-104000000D03*
G04 #@! TD*
G04 #@! TO.C,R2*
X129000000Y-89660000D03*
D11*
X129000000Y-79500000D03*
G04 #@! TD*
G04 #@! TO.C,R3*
X125000000Y-89500000D03*
D15*
X125000000Y-79340000D03*
G04 #@! TD*
M02*
