G04 #@! TF.GenerationSoftware,KiCad,Pcbnew,(5.0.0-3-g5ebb6b6)*
G04 #@! TF.CreationDate,2019-09-02T20:41:48+09:00*
G04 #@! TF.ProjectId,KZ80-TMS9918A,4B5A38302D544D5339393138412E6B69,rev?*
G04 #@! TF.SameCoordinates,Original*
G04 #@! TF.FileFunction,Copper,L1,Top,Signal*
G04 #@! TF.FilePolarity,Positive*
%FSLAX46Y46*%
G04 Gerber Fmt 4.6, Leading zero omitted, Abs format (unit mm)*
G04 Created by KiCad (PCBNEW (5.0.0-3-g5ebb6b6)) date *
%MOMM*%
%LPD*%
G01*
G04 APERTURE LIST*
G04 #@! TA.AperFunction,ComponentPad*
%ADD10R,1.700000X1.700000*%
G04 #@! TD*
G04 #@! TA.AperFunction,ComponentPad*
%ADD11O,1.700000X1.700000*%
G04 #@! TD*
G04 #@! TA.AperFunction,ComponentPad*
%ADD12R,1.600000X1.600000*%
G04 #@! TD*
G04 #@! TA.AperFunction,ComponentPad*
%ADD13C,1.600000*%
G04 #@! TD*
G04 #@! TA.AperFunction,ComponentPad*
%ADD14O,3.500000X2.300000*%
G04 #@! TD*
G04 #@! TA.AperFunction,ComponentPad*
%ADD15O,2.300000X3.500000*%
G04 #@! TD*
G04 #@! TA.AperFunction,ComponentPad*
%ADD16O,1.600000X1.600000*%
G04 #@! TD*
G04 #@! TA.AperFunction,ComponentPad*
%ADD17C,1.500000*%
G04 #@! TD*
G04 #@! TA.AperFunction,ComponentPad*
%ADD18R,1.500000X1.500000*%
G04 #@! TD*
G04 #@! TA.AperFunction,ViaPad*
%ADD19C,0.800000*%
G04 #@! TD*
G04 #@! TA.AperFunction,Conductor*
%ADD20C,0.250000*%
G04 #@! TD*
G04 #@! TA.AperFunction,Conductor*
%ADD21C,0.600000*%
G04 #@! TD*
G04 #@! TA.AperFunction,Conductor*
%ADD22C,0.254000*%
G04 #@! TD*
G04 APERTURE END LIST*
D10*
G04 #@! TO.P,JP2,1*
G04 #@! TO.N,/INT*
X181500000Y-68000000D03*
D11*
G04 #@! TO.P,JP2,2*
G04 #@! TO.N,Net-(JP2-Pad2)*
X178960000Y-68000000D03*
G04 #@! TO.P,JP2,3*
G04 #@! TO.N,/INT80*
X176420000Y-68000000D03*
G04 #@! TD*
D12*
G04 #@! TO.P,C3,1*
G04 #@! TO.N,Net-(C14-Pad1)*
X139000000Y-97500000D03*
D13*
G04 #@! TO.P,C3,2*
G04 #@! TO.N,GND*
X139000000Y-100000000D03*
G04 #@! TD*
D12*
G04 #@! TO.P,C15,1*
G04 #@! TO.N,Net-(C15-Pad1)*
X138000000Y-106500000D03*
D13*
G04 #@! TO.P,C15,2*
G04 #@! TO.N,Net-(C15-Pad2)*
X141500000Y-106500000D03*
G04 #@! TD*
G04 #@! TO.P,C14,1*
G04 #@! TO.N,Net-(C14-Pad1)*
X127000000Y-107500000D03*
G04 #@! TO.P,C14,2*
G04 #@! TO.N,GND*
X129500000Y-107500000D03*
G04 #@! TD*
D14*
G04 #@! TO.P,J1,2*
G04 #@! TO.N,GND*
X128000000Y-117500000D03*
D15*
G04 #@! TO.P,J1,1*
G04 #@! TO.N,Net-(C15-Pad2)*
X128000000Y-113000000D03*
G04 #@! TD*
D16*
G04 #@! TO.P,R4,2*
G04 #@! TO.N,Net-(C15-Pad2)*
X141000000Y-112340000D03*
D13*
G04 #@! TO.P,R4,1*
G04 #@! TO.N,Net-(C14-Pad1)*
X141000000Y-122500000D03*
G04 #@! TD*
G04 #@! TO.P,R5,1*
G04 #@! TO.N,Net-(C15-Pad2)*
X136500000Y-112500000D03*
D16*
G04 #@! TO.P,R5,2*
G04 #@! TO.N,GND*
X136500000Y-122660000D03*
G04 #@! TD*
D12*
G04 #@! TO.P,C13,1*
G04 #@! TO.N,VCC*
X118000000Y-62000000D03*
D13*
G04 #@! TO.P,C13,2*
G04 #@! TO.N,GND*
X118000000Y-59500000D03*
G04 #@! TD*
G04 #@! TO.P,C1,2*
G04 #@! TO.N,GND*
X129500000Y-72000000D03*
G04 #@! TO.P,C1,1*
G04 #@! TO.N,Net-(C1-Pad1)*
X129500000Y-74500000D03*
G04 #@! TD*
G04 #@! TO.P,C2,1*
G04 #@! TO.N,Net-(C2-Pad1)*
X129500000Y-69500000D03*
G04 #@! TO.P,C2,2*
G04 #@! TO.N,GND*
X129500000Y-67000000D03*
G04 #@! TD*
G04 #@! TO.P,C4,1*
G04 #@! TO.N,VCC*
X113500000Y-94500000D03*
G04 #@! TO.P,C4,2*
G04 #@! TO.N,GND*
X111000000Y-94500000D03*
G04 #@! TD*
G04 #@! TO.P,C5,2*
G04 #@! TO.N,GND*
X138500000Y-67500000D03*
G04 #@! TO.P,C5,1*
G04 #@! TO.N,VCC*
X141000000Y-67500000D03*
G04 #@! TD*
G04 #@! TO.P,C6,1*
G04 #@! TO.N,VCC*
X153500000Y-67500000D03*
G04 #@! TO.P,C6,2*
G04 #@! TO.N,GND*
X151000000Y-67500000D03*
G04 #@! TD*
G04 #@! TO.P,C7,2*
G04 #@! TO.N,GND*
X163500000Y-76000000D03*
G04 #@! TO.P,C7,1*
G04 #@! TO.N,VCC*
X166000000Y-76000000D03*
G04 #@! TD*
G04 #@! TO.P,C8,1*
G04 #@! TO.N,VCC*
X184500000Y-74000000D03*
G04 #@! TO.P,C8,2*
G04 #@! TO.N,GND*
X182000000Y-74000000D03*
G04 #@! TD*
G04 #@! TO.P,C9,2*
G04 #@! TO.N,GND*
X182000000Y-95500000D03*
G04 #@! TO.P,C9,1*
G04 #@! TO.N,VCC*
X184500000Y-95500000D03*
G04 #@! TD*
G04 #@! TO.P,C10,1*
G04 #@! TO.N,VCC*
X196500000Y-76500000D03*
G04 #@! TO.P,C10,2*
G04 #@! TO.N,GND*
X194000000Y-76500000D03*
G04 #@! TD*
G04 #@! TO.P,C11,2*
G04 #@! TO.N,GND*
X151000000Y-96500000D03*
G04 #@! TO.P,C11,1*
G04 #@! TO.N,VCC*
X153500000Y-96500000D03*
G04 #@! TD*
G04 #@! TO.P,C12,1*
G04 #@! TO.N,VCC*
X196500000Y-97500000D03*
G04 #@! TO.P,C12,2*
G04 #@! TO.N,GND*
X194000000Y-97500000D03*
G04 #@! TD*
D10*
G04 #@! TO.P,JP1,1*
G04 #@! TO.N,/A7*
X162000000Y-105500000D03*
D11*
G04 #@! TO.P,JP1,2*
G04 #@! TO.N,Net-(JP1-Pad2)*
X164540000Y-105500000D03*
G04 #@! TO.P,JP1,3*
G04 #@! TO.N,Net-(JP1-Pad3)*
X167080000Y-105500000D03*
G04 #@! TD*
D10*
G04 #@! TO.P,J3,1*
G04 #@! TO.N,/CLK*
X190650000Y-60500000D03*
D11*
G04 #@! TO.P,J3,2*
G04 #@! TO.N,/CPUCLK*
X190650000Y-63040000D03*
G04 #@! TO.P,J3,3*
G04 #@! TO.N,/GROMCLK*
X190650000Y-65580000D03*
G04 #@! TO.P,J3,4*
G04 #@! TO.N,/EXTVDP*
X190650000Y-68120000D03*
G04 #@! TO.P,J3,5*
G04 #@! TO.N,/INT*
X190650000Y-70660000D03*
G04 #@! TO.P,J3,6*
G04 #@! TO.N,GND*
X190650000Y-73200000D03*
G04 #@! TD*
G04 #@! TO.P,J4,8*
G04 #@! TO.N,Net-(J4-Pad2)*
X170040000Y-118620000D03*
G04 #@! TO.P,J4,7*
G04 #@! TO.N,Net-(J4-Pad7)*
X167500000Y-118620000D03*
G04 #@! TO.P,J4,6*
G04 #@! TO.N,Net-(J4-Pad2)*
X170040000Y-116080000D03*
G04 #@! TO.P,J4,5*
G04 #@! TO.N,Net-(J4-Pad5)*
X167500000Y-116080000D03*
G04 #@! TO.P,J4,4*
G04 #@! TO.N,Net-(J4-Pad2)*
X170040000Y-113540000D03*
G04 #@! TO.P,J4,3*
G04 #@! TO.N,Net-(J4-Pad3)*
X167500000Y-113540000D03*
G04 #@! TO.P,J4,2*
G04 #@! TO.N,Net-(J4-Pad2)*
X170040000Y-111000000D03*
D10*
G04 #@! TO.P,J4,1*
G04 #@! TO.N,Net-(J4-Pad1)*
X167500000Y-111000000D03*
G04 #@! TD*
G04 #@! TO.P,J5,1*
G04 #@! TO.N,Net-(J5-Pad1)*
X160000000Y-111000000D03*
D11*
G04 #@! TO.P,J5,2*
G04 #@! TO.N,Net-(J5-Pad2)*
X162540000Y-111000000D03*
G04 #@! TO.P,J5,3*
G04 #@! TO.N,Net-(J5-Pad3)*
X160000000Y-113540000D03*
G04 #@! TO.P,J5,4*
G04 #@! TO.N,Net-(J5-Pad2)*
X162540000Y-113540000D03*
G04 #@! TO.P,J5,5*
G04 #@! TO.N,Net-(J5-Pad5)*
X160000000Y-116080000D03*
G04 #@! TO.P,J5,6*
G04 #@! TO.N,Net-(J5-Pad2)*
X162540000Y-116080000D03*
G04 #@! TO.P,J5,7*
G04 #@! TO.N,Net-(J5-Pad7)*
X160000000Y-118620000D03*
G04 #@! TO.P,J5,8*
G04 #@! TO.N,Net-(J5-Pad2)*
X162540000Y-118620000D03*
G04 #@! TD*
D10*
G04 #@! TO.P,J2,1*
G04 #@! TO.N,VCC*
X126725000Y-62625000D03*
D11*
G04 #@! TO.P,J2,2*
G04 #@! TO.N,GND*
X126725000Y-60085000D03*
G04 #@! TO.P,J2,3*
G04 #@! TO.N,VCC*
X129265000Y-62625000D03*
G04 #@! TO.P,J2,4*
G04 #@! TO.N,GND*
X129265000Y-60085000D03*
G04 #@! TO.P,J2,5*
G04 #@! TO.N,Net-(J2-Pad5)*
X131805000Y-62625000D03*
G04 #@! TO.P,J2,6*
G04 #@! TO.N,Net-(J2-Pad6)*
X131805000Y-60085000D03*
G04 #@! TO.P,J2,7*
G04 #@! TO.N,Net-(J2-Pad7)*
X134345000Y-62625000D03*
G04 #@! TO.P,J2,8*
G04 #@! TO.N,/CLK*
X134345000Y-60085000D03*
G04 #@! TO.P,J2,9*
G04 #@! TO.N,/D0*
X136885000Y-62625000D03*
G04 #@! TO.P,J2,10*
G04 #@! TO.N,/D1*
X136885000Y-60085000D03*
G04 #@! TO.P,J2,11*
G04 #@! TO.N,/D2*
X139425000Y-62625000D03*
G04 #@! TO.P,J2,12*
G04 #@! TO.N,/D3*
X139425000Y-60085000D03*
G04 #@! TO.P,J2,13*
G04 #@! TO.N,/D4*
X141965000Y-62625000D03*
G04 #@! TO.P,J2,14*
G04 #@! TO.N,/D5*
X141965000Y-60085000D03*
G04 #@! TO.P,J2,15*
G04 #@! TO.N,/D6*
X144505000Y-62625000D03*
G04 #@! TO.P,J2,16*
G04 #@! TO.N,/D7*
X144505000Y-60085000D03*
G04 #@! TO.P,J2,17*
G04 #@! TO.N,/~IOR*
X147045000Y-62625000D03*
G04 #@! TO.P,J2,18*
G04 #@! TO.N,Net-(J2-Pad18)*
X147045000Y-60085000D03*
G04 #@! TO.P,J2,19*
G04 #@! TO.N,/~IOW*
X149585000Y-62625000D03*
G04 #@! TO.P,J2,20*
G04 #@! TO.N,Net-(J2-Pad20)*
X149585000Y-60085000D03*
G04 #@! TO.P,J2,21*
G04 #@! TO.N,/RES*
X152125000Y-62625000D03*
G04 #@! TO.P,J2,22*
G04 #@! TO.N,Net-(J2-Pad22)*
X152125000Y-60085000D03*
G04 #@! TO.P,J2,23*
G04 #@! TO.N,/INT80*
X154665000Y-62625000D03*
G04 #@! TO.P,J2,24*
G04 #@! TO.N,Net-(J2-Pad24)*
X154665000Y-60085000D03*
G04 #@! TO.P,J2,25*
G04 #@! TO.N,/A0*
X157205000Y-62625000D03*
G04 #@! TO.P,J2,26*
G04 #@! TO.N,Net-(J2-Pad26)*
X157205000Y-60085000D03*
G04 #@! TO.P,J2,27*
G04 #@! TO.N,Net-(J2-Pad27)*
X159745000Y-62625000D03*
G04 #@! TO.P,J2,28*
G04 #@! TO.N,/A3*
X159745000Y-60085000D03*
G04 #@! TO.P,J2,29*
G04 #@! TO.N,/A4*
X162285000Y-62625000D03*
G04 #@! TO.P,J2,30*
G04 #@! TO.N,/A5*
X162285000Y-60085000D03*
G04 #@! TO.P,J2,31*
G04 #@! TO.N,/A6*
X164825000Y-62625000D03*
G04 #@! TO.P,J2,32*
G04 #@! TO.N,/A7*
X164825000Y-60085000D03*
G04 #@! TO.P,J2,33*
G04 #@! TO.N,Net-(J2-Pad33)*
X167365000Y-62625000D03*
G04 #@! TO.P,J2,34*
G04 #@! TO.N,Net-(J2-Pad34)*
X167365000Y-60085000D03*
G04 #@! TO.P,J2,35*
G04 #@! TO.N,Net-(J2-Pad35)*
X169905000Y-62625000D03*
G04 #@! TO.P,J2,36*
G04 #@! TO.N,Net-(J2-Pad36)*
X169905000Y-60085000D03*
G04 #@! TO.P,J2,37*
G04 #@! TO.N,Net-(J2-Pad37)*
X172445000Y-62625000D03*
G04 #@! TO.P,J2,38*
G04 #@! TO.N,Net-(J2-Pad38)*
X172445000Y-60085000D03*
G04 #@! TO.P,J2,39*
G04 #@! TO.N,Net-(J2-Pad39)*
X174985000Y-62625000D03*
G04 #@! TO.P,J2,40*
G04 #@! TO.N,Net-(J2-Pad40)*
X174985000Y-60085000D03*
G04 #@! TD*
D17*
G04 #@! TO.P,Y1,1*
G04 #@! TO.N,Net-(C1-Pad1)*
X125000000Y-74000000D03*
G04 #@! TO.P,Y1,2*
G04 #@! TO.N,Net-(C2-Pad1)*
X125000000Y-69120000D03*
G04 #@! TD*
D13*
G04 #@! TO.P,L1,1*
G04 #@! TO.N,VCC*
X123500000Y-100000000D03*
D16*
G04 #@! TO.P,L1,2*
G04 #@! TO.N,Net-(C14-Pad1)*
X133660000Y-100000000D03*
G04 #@! TD*
D12*
G04 #@! TO.P,U1,1*
G04 #@! TO.N,/R~W*
X188500000Y-79500000D03*
D16*
G04 #@! TO.P,U1,8*
G04 #@! TO.N,Net-(U1-Pad11)*
X196120000Y-94740000D03*
G04 #@! TO.P,U1,2*
G04 #@! TO.N,/~R~W*
X188500000Y-82040000D03*
G04 #@! TO.P,U1,9*
G04 #@! TO.N,Net-(U1-Pad6)*
X196120000Y-92200000D03*
G04 #@! TO.P,U1,3*
G04 #@! TO.N,/~RAS*
X188500000Y-84580000D03*
G04 #@! TO.P,U1,10*
G04 #@! TO.N,/COL*
X196120000Y-89660000D03*
G04 #@! TO.P,U1,4*
G04 #@! TO.N,/ROW*
X188500000Y-87120000D03*
G04 #@! TO.P,U1,11*
G04 #@! TO.N,Net-(U1-Pad11)*
X196120000Y-87120000D03*
G04 #@! TO.P,U1,5*
G04 #@! TO.N,/~CAS*
X188500000Y-89660000D03*
G04 #@! TO.P,U1,12*
G04 #@! TO.N,Net-(JP2-Pad2)*
X196120000Y-84580000D03*
G04 #@! TO.P,U1,6*
G04 #@! TO.N,Net-(U1-Pad6)*
X188500000Y-92200000D03*
G04 #@! TO.P,U1,13*
G04 #@! TO.N,/~INT*
X196120000Y-82040000D03*
G04 #@! TO.P,U1,7*
G04 #@! TO.N,GND*
X188500000Y-94740000D03*
G04 #@! TO.P,U1,14*
G04 #@! TO.N,VCC*
X196120000Y-79500000D03*
G04 #@! TD*
G04 #@! TO.P,U3,14*
G04 #@! TO.N,VCC*
X196120000Y-100500000D03*
G04 #@! TO.P,U3,7*
G04 #@! TO.N,GND*
X188500000Y-115740000D03*
G04 #@! TO.P,U3,13*
X196120000Y-103040000D03*
G04 #@! TO.P,U3,6*
G04 #@! TO.N,/~CSW*
X188500000Y-113200000D03*
G04 #@! TO.P,U3,12*
G04 #@! TO.N,GND*
X196120000Y-105580000D03*
G04 #@! TO.P,U3,5*
G04 #@! TO.N,/~IOW*
X188500000Y-110660000D03*
G04 #@! TO.P,U3,11*
G04 #@! TO.N,Net-(U3-Pad11)*
X196120000Y-108120000D03*
G04 #@! TO.P,U3,4*
G04 #@! TO.N,Net-(J4-Pad2)*
X188500000Y-108120000D03*
G04 #@! TO.P,U3,10*
G04 #@! TO.N,GND*
X196120000Y-110660000D03*
G04 #@! TO.P,U3,3*
G04 #@! TO.N,/~CSR*
X188500000Y-105580000D03*
G04 #@! TO.P,U3,9*
G04 #@! TO.N,GND*
X196120000Y-113200000D03*
G04 #@! TO.P,U3,2*
G04 #@! TO.N,/~IOR*
X188500000Y-103040000D03*
G04 #@! TO.P,U3,8*
G04 #@! TO.N,Net-(U3-Pad8)*
X196120000Y-115740000D03*
D12*
G04 #@! TO.P,U3,1*
G04 #@! TO.N,Net-(J4-Pad2)*
X188500000Y-100500000D03*
G04 #@! TD*
G04 #@! TO.P,U5,1*
G04 #@! TO.N,/A7*
X176500000Y-77500000D03*
D16*
G04 #@! TO.P,U5,8*
G04 #@! TO.N,Net-(U5-Pad8)*
X184120000Y-92740000D03*
G04 #@! TO.P,U5,2*
G04 #@! TO.N,Net-(JP1-Pad3)*
X176500000Y-80040000D03*
G04 #@! TO.P,U5,9*
G04 #@! TO.N,GND*
X184120000Y-90200000D03*
G04 #@! TO.P,U5,3*
G04 #@! TO.N,/RES*
X176500000Y-82580000D03*
G04 #@! TO.P,U5,10*
G04 #@! TO.N,Net-(U5-Pad10)*
X184120000Y-87660000D03*
G04 #@! TO.P,U5,4*
G04 #@! TO.N,/~RES*
X176500000Y-85120000D03*
G04 #@! TO.P,U5,11*
G04 #@! TO.N,GND*
X184120000Y-85120000D03*
G04 #@! TO.P,U5,5*
X176500000Y-87660000D03*
G04 #@! TO.P,U5,12*
G04 #@! TO.N,Net-(U5-Pad12)*
X184120000Y-82580000D03*
G04 #@! TO.P,U5,6*
G04 #@! TO.N,Net-(U5-Pad6)*
X176500000Y-90200000D03*
G04 #@! TO.P,U5,13*
G04 #@! TO.N,GND*
X184120000Y-80040000D03*
G04 #@! TO.P,U5,7*
X176500000Y-92740000D03*
G04 #@! TO.P,U5,14*
G04 #@! TO.N,VCC*
X184120000Y-77500000D03*
G04 #@! TD*
G04 #@! TO.P,U2,16*
G04 #@! TO.N,VCC*
X184120000Y-98000000D03*
G04 #@! TO.P,U2,8*
G04 #@! TO.N,GND*
X176500000Y-115780000D03*
G04 #@! TO.P,U2,15*
G04 #@! TO.N,Net-(J5-Pad2)*
X184120000Y-100540000D03*
G04 #@! TO.P,U2,7*
G04 #@! TO.N,Net-(J5-Pad7)*
X176500000Y-113240000D03*
G04 #@! TO.P,U2,14*
G04 #@! TO.N,/A3*
X184120000Y-103080000D03*
G04 #@! TO.P,U2,6*
G04 #@! TO.N,Net-(J5-Pad5)*
X176500000Y-110700000D03*
G04 #@! TO.P,U2,13*
G04 #@! TO.N,/A4*
X184120000Y-105620000D03*
G04 #@! TO.P,U2,5*
G04 #@! TO.N,Net-(J5-Pad3)*
X176500000Y-108160000D03*
G04 #@! TO.P,U2,12*
G04 #@! TO.N,Net-(J4-Pad1)*
X184120000Y-108160000D03*
G04 #@! TO.P,U2,4*
G04 #@! TO.N,Net-(J5-Pad1)*
X176500000Y-105620000D03*
G04 #@! TO.P,U2,11*
G04 #@! TO.N,Net-(J4-Pad3)*
X184120000Y-110700000D03*
G04 #@! TO.P,U2,3*
G04 #@! TO.N,/A6*
X176500000Y-103080000D03*
G04 #@! TO.P,U2,10*
G04 #@! TO.N,Net-(J4-Pad5)*
X184120000Y-113240000D03*
G04 #@! TO.P,U2,2*
G04 #@! TO.N,/A5*
X176500000Y-100540000D03*
G04 #@! TO.P,U2,9*
G04 #@! TO.N,Net-(J4-Pad7)*
X184120000Y-115780000D03*
D12*
G04 #@! TO.P,U2,1*
G04 #@! TO.N,Net-(JP1-Pad2)*
X176500000Y-98000000D03*
G04 #@! TD*
G04 #@! TO.P,U6,1*
G04 #@! TO.N,/R~W*
X146000000Y-99000000D03*
D16*
G04 #@! TO.P,U6,11*
G04 #@! TO.N,/~R~W*
X153620000Y-121860000D03*
G04 #@! TO.P,U6,2*
G04 #@! TO.N,/AD0*
X146000000Y-101540000D03*
G04 #@! TO.P,U6,12*
G04 #@! TO.N,/VD7*
X153620000Y-119320000D03*
G04 #@! TO.P,U6,3*
G04 #@! TO.N,/AD1*
X146000000Y-104080000D03*
G04 #@! TO.P,U6,13*
G04 #@! TO.N,/VD6*
X153620000Y-116780000D03*
G04 #@! TO.P,U6,4*
G04 #@! TO.N,/AD2*
X146000000Y-106620000D03*
G04 #@! TO.P,U6,14*
G04 #@! TO.N,/VD5*
X153620000Y-114240000D03*
G04 #@! TO.P,U6,5*
G04 #@! TO.N,/AD3*
X146000000Y-109160000D03*
G04 #@! TO.P,U6,15*
G04 #@! TO.N,/VD4*
X153620000Y-111700000D03*
G04 #@! TO.P,U6,6*
G04 #@! TO.N,/AD4*
X146000000Y-111700000D03*
G04 #@! TO.P,U6,16*
G04 #@! TO.N,/VD3*
X153620000Y-109160000D03*
G04 #@! TO.P,U6,7*
G04 #@! TO.N,/AD5*
X146000000Y-114240000D03*
G04 #@! TO.P,U6,17*
G04 #@! TO.N,/VD2*
X153620000Y-106620000D03*
G04 #@! TO.P,U6,8*
G04 #@! TO.N,/AD6*
X146000000Y-116780000D03*
G04 #@! TO.P,U6,18*
G04 #@! TO.N,/VD1*
X153620000Y-104080000D03*
G04 #@! TO.P,U6,9*
G04 #@! TO.N,/AD7*
X146000000Y-119320000D03*
G04 #@! TO.P,U6,19*
G04 #@! TO.N,/VD0*
X153620000Y-101540000D03*
G04 #@! TO.P,U6,10*
G04 #@! TO.N,GND*
X146000000Y-121860000D03*
G04 #@! TO.P,U6,20*
G04 #@! TO.N,VCC*
X153620000Y-99000000D03*
G04 #@! TD*
G04 #@! TO.P,U7,20*
G04 #@! TO.N,VCC*
X153120000Y-70500000D03*
G04 #@! TO.P,U7,10*
G04 #@! TO.N,GND*
X145500000Y-93360000D03*
G04 #@! TO.P,U7,19*
G04 #@! TO.N,Net-(U7-Pad19)*
X153120000Y-73040000D03*
G04 #@! TO.P,U7,9*
G04 #@! TO.N,/AD7*
X145500000Y-90820000D03*
G04 #@! TO.P,U7,18*
G04 #@! TO.N,/VA0*
X153120000Y-75580000D03*
G04 #@! TO.P,U7,8*
G04 #@! TO.N,/AD6*
X145500000Y-88280000D03*
G04 #@! TO.P,U7,17*
G04 #@! TO.N,/VA1*
X153120000Y-78120000D03*
G04 #@! TO.P,U7,7*
G04 #@! TO.N,/AD5*
X145500000Y-85740000D03*
G04 #@! TO.P,U7,16*
G04 #@! TO.N,/VA2*
X153120000Y-80660000D03*
G04 #@! TO.P,U7,6*
G04 #@! TO.N,/AD4*
X145500000Y-83200000D03*
G04 #@! TO.P,U7,15*
G04 #@! TO.N,/VA3*
X153120000Y-83200000D03*
G04 #@! TO.P,U7,5*
G04 #@! TO.N,/AD3*
X145500000Y-80660000D03*
G04 #@! TO.P,U7,14*
G04 #@! TO.N,/VA4*
X153120000Y-85740000D03*
G04 #@! TO.P,U7,4*
G04 #@! TO.N,/AD2*
X145500000Y-78120000D03*
G04 #@! TO.P,U7,13*
G04 #@! TO.N,/VA5*
X153120000Y-88280000D03*
G04 #@! TO.P,U7,3*
G04 #@! TO.N,/AD1*
X145500000Y-75580000D03*
G04 #@! TO.P,U7,12*
G04 #@! TO.N,/VA6*
X153120000Y-90820000D03*
G04 #@! TO.P,U7,2*
G04 #@! TO.N,/AD0*
X145500000Y-73040000D03*
G04 #@! TO.P,U7,11*
G04 #@! TO.N,/ROW*
X153120000Y-93360000D03*
D12*
G04 #@! TO.P,U7,1*
G04 #@! TO.N,GND*
X145500000Y-70500000D03*
G04 #@! TD*
G04 #@! TO.P,U9,1*
G04 #@! TO.N,GND*
X133500000Y-70500000D03*
D16*
G04 #@! TO.P,U9,11*
G04 #@! TO.N,/COL*
X141120000Y-93360000D03*
G04 #@! TO.P,U9,2*
G04 #@! TO.N,/AD0*
X133500000Y-73040000D03*
G04 #@! TO.P,U9,12*
G04 #@! TO.N,/VA13*
X141120000Y-90820000D03*
G04 #@! TO.P,U9,3*
G04 #@! TO.N,/AD1*
X133500000Y-75580000D03*
G04 #@! TO.P,U9,13*
G04 #@! TO.N,/VA12*
X141120000Y-88280000D03*
G04 #@! TO.P,U9,4*
G04 #@! TO.N,/AD2*
X133500000Y-78120000D03*
G04 #@! TO.P,U9,14*
G04 #@! TO.N,/VA11*
X141120000Y-85740000D03*
G04 #@! TO.P,U9,5*
G04 #@! TO.N,/AD3*
X133500000Y-80660000D03*
G04 #@! TO.P,U9,15*
G04 #@! TO.N,/VA10*
X141120000Y-83200000D03*
G04 #@! TO.P,U9,6*
G04 #@! TO.N,/AD4*
X133500000Y-83200000D03*
G04 #@! TO.P,U9,16*
G04 #@! TO.N,/VA9*
X141120000Y-80660000D03*
G04 #@! TO.P,U9,7*
G04 #@! TO.N,/AD5*
X133500000Y-85740000D03*
G04 #@! TO.P,U9,17*
G04 #@! TO.N,/VA8*
X141120000Y-78120000D03*
G04 #@! TO.P,U9,8*
G04 #@! TO.N,/AD6*
X133500000Y-88280000D03*
G04 #@! TO.P,U9,18*
G04 #@! TO.N,/VA7*
X141120000Y-75580000D03*
G04 #@! TO.P,U9,9*
G04 #@! TO.N,/AD7*
X133500000Y-90820000D03*
G04 #@! TO.P,U9,19*
G04 #@! TO.N,Net-(U9-Pad19)*
X141120000Y-73040000D03*
G04 #@! TO.P,U9,10*
G04 #@! TO.N,GND*
X133500000Y-93360000D03*
G04 #@! TO.P,U9,20*
G04 #@! TO.N,VCC*
X141120000Y-70500000D03*
G04 #@! TD*
D12*
G04 #@! TO.P,U8,1*
G04 #@! TO.N,/VA13*
X156775000Y-67925000D03*
D16*
G04 #@! TO.P,U8,15*
G04 #@! TO.N,/VD3*
X172015000Y-100945000D03*
G04 #@! TO.P,U8,2*
G04 #@! TO.N,/VA12*
X156775000Y-70465000D03*
G04 #@! TO.P,U8,16*
G04 #@! TO.N,/VD4*
X172015000Y-98405000D03*
G04 #@! TO.P,U8,3*
G04 #@! TO.N,/VA7*
X156775000Y-73005000D03*
G04 #@! TO.P,U8,17*
G04 #@! TO.N,/VD5*
X172015000Y-95865000D03*
G04 #@! TO.P,U8,4*
G04 #@! TO.N,/VA6*
X156775000Y-75545000D03*
G04 #@! TO.P,U8,18*
G04 #@! TO.N,/VD6*
X172015000Y-93325000D03*
G04 #@! TO.P,U8,5*
G04 #@! TO.N,/VA5*
X156775000Y-78085000D03*
G04 #@! TO.P,U8,19*
G04 #@! TO.N,/VD7*
X172015000Y-90785000D03*
G04 #@! TO.P,U8,6*
G04 #@! TO.N,/VA4*
X156775000Y-80625000D03*
G04 #@! TO.P,U8,20*
G04 #@! TO.N,/~CAS*
X172015000Y-88245000D03*
G04 #@! TO.P,U8,7*
G04 #@! TO.N,/VA3*
X156775000Y-83165000D03*
G04 #@! TO.P,U8,21*
G04 #@! TO.N,/VA10*
X172015000Y-85705000D03*
G04 #@! TO.P,U8,8*
G04 #@! TO.N,/VA2*
X156775000Y-85705000D03*
G04 #@! TO.P,U8,22*
G04 #@! TO.N,/~R~W*
X172015000Y-83165000D03*
G04 #@! TO.P,U8,9*
G04 #@! TO.N,/VA1*
X156775000Y-88245000D03*
G04 #@! TO.P,U8,23*
G04 #@! TO.N,/VA11*
X172015000Y-80625000D03*
G04 #@! TO.P,U8,10*
G04 #@! TO.N,/VA0*
X156775000Y-90785000D03*
G04 #@! TO.P,U8,24*
G04 #@! TO.N,/VA9*
X172015000Y-78085000D03*
G04 #@! TO.P,U8,11*
G04 #@! TO.N,/VD0*
X156775000Y-93325000D03*
G04 #@! TO.P,U8,25*
G04 #@! TO.N,/VA8*
X172015000Y-75545000D03*
G04 #@! TO.P,U8,12*
G04 #@! TO.N,/VD1*
X156775000Y-95865000D03*
G04 #@! TO.P,U8,26*
G04 #@! TO.N,/VA13*
X172015000Y-73005000D03*
G04 #@! TO.P,U8,13*
G04 #@! TO.N,/VD2*
X156775000Y-98405000D03*
G04 #@! TO.P,U8,27*
G04 #@! TO.N,/R~W*
X172015000Y-70465000D03*
G04 #@! TO.P,U8,14*
G04 #@! TO.N,GND*
X156775000Y-100945000D03*
G04 #@! TO.P,U8,28*
G04 #@! TO.N,VCC*
X172015000Y-67925000D03*
G04 #@! TD*
D12*
G04 #@! TO.P,U4,1*
G04 #@! TO.N,/~RAS*
X104850000Y-66350000D03*
D16*
G04 #@! TO.P,U4,21*
G04 #@! TO.N,/D4*
X120090000Y-114610000D03*
G04 #@! TO.P,U4,2*
G04 #@! TO.N,/~CAS*
X104850000Y-68890000D03*
G04 #@! TO.P,U4,22*
G04 #@! TO.N,/D5*
X120090000Y-112070000D03*
G04 #@! TO.P,U4,3*
G04 #@! TO.N,/AD7*
X104850000Y-71430000D03*
G04 #@! TO.P,U4,23*
G04 #@! TO.N,/D6*
X120090000Y-109530000D03*
G04 #@! TO.P,U4,4*
G04 #@! TO.N,/AD6*
X104850000Y-73970000D03*
G04 #@! TO.P,U4,24*
G04 #@! TO.N,/D7*
X120090000Y-106990000D03*
G04 #@! TO.P,U4,5*
G04 #@! TO.N,/AD5*
X104850000Y-76510000D03*
G04 #@! TO.P,U4,25*
G04 #@! TO.N,/VD7*
X120090000Y-104450000D03*
G04 #@! TO.P,U4,6*
G04 #@! TO.N,/AD4*
X104850000Y-79050000D03*
G04 #@! TO.P,U4,26*
G04 #@! TO.N,/VD6*
X120090000Y-101910000D03*
G04 #@! TO.P,U4,7*
G04 #@! TO.N,/AD3*
X104850000Y-81590000D03*
G04 #@! TO.P,U4,27*
G04 #@! TO.N,/VD5*
X120090000Y-99370000D03*
G04 #@! TO.P,U4,8*
G04 #@! TO.N,/AD2*
X104850000Y-84130000D03*
G04 #@! TO.P,U4,28*
G04 #@! TO.N,/VD4*
X120090000Y-96830000D03*
G04 #@! TO.P,U4,9*
G04 #@! TO.N,/AD1*
X104850000Y-86670000D03*
G04 #@! TO.P,U4,29*
G04 #@! TO.N,/VD3*
X120090000Y-94290000D03*
G04 #@! TO.P,U4,10*
G04 #@! TO.N,/AD0*
X104850000Y-89210000D03*
G04 #@! TO.P,U4,30*
G04 #@! TO.N,/VD2*
X120090000Y-91750000D03*
G04 #@! TO.P,U4,11*
G04 #@! TO.N,/R~W*
X104850000Y-91750000D03*
G04 #@! TO.P,U4,31*
G04 #@! TO.N,/VD1*
X120090000Y-89210000D03*
G04 #@! TO.P,U4,12*
G04 #@! TO.N,GND*
X104850000Y-94290000D03*
G04 #@! TO.P,U4,32*
G04 #@! TO.N,/VD0*
X120090000Y-86670000D03*
G04 #@! TO.P,U4,13*
G04 #@! TO.N,/A0*
X104850000Y-96830000D03*
G04 #@! TO.P,U4,33*
G04 #@! TO.N,VCC*
X120090000Y-84130000D03*
G04 #@! TO.P,U4,14*
G04 #@! TO.N,/~CSW*
X104850000Y-99370000D03*
G04 #@! TO.P,U4,34*
G04 #@! TO.N,/~RES*
X120090000Y-81590000D03*
G04 #@! TO.P,U4,15*
G04 #@! TO.N,/~CSR*
X104850000Y-101910000D03*
G04 #@! TO.P,U4,35*
G04 #@! TO.N,/EXTVDP*
X120090000Y-79050000D03*
G04 #@! TO.P,U4,16*
G04 #@! TO.N,/~INT*
X104850000Y-104450000D03*
G04 #@! TO.P,U4,36*
G04 #@! TO.N,Net-(R2-Pad1)*
X120090000Y-76510000D03*
G04 #@! TO.P,U4,17*
G04 #@! TO.N,/D0*
X104850000Y-106990000D03*
G04 #@! TO.P,U4,37*
G04 #@! TO.N,/GROMCLK*
X120090000Y-73970000D03*
G04 #@! TO.P,U4,18*
G04 #@! TO.N,/D1*
X104850000Y-109530000D03*
G04 #@! TO.P,U4,38*
G04 #@! TO.N,/CPUCLK*
X120090000Y-71430000D03*
G04 #@! TO.P,U4,19*
G04 #@! TO.N,/D2*
X104850000Y-112070000D03*
G04 #@! TO.P,U4,39*
G04 #@! TO.N,Net-(C1-Pad1)*
X120090000Y-68890000D03*
G04 #@! TO.P,U4,20*
G04 #@! TO.N,/D3*
X104850000Y-114610000D03*
G04 #@! TO.P,U4,40*
G04 #@! TO.N,Net-(C2-Pad1)*
X120090000Y-66350000D03*
G04 #@! TD*
D17*
G04 #@! TO.P,Q1,2*
G04 #@! TO.N,Net-(C14-Pad1)*
X126040000Y-95000000D03*
G04 #@! TO.P,Q1,3*
G04 #@! TO.N,Net-(Q1-Pad3)*
X128580000Y-95000000D03*
D18*
G04 #@! TO.P,Q1,1*
G04 #@! TO.N,Net-(C15-Pad1)*
X123500000Y-95000000D03*
G04 #@! TD*
D13*
G04 #@! TO.P,R1,1*
G04 #@! TO.N,Net-(C15-Pad1)*
X123500000Y-104000000D03*
D16*
G04 #@! TO.P,R1,2*
G04 #@! TO.N,GND*
X133660000Y-104000000D03*
G04 #@! TD*
G04 #@! TO.P,R2,2*
G04 #@! TO.N,Net-(Q1-Pad3)*
X129000000Y-89660000D03*
D13*
G04 #@! TO.P,R2,1*
G04 #@! TO.N,Net-(R2-Pad1)*
X129000000Y-79500000D03*
G04 #@! TD*
G04 #@! TO.P,R3,1*
G04 #@! TO.N,Net-(Q1-Pad3)*
X125000000Y-89500000D03*
D16*
G04 #@! TO.P,R3,2*
G04 #@! TO.N,GND*
X125000000Y-79340000D03*
G04 #@! TD*
D19*
G04 #@! TO.N,/D0*
X116674200Y-67926600D03*
G04 #@! TO.N,/AD5*
X122208300Y-83245900D03*
X121506400Y-72844600D03*
G04 #@! TO.N,/AD2*
X130172900Y-87928600D03*
G04 #@! TO.N,/AD1*
X122365000Y-97905100D03*
X118678400Y-88840200D03*
G04 #@! TO.N,/VD3*
X143812000Y-95134900D03*
G04 #@! TO.N,/AD0*
X132085800Y-93001600D03*
G04 #@! TO.N,/VD2*
X144537600Y-94409600D03*
G04 #@! TO.N,/R~W*
X180210700Y-92515900D03*
G04 #@! TO.N,/VD1*
X130303100Y-103725700D03*
G04 #@! TO.N,VCC*
X151044500Y-74663000D03*
X163621700Y-72521800D03*
G04 #@! TO.N,/D7*
X118618400Y-99026600D03*
G04 #@! TO.N,/D4*
X117370500Y-70293500D03*
G04 #@! TO.N,/ROW*
X155535100Y-91832100D03*
G04 #@! TO.N,/A7*
X170589000Y-71879600D03*
G04 #@! TD*
D20*
G04 #@! TO.N,Net-(Q1-Pad3)*
X129000000Y-89660000D02*
X127874700Y-89660000D01*
X125000000Y-89500000D02*
X127714700Y-89500000D01*
X127714700Y-89500000D02*
X127874700Y-89660000D01*
D21*
G04 #@! TO.N,GND*
X146000000Y-121860000D02*
X144699700Y-121860000D01*
X136500000Y-122660000D02*
X137800300Y-122660000D01*
X137800300Y-122660000D02*
X139297600Y-121162700D01*
X139297600Y-121162700D02*
X144002400Y-121162700D01*
X144002400Y-121162700D02*
X144699700Y-121860000D01*
X145500000Y-70500000D02*
X144199700Y-70500000D01*
X144199700Y-70500000D02*
X142899400Y-69199700D01*
X142899400Y-69199700D02*
X140199700Y-69199700D01*
X140199700Y-69199700D02*
X138500000Y-67500000D01*
X133660000Y-104000000D02*
X134960300Y-104000000D01*
X134960300Y-104000000D02*
X138960300Y-100000000D01*
X138960300Y-100000000D02*
X139000000Y-100000000D01*
X151000000Y-96500000D02*
X152301200Y-95198800D01*
X152301200Y-95198800D02*
X154088700Y-95198800D01*
X154088700Y-95198800D02*
X154920400Y-96030500D01*
X154920400Y-96030500D02*
X154920400Y-99090400D01*
X154920400Y-99090400D02*
X156775000Y-100945000D01*
X145500000Y-93360000D02*
X145500000Y-94746500D01*
X145500000Y-94746500D02*
X140246500Y-100000000D01*
X140246500Y-100000000D02*
X139000000Y-100000000D01*
X182795000Y-75750000D02*
X186749700Y-75750000D01*
X186749700Y-75750000D02*
X189299700Y-73200000D01*
X182000000Y-74000000D02*
X182000000Y-74955000D01*
X182000000Y-74955000D02*
X182795000Y-75750000D01*
X184120000Y-80040000D02*
X182795000Y-78715000D01*
X182795000Y-78715000D02*
X182795000Y-75750000D01*
X190650000Y-73200000D02*
X189299700Y-73200000D01*
X184120000Y-85120000D02*
X182819700Y-85120000D01*
X177800300Y-87660000D02*
X180279700Y-87660000D01*
X180279700Y-87660000D02*
X182819700Y-85120000D01*
X118000000Y-59500000D02*
X118585000Y-60085000D01*
X118585000Y-60085000D02*
X125374700Y-60085000D01*
X138500000Y-67500000D02*
X137800300Y-67500000D01*
X137800300Y-67500000D02*
X134800300Y-70500000D01*
X133500000Y-70500000D02*
X134800300Y-70500000D01*
X126725000Y-60085000D02*
X125374700Y-60085000D01*
X104850000Y-94500000D02*
X102622500Y-96727500D01*
X102622500Y-96727500D02*
X102622500Y-114264800D01*
X102622500Y-114264800D02*
X105857700Y-117500000D01*
X105857700Y-117500000D02*
X128000000Y-117500000D01*
X132849900Y-70500000D02*
X132849900Y-70349900D01*
X132849900Y-70349900D02*
X129500000Y-67000000D01*
X132849900Y-70500000D02*
X132199700Y-70500000D01*
X133500000Y-70500000D02*
X132849900Y-70500000D01*
X104850000Y-94500000D02*
X111000000Y-94500000D01*
X132199700Y-70500000D02*
X130699700Y-72000000D01*
X130699700Y-72000000D02*
X129500000Y-72000000D01*
X104850000Y-94500000D02*
X104850000Y-94290000D01*
X176500000Y-87660000D02*
X177800300Y-87660000D01*
X188500000Y-115740000D02*
X189800300Y-115740000D01*
X189800300Y-115740000D02*
X192340300Y-113200000D01*
X192340300Y-113200000D02*
X196120000Y-113200000D01*
D20*
G04 #@! TO.N,Net-(R2-Pad1)*
X121215300Y-76510000D02*
X126010000Y-76510000D01*
X126010000Y-76510000D02*
X129000000Y-79500000D01*
X120090000Y-76510000D02*
X121215300Y-76510000D01*
G04 #@! TO.N,/~CAS*
X172015000Y-88245000D02*
X173140300Y-88245000D01*
X188500000Y-89660000D02*
X188500000Y-88534700D01*
X173140300Y-88245000D02*
X174995300Y-86390000D01*
X174995300Y-86390000D02*
X178932200Y-86390000D01*
X178932200Y-86390000D02*
X181356200Y-83966000D01*
X181356200Y-83966000D02*
X186085800Y-83966000D01*
X186085800Y-83966000D02*
X188068400Y-85948600D01*
X188068400Y-85948600D02*
X188932500Y-85948600D01*
X188932500Y-85948600D02*
X189625300Y-86641400D01*
X189625300Y-86641400D02*
X189625300Y-87690800D01*
X189625300Y-87690800D02*
X188781400Y-88534700D01*
X188781400Y-88534700D02*
X188500000Y-88534700D01*
G04 #@! TO.N,/AD7*
X104850000Y-71430000D02*
X104850000Y-72555300D01*
X104850000Y-72555300D02*
X104568700Y-72555300D01*
X104568700Y-72555300D02*
X102776100Y-74347900D01*
X102776100Y-74347900D02*
X102776100Y-86195500D01*
X102776100Y-86195500D02*
X104376000Y-87795400D01*
X104376000Y-87795400D02*
X105330400Y-87795400D01*
X105330400Y-87795400D02*
X107870400Y-90335400D01*
X107870400Y-90335400D02*
X120437600Y-90335400D01*
X120437600Y-90335400D02*
X120922200Y-90820000D01*
X120922200Y-90820000D02*
X133500000Y-90820000D01*
X133500000Y-90820000D02*
X134625300Y-90820000D01*
X134625300Y-90820000D02*
X135777100Y-91971800D01*
X135777100Y-91971800D02*
X143222900Y-91971800D01*
X143222900Y-91971800D02*
X144374700Y-90820000D01*
X145500000Y-90820000D02*
X144374700Y-90820000D01*
G04 #@! TO.N,/AD6*
X132374700Y-88280000D02*
X129350100Y-85255400D01*
X129350100Y-85255400D02*
X109431100Y-85255400D01*
X109431100Y-85255400D02*
X107171200Y-82995500D01*
X107171200Y-82995500D02*
X104657100Y-82995500D01*
X104657100Y-82995500D02*
X103240500Y-81578900D01*
X103240500Y-81578900D02*
X103240500Y-76423500D01*
X103240500Y-76423500D02*
X104568700Y-75095300D01*
X104568700Y-75095300D02*
X104850000Y-75095300D01*
X104850000Y-73970000D02*
X104850000Y-75095300D01*
X133500000Y-88280000D02*
X132374700Y-88280000D01*
G04 #@! TO.N,/D0*
X116674200Y-67926600D02*
X120800500Y-63800300D01*
X120800500Y-63800300D02*
X134901800Y-63800300D01*
X134901800Y-63800300D02*
X135709700Y-62992400D01*
X135709700Y-62992400D02*
X135709700Y-62625000D01*
X136885000Y-62625000D02*
X135709700Y-62625000D01*
G04 #@! TO.N,/AD5*
X105975300Y-76510000D02*
X109640700Y-72844600D01*
X109640700Y-72844600D02*
X121506400Y-72844600D01*
X104850000Y-76510000D02*
X105975300Y-76510000D01*
X133500000Y-85740000D02*
X132374700Y-85740000D01*
X122208300Y-83245900D02*
X129880600Y-83245900D01*
X129880600Y-83245900D02*
X132374700Y-85740000D01*
G04 #@! TO.N,/AD4*
X132374700Y-83200000D02*
X131695300Y-82520600D01*
X131695300Y-82520600D02*
X121907900Y-82520600D01*
X121907900Y-82520600D02*
X121658100Y-82770400D01*
X121658100Y-82770400D02*
X109695700Y-82770400D01*
X109695700Y-82770400D02*
X105975300Y-79050000D01*
X133500000Y-83200000D02*
X132374700Y-83200000D01*
X104850000Y-79050000D02*
X105975300Y-79050000D01*
G04 #@! TO.N,/VD6*
X120090000Y-103035300D02*
X120306900Y-103035300D01*
X120306900Y-103035300D02*
X127344000Y-110072400D01*
X127344000Y-110072400D02*
X141010600Y-110072400D01*
X141010600Y-110072400D02*
X143908200Y-112970000D01*
X143908200Y-112970000D02*
X148684700Y-112970000D01*
X148684700Y-112970000D02*
X152494700Y-116780000D01*
X153620000Y-116780000D02*
X152494700Y-116780000D01*
X120090000Y-101910000D02*
X120090000Y-103035300D01*
G04 #@! TO.N,/AD3*
X104850000Y-81590000D02*
X104850000Y-80464700D01*
X104850000Y-80464700D02*
X104568700Y-80464700D01*
X104568700Y-80464700D02*
X103690900Y-79586900D01*
X103690900Y-79586900D02*
X103690900Y-78560400D01*
X103690900Y-78560400D02*
X104326800Y-77924500D01*
X104326800Y-77924500D02*
X115228800Y-77924500D01*
X115228800Y-77924500D02*
X117479700Y-80175400D01*
X117479700Y-80175400D02*
X120437600Y-80175400D01*
X120437600Y-80175400D02*
X120922200Y-80660000D01*
X120922200Y-80660000D02*
X133500000Y-80660000D01*
X145500000Y-80660000D02*
X144374700Y-80660000D01*
X133500000Y-80660000D02*
X134625300Y-80660000D01*
X134625300Y-80660000D02*
X135750600Y-81785300D01*
X135750600Y-81785300D02*
X143249400Y-81785300D01*
X143249400Y-81785300D02*
X144374700Y-80660000D01*
G04 #@! TO.N,/VD5*
X121215300Y-99370000D02*
X121215300Y-100006900D01*
X121215300Y-100006900D02*
X124400300Y-103191900D01*
X124400300Y-103191900D02*
X127469700Y-103191900D01*
X127469700Y-103191900D02*
X131231000Y-106953200D01*
X131231000Y-106953200D02*
X135478800Y-106953200D01*
X135478800Y-106953200D02*
X137103700Y-105328300D01*
X137103700Y-105328300D02*
X141978600Y-105328300D01*
X141978600Y-105328300D02*
X144540300Y-107890000D01*
X144540300Y-107890000D02*
X146569700Y-107890000D01*
X146569700Y-107890000D02*
X151794400Y-113114700D01*
X151794400Y-113114700D02*
X153620000Y-113114700D01*
X120090000Y-99370000D02*
X121215300Y-99370000D01*
X153620000Y-114240000D02*
X153620000Y-113114700D01*
X172015000Y-96990300D02*
X172296400Y-96990300D01*
X172296400Y-96990300D02*
X173140300Y-97834200D01*
X173140300Y-97834200D02*
X173140300Y-101452800D01*
X173140300Y-101452800D02*
X172348300Y-102244800D01*
X172348300Y-102244800D02*
X163036400Y-102244800D01*
X163036400Y-102244800D02*
X154745300Y-110535900D01*
X154745300Y-110535900D02*
X154745300Y-112270800D01*
X154745300Y-112270800D02*
X153901400Y-113114700D01*
X153901400Y-113114700D02*
X153620000Y-113114700D01*
X172015000Y-95865000D02*
X172015000Y-96990300D01*
G04 #@! TO.N,/AD2*
X145500000Y-78120000D02*
X144374700Y-78120000D01*
X133500000Y-78120000D02*
X134625300Y-78120000D01*
X134625300Y-78120000D02*
X135750600Y-79245300D01*
X135750600Y-79245300D02*
X143249400Y-79245300D01*
X143249400Y-79245300D02*
X144374700Y-78120000D01*
X104850000Y-84130000D02*
X105975300Y-84130000D01*
X105975300Y-84130000D02*
X109773900Y-87928600D01*
X109773900Y-87928600D02*
X130172900Y-87928600D01*
G04 #@! TO.N,/VD4*
X120090000Y-97955300D02*
X120512000Y-97955300D01*
X120512000Y-97955300D02*
X122106400Y-99549700D01*
X122106400Y-99549700D02*
X122106400Y-100261000D01*
X122106400Y-100261000D02*
X124194400Y-102349000D01*
X124194400Y-102349000D02*
X127263700Y-102349000D01*
X127263700Y-102349000D02*
X130467100Y-105552400D01*
X130467100Y-105552400D02*
X130785700Y-105552400D01*
X130785700Y-105552400D02*
X131713300Y-106480000D01*
X131713300Y-106480000D02*
X135315100Y-106480000D01*
X135315100Y-106480000D02*
X136917300Y-104877800D01*
X136917300Y-104877800D02*
X142165000Y-104877800D01*
X142165000Y-104877800D02*
X142637200Y-105350000D01*
X142637200Y-105350000D02*
X146426000Y-105350000D01*
X146426000Y-105350000D02*
X149831100Y-108755000D01*
X149831100Y-108755000D02*
X152494700Y-111418700D01*
X152494700Y-111418700D02*
X152494700Y-111700000D01*
X172015000Y-98405000D02*
X164863400Y-98405000D01*
X164863400Y-98405000D02*
X158063000Y-105205400D01*
X158063000Y-105205400D02*
X153380700Y-105205400D01*
X153380700Y-105205400D02*
X149831100Y-108755000D01*
X153620000Y-111700000D02*
X152494700Y-111700000D01*
X120090000Y-96830000D02*
X120090000Y-97955300D01*
G04 #@! TO.N,/AD1*
X122365000Y-97905100D02*
X123456700Y-97905100D01*
X123456700Y-97905100D02*
X130653700Y-105102100D01*
X130653700Y-105102100D02*
X131290700Y-105102100D01*
X131290700Y-105102100D02*
X132215200Y-106026600D01*
X132215200Y-106026600D02*
X135131600Y-106026600D01*
X135131600Y-106026600D02*
X137078200Y-104080000D01*
X137078200Y-104080000D02*
X144874700Y-104080000D01*
X146000000Y-104080000D02*
X144874700Y-104080000D01*
X105975300Y-86670000D02*
X108145500Y-88840200D01*
X108145500Y-88840200D02*
X118678400Y-88840200D01*
X104850000Y-86670000D02*
X105975300Y-86670000D01*
X145500000Y-75580000D02*
X144374700Y-75580000D01*
X133500000Y-75580000D02*
X134625300Y-75580000D01*
X144374700Y-75580000D02*
X143249400Y-76705300D01*
X143249400Y-76705300D02*
X135750600Y-76705300D01*
X135750600Y-76705300D02*
X134625300Y-75580000D01*
G04 #@! TO.N,/VD3*
X121215300Y-94290000D02*
X121584800Y-93920500D01*
X121584800Y-93920500D02*
X131990900Y-93920500D01*
X131990900Y-93920500D02*
X133205300Y-95134900D01*
X133205300Y-95134900D02*
X143812000Y-95134900D01*
X120090000Y-94290000D02*
X121215300Y-94290000D01*
X154745300Y-109160000D02*
X162960300Y-100945000D01*
X162960300Y-100945000D02*
X170889700Y-100945000D01*
X172015000Y-100945000D02*
X170889700Y-100945000D01*
X153620000Y-109160000D02*
X154745300Y-109160000D01*
G04 #@! TO.N,/AD0*
X132085800Y-93001600D02*
X114361700Y-93001600D01*
X114361700Y-93001600D02*
X112660400Y-91300300D01*
X112660400Y-91300300D02*
X108065600Y-91300300D01*
X108065600Y-91300300D02*
X105975300Y-89210000D01*
X104850000Y-89210000D02*
X105975300Y-89210000D01*
G04 #@! TO.N,/VD2*
X121215300Y-91750000D02*
X121555300Y-92090000D01*
X121555300Y-92090000D02*
X134293200Y-92090000D01*
X134293200Y-92090000D02*
X136701800Y-94498600D01*
X136701800Y-94498600D02*
X143287700Y-94498600D01*
X143287700Y-94498600D02*
X143376700Y-94409600D01*
X143376700Y-94409600D02*
X144537600Y-94409600D01*
X120090000Y-91750000D02*
X121215300Y-91750000D01*
G04 #@! TO.N,/R~W*
X146000000Y-99000000D02*
X144874700Y-99000000D01*
X104850000Y-91750000D02*
X105975300Y-91750000D01*
X105975300Y-91750000D02*
X106403500Y-92178200D01*
X106403500Y-92178200D02*
X112769800Y-92178200D01*
X112769800Y-92178200D02*
X116151600Y-95560000D01*
X116151600Y-95560000D02*
X121748500Y-95560000D01*
X121748500Y-95560000D02*
X129148600Y-102960100D01*
X129148600Y-102960100D02*
X130612700Y-102960100D01*
X130612700Y-102960100D02*
X132778500Y-105125900D01*
X132778500Y-105125900D02*
X134718800Y-105125900D01*
X134718800Y-105125900D02*
X137492800Y-102351900D01*
X137492800Y-102351900D02*
X141522800Y-102351900D01*
X141522800Y-102351900D02*
X144874700Y-99000000D01*
X146000000Y-99000000D02*
X147125300Y-99000000D01*
X147125300Y-99000000D02*
X148250600Y-100125300D01*
X148250600Y-100125300D02*
X154155100Y-100125300D01*
X154155100Y-100125300D02*
X156120700Y-102090900D01*
X156120700Y-102090900D02*
X157274000Y-102090900D01*
X157274000Y-102090900D02*
X161410300Y-97954600D01*
X161410300Y-97954600D02*
X164965200Y-97954600D01*
X164965200Y-97954600D02*
X168216200Y-94703600D01*
X168216200Y-94703600D02*
X178023000Y-94703600D01*
X178023000Y-94703600D02*
X180210700Y-92515900D01*
G04 #@! TO.N,/VD1*
X130303100Y-103725700D02*
X130551200Y-103725700D01*
X130551200Y-103725700D02*
X132401800Y-105576300D01*
X132401800Y-105576300D02*
X134945000Y-105576300D01*
X134945000Y-105576300D02*
X137566600Y-102954700D01*
X137566600Y-102954700D02*
X151369400Y-102954700D01*
X151369400Y-102954700D02*
X152494700Y-104080000D01*
X153620000Y-104080000D02*
X152494700Y-104080000D01*
G04 #@! TO.N,/VD0*
X156775000Y-93325000D02*
X155649700Y-93325000D01*
X120090000Y-86670000D02*
X121215300Y-86670000D01*
X121215300Y-86670000D02*
X129974400Y-86670000D01*
X129974400Y-86670000D02*
X132719700Y-89415300D01*
X132719700Y-89415300D02*
X149915100Y-89415300D01*
X149915100Y-89415300D02*
X152699500Y-92199700D01*
X152699500Y-92199700D02*
X154524400Y-92199700D01*
X154524400Y-92199700D02*
X155649700Y-93325000D01*
D21*
G04 #@! TO.N,VCC*
X164006200Y-67925000D02*
X164006200Y-72137300D01*
X164006200Y-72137300D02*
X163621700Y-72521800D01*
X151044500Y-70500000D02*
X151819700Y-70500000D01*
X141000000Y-67500000D02*
X148044500Y-67500000D01*
X148044500Y-67500000D02*
X151044500Y-70500000D01*
X151044500Y-70500000D02*
X151044500Y-74663000D01*
X153500000Y-67500000D02*
X154375300Y-66624700D01*
X154375300Y-66624700D02*
X162705900Y-66624700D01*
X162705900Y-66624700D02*
X164006200Y-67925000D01*
X164006200Y-67925000D02*
X170714700Y-67925000D01*
X172015000Y-67925000D02*
X170714700Y-67925000D01*
X196120000Y-79500000D02*
X194819700Y-79500000D01*
X184120000Y-77500000D02*
X185420300Y-77500000D01*
X185420300Y-77500000D02*
X192819700Y-77500000D01*
X192819700Y-77500000D02*
X194819700Y-79500000D01*
X153120000Y-70500000D02*
X151819700Y-70500000D01*
X126725000Y-62625000D02*
X125374700Y-62625000D01*
X118000000Y-62000000D02*
X124749700Y-62000000D01*
X124749700Y-62000000D02*
X125374700Y-62625000D01*
X196120000Y-100500000D02*
X194819700Y-100500000D01*
X184120000Y-98000000D02*
X185420300Y-98000000D01*
X185420300Y-98000000D02*
X192319700Y-98000000D01*
X192319700Y-98000000D02*
X194819700Y-100500000D01*
D20*
G04 #@! TO.N,/~CSW*
X188500000Y-113200000D02*
X188500000Y-114325300D01*
X104850000Y-99370000D02*
X104850000Y-100495300D01*
X104850000Y-100495300D02*
X104568700Y-100495300D01*
X104568700Y-100495300D02*
X103247900Y-101816100D01*
X103247900Y-101816100D02*
X103247900Y-106999600D01*
X103247900Y-106999600D02*
X104508300Y-108260000D01*
X104508300Y-108260000D02*
X113590900Y-108260000D01*
X113590900Y-108260000D02*
X118670900Y-113340000D01*
X118670900Y-113340000D02*
X122725200Y-113340000D01*
X122725200Y-113340000D02*
X125345600Y-115960400D01*
X125345600Y-115960400D02*
X135793600Y-115960400D01*
X135793600Y-115960400D02*
X137738600Y-117905400D01*
X137738600Y-117905400D02*
X148812300Y-117905400D01*
X148812300Y-117905400D02*
X151622300Y-120715400D01*
X151622300Y-120715400D02*
X181431200Y-120715400D01*
X181431200Y-120715400D02*
X187821300Y-114325300D01*
X187821300Y-114325300D02*
X188500000Y-114325300D01*
G04 #@! TO.N,/~RES*
X120090000Y-81590000D02*
X121215300Y-81590000D01*
X121215300Y-81590000D02*
X121555300Y-81930000D01*
X121555300Y-81930000D02*
X133980500Y-81930000D01*
X133980500Y-81930000D02*
X138923300Y-86872800D01*
X138923300Y-86872800D02*
X172964500Y-86872800D01*
X172964500Y-86872800D02*
X174717300Y-85120000D01*
X174717300Y-85120000D02*
X176500000Y-85120000D01*
G04 #@! TO.N,/~CSR*
X104850000Y-103035300D02*
X104568700Y-103035300D01*
X104568700Y-103035300D02*
X103698700Y-103905300D01*
X103698700Y-103905300D02*
X103698700Y-104944400D01*
X103698700Y-104944400D02*
X104377700Y-105623400D01*
X104377700Y-105623400D02*
X115955100Y-105623400D01*
X115955100Y-105623400D02*
X118591700Y-108260000D01*
X118591700Y-108260000D02*
X120479200Y-108260000D01*
X120479200Y-108260000D02*
X127729200Y-115510000D01*
X127729200Y-115510000D02*
X147053800Y-115510000D01*
X147053800Y-115510000D02*
X149593800Y-118050000D01*
X149593800Y-118050000D02*
X157573300Y-118050000D01*
X157573300Y-118050000D02*
X159788300Y-120265000D01*
X159788300Y-120265000D02*
X181230900Y-120265000D01*
X181230900Y-120265000D02*
X186290000Y-115205900D01*
X186290000Y-115205900D02*
X186290000Y-108634000D01*
X186290000Y-108634000D02*
X188218700Y-106705300D01*
X188218700Y-106705300D02*
X188500000Y-106705300D01*
X188500000Y-105580000D02*
X188500000Y-106705300D01*
X104850000Y-101910000D02*
X104850000Y-103035300D01*
G04 #@! TO.N,/EXTVDP*
X120090000Y-77924700D02*
X119808700Y-77924700D01*
X119808700Y-77924700D02*
X118958900Y-77074900D01*
X118958900Y-77074900D02*
X118958900Y-76034000D01*
X118958900Y-76034000D02*
X119752800Y-75240100D01*
X119752800Y-75240100D02*
X121992900Y-75240100D01*
X121992900Y-75240100D02*
X125351700Y-71881300D01*
X125351700Y-71881300D02*
X125735600Y-71881300D01*
X125735600Y-71881300D02*
X127480200Y-70136700D01*
X127480200Y-70136700D02*
X127480200Y-67422400D01*
X127480200Y-67422400D02*
X129049900Y-65852700D01*
X129049900Y-65852700D02*
X187207400Y-65852700D01*
X187207400Y-65852700D02*
X189474700Y-68120000D01*
X190650000Y-68120000D02*
X189474700Y-68120000D01*
X120090000Y-79050000D02*
X120090000Y-77924700D01*
G04 #@! TO.N,/~INT*
X105975300Y-104450000D02*
X109641800Y-100783500D01*
X109641800Y-100783500D02*
X120602000Y-100783500D01*
X120602000Y-100783500D02*
X121515700Y-101697200D01*
X121515700Y-101697200D02*
X121515700Y-103607100D01*
X121515700Y-103607100D02*
X126823300Y-108914700D01*
X126823300Y-108914700D02*
X142101200Y-108914700D01*
X142101200Y-108914700D02*
X143761200Y-110574700D01*
X143761200Y-110574700D02*
X147419400Y-110574700D01*
X147419400Y-110574700D02*
X152243400Y-115398700D01*
X152243400Y-115398700D02*
X154071000Y-115398700D01*
X154071000Y-115398700D02*
X158307900Y-111161800D01*
X158307900Y-111161800D02*
X158307900Y-110493100D01*
X158307900Y-110493100D02*
X162125700Y-106675300D01*
X162125700Y-106675300D02*
X170125900Y-106675300D01*
X170125900Y-106675300D02*
X174991200Y-101810000D01*
X174991200Y-101810000D02*
X178575100Y-101810000D01*
X178575100Y-101810000D02*
X183535800Y-96849300D01*
X183535800Y-96849300D02*
X190681200Y-96849300D01*
X190681200Y-96849300D02*
X194060500Y-93470000D01*
X194060500Y-93470000D02*
X196464600Y-93470000D01*
X196464600Y-93470000D02*
X197274800Y-92659800D01*
X197274800Y-92659800D02*
X197274800Y-89179900D01*
X197274800Y-89179900D02*
X196558800Y-88463900D01*
X196558800Y-88463900D02*
X195776800Y-88463900D01*
X195776800Y-88463900D02*
X194979300Y-87666400D01*
X194979300Y-87666400D02*
X194979300Y-83180700D01*
X194979300Y-83180700D02*
X196120000Y-82040000D01*
X104850000Y-104450000D02*
X105975300Y-104450000D01*
G04 #@! TO.N,/D7*
X144505000Y-60085000D02*
X143329700Y-60085000D01*
X118618400Y-99026600D02*
X116357700Y-99026600D01*
X116357700Y-99026600D02*
X112250000Y-94918900D01*
X112250000Y-94918900D02*
X112250000Y-94146700D01*
X112250000Y-94146700D02*
X111123300Y-93020000D01*
X111123300Y-93020000D02*
X104454900Y-93020000D01*
X104454900Y-93020000D02*
X102325700Y-90890800D01*
X102325700Y-90890800D02*
X102325700Y-66797200D01*
X102325700Y-66797200D02*
X110806100Y-58316800D01*
X110806100Y-58316800D02*
X141928800Y-58316800D01*
X141928800Y-58316800D02*
X143329700Y-59717700D01*
X143329700Y-59717700D02*
X143329700Y-60085000D01*
G04 #@! TO.N,/GROMCLK*
X121215300Y-73970000D02*
X121406800Y-73970000D01*
X121406800Y-73970000D02*
X123945800Y-71431000D01*
X123945800Y-71431000D02*
X125549000Y-71431000D01*
X125549000Y-71431000D02*
X127029800Y-69950200D01*
X127029800Y-69950200D02*
X127029800Y-67235900D01*
X127029800Y-67235900D02*
X128863400Y-65402300D01*
X128863400Y-65402300D02*
X189297000Y-65402300D01*
X189297000Y-65402300D02*
X189474700Y-65580000D01*
X120090000Y-73970000D02*
X121215300Y-73970000D01*
X190650000Y-65580000D02*
X189474700Y-65580000D01*
G04 #@! TO.N,/CPUCLK*
X121215300Y-71430000D02*
X121669800Y-70975500D01*
X121669800Y-70975500D02*
X125367600Y-70975500D01*
X125367600Y-70975500D02*
X126579500Y-69763600D01*
X126579500Y-69763600D02*
X126579500Y-67049300D01*
X126579500Y-67049300D02*
X128676800Y-64952000D01*
X128676800Y-64952000D02*
X187562700Y-64952000D01*
X187562700Y-64952000D02*
X189474700Y-63040000D01*
X120090000Y-71430000D02*
X121215300Y-71430000D01*
X190650000Y-63040000D02*
X189474700Y-63040000D01*
G04 #@! TO.N,Net-(C1-Pad1)*
X125000000Y-74000000D02*
X129000000Y-74000000D01*
X129000000Y-74000000D02*
X129500000Y-74500000D01*
G04 #@! TO.N,/D4*
X140789700Y-62625000D02*
X140789700Y-62992300D01*
X140789700Y-62992300D02*
X139398400Y-64383600D01*
X139398400Y-64383600D02*
X128551200Y-64383600D01*
X128551200Y-64383600D02*
X126129100Y-66805700D01*
X126129100Y-66805700D02*
X126129100Y-69577100D01*
X126129100Y-69577100D02*
X125412700Y-70293500D01*
X125412700Y-70293500D02*
X117370500Y-70293500D01*
X141965000Y-62625000D02*
X140789700Y-62625000D01*
G04 #@! TO.N,Net-(C2-Pad1)*
X120090000Y-66350000D02*
X121215300Y-66350000D01*
X121215300Y-66350000D02*
X123985300Y-69120000D01*
X123985300Y-69120000D02*
X125000000Y-69120000D01*
G04 #@! TO.N,/VA13*
X157900300Y-67925000D02*
X163222400Y-73247100D01*
X163222400Y-73247100D02*
X170647600Y-73247100D01*
X170647600Y-73247100D02*
X170889700Y-73005000D01*
X156775000Y-67925000D02*
X157900300Y-67925000D01*
X172015000Y-73005000D02*
X170889700Y-73005000D01*
G04 #@! TO.N,/VA7*
X142245300Y-75580000D02*
X143370600Y-74454700D01*
X143370600Y-74454700D02*
X149810500Y-74454700D01*
X149810500Y-74454700D02*
X150744100Y-75388300D01*
X150744100Y-75388300D02*
X151345000Y-75388300D01*
X151345000Y-75388300D02*
X152278500Y-74454800D01*
X152278500Y-74454800D02*
X152278500Y-74454700D01*
X152278500Y-74454700D02*
X154200000Y-74454700D01*
X154200000Y-74454700D02*
X155649700Y-73005000D01*
X141120000Y-75580000D02*
X142245300Y-75580000D01*
X156775000Y-73005000D02*
X155649700Y-73005000D01*
G04 #@! TO.N,/VA3*
X153120000Y-83200000D02*
X154245300Y-83200000D01*
X156775000Y-83165000D02*
X154280300Y-83165000D01*
X154280300Y-83165000D02*
X154245300Y-83200000D01*
G04 #@! TO.N,/VA10*
X172015000Y-84579700D02*
X171733700Y-84579700D01*
X171733700Y-84579700D02*
X170889600Y-83735600D01*
X170889600Y-83735600D02*
X170889600Y-82692900D01*
X170889600Y-82692900D02*
X171687500Y-81895000D01*
X171687500Y-81895000D02*
X172372700Y-81895000D01*
X172372700Y-81895000D02*
X173148200Y-81119500D01*
X173148200Y-81119500D02*
X173148200Y-80099900D01*
X173148200Y-80099900D02*
X172531100Y-79482800D01*
X172531100Y-79482800D02*
X170758200Y-79482800D01*
X170758200Y-79482800D02*
X168311000Y-81930000D01*
X168311000Y-81930000D02*
X144680300Y-81930000D01*
X144680300Y-81930000D02*
X143410300Y-83200000D01*
X143410300Y-83200000D02*
X141120000Y-83200000D01*
X172015000Y-85705000D02*
X172015000Y-84579700D01*
G04 #@! TO.N,/~R~W*
X188500000Y-82040000D02*
X187374700Y-82040000D01*
X172015000Y-83165000D02*
X173140300Y-83165000D01*
X173140300Y-83165000D02*
X174852500Y-81452800D01*
X174852500Y-81452800D02*
X186787500Y-81452800D01*
X186787500Y-81452800D02*
X187374700Y-82040000D01*
G04 #@! TO.N,/VA11*
X141120000Y-85740000D02*
X142245300Y-85740000D01*
X172015000Y-80625000D02*
X170889700Y-80625000D01*
X170889700Y-80625000D02*
X167044700Y-84470000D01*
X167044700Y-84470000D02*
X143515300Y-84470000D01*
X143515300Y-84470000D02*
X142245300Y-85740000D01*
G04 #@! TO.N,/VA9*
X172015000Y-78085000D02*
X170889700Y-78085000D01*
X170889700Y-78085000D02*
X169729300Y-79245400D01*
X169729300Y-79245400D02*
X145152400Y-79245400D01*
X145152400Y-79245400D02*
X143737800Y-80660000D01*
X143737800Y-80660000D02*
X141120000Y-80660000D01*
G04 #@! TO.N,/VA8*
X172015000Y-75545000D02*
X170889700Y-75545000D01*
X170889700Y-75545000D02*
X170208300Y-74863600D01*
X170208300Y-74863600D02*
X160871200Y-74863600D01*
X160871200Y-74863600D02*
X158884800Y-76850000D01*
X158884800Y-76850000D02*
X144288400Y-76850000D01*
X144288400Y-76850000D02*
X143018400Y-78120000D01*
X143018400Y-78120000D02*
X141120000Y-78120000D01*
G04 #@! TO.N,/COL*
X141120000Y-93360000D02*
X142964700Y-93360000D01*
X142964700Y-93360000D02*
X144126200Y-92198500D01*
X144126200Y-92198500D02*
X148766900Y-92198500D01*
X148766900Y-92198500D02*
X151067400Y-94499000D01*
X151067400Y-94499000D02*
X164865900Y-94499000D01*
X164865900Y-94499000D02*
X167165300Y-92199600D01*
X167165300Y-92199600D02*
X172555400Y-92199600D01*
X172555400Y-92199600D02*
X173285000Y-91470000D01*
X173285000Y-91470000D02*
X187589500Y-91470000D01*
X187589500Y-91470000D02*
X188274200Y-90785300D01*
X188274200Y-90785300D02*
X193869400Y-90785300D01*
X193869400Y-90785300D02*
X194994700Y-89660000D01*
X196120000Y-89660000D02*
X194994700Y-89660000D01*
G04 #@! TO.N,/ROW*
X188500000Y-87120000D02*
X187374700Y-87120000D01*
X155535100Y-91832100D02*
X155646500Y-91943500D01*
X155646500Y-91943500D02*
X158011900Y-91943500D01*
X158011900Y-91943500D02*
X160295800Y-89659600D01*
X160295800Y-89659600D02*
X172555400Y-89659600D01*
X172555400Y-89659600D02*
X173140400Y-89074600D01*
X173140400Y-89074600D02*
X185420100Y-89074600D01*
X185420100Y-89074600D02*
X187374700Y-87120000D01*
G04 #@! TO.N,Net-(JP1-Pad2)*
X164540000Y-105500000D02*
X165715300Y-105500000D01*
X176500000Y-98000000D02*
X176500000Y-99125300D01*
X176500000Y-99125300D02*
X176104700Y-99125300D01*
X176104700Y-99125300D02*
X170905300Y-104324700D01*
X170905300Y-104324700D02*
X166523200Y-104324700D01*
X166523200Y-104324700D02*
X165715300Y-105132600D01*
X165715300Y-105132600D02*
X165715300Y-105500000D01*
G04 #@! TO.N,Net-(J5-Pad1)*
X161175300Y-111000000D02*
X161175300Y-110632700D01*
X161175300Y-110632700D02*
X164682300Y-107125700D01*
X164682300Y-107125700D02*
X173869000Y-107125700D01*
X173869000Y-107125700D02*
X175374700Y-105620000D01*
X160000000Y-111000000D02*
X161175300Y-111000000D01*
X176500000Y-105620000D02*
X175374700Y-105620000D01*
G04 #@! TO.N,Net-(J5-Pad2)*
X163715300Y-111000000D02*
X167139300Y-107576000D01*
X167139300Y-107576000D02*
X174924400Y-107576000D01*
X174924400Y-107576000D02*
X175610400Y-106890000D01*
X175610400Y-106890000D02*
X176926000Y-106890000D01*
X176926000Y-106890000D02*
X182994700Y-100821300D01*
X182994700Y-100821300D02*
X182994700Y-100540000D01*
X162540000Y-111000000D02*
X163715300Y-111000000D01*
X184120000Y-100540000D02*
X182994700Y-100540000D01*
X162540000Y-118620000D02*
X162540000Y-116080000D01*
G04 #@! TO.N,Net-(J5-Pad3)*
X161175300Y-113540000D02*
X161175300Y-113172600D01*
X161175300Y-113172600D02*
X161983200Y-112364700D01*
X161983200Y-112364700D02*
X163973200Y-112364700D01*
X163973200Y-112364700D02*
X168177900Y-108160000D01*
X168177900Y-108160000D02*
X175374700Y-108160000D01*
X160000000Y-113540000D02*
X161175300Y-113540000D01*
X176500000Y-108160000D02*
X175374700Y-108160000D01*
G04 #@! TO.N,Net-(J4-Pad2)*
X170040000Y-116080000D02*
X170040000Y-118620000D01*
G04 #@! TO.N,Net-(J4-Pad1)*
X167500000Y-111000000D02*
X168675300Y-111000000D01*
X184120000Y-108160000D02*
X182994700Y-108160000D01*
X182994700Y-108160000D02*
X181869400Y-109285300D01*
X181869400Y-109285300D02*
X170092500Y-109285300D01*
X170092500Y-109285300D02*
X168675300Y-110702500D01*
X168675300Y-110702500D02*
X168675300Y-111000000D01*
G04 #@! TO.N,/A4*
X185245300Y-105620000D02*
X186456800Y-104408500D01*
X186456800Y-104408500D02*
X188937100Y-104408500D01*
X188937100Y-104408500D02*
X189625400Y-105096800D01*
X189625400Y-105096800D02*
X189625400Y-108592100D01*
X189625400Y-108592100D02*
X188827500Y-109390000D01*
X188827500Y-109390000D02*
X188101000Y-109390000D01*
X188101000Y-109390000D02*
X187374700Y-110116300D01*
X187374700Y-110116300D02*
X187374700Y-111132300D01*
X187374700Y-111132300D02*
X188098500Y-111856100D01*
X188098500Y-111856100D02*
X189563300Y-111856100D01*
X189563300Y-111856100D02*
X194569400Y-106850000D01*
X194569400Y-106850000D02*
X196474000Y-106850000D01*
X196474000Y-106850000D02*
X198200400Y-105123600D01*
X198200400Y-105123600D02*
X198200400Y-65848700D01*
X198200400Y-65848700D02*
X191676300Y-59324600D01*
X191676300Y-59324600D02*
X177645600Y-59324600D01*
X177645600Y-59324600D02*
X175520500Y-61449700D01*
X175520500Y-61449700D02*
X164268200Y-61449700D01*
X164268200Y-61449700D02*
X163460300Y-62257600D01*
X163460300Y-62257600D02*
X163460300Y-62625000D01*
X162285000Y-62625000D02*
X163460300Y-62625000D01*
X184120000Y-105620000D02*
X185245300Y-105620000D01*
G04 #@! TO.N,Net-(J5-Pad5)*
X160000000Y-116080000D02*
X161175300Y-116080000D01*
X176500000Y-110700000D02*
X175374700Y-110700000D01*
X175374700Y-110700000D02*
X173899300Y-112175400D01*
X173899300Y-112175400D02*
X167201700Y-112175400D01*
X167201700Y-112175400D02*
X164472400Y-114904700D01*
X164472400Y-114904700D02*
X161983200Y-114904700D01*
X161983200Y-114904700D02*
X161175300Y-115712600D01*
X161175300Y-115712600D02*
X161175300Y-116080000D01*
G04 #@! TO.N,/A7*
X176500000Y-77500000D02*
X176500000Y-75898400D01*
X176500000Y-75898400D02*
X172481200Y-71879600D01*
X172481200Y-71879600D02*
X170589000Y-71879600D01*
G04 #@! TO.N,/~IOW*
X149585000Y-62625000D02*
X150760300Y-62625000D01*
X188500000Y-110660000D02*
X194879300Y-104280700D01*
X194879300Y-104280700D02*
X194879300Y-102637000D01*
X194879300Y-102637000D02*
X195746300Y-101770000D01*
X195746300Y-101770000D02*
X196517800Y-101770000D01*
X196517800Y-101770000D02*
X197725200Y-100562600D01*
X197725200Y-100562600D02*
X197725200Y-68440700D01*
X197725200Y-68440700D02*
X191107100Y-61822600D01*
X191107100Y-61822600D02*
X190055200Y-61822600D01*
X190055200Y-61822600D02*
X187551600Y-64326200D01*
X187551600Y-64326200D02*
X152094200Y-64326200D01*
X152094200Y-64326200D02*
X150760300Y-62992300D01*
X150760300Y-62992300D02*
X150760300Y-62625000D01*
G04 #@! TO.N,Net-(J4-Pad5)*
X167500000Y-116080000D02*
X168675300Y-116080000D01*
X184120000Y-113240000D02*
X182994700Y-113240000D01*
X182994700Y-113240000D02*
X181869400Y-114365300D01*
X181869400Y-114365300D02*
X173825400Y-114365300D01*
X173825400Y-114365300D02*
X173286000Y-114904700D01*
X173286000Y-114904700D02*
X169483200Y-114904700D01*
X169483200Y-114904700D02*
X168675300Y-115712600D01*
X168675300Y-115712600D02*
X168675300Y-116080000D01*
G04 #@! TO.N,Net-(U1-Pad6)*
X188500000Y-92200000D02*
X196120000Y-92200000D01*
G04 #@! TO.N,/INT*
X190650000Y-70660000D02*
X185335300Y-70660000D01*
X185335300Y-70660000D02*
X182675300Y-68000000D01*
X181500000Y-68000000D02*
X182675300Y-68000000D01*
G04 #@! TO.N,/CLK*
X190650000Y-60500000D02*
X189474700Y-60500000D01*
X189474700Y-60500000D02*
X186102700Y-63872000D01*
X186102700Y-63872000D02*
X154173200Y-63872000D01*
X154173200Y-63872000D02*
X153395000Y-63093800D01*
X153395000Y-63093800D02*
X153395000Y-62194000D01*
X153395000Y-62194000D02*
X152461300Y-61260300D01*
X152461300Y-61260300D02*
X136328200Y-61260300D01*
X136328200Y-61260300D02*
X135520300Y-60452400D01*
X135520300Y-60452400D02*
X135520300Y-60085000D01*
X134345000Y-60085000D02*
X135520300Y-60085000D01*
G04 #@! TO.N,Net-(C15-Pad2)*
X128000000Y-113000000D02*
X129475300Y-113000000D01*
X136500000Y-112500000D02*
X129975300Y-112500000D01*
X129975300Y-112500000D02*
X129475300Y-113000000D01*
X139874700Y-112340000D02*
X139714700Y-112500000D01*
X139714700Y-112500000D02*
X136500000Y-112500000D01*
X141000000Y-112340000D02*
X139874700Y-112340000D01*
G04 #@! TO.N,Net-(C15-Pad1)*
X123500000Y-104000000D02*
X127616300Y-104000000D01*
X127616300Y-104000000D02*
X131029200Y-107412900D01*
X131029200Y-107412900D02*
X135961800Y-107412900D01*
X135961800Y-107412900D02*
X136874700Y-106500000D01*
X138000000Y-106500000D02*
X136874700Y-106500000D01*
G04 #@! TO.N,Net-(C14-Pad1)*
X126040000Y-95000000D02*
X131040000Y-100000000D01*
X131040000Y-100000000D02*
X133660000Y-100000000D01*
X133660000Y-100000000D02*
X134785300Y-100000000D01*
X137874700Y-97500000D02*
X137285300Y-97500000D01*
X137285300Y-97500000D02*
X134785300Y-100000000D01*
X139000000Y-97500000D02*
X137874700Y-97500000D01*
G04 #@! TO.N,Net-(J4-Pad7)*
X167500000Y-118620000D02*
X168675300Y-118620000D01*
X184120000Y-115780000D02*
X182994700Y-115780000D01*
X182994700Y-115780000D02*
X178979400Y-119795300D01*
X178979400Y-119795300D02*
X169483200Y-119795300D01*
X169483200Y-119795300D02*
X168675300Y-118987400D01*
X168675300Y-118987400D02*
X168675300Y-118620000D01*
G04 #@! TO.N,Net-(JP2-Pad2)*
X178960000Y-68000000D02*
X180135300Y-68000000D01*
X196120000Y-84580000D02*
X196120000Y-83454700D01*
X196120000Y-83454700D02*
X196401300Y-83454700D01*
X196401300Y-83454700D02*
X197245700Y-82610300D01*
X197245700Y-82610300D02*
X197245700Y-78992000D01*
X197245700Y-78992000D02*
X195250000Y-76996300D01*
X195250000Y-76996300D02*
X195250000Y-76130200D01*
X195250000Y-76130200D02*
X191049800Y-71930000D01*
X191049800Y-71930000D02*
X183257300Y-71930000D01*
X183257300Y-71930000D02*
X180135300Y-68808000D01*
X180135300Y-68808000D02*
X180135300Y-68000000D01*
G04 #@! TD*
D22*
G04 #@! TO.N,GND*
G36*
X199265000Y-124265000D02*
X100735000Y-124265000D01*
X100735000Y-123009041D01*
X135108086Y-123009041D01*
X135347611Y-123515134D01*
X135762577Y-123891041D01*
X136150961Y-124051904D01*
X136373000Y-123929915D01*
X136373000Y-122787000D01*
X136627000Y-122787000D01*
X136627000Y-123929915D01*
X136849039Y-124051904D01*
X137237423Y-123891041D01*
X137652389Y-123515134D01*
X137891914Y-123009041D01*
X137770629Y-122787000D01*
X136627000Y-122787000D01*
X136373000Y-122787000D01*
X135229371Y-122787000D01*
X135108086Y-123009041D01*
X100735000Y-123009041D01*
X100735000Y-120055431D01*
X103265000Y-120055431D01*
X103265000Y-120944569D01*
X103605259Y-121766026D01*
X104233974Y-122394741D01*
X105055431Y-122735000D01*
X105944569Y-122735000D01*
X106766026Y-122394741D01*
X107394741Y-121766026D01*
X107735000Y-120944569D01*
X107735000Y-120314833D01*
X122065000Y-120314833D01*
X122065000Y-120985167D01*
X122321526Y-121604476D01*
X122795524Y-122078474D01*
X123414833Y-122335000D01*
X124085167Y-122335000D01*
X124704476Y-122078474D01*
X125178474Y-121604476D01*
X125435000Y-120985167D01*
X125435000Y-120314833D01*
X130565000Y-120314833D01*
X130565000Y-120985167D01*
X130821526Y-121604476D01*
X131295524Y-122078474D01*
X131914833Y-122335000D01*
X132585167Y-122335000D01*
X132643207Y-122310959D01*
X135108086Y-122310959D01*
X135229371Y-122533000D01*
X136373000Y-122533000D01*
X136373000Y-121390085D01*
X136627000Y-121390085D01*
X136627000Y-122533000D01*
X137770629Y-122533000D01*
X137891914Y-122310959D01*
X137846291Y-122214561D01*
X139565000Y-122214561D01*
X139565000Y-122785439D01*
X139783466Y-123312862D01*
X140187138Y-123716534D01*
X140714561Y-123935000D01*
X141285439Y-123935000D01*
X141812862Y-123716534D01*
X142216534Y-123312862D01*
X142435000Y-122785439D01*
X142435000Y-122214561D01*
X142432713Y-122209039D01*
X144608096Y-122209039D01*
X144768959Y-122597423D01*
X145144866Y-123012389D01*
X145650959Y-123251914D01*
X145873000Y-123130629D01*
X145873000Y-121987000D01*
X146127000Y-121987000D01*
X146127000Y-123130629D01*
X146349041Y-123251914D01*
X146855134Y-123012389D01*
X147231041Y-122597423D01*
X147391904Y-122209039D01*
X147269915Y-121987000D01*
X146127000Y-121987000D01*
X145873000Y-121987000D01*
X144730085Y-121987000D01*
X144608096Y-122209039D01*
X142432713Y-122209039D01*
X142216534Y-121687138D01*
X141812862Y-121283466D01*
X141285439Y-121065000D01*
X140714561Y-121065000D01*
X140187138Y-121283466D01*
X139783466Y-121687138D01*
X139565000Y-122214561D01*
X137846291Y-122214561D01*
X137652389Y-121804866D01*
X137237423Y-121428959D01*
X136849039Y-121268096D01*
X136627000Y-121390085D01*
X136373000Y-121390085D01*
X136150961Y-121268096D01*
X135762577Y-121428959D01*
X135347611Y-121804866D01*
X135108086Y-122310959D01*
X132643207Y-122310959D01*
X133204476Y-122078474D01*
X133678474Y-121604476D01*
X133935000Y-120985167D01*
X133935000Y-120314833D01*
X133678474Y-119695524D01*
X133204476Y-119221526D01*
X132585167Y-118965000D01*
X131914833Y-118965000D01*
X131295524Y-119221526D01*
X130821526Y-119695524D01*
X130565000Y-120314833D01*
X125435000Y-120314833D01*
X125178474Y-119695524D01*
X124704476Y-119221526D01*
X124085167Y-118965000D01*
X123414833Y-118965000D01*
X122795524Y-119221526D01*
X122321526Y-119695524D01*
X122065000Y-120314833D01*
X107735000Y-120314833D01*
X107735000Y-120055431D01*
X107394741Y-119233974D01*
X106766026Y-118605259D01*
X105944569Y-118265000D01*
X105055431Y-118265000D01*
X104233974Y-118605259D01*
X103605259Y-119233974D01*
X103265000Y-120055431D01*
X100735000Y-120055431D01*
X100735000Y-117903964D01*
X125661312Y-117903964D01*
X125702274Y-118065757D01*
X126048012Y-118672383D01*
X126599577Y-119100524D01*
X127273000Y-119285000D01*
X127873000Y-119285000D01*
X127873000Y-117627000D01*
X128127000Y-117627000D01*
X128127000Y-119285000D01*
X128727000Y-119285000D01*
X129400423Y-119100524D01*
X129951988Y-118672383D01*
X130297726Y-118065757D01*
X130338688Y-117903964D01*
X130221283Y-117627000D01*
X128127000Y-117627000D01*
X127873000Y-117627000D01*
X125778717Y-117627000D01*
X125661312Y-117903964D01*
X100735000Y-117903964D01*
X100735000Y-66797200D01*
X101550812Y-66797200D01*
X101565701Y-66872052D01*
X101565700Y-90815953D01*
X101550812Y-90890800D01*
X101565700Y-90965647D01*
X101565700Y-90965651D01*
X101609796Y-91187336D01*
X101777771Y-91438729D01*
X101841230Y-91481131D01*
X103758564Y-93398466D01*
X103618959Y-93552577D01*
X103458096Y-93940961D01*
X103580085Y-94163000D01*
X104723000Y-94163000D01*
X104723000Y-94143000D01*
X104977000Y-94143000D01*
X104977000Y-94163000D01*
X106119915Y-94163000D01*
X106241904Y-93940961D01*
X106175236Y-93780000D01*
X109733913Y-93780000D01*
X109553035Y-94283223D01*
X109580222Y-94853454D01*
X109746136Y-95254005D01*
X109992255Y-95328139D01*
X110820395Y-94500000D01*
X110806252Y-94485858D01*
X110985858Y-94306252D01*
X111000000Y-94320395D01*
X111014142Y-94306252D01*
X111193748Y-94485858D01*
X111179605Y-94500000D01*
X111193748Y-94514143D01*
X111014142Y-94693748D01*
X111000000Y-94679605D01*
X110171861Y-95507745D01*
X110245995Y-95753864D01*
X110783223Y-95946965D01*
X111353454Y-95919778D01*
X111754005Y-95753864D01*
X111813302Y-95557003D01*
X115767371Y-99511073D01*
X115809771Y-99574529D01*
X116061163Y-99742504D01*
X116282848Y-99786600D01*
X116282852Y-99786600D01*
X116357699Y-99801488D01*
X116432546Y-99786600D01*
X117914689Y-99786600D01*
X118032120Y-99904031D01*
X118320544Y-100023500D01*
X109716646Y-100023500D01*
X109641799Y-100008612D01*
X109566952Y-100023500D01*
X109566948Y-100023500D01*
X109345263Y-100067596D01*
X109093871Y-100235571D01*
X109051471Y-100299027D01*
X105904804Y-103445695D01*
X105884577Y-103415423D01*
X105588614Y-103217667D01*
X105605896Y-103130786D01*
X105884577Y-102944577D01*
X106201740Y-102469909D01*
X106313113Y-101910000D01*
X106201740Y-101350091D01*
X105884577Y-100875423D01*
X105588614Y-100677667D01*
X105605896Y-100590786D01*
X105884577Y-100404577D01*
X106201740Y-99929909D01*
X106313113Y-99370000D01*
X106201740Y-98810091D01*
X105884577Y-98335423D01*
X105532242Y-98100000D01*
X105884577Y-97864577D01*
X106201740Y-97389909D01*
X106313113Y-96830000D01*
X106201740Y-96270091D01*
X105884577Y-95795423D01*
X105500892Y-95539053D01*
X105705134Y-95442389D01*
X106081041Y-95027423D01*
X106241904Y-94639039D01*
X106119915Y-94417000D01*
X104977000Y-94417000D01*
X104977000Y-94437000D01*
X104723000Y-94437000D01*
X104723000Y-94417000D01*
X103580085Y-94417000D01*
X103458096Y-94639039D01*
X103618959Y-95027423D01*
X103994866Y-95442389D01*
X104199108Y-95539053D01*
X103815423Y-95795423D01*
X103498260Y-96270091D01*
X103386887Y-96830000D01*
X103498260Y-97389909D01*
X103815423Y-97864577D01*
X104167758Y-98100000D01*
X103815423Y-98335423D01*
X103498260Y-98810091D01*
X103386887Y-99370000D01*
X103498260Y-99929909D01*
X103722977Y-100266221D01*
X102763430Y-101225769D01*
X102699971Y-101268171D01*
X102531996Y-101519564D01*
X102487900Y-101741249D01*
X102487900Y-101741253D01*
X102473012Y-101816100D01*
X102487900Y-101890947D01*
X102487901Y-106924748D01*
X102473012Y-106999600D01*
X102531997Y-107296137D01*
X102654977Y-107480189D01*
X102699972Y-107547529D01*
X102763428Y-107589929D01*
X103756743Y-108583244D01*
X103498260Y-108970091D01*
X103386887Y-109530000D01*
X103498260Y-110089909D01*
X103815423Y-110564577D01*
X104167758Y-110800000D01*
X103815423Y-111035423D01*
X103498260Y-111510091D01*
X103386887Y-112070000D01*
X103498260Y-112629909D01*
X103815423Y-113104577D01*
X104167758Y-113340000D01*
X103815423Y-113575423D01*
X103498260Y-114050091D01*
X103386887Y-114610000D01*
X103498260Y-115169909D01*
X103815423Y-115644577D01*
X104290091Y-115961740D01*
X104708667Y-116045000D01*
X104991333Y-116045000D01*
X105409909Y-115961740D01*
X105884577Y-115644577D01*
X106201740Y-115169909D01*
X106313113Y-114610000D01*
X106201740Y-114050091D01*
X105884577Y-113575423D01*
X105532242Y-113340000D01*
X105884577Y-113104577D01*
X106201740Y-112629909D01*
X106313113Y-112070000D01*
X106201740Y-111510091D01*
X105884577Y-111035423D01*
X105532242Y-110800000D01*
X105884577Y-110564577D01*
X106201740Y-110089909D01*
X106313113Y-109530000D01*
X106211668Y-109020000D01*
X113276099Y-109020000D01*
X118080570Y-113824472D01*
X118122971Y-113887929D01*
X118374363Y-114055904D01*
X118596048Y-114100000D01*
X118596053Y-114100000D01*
X118670900Y-114114888D01*
X118727615Y-114103607D01*
X118626887Y-114610000D01*
X118738260Y-115169909D01*
X119055423Y-115644577D01*
X119530091Y-115961740D01*
X119948667Y-116045000D01*
X120231333Y-116045000D01*
X120649909Y-115961740D01*
X121124577Y-115644577D01*
X121441740Y-115169909D01*
X121553113Y-114610000D01*
X121451668Y-114100000D01*
X122410399Y-114100000D01*
X124755270Y-116444872D01*
X124797671Y-116508329D01*
X125049063Y-116676304D01*
X125270748Y-116720400D01*
X125270752Y-116720400D01*
X125345599Y-116735288D01*
X125420446Y-116720400D01*
X125824151Y-116720400D01*
X125702274Y-116934243D01*
X125661312Y-117096036D01*
X125778717Y-117373000D01*
X127873000Y-117373000D01*
X127873000Y-117353000D01*
X128127000Y-117353000D01*
X128127000Y-117373000D01*
X130221283Y-117373000D01*
X130338688Y-117096036D01*
X130297726Y-116934243D01*
X130175849Y-116720400D01*
X135478799Y-116720400D01*
X137148273Y-118389876D01*
X137190671Y-118453329D01*
X137254124Y-118495727D01*
X137254126Y-118495729D01*
X137328089Y-118545149D01*
X137442063Y-118621304D01*
X137663748Y-118665400D01*
X137663752Y-118665400D01*
X137738599Y-118680288D01*
X137813446Y-118665400D01*
X144711530Y-118665400D01*
X144648260Y-118760091D01*
X144536887Y-119320000D01*
X144648260Y-119879909D01*
X144965423Y-120354577D01*
X145349108Y-120610947D01*
X145144866Y-120707611D01*
X144768959Y-121122577D01*
X144608096Y-121510961D01*
X144730085Y-121733000D01*
X145873000Y-121733000D01*
X145873000Y-121713000D01*
X146127000Y-121713000D01*
X146127000Y-121733000D01*
X147269915Y-121733000D01*
X147391904Y-121510961D01*
X147231041Y-121122577D01*
X146855134Y-120707611D01*
X146650892Y-120610947D01*
X147034577Y-120354577D01*
X147351740Y-119879909D01*
X147463113Y-119320000D01*
X147351740Y-118760091D01*
X147288470Y-118665400D01*
X148497499Y-118665400D01*
X151031971Y-121199873D01*
X151074371Y-121263329D01*
X151325763Y-121431304D01*
X151547448Y-121475400D01*
X151547452Y-121475400D01*
X151622299Y-121490288D01*
X151697146Y-121475400D01*
X152233389Y-121475400D01*
X152156887Y-121860000D01*
X152268260Y-122419909D01*
X152585423Y-122894577D01*
X153060091Y-123211740D01*
X153478667Y-123295000D01*
X153761333Y-123295000D01*
X154179909Y-123211740D01*
X154654577Y-122894577D01*
X154971740Y-122419909D01*
X155083113Y-121860000D01*
X155006611Y-121475400D01*
X181356353Y-121475400D01*
X181431200Y-121490288D01*
X181506047Y-121475400D01*
X181506052Y-121475400D01*
X181727737Y-121431304D01*
X181979129Y-121263329D01*
X182021531Y-121199870D01*
X183165970Y-120055431D01*
X192265000Y-120055431D01*
X192265000Y-120944569D01*
X192605259Y-121766026D01*
X193233974Y-122394741D01*
X194055431Y-122735000D01*
X194944569Y-122735000D01*
X195766026Y-122394741D01*
X196394741Y-121766026D01*
X196735000Y-120944569D01*
X196735000Y-120055431D01*
X196394741Y-119233974D01*
X195766026Y-118605259D01*
X194944569Y-118265000D01*
X194055431Y-118265000D01*
X193233974Y-118605259D01*
X192605259Y-119233974D01*
X192265000Y-120055431D01*
X183165970Y-120055431D01*
X187115203Y-116106199D01*
X187268959Y-116477423D01*
X187644866Y-116892389D01*
X188150959Y-117131914D01*
X188373000Y-117010629D01*
X188373000Y-115867000D01*
X188627000Y-115867000D01*
X188627000Y-117010629D01*
X188849041Y-117131914D01*
X189355134Y-116892389D01*
X189731041Y-116477423D01*
X189891904Y-116089039D01*
X189769915Y-115867000D01*
X188627000Y-115867000D01*
X188373000Y-115867000D01*
X188353000Y-115867000D01*
X188353000Y-115740000D01*
X194656887Y-115740000D01*
X194768260Y-116299909D01*
X195085423Y-116774577D01*
X195560091Y-117091740D01*
X195978667Y-117175000D01*
X196261333Y-117175000D01*
X196679909Y-117091740D01*
X197154577Y-116774577D01*
X197471740Y-116299909D01*
X197583113Y-115740000D01*
X197471740Y-115180091D01*
X197154577Y-114705423D01*
X196770892Y-114449053D01*
X196975134Y-114352389D01*
X197351041Y-113937423D01*
X197511904Y-113549039D01*
X197389915Y-113327000D01*
X196247000Y-113327000D01*
X196247000Y-113347000D01*
X195993000Y-113347000D01*
X195993000Y-113327000D01*
X194850085Y-113327000D01*
X194728096Y-113549039D01*
X194888959Y-113937423D01*
X195264866Y-114352389D01*
X195469108Y-114449053D01*
X195085423Y-114705423D01*
X194768260Y-115180091D01*
X194656887Y-115740000D01*
X188353000Y-115740000D01*
X188353000Y-115613000D01*
X188373000Y-115613000D01*
X188373000Y-115593000D01*
X188627000Y-115593000D01*
X188627000Y-115613000D01*
X189769915Y-115613000D01*
X189891904Y-115390961D01*
X189731041Y-115002577D01*
X189355134Y-114587611D01*
X189234106Y-114530330D01*
X189255896Y-114420786D01*
X189534577Y-114234577D01*
X189851740Y-113759909D01*
X189963113Y-113200000D01*
X189851740Y-112640091D01*
X189812533Y-112581413D01*
X189859837Y-112572004D01*
X190111229Y-112404029D01*
X190153631Y-112340570D01*
X191485162Y-111009039D01*
X194728096Y-111009039D01*
X194888959Y-111397423D01*
X195264866Y-111812389D01*
X195513367Y-111930000D01*
X195264866Y-112047611D01*
X194888959Y-112462577D01*
X194728096Y-112850961D01*
X194850085Y-113073000D01*
X195993000Y-113073000D01*
X195993000Y-110787000D01*
X196247000Y-110787000D01*
X196247000Y-113073000D01*
X197389915Y-113073000D01*
X197511904Y-112850961D01*
X197351041Y-112462577D01*
X196975134Y-112047611D01*
X196726633Y-111930000D01*
X196975134Y-111812389D01*
X197351041Y-111397423D01*
X197511904Y-111009039D01*
X197389915Y-110787000D01*
X196247000Y-110787000D01*
X195993000Y-110787000D01*
X194850085Y-110787000D01*
X194728096Y-111009039D01*
X191485162Y-111009039D01*
X194727079Y-107767123D01*
X194656887Y-108120000D01*
X194768260Y-108679909D01*
X195085423Y-109154577D01*
X195469108Y-109410947D01*
X195264866Y-109507611D01*
X194888959Y-109922577D01*
X194728096Y-110310961D01*
X194850085Y-110533000D01*
X195993000Y-110533000D01*
X195993000Y-110513000D01*
X196247000Y-110513000D01*
X196247000Y-110533000D01*
X197389915Y-110533000D01*
X197511904Y-110310961D01*
X197351041Y-109922577D01*
X196975134Y-109507611D01*
X196770892Y-109410947D01*
X197154577Y-109154577D01*
X197471740Y-108679909D01*
X197583113Y-108120000D01*
X197471740Y-107560091D01*
X197218184Y-107180617D01*
X198684876Y-105713927D01*
X198748329Y-105671529D01*
X198790727Y-105608076D01*
X198790729Y-105608074D01*
X198877193Y-105478671D01*
X198916304Y-105420137D01*
X198960400Y-105198452D01*
X198960400Y-105198448D01*
X198975288Y-105123601D01*
X198960400Y-105048754D01*
X198960400Y-65923548D01*
X198975288Y-65848700D01*
X198960400Y-65773852D01*
X198960400Y-65773848D01*
X198917100Y-65556163D01*
X198916304Y-65552162D01*
X198790729Y-65364227D01*
X198748329Y-65300771D01*
X198684873Y-65258371D01*
X192266631Y-58840130D01*
X192224229Y-58776671D01*
X191972837Y-58608696D01*
X191751152Y-58564600D01*
X191751147Y-58564600D01*
X191676300Y-58549712D01*
X191601453Y-58564600D01*
X177720446Y-58564600D01*
X177645599Y-58549712D01*
X177570752Y-58564600D01*
X177570748Y-58564600D01*
X177349063Y-58608696D01*
X177097671Y-58776671D01*
X177055271Y-58840127D01*
X176384831Y-59510568D01*
X176383839Y-59505582D01*
X176055625Y-59014375D01*
X175564418Y-58686161D01*
X175131256Y-58600000D01*
X174838744Y-58600000D01*
X174405582Y-58686161D01*
X173914375Y-59014375D01*
X173715000Y-59312761D01*
X173515625Y-59014375D01*
X173024418Y-58686161D01*
X172591256Y-58600000D01*
X172298744Y-58600000D01*
X171865582Y-58686161D01*
X171374375Y-59014375D01*
X171175000Y-59312761D01*
X170975625Y-59014375D01*
X170484418Y-58686161D01*
X170051256Y-58600000D01*
X169758744Y-58600000D01*
X169325582Y-58686161D01*
X168834375Y-59014375D01*
X168635000Y-59312761D01*
X168435625Y-59014375D01*
X167944418Y-58686161D01*
X167511256Y-58600000D01*
X167218744Y-58600000D01*
X166785582Y-58686161D01*
X166294375Y-59014375D01*
X166095000Y-59312761D01*
X165895625Y-59014375D01*
X165404418Y-58686161D01*
X164971256Y-58600000D01*
X164678744Y-58600000D01*
X164245582Y-58686161D01*
X163754375Y-59014375D01*
X163555000Y-59312761D01*
X163355625Y-59014375D01*
X162864418Y-58686161D01*
X162431256Y-58600000D01*
X162138744Y-58600000D01*
X161705582Y-58686161D01*
X161214375Y-59014375D01*
X161015000Y-59312761D01*
X160815625Y-59014375D01*
X160324418Y-58686161D01*
X159891256Y-58600000D01*
X159598744Y-58600000D01*
X159165582Y-58686161D01*
X158674375Y-59014375D01*
X158475000Y-59312761D01*
X158275625Y-59014375D01*
X157784418Y-58686161D01*
X157351256Y-58600000D01*
X157058744Y-58600000D01*
X156625582Y-58686161D01*
X156134375Y-59014375D01*
X155935000Y-59312761D01*
X155735625Y-59014375D01*
X155244418Y-58686161D01*
X154811256Y-58600000D01*
X154518744Y-58600000D01*
X154085582Y-58686161D01*
X153594375Y-59014375D01*
X153395000Y-59312761D01*
X153195625Y-59014375D01*
X152704418Y-58686161D01*
X152271256Y-58600000D01*
X151978744Y-58600000D01*
X151545582Y-58686161D01*
X151054375Y-59014375D01*
X150855000Y-59312761D01*
X150655625Y-59014375D01*
X150164418Y-58686161D01*
X149731256Y-58600000D01*
X149438744Y-58600000D01*
X149005582Y-58686161D01*
X148514375Y-59014375D01*
X148315000Y-59312761D01*
X148115625Y-59014375D01*
X147624418Y-58686161D01*
X147191256Y-58600000D01*
X146898744Y-58600000D01*
X146465582Y-58686161D01*
X145974375Y-59014375D01*
X145775000Y-59312761D01*
X145575625Y-59014375D01*
X145084418Y-58686161D01*
X144651256Y-58600000D01*
X144358744Y-58600000D01*
X143925582Y-58686161D01*
X143594311Y-58907509D01*
X142519131Y-57832330D01*
X142476729Y-57768871D01*
X142225337Y-57600896D01*
X142003652Y-57556800D01*
X142003647Y-57556800D01*
X141928800Y-57541912D01*
X141853953Y-57556800D01*
X110880948Y-57556800D01*
X110806100Y-57541912D01*
X110731252Y-57556800D01*
X110731248Y-57556800D01*
X110557705Y-57591320D01*
X110509562Y-57600896D01*
X110322518Y-57725876D01*
X110258171Y-57768871D01*
X110215771Y-57832327D01*
X101841228Y-66206871D01*
X101777772Y-66249271D01*
X101735372Y-66312727D01*
X101735371Y-66312728D01*
X101609797Y-66500663D01*
X101550812Y-66797200D01*
X100735000Y-66797200D01*
X100735000Y-54055431D01*
X103265000Y-54055431D01*
X103265000Y-54944569D01*
X103605259Y-55766026D01*
X104233974Y-56394741D01*
X105055431Y-56735000D01*
X105944569Y-56735000D01*
X106766026Y-56394741D01*
X107394741Y-55766026D01*
X107735000Y-54944569D01*
X107735000Y-54055431D01*
X192265000Y-54055431D01*
X192265000Y-54944569D01*
X192605259Y-55766026D01*
X193233974Y-56394741D01*
X194055431Y-56735000D01*
X194944569Y-56735000D01*
X195766026Y-56394741D01*
X196394741Y-55766026D01*
X196735000Y-54944569D01*
X196735000Y-54055431D01*
X196394741Y-53233974D01*
X195766026Y-52605259D01*
X194944569Y-52265000D01*
X194055431Y-52265000D01*
X193233974Y-52605259D01*
X192605259Y-53233974D01*
X192265000Y-54055431D01*
X107735000Y-54055431D01*
X107394741Y-53233974D01*
X106766026Y-52605259D01*
X105944569Y-52265000D01*
X105055431Y-52265000D01*
X104233974Y-52605259D01*
X103605259Y-53233974D01*
X103265000Y-54055431D01*
X100735000Y-54055431D01*
X100735000Y-50735000D01*
X199265001Y-50735000D01*
X199265000Y-124265000D01*
X199265000Y-124265000D01*
G37*
X199265000Y-124265000D02*
X100735000Y-124265000D01*
X100735000Y-123009041D01*
X135108086Y-123009041D01*
X135347611Y-123515134D01*
X135762577Y-123891041D01*
X136150961Y-124051904D01*
X136373000Y-123929915D01*
X136373000Y-122787000D01*
X136627000Y-122787000D01*
X136627000Y-123929915D01*
X136849039Y-124051904D01*
X137237423Y-123891041D01*
X137652389Y-123515134D01*
X137891914Y-123009041D01*
X137770629Y-122787000D01*
X136627000Y-122787000D01*
X136373000Y-122787000D01*
X135229371Y-122787000D01*
X135108086Y-123009041D01*
X100735000Y-123009041D01*
X100735000Y-120055431D01*
X103265000Y-120055431D01*
X103265000Y-120944569D01*
X103605259Y-121766026D01*
X104233974Y-122394741D01*
X105055431Y-122735000D01*
X105944569Y-122735000D01*
X106766026Y-122394741D01*
X107394741Y-121766026D01*
X107735000Y-120944569D01*
X107735000Y-120314833D01*
X122065000Y-120314833D01*
X122065000Y-120985167D01*
X122321526Y-121604476D01*
X122795524Y-122078474D01*
X123414833Y-122335000D01*
X124085167Y-122335000D01*
X124704476Y-122078474D01*
X125178474Y-121604476D01*
X125435000Y-120985167D01*
X125435000Y-120314833D01*
X130565000Y-120314833D01*
X130565000Y-120985167D01*
X130821526Y-121604476D01*
X131295524Y-122078474D01*
X131914833Y-122335000D01*
X132585167Y-122335000D01*
X132643207Y-122310959D01*
X135108086Y-122310959D01*
X135229371Y-122533000D01*
X136373000Y-122533000D01*
X136373000Y-121390085D01*
X136627000Y-121390085D01*
X136627000Y-122533000D01*
X137770629Y-122533000D01*
X137891914Y-122310959D01*
X137846291Y-122214561D01*
X139565000Y-122214561D01*
X139565000Y-122785439D01*
X139783466Y-123312862D01*
X140187138Y-123716534D01*
X140714561Y-123935000D01*
X141285439Y-123935000D01*
X141812862Y-123716534D01*
X142216534Y-123312862D01*
X142435000Y-122785439D01*
X142435000Y-122214561D01*
X142432713Y-122209039D01*
X144608096Y-122209039D01*
X144768959Y-122597423D01*
X145144866Y-123012389D01*
X145650959Y-123251914D01*
X145873000Y-123130629D01*
X145873000Y-121987000D01*
X146127000Y-121987000D01*
X146127000Y-123130629D01*
X146349041Y-123251914D01*
X146855134Y-123012389D01*
X147231041Y-122597423D01*
X147391904Y-122209039D01*
X147269915Y-121987000D01*
X146127000Y-121987000D01*
X145873000Y-121987000D01*
X144730085Y-121987000D01*
X144608096Y-122209039D01*
X142432713Y-122209039D01*
X142216534Y-121687138D01*
X141812862Y-121283466D01*
X141285439Y-121065000D01*
X140714561Y-121065000D01*
X140187138Y-121283466D01*
X139783466Y-121687138D01*
X139565000Y-122214561D01*
X137846291Y-122214561D01*
X137652389Y-121804866D01*
X137237423Y-121428959D01*
X136849039Y-121268096D01*
X136627000Y-121390085D01*
X136373000Y-121390085D01*
X136150961Y-121268096D01*
X135762577Y-121428959D01*
X135347611Y-121804866D01*
X135108086Y-122310959D01*
X132643207Y-122310959D01*
X133204476Y-122078474D01*
X133678474Y-121604476D01*
X133935000Y-120985167D01*
X133935000Y-120314833D01*
X133678474Y-119695524D01*
X133204476Y-119221526D01*
X132585167Y-118965000D01*
X131914833Y-118965000D01*
X131295524Y-119221526D01*
X130821526Y-119695524D01*
X130565000Y-120314833D01*
X125435000Y-120314833D01*
X125178474Y-119695524D01*
X124704476Y-119221526D01*
X124085167Y-118965000D01*
X123414833Y-118965000D01*
X122795524Y-119221526D01*
X122321526Y-119695524D01*
X122065000Y-120314833D01*
X107735000Y-120314833D01*
X107735000Y-120055431D01*
X107394741Y-119233974D01*
X106766026Y-118605259D01*
X105944569Y-118265000D01*
X105055431Y-118265000D01*
X104233974Y-118605259D01*
X103605259Y-119233974D01*
X103265000Y-120055431D01*
X100735000Y-120055431D01*
X100735000Y-117903964D01*
X125661312Y-117903964D01*
X125702274Y-118065757D01*
X126048012Y-118672383D01*
X126599577Y-119100524D01*
X127273000Y-119285000D01*
X127873000Y-119285000D01*
X127873000Y-117627000D01*
X128127000Y-117627000D01*
X128127000Y-119285000D01*
X128727000Y-119285000D01*
X129400423Y-119100524D01*
X129951988Y-118672383D01*
X130297726Y-118065757D01*
X130338688Y-117903964D01*
X130221283Y-117627000D01*
X128127000Y-117627000D01*
X127873000Y-117627000D01*
X125778717Y-117627000D01*
X125661312Y-117903964D01*
X100735000Y-117903964D01*
X100735000Y-66797200D01*
X101550812Y-66797200D01*
X101565701Y-66872052D01*
X101565700Y-90815953D01*
X101550812Y-90890800D01*
X101565700Y-90965647D01*
X101565700Y-90965651D01*
X101609796Y-91187336D01*
X101777771Y-91438729D01*
X101841230Y-91481131D01*
X103758564Y-93398466D01*
X103618959Y-93552577D01*
X103458096Y-93940961D01*
X103580085Y-94163000D01*
X104723000Y-94163000D01*
X104723000Y-94143000D01*
X104977000Y-94143000D01*
X104977000Y-94163000D01*
X106119915Y-94163000D01*
X106241904Y-93940961D01*
X106175236Y-93780000D01*
X109733913Y-93780000D01*
X109553035Y-94283223D01*
X109580222Y-94853454D01*
X109746136Y-95254005D01*
X109992255Y-95328139D01*
X110820395Y-94500000D01*
X110806252Y-94485858D01*
X110985858Y-94306252D01*
X111000000Y-94320395D01*
X111014142Y-94306252D01*
X111193748Y-94485858D01*
X111179605Y-94500000D01*
X111193748Y-94514143D01*
X111014142Y-94693748D01*
X111000000Y-94679605D01*
X110171861Y-95507745D01*
X110245995Y-95753864D01*
X110783223Y-95946965D01*
X111353454Y-95919778D01*
X111754005Y-95753864D01*
X111813302Y-95557003D01*
X115767371Y-99511073D01*
X115809771Y-99574529D01*
X116061163Y-99742504D01*
X116282848Y-99786600D01*
X116282852Y-99786600D01*
X116357699Y-99801488D01*
X116432546Y-99786600D01*
X117914689Y-99786600D01*
X118032120Y-99904031D01*
X118320544Y-100023500D01*
X109716646Y-100023500D01*
X109641799Y-100008612D01*
X109566952Y-100023500D01*
X109566948Y-100023500D01*
X109345263Y-100067596D01*
X109093871Y-100235571D01*
X109051471Y-100299027D01*
X105904804Y-103445695D01*
X105884577Y-103415423D01*
X105588614Y-103217667D01*
X105605896Y-103130786D01*
X105884577Y-102944577D01*
X106201740Y-102469909D01*
X106313113Y-101910000D01*
X106201740Y-101350091D01*
X105884577Y-100875423D01*
X105588614Y-100677667D01*
X105605896Y-100590786D01*
X105884577Y-100404577D01*
X106201740Y-99929909D01*
X106313113Y-99370000D01*
X106201740Y-98810091D01*
X105884577Y-98335423D01*
X105532242Y-98100000D01*
X105884577Y-97864577D01*
X106201740Y-97389909D01*
X106313113Y-96830000D01*
X106201740Y-96270091D01*
X105884577Y-95795423D01*
X105500892Y-95539053D01*
X105705134Y-95442389D01*
X106081041Y-95027423D01*
X106241904Y-94639039D01*
X106119915Y-94417000D01*
X104977000Y-94417000D01*
X104977000Y-94437000D01*
X104723000Y-94437000D01*
X104723000Y-94417000D01*
X103580085Y-94417000D01*
X103458096Y-94639039D01*
X103618959Y-95027423D01*
X103994866Y-95442389D01*
X104199108Y-95539053D01*
X103815423Y-95795423D01*
X103498260Y-96270091D01*
X103386887Y-96830000D01*
X103498260Y-97389909D01*
X103815423Y-97864577D01*
X104167758Y-98100000D01*
X103815423Y-98335423D01*
X103498260Y-98810091D01*
X103386887Y-99370000D01*
X103498260Y-99929909D01*
X103722977Y-100266221D01*
X102763430Y-101225769D01*
X102699971Y-101268171D01*
X102531996Y-101519564D01*
X102487900Y-101741249D01*
X102487900Y-101741253D01*
X102473012Y-101816100D01*
X102487900Y-101890947D01*
X102487901Y-106924748D01*
X102473012Y-106999600D01*
X102531997Y-107296137D01*
X102654977Y-107480189D01*
X102699972Y-107547529D01*
X102763428Y-107589929D01*
X103756743Y-108583244D01*
X103498260Y-108970091D01*
X103386887Y-109530000D01*
X103498260Y-110089909D01*
X103815423Y-110564577D01*
X104167758Y-110800000D01*
X103815423Y-111035423D01*
X103498260Y-111510091D01*
X103386887Y-112070000D01*
X103498260Y-112629909D01*
X103815423Y-113104577D01*
X104167758Y-113340000D01*
X103815423Y-113575423D01*
X103498260Y-114050091D01*
X103386887Y-114610000D01*
X103498260Y-115169909D01*
X103815423Y-115644577D01*
X104290091Y-115961740D01*
X104708667Y-116045000D01*
X104991333Y-116045000D01*
X105409909Y-115961740D01*
X105884577Y-115644577D01*
X106201740Y-115169909D01*
X106313113Y-114610000D01*
X106201740Y-114050091D01*
X105884577Y-113575423D01*
X105532242Y-113340000D01*
X105884577Y-113104577D01*
X106201740Y-112629909D01*
X106313113Y-112070000D01*
X106201740Y-111510091D01*
X105884577Y-111035423D01*
X105532242Y-110800000D01*
X105884577Y-110564577D01*
X106201740Y-110089909D01*
X106313113Y-109530000D01*
X106211668Y-109020000D01*
X113276099Y-109020000D01*
X118080570Y-113824472D01*
X118122971Y-113887929D01*
X118374363Y-114055904D01*
X118596048Y-114100000D01*
X118596053Y-114100000D01*
X118670900Y-114114888D01*
X118727615Y-114103607D01*
X118626887Y-114610000D01*
X118738260Y-115169909D01*
X119055423Y-115644577D01*
X119530091Y-115961740D01*
X119948667Y-116045000D01*
X120231333Y-116045000D01*
X120649909Y-115961740D01*
X121124577Y-115644577D01*
X121441740Y-115169909D01*
X121553113Y-114610000D01*
X121451668Y-114100000D01*
X122410399Y-114100000D01*
X124755270Y-116444872D01*
X124797671Y-116508329D01*
X125049063Y-116676304D01*
X125270748Y-116720400D01*
X125270752Y-116720400D01*
X125345599Y-116735288D01*
X125420446Y-116720400D01*
X125824151Y-116720400D01*
X125702274Y-116934243D01*
X125661312Y-117096036D01*
X125778717Y-117373000D01*
X127873000Y-117373000D01*
X127873000Y-117353000D01*
X128127000Y-117353000D01*
X128127000Y-117373000D01*
X130221283Y-117373000D01*
X130338688Y-117096036D01*
X130297726Y-116934243D01*
X130175849Y-116720400D01*
X135478799Y-116720400D01*
X137148273Y-118389876D01*
X137190671Y-118453329D01*
X137254124Y-118495727D01*
X137254126Y-118495729D01*
X137328089Y-118545149D01*
X137442063Y-118621304D01*
X137663748Y-118665400D01*
X137663752Y-118665400D01*
X137738599Y-118680288D01*
X137813446Y-118665400D01*
X144711530Y-118665400D01*
X144648260Y-118760091D01*
X144536887Y-119320000D01*
X144648260Y-119879909D01*
X144965423Y-120354577D01*
X145349108Y-120610947D01*
X145144866Y-120707611D01*
X144768959Y-121122577D01*
X144608096Y-121510961D01*
X144730085Y-121733000D01*
X145873000Y-121733000D01*
X145873000Y-121713000D01*
X146127000Y-121713000D01*
X146127000Y-121733000D01*
X147269915Y-121733000D01*
X147391904Y-121510961D01*
X147231041Y-121122577D01*
X146855134Y-120707611D01*
X146650892Y-120610947D01*
X147034577Y-120354577D01*
X147351740Y-119879909D01*
X147463113Y-119320000D01*
X147351740Y-118760091D01*
X147288470Y-118665400D01*
X148497499Y-118665400D01*
X151031971Y-121199873D01*
X151074371Y-121263329D01*
X151325763Y-121431304D01*
X151547448Y-121475400D01*
X151547452Y-121475400D01*
X151622299Y-121490288D01*
X151697146Y-121475400D01*
X152233389Y-121475400D01*
X152156887Y-121860000D01*
X152268260Y-122419909D01*
X152585423Y-122894577D01*
X153060091Y-123211740D01*
X153478667Y-123295000D01*
X153761333Y-123295000D01*
X154179909Y-123211740D01*
X154654577Y-122894577D01*
X154971740Y-122419909D01*
X155083113Y-121860000D01*
X155006611Y-121475400D01*
X181356353Y-121475400D01*
X181431200Y-121490288D01*
X181506047Y-121475400D01*
X181506052Y-121475400D01*
X181727737Y-121431304D01*
X181979129Y-121263329D01*
X182021531Y-121199870D01*
X183165970Y-120055431D01*
X192265000Y-120055431D01*
X192265000Y-120944569D01*
X192605259Y-121766026D01*
X193233974Y-122394741D01*
X194055431Y-122735000D01*
X194944569Y-122735000D01*
X195766026Y-122394741D01*
X196394741Y-121766026D01*
X196735000Y-120944569D01*
X196735000Y-120055431D01*
X196394741Y-119233974D01*
X195766026Y-118605259D01*
X194944569Y-118265000D01*
X194055431Y-118265000D01*
X193233974Y-118605259D01*
X192605259Y-119233974D01*
X192265000Y-120055431D01*
X183165970Y-120055431D01*
X187115203Y-116106199D01*
X187268959Y-116477423D01*
X187644866Y-116892389D01*
X188150959Y-117131914D01*
X188373000Y-117010629D01*
X188373000Y-115867000D01*
X188627000Y-115867000D01*
X188627000Y-117010629D01*
X188849041Y-117131914D01*
X189355134Y-116892389D01*
X189731041Y-116477423D01*
X189891904Y-116089039D01*
X189769915Y-115867000D01*
X188627000Y-115867000D01*
X188373000Y-115867000D01*
X188353000Y-115867000D01*
X188353000Y-115740000D01*
X194656887Y-115740000D01*
X194768260Y-116299909D01*
X195085423Y-116774577D01*
X195560091Y-117091740D01*
X195978667Y-117175000D01*
X196261333Y-117175000D01*
X196679909Y-117091740D01*
X197154577Y-116774577D01*
X197471740Y-116299909D01*
X197583113Y-115740000D01*
X197471740Y-115180091D01*
X197154577Y-114705423D01*
X196770892Y-114449053D01*
X196975134Y-114352389D01*
X197351041Y-113937423D01*
X197511904Y-113549039D01*
X197389915Y-113327000D01*
X196247000Y-113327000D01*
X196247000Y-113347000D01*
X195993000Y-113347000D01*
X195993000Y-113327000D01*
X194850085Y-113327000D01*
X194728096Y-113549039D01*
X194888959Y-113937423D01*
X195264866Y-114352389D01*
X195469108Y-114449053D01*
X195085423Y-114705423D01*
X194768260Y-115180091D01*
X194656887Y-115740000D01*
X188353000Y-115740000D01*
X188353000Y-115613000D01*
X188373000Y-115613000D01*
X188373000Y-115593000D01*
X188627000Y-115593000D01*
X188627000Y-115613000D01*
X189769915Y-115613000D01*
X189891904Y-115390961D01*
X189731041Y-115002577D01*
X189355134Y-114587611D01*
X189234106Y-114530330D01*
X189255896Y-114420786D01*
X189534577Y-114234577D01*
X189851740Y-113759909D01*
X189963113Y-113200000D01*
X189851740Y-112640091D01*
X189812533Y-112581413D01*
X189859837Y-112572004D01*
X190111229Y-112404029D01*
X190153631Y-112340570D01*
X191485162Y-111009039D01*
X194728096Y-111009039D01*
X194888959Y-111397423D01*
X195264866Y-111812389D01*
X195513367Y-111930000D01*
X195264866Y-112047611D01*
X194888959Y-112462577D01*
X194728096Y-112850961D01*
X194850085Y-113073000D01*
X195993000Y-113073000D01*
X195993000Y-110787000D01*
X196247000Y-110787000D01*
X196247000Y-113073000D01*
X197389915Y-113073000D01*
X197511904Y-112850961D01*
X197351041Y-112462577D01*
X196975134Y-112047611D01*
X196726633Y-111930000D01*
X196975134Y-111812389D01*
X197351041Y-111397423D01*
X197511904Y-111009039D01*
X197389915Y-110787000D01*
X196247000Y-110787000D01*
X195993000Y-110787000D01*
X194850085Y-110787000D01*
X194728096Y-111009039D01*
X191485162Y-111009039D01*
X194727079Y-107767123D01*
X194656887Y-108120000D01*
X194768260Y-108679909D01*
X195085423Y-109154577D01*
X195469108Y-109410947D01*
X195264866Y-109507611D01*
X194888959Y-109922577D01*
X194728096Y-110310961D01*
X194850085Y-110533000D01*
X195993000Y-110533000D01*
X195993000Y-110513000D01*
X196247000Y-110513000D01*
X196247000Y-110533000D01*
X197389915Y-110533000D01*
X197511904Y-110310961D01*
X197351041Y-109922577D01*
X196975134Y-109507611D01*
X196770892Y-109410947D01*
X197154577Y-109154577D01*
X197471740Y-108679909D01*
X197583113Y-108120000D01*
X197471740Y-107560091D01*
X197218184Y-107180617D01*
X198684876Y-105713927D01*
X198748329Y-105671529D01*
X198790727Y-105608076D01*
X198790729Y-105608074D01*
X198877193Y-105478671D01*
X198916304Y-105420137D01*
X198960400Y-105198452D01*
X198960400Y-105198448D01*
X198975288Y-105123601D01*
X198960400Y-105048754D01*
X198960400Y-65923548D01*
X198975288Y-65848700D01*
X198960400Y-65773852D01*
X198960400Y-65773848D01*
X198917100Y-65556163D01*
X198916304Y-65552162D01*
X198790729Y-65364227D01*
X198748329Y-65300771D01*
X198684873Y-65258371D01*
X192266631Y-58840130D01*
X192224229Y-58776671D01*
X191972837Y-58608696D01*
X191751152Y-58564600D01*
X191751147Y-58564600D01*
X191676300Y-58549712D01*
X191601453Y-58564600D01*
X177720446Y-58564600D01*
X177645599Y-58549712D01*
X177570752Y-58564600D01*
X177570748Y-58564600D01*
X177349063Y-58608696D01*
X177097671Y-58776671D01*
X177055271Y-58840127D01*
X176384831Y-59510568D01*
X176383839Y-59505582D01*
X176055625Y-59014375D01*
X175564418Y-58686161D01*
X175131256Y-58600000D01*
X174838744Y-58600000D01*
X174405582Y-58686161D01*
X173914375Y-59014375D01*
X173715000Y-59312761D01*
X173515625Y-59014375D01*
X173024418Y-58686161D01*
X172591256Y-58600000D01*
X172298744Y-58600000D01*
X171865582Y-58686161D01*
X171374375Y-59014375D01*
X171175000Y-59312761D01*
X170975625Y-59014375D01*
X170484418Y-58686161D01*
X170051256Y-58600000D01*
X169758744Y-58600000D01*
X169325582Y-58686161D01*
X168834375Y-59014375D01*
X168635000Y-59312761D01*
X168435625Y-59014375D01*
X167944418Y-58686161D01*
X167511256Y-58600000D01*
X167218744Y-58600000D01*
X166785582Y-58686161D01*
X166294375Y-59014375D01*
X166095000Y-59312761D01*
X165895625Y-59014375D01*
X165404418Y-58686161D01*
X164971256Y-58600000D01*
X164678744Y-58600000D01*
X164245582Y-58686161D01*
X163754375Y-59014375D01*
X163555000Y-59312761D01*
X163355625Y-59014375D01*
X162864418Y-58686161D01*
X162431256Y-58600000D01*
X162138744Y-58600000D01*
X161705582Y-58686161D01*
X161214375Y-59014375D01*
X161015000Y-59312761D01*
X160815625Y-59014375D01*
X160324418Y-58686161D01*
X159891256Y-58600000D01*
X159598744Y-58600000D01*
X159165582Y-58686161D01*
X158674375Y-59014375D01*
X158475000Y-59312761D01*
X158275625Y-59014375D01*
X157784418Y-58686161D01*
X157351256Y-58600000D01*
X157058744Y-58600000D01*
X156625582Y-58686161D01*
X156134375Y-59014375D01*
X155935000Y-59312761D01*
X155735625Y-59014375D01*
X155244418Y-58686161D01*
X154811256Y-58600000D01*
X154518744Y-58600000D01*
X154085582Y-58686161D01*
X153594375Y-59014375D01*
X153395000Y-59312761D01*
X153195625Y-59014375D01*
X152704418Y-58686161D01*
X152271256Y-58600000D01*
X151978744Y-58600000D01*
X151545582Y-58686161D01*
X151054375Y-59014375D01*
X150855000Y-59312761D01*
X150655625Y-59014375D01*
X150164418Y-58686161D01*
X149731256Y-58600000D01*
X149438744Y-58600000D01*
X149005582Y-58686161D01*
X148514375Y-59014375D01*
X148315000Y-59312761D01*
X148115625Y-59014375D01*
X147624418Y-58686161D01*
X147191256Y-58600000D01*
X146898744Y-58600000D01*
X146465582Y-58686161D01*
X145974375Y-59014375D01*
X145775000Y-59312761D01*
X145575625Y-59014375D01*
X145084418Y-58686161D01*
X144651256Y-58600000D01*
X144358744Y-58600000D01*
X143925582Y-58686161D01*
X143594311Y-58907509D01*
X142519131Y-57832330D01*
X142476729Y-57768871D01*
X142225337Y-57600896D01*
X142003652Y-57556800D01*
X142003647Y-57556800D01*
X141928800Y-57541912D01*
X141853953Y-57556800D01*
X110880948Y-57556800D01*
X110806100Y-57541912D01*
X110731252Y-57556800D01*
X110731248Y-57556800D01*
X110557705Y-57591320D01*
X110509562Y-57600896D01*
X110322518Y-57725876D01*
X110258171Y-57768871D01*
X110215771Y-57832327D01*
X101841228Y-66206871D01*
X101777772Y-66249271D01*
X101735372Y-66312727D01*
X101735371Y-66312728D01*
X101609797Y-66500663D01*
X101550812Y-66797200D01*
X100735000Y-66797200D01*
X100735000Y-54055431D01*
X103265000Y-54055431D01*
X103265000Y-54944569D01*
X103605259Y-55766026D01*
X104233974Y-56394741D01*
X105055431Y-56735000D01*
X105944569Y-56735000D01*
X106766026Y-56394741D01*
X107394741Y-55766026D01*
X107735000Y-54944569D01*
X107735000Y-54055431D01*
X192265000Y-54055431D01*
X192265000Y-54944569D01*
X192605259Y-55766026D01*
X193233974Y-56394741D01*
X194055431Y-56735000D01*
X194944569Y-56735000D01*
X195766026Y-56394741D01*
X196394741Y-55766026D01*
X196735000Y-54944569D01*
X196735000Y-54055431D01*
X196394741Y-53233974D01*
X195766026Y-52605259D01*
X194944569Y-52265000D01*
X194055431Y-52265000D01*
X193233974Y-52605259D01*
X192605259Y-53233974D01*
X192265000Y-54055431D01*
X107735000Y-54055431D01*
X107394741Y-53233974D01*
X106766026Y-52605259D01*
X105944569Y-52265000D01*
X105055431Y-52265000D01*
X104233974Y-52605259D01*
X103605259Y-53233974D01*
X103265000Y-54055431D01*
X100735000Y-54055431D01*
X100735000Y-50735000D01*
X199265001Y-50735000D01*
X199265000Y-124265000D01*
G36*
X183085423Y-114274577D02*
X183437758Y-114510000D01*
X183085423Y-114745423D01*
X182899214Y-115024104D01*
X182746305Y-115054520D01*
X182698162Y-115064096D01*
X182584283Y-115140188D01*
X182446771Y-115232071D01*
X182404371Y-115295527D01*
X178664599Y-119035300D01*
X171471484Y-119035300D01*
X171554092Y-118620000D01*
X171438839Y-118040582D01*
X171110625Y-117549375D01*
X170812239Y-117350000D01*
X171110625Y-117150625D01*
X171438839Y-116659418D01*
X171544337Y-116129039D01*
X175108096Y-116129039D01*
X175268959Y-116517423D01*
X175644866Y-116932389D01*
X176150959Y-117171914D01*
X176373000Y-117050629D01*
X176373000Y-115907000D01*
X176627000Y-115907000D01*
X176627000Y-117050629D01*
X176849041Y-117171914D01*
X177355134Y-116932389D01*
X177731041Y-116517423D01*
X177891904Y-116129039D01*
X177769915Y-115907000D01*
X176627000Y-115907000D01*
X176373000Y-115907000D01*
X175230085Y-115907000D01*
X175108096Y-116129039D01*
X171544337Y-116129039D01*
X171554092Y-116080000D01*
X171471484Y-115664700D01*
X173211153Y-115664700D01*
X173286000Y-115679588D01*
X173360847Y-115664700D01*
X173360852Y-115664700D01*
X173582537Y-115620604D01*
X173833929Y-115452629D01*
X173876331Y-115389170D01*
X174140202Y-115125300D01*
X175234696Y-115125300D01*
X175108096Y-115430961D01*
X175230085Y-115653000D01*
X176373000Y-115653000D01*
X176373000Y-115633000D01*
X176627000Y-115633000D01*
X176627000Y-115653000D01*
X177769915Y-115653000D01*
X177891904Y-115430961D01*
X177765304Y-115125300D01*
X181794553Y-115125300D01*
X181869400Y-115140188D01*
X181944247Y-115125300D01*
X181944252Y-115125300D01*
X182165937Y-115081204D01*
X182417329Y-114913229D01*
X182459731Y-114849770D01*
X183065196Y-114244305D01*
X183085423Y-114274577D01*
X183085423Y-114274577D01*
G37*
X183085423Y-114274577D02*
X183437758Y-114510000D01*
X183085423Y-114745423D01*
X182899214Y-115024104D01*
X182746305Y-115054520D01*
X182698162Y-115064096D01*
X182584283Y-115140188D01*
X182446771Y-115232071D01*
X182404371Y-115295527D01*
X178664599Y-119035300D01*
X171471484Y-119035300D01*
X171554092Y-118620000D01*
X171438839Y-118040582D01*
X171110625Y-117549375D01*
X170812239Y-117350000D01*
X171110625Y-117150625D01*
X171438839Y-116659418D01*
X171544337Y-116129039D01*
X175108096Y-116129039D01*
X175268959Y-116517423D01*
X175644866Y-116932389D01*
X176150959Y-117171914D01*
X176373000Y-117050629D01*
X176373000Y-115907000D01*
X176627000Y-115907000D01*
X176627000Y-117050629D01*
X176849041Y-117171914D01*
X177355134Y-116932389D01*
X177731041Y-116517423D01*
X177891904Y-116129039D01*
X177769915Y-115907000D01*
X176627000Y-115907000D01*
X176373000Y-115907000D01*
X175230085Y-115907000D01*
X175108096Y-116129039D01*
X171544337Y-116129039D01*
X171554092Y-116080000D01*
X171471484Y-115664700D01*
X173211153Y-115664700D01*
X173286000Y-115679588D01*
X173360847Y-115664700D01*
X173360852Y-115664700D01*
X173582537Y-115620604D01*
X173833929Y-115452629D01*
X173876331Y-115389170D01*
X174140202Y-115125300D01*
X175234696Y-115125300D01*
X175108096Y-115430961D01*
X175230085Y-115653000D01*
X176373000Y-115653000D01*
X176373000Y-115633000D01*
X176627000Y-115633000D01*
X176627000Y-115653000D01*
X177769915Y-115653000D01*
X177891904Y-115430961D01*
X177765304Y-115125300D01*
X181794553Y-115125300D01*
X181869400Y-115140188D01*
X181944247Y-115125300D01*
X181944252Y-115125300D01*
X182165937Y-115081204D01*
X182417329Y-114913229D01*
X182459731Y-114849770D01*
X183065196Y-114244305D01*
X183085423Y-114274577D01*
G36*
X196247000Y-102913000D02*
X196267000Y-102913000D01*
X196267000Y-103167000D01*
X196247000Y-103167000D01*
X196247000Y-105453000D01*
X196267000Y-105453000D01*
X196267000Y-105707000D01*
X196247000Y-105707000D01*
X196247000Y-105727000D01*
X195993000Y-105727000D01*
X195993000Y-105707000D01*
X194850085Y-105707000D01*
X194728096Y-105929039D01*
X194794764Y-106090000D01*
X194644248Y-106090000D01*
X194569400Y-106075112D01*
X194494552Y-106090000D01*
X194494548Y-106090000D01*
X194272863Y-106134096D01*
X194021471Y-106302071D01*
X193979071Y-106365527D01*
X189916904Y-110427694D01*
X189898688Y-110336113D01*
X194825872Y-105408929D01*
X194850085Y-105453000D01*
X195993000Y-105453000D01*
X195993000Y-103167000D01*
X195973000Y-103167000D01*
X195973000Y-102913000D01*
X195993000Y-102913000D01*
X195993000Y-102893000D01*
X196247000Y-102893000D01*
X196247000Y-102913000D01*
X196247000Y-102913000D01*
G37*
X196247000Y-102913000D02*
X196267000Y-102913000D01*
X196267000Y-103167000D01*
X196247000Y-103167000D01*
X196247000Y-105453000D01*
X196267000Y-105453000D01*
X196267000Y-105707000D01*
X196247000Y-105707000D01*
X196247000Y-105727000D01*
X195993000Y-105727000D01*
X195993000Y-105707000D01*
X194850085Y-105707000D01*
X194728096Y-105929039D01*
X194794764Y-106090000D01*
X194644248Y-106090000D01*
X194569400Y-106075112D01*
X194494552Y-106090000D01*
X194494548Y-106090000D01*
X194272863Y-106134096D01*
X194021471Y-106302071D01*
X193979071Y-106365527D01*
X189916904Y-110427694D01*
X189898688Y-110336113D01*
X194825872Y-105408929D01*
X194850085Y-105453000D01*
X195993000Y-105453000D01*
X195993000Y-103167000D01*
X195973000Y-103167000D01*
X195973000Y-102913000D01*
X195993000Y-102913000D01*
X195993000Y-102893000D01*
X196247000Y-102893000D01*
X196247000Y-102913000D01*
G36*
X128775438Y-106233940D02*
X128745995Y-106246136D01*
X128671861Y-106492255D01*
X129500000Y-107320395D01*
X129514143Y-107306253D01*
X129693748Y-107485858D01*
X129679605Y-107500000D01*
X129693748Y-107514142D01*
X129514142Y-107693748D01*
X129500000Y-107679605D01*
X129485858Y-107693748D01*
X129306252Y-107514142D01*
X129320395Y-107500000D01*
X128492255Y-106671861D01*
X128246136Y-106745995D01*
X128243710Y-106752746D01*
X128216534Y-106687138D01*
X127812862Y-106283466D01*
X127285439Y-106065000D01*
X126714561Y-106065000D01*
X126187138Y-106283466D01*
X125783466Y-106687138D01*
X125750391Y-106766989D01*
X124233011Y-105249609D01*
X124312862Y-105216534D01*
X124716534Y-104812862D01*
X124738430Y-104760000D01*
X127301499Y-104760000D01*
X128775438Y-106233940D01*
X128775438Y-106233940D01*
G37*
X128775438Y-106233940D02*
X128745995Y-106246136D01*
X128671861Y-106492255D01*
X129500000Y-107320395D01*
X129514143Y-107306253D01*
X129693748Y-107485858D01*
X129679605Y-107500000D01*
X129693748Y-107514142D01*
X129514142Y-107693748D01*
X129500000Y-107679605D01*
X129485858Y-107693748D01*
X129306252Y-107514142D01*
X129320395Y-107500000D01*
X128492255Y-106671861D01*
X128246136Y-106745995D01*
X128243710Y-106752746D01*
X128216534Y-106687138D01*
X127812862Y-106283466D01*
X127285439Y-106065000D01*
X126714561Y-106065000D01*
X126187138Y-106283466D01*
X125783466Y-106687138D01*
X125750391Y-106766989D01*
X124233011Y-105249609D01*
X124312862Y-105216534D01*
X124716534Y-104812862D01*
X124738430Y-104760000D01*
X127301499Y-104760000D01*
X128775438Y-106233940D01*
G36*
X150477073Y-94983476D02*
X150519471Y-95046929D01*
X150582924Y-95089327D01*
X150582926Y-95089329D01*
X150598859Y-95099975D01*
X150245995Y-95246136D01*
X150171861Y-95492255D01*
X151000000Y-96320395D01*
X151828139Y-95492255D01*
X151757880Y-95259000D01*
X152746204Y-95259000D01*
X152687138Y-95283466D01*
X152283466Y-95687138D01*
X152256475Y-95752299D01*
X152253864Y-95745995D01*
X152007745Y-95671861D01*
X151179605Y-96500000D01*
X152007745Y-97328139D01*
X152253864Y-97254005D01*
X152256290Y-97247254D01*
X152283466Y-97312862D01*
X152687138Y-97716534D01*
X152854291Y-97785771D01*
X152585423Y-97965423D01*
X152268260Y-98440091D01*
X152156887Y-99000000D01*
X152229550Y-99365300D01*
X148565402Y-99365300D01*
X147715631Y-98515530D01*
X147673229Y-98452071D01*
X147447440Y-98301203D01*
X147447440Y-98200000D01*
X147398157Y-97952235D01*
X147257809Y-97742191D01*
X147047765Y-97601843D01*
X146800000Y-97552560D01*
X145200000Y-97552560D01*
X144952235Y-97601843D01*
X144742191Y-97742191D01*
X144601843Y-97952235D01*
X144552560Y-98200000D01*
X144552560Y-98301203D01*
X144535112Y-98312862D01*
X144390226Y-98409671D01*
X144390224Y-98409673D01*
X144326771Y-98452071D01*
X144284373Y-98515524D01*
X141207999Y-101591900D01*
X137567646Y-101591900D01*
X137492799Y-101577012D01*
X137417952Y-101591900D01*
X137417948Y-101591900D01*
X137196263Y-101635996D01*
X137158986Y-101660904D01*
X137008326Y-101761571D01*
X137008324Y-101761573D01*
X136944871Y-101803971D01*
X136902473Y-101867424D01*
X134970171Y-103799727D01*
X135051904Y-103650961D01*
X134891041Y-103262577D01*
X134515134Y-102847611D01*
X134009041Y-102608086D01*
X133787000Y-102729371D01*
X133787000Y-103873000D01*
X133807000Y-103873000D01*
X133807000Y-104127000D01*
X133787000Y-104127000D01*
X133787000Y-104147000D01*
X133533000Y-104147000D01*
X133533000Y-104127000D01*
X133513000Y-104127000D01*
X133513000Y-103873000D01*
X133533000Y-103873000D01*
X133533000Y-102729371D01*
X133310959Y-102608086D01*
X132804866Y-102847611D01*
X132428959Y-103262577D01*
X132300391Y-103572989D01*
X131203031Y-102475630D01*
X131160629Y-102412171D01*
X130909237Y-102244196D01*
X130687552Y-102200100D01*
X130687547Y-102200100D01*
X130612700Y-102185212D01*
X130537853Y-102200100D01*
X129463402Y-102200100D01*
X123660741Y-96397440D01*
X124250000Y-96397440D01*
X124497765Y-96348157D01*
X124707809Y-96207809D01*
X124848157Y-95997765D01*
X124886469Y-95805156D01*
X125255460Y-96174147D01*
X125764506Y-96385000D01*
X126315494Y-96385000D01*
X126340034Y-96374835D01*
X130449671Y-100484473D01*
X130492071Y-100547929D01*
X130555527Y-100590329D01*
X130743462Y-100715904D01*
X130791605Y-100725480D01*
X130965148Y-100760000D01*
X130965152Y-100760000D01*
X131040000Y-100774888D01*
X131114848Y-100760000D01*
X132441957Y-100760000D01*
X132625423Y-101034577D01*
X133100091Y-101351740D01*
X133518667Y-101435000D01*
X133801333Y-101435000D01*
X134219909Y-101351740D01*
X134694577Y-101034577D01*
X134712505Y-101007745D01*
X138171861Y-101007745D01*
X138245995Y-101253864D01*
X138783223Y-101446965D01*
X139353454Y-101419778D01*
X139754005Y-101253864D01*
X139828139Y-101007745D01*
X139000000Y-100179605D01*
X138171861Y-101007745D01*
X134712505Y-101007745D01*
X134880786Y-100755896D01*
X135081837Y-100715904D01*
X135333229Y-100547929D01*
X135375631Y-100484470D01*
X136076878Y-99783223D01*
X137553035Y-99783223D01*
X137580222Y-100353454D01*
X137746136Y-100754005D01*
X137992255Y-100828139D01*
X138820395Y-100000000D01*
X139179605Y-100000000D01*
X140007745Y-100828139D01*
X140253864Y-100754005D01*
X140446965Y-100216777D01*
X140419778Y-99646546D01*
X140253864Y-99245995D01*
X140007745Y-99171861D01*
X139179605Y-100000000D01*
X138820395Y-100000000D01*
X137992255Y-99171861D01*
X137746136Y-99245995D01*
X137553035Y-99783223D01*
X136076878Y-99783223D01*
X137553811Y-98306291D01*
X137601843Y-98547765D01*
X137742191Y-98757809D01*
X137952235Y-98898157D01*
X138186187Y-98944693D01*
X138171861Y-98992255D01*
X139000000Y-99820395D01*
X139828139Y-98992255D01*
X139813813Y-98944693D01*
X140047765Y-98898157D01*
X140257809Y-98757809D01*
X140398157Y-98547765D01*
X140447440Y-98300000D01*
X140447440Y-97507745D01*
X150171861Y-97507745D01*
X150245995Y-97753864D01*
X150783223Y-97946965D01*
X151353454Y-97919778D01*
X151754005Y-97753864D01*
X151828139Y-97507745D01*
X151000000Y-96679605D01*
X150171861Y-97507745D01*
X140447440Y-97507745D01*
X140447440Y-96700000D01*
X140398157Y-96452235D01*
X140285226Y-96283223D01*
X149553035Y-96283223D01*
X149580222Y-96853454D01*
X149746136Y-97254005D01*
X149992255Y-97328139D01*
X150820395Y-96500000D01*
X149992255Y-95671861D01*
X149746136Y-95745995D01*
X149553035Y-96283223D01*
X140285226Y-96283223D01*
X140257809Y-96242191D01*
X140047765Y-96101843D01*
X139800000Y-96052560D01*
X138200000Y-96052560D01*
X137952235Y-96101843D01*
X137742191Y-96242191D01*
X137601843Y-96452235D01*
X137552560Y-96700000D01*
X137552560Y-96740000D01*
X137360147Y-96740000D01*
X137285300Y-96725112D01*
X137210453Y-96740000D01*
X137210448Y-96740000D01*
X136988763Y-96784096D01*
X136737371Y-96952071D01*
X136694971Y-97015527D01*
X134714804Y-98995695D01*
X134694577Y-98965423D01*
X134219909Y-98648260D01*
X133801333Y-98565000D01*
X133518667Y-98565000D01*
X133100091Y-98648260D01*
X132625423Y-98965423D01*
X132441957Y-99240000D01*
X131354802Y-99240000D01*
X128499801Y-96385000D01*
X128855494Y-96385000D01*
X129364540Y-96174147D01*
X129754147Y-95784540D01*
X129965000Y-95275494D01*
X129965000Y-94724506D01*
X129946772Y-94680500D01*
X131676099Y-94680500D01*
X132614971Y-95619373D01*
X132657371Y-95682829D01*
X132908763Y-95850804D01*
X133130448Y-95894900D01*
X133130453Y-95894900D01*
X133205300Y-95909788D01*
X133280147Y-95894900D01*
X143108289Y-95894900D01*
X143225720Y-96012331D01*
X143606126Y-96169900D01*
X144017874Y-96169900D01*
X144398280Y-96012331D01*
X144689431Y-95721180D01*
X144816528Y-95414340D01*
X145123880Y-95287031D01*
X145415031Y-94995880D01*
X145572600Y-94615474D01*
X145572600Y-94203726D01*
X145415031Y-93823320D01*
X145373000Y-93781289D01*
X145373000Y-93487000D01*
X145627000Y-93487000D01*
X145627000Y-94630629D01*
X145849041Y-94751914D01*
X146355134Y-94512389D01*
X146731041Y-94097423D01*
X146891904Y-93709039D01*
X146769915Y-93487000D01*
X145627000Y-93487000D01*
X145373000Y-93487000D01*
X145014832Y-93487000D01*
X144743474Y-93374600D01*
X144331726Y-93374600D01*
X143951320Y-93532169D01*
X143833889Y-93649600D01*
X143749901Y-93649600D01*
X144207539Y-93191963D01*
X144230085Y-93233000D01*
X145373000Y-93233000D01*
X145373000Y-93213000D01*
X145627000Y-93213000D01*
X145627000Y-93233000D01*
X146769915Y-93233000D01*
X146891904Y-93010961D01*
X146870175Y-92958500D01*
X148452099Y-92958500D01*
X150477073Y-94983476D01*
X150477073Y-94983476D01*
G37*
X150477073Y-94983476D02*
X150519471Y-95046929D01*
X150582924Y-95089327D01*
X150582926Y-95089329D01*
X150598859Y-95099975D01*
X150245995Y-95246136D01*
X150171861Y-95492255D01*
X151000000Y-96320395D01*
X151828139Y-95492255D01*
X151757880Y-95259000D01*
X152746204Y-95259000D01*
X152687138Y-95283466D01*
X152283466Y-95687138D01*
X152256475Y-95752299D01*
X152253864Y-95745995D01*
X152007745Y-95671861D01*
X151179605Y-96500000D01*
X152007745Y-97328139D01*
X152253864Y-97254005D01*
X152256290Y-97247254D01*
X152283466Y-97312862D01*
X152687138Y-97716534D01*
X152854291Y-97785771D01*
X152585423Y-97965423D01*
X152268260Y-98440091D01*
X152156887Y-99000000D01*
X152229550Y-99365300D01*
X148565402Y-99365300D01*
X147715631Y-98515530D01*
X147673229Y-98452071D01*
X147447440Y-98301203D01*
X147447440Y-98200000D01*
X147398157Y-97952235D01*
X147257809Y-97742191D01*
X147047765Y-97601843D01*
X146800000Y-97552560D01*
X145200000Y-97552560D01*
X144952235Y-97601843D01*
X144742191Y-97742191D01*
X144601843Y-97952235D01*
X144552560Y-98200000D01*
X144552560Y-98301203D01*
X144535112Y-98312862D01*
X144390226Y-98409671D01*
X144390224Y-98409673D01*
X144326771Y-98452071D01*
X144284373Y-98515524D01*
X141207999Y-101591900D01*
X137567646Y-101591900D01*
X137492799Y-101577012D01*
X137417952Y-101591900D01*
X137417948Y-101591900D01*
X137196263Y-101635996D01*
X137158986Y-101660904D01*
X137008326Y-101761571D01*
X137008324Y-101761573D01*
X136944871Y-101803971D01*
X136902473Y-101867424D01*
X134970171Y-103799727D01*
X135051904Y-103650961D01*
X134891041Y-103262577D01*
X134515134Y-102847611D01*
X134009041Y-102608086D01*
X133787000Y-102729371D01*
X133787000Y-103873000D01*
X133807000Y-103873000D01*
X133807000Y-104127000D01*
X133787000Y-104127000D01*
X133787000Y-104147000D01*
X133533000Y-104147000D01*
X133533000Y-104127000D01*
X133513000Y-104127000D01*
X133513000Y-103873000D01*
X133533000Y-103873000D01*
X133533000Y-102729371D01*
X133310959Y-102608086D01*
X132804866Y-102847611D01*
X132428959Y-103262577D01*
X132300391Y-103572989D01*
X131203031Y-102475630D01*
X131160629Y-102412171D01*
X130909237Y-102244196D01*
X130687552Y-102200100D01*
X130687547Y-102200100D01*
X130612700Y-102185212D01*
X130537853Y-102200100D01*
X129463402Y-102200100D01*
X123660741Y-96397440D01*
X124250000Y-96397440D01*
X124497765Y-96348157D01*
X124707809Y-96207809D01*
X124848157Y-95997765D01*
X124886469Y-95805156D01*
X125255460Y-96174147D01*
X125764506Y-96385000D01*
X126315494Y-96385000D01*
X126340034Y-96374835D01*
X130449671Y-100484473D01*
X130492071Y-100547929D01*
X130555527Y-100590329D01*
X130743462Y-100715904D01*
X130791605Y-100725480D01*
X130965148Y-100760000D01*
X130965152Y-100760000D01*
X131040000Y-100774888D01*
X131114848Y-100760000D01*
X132441957Y-100760000D01*
X132625423Y-101034577D01*
X133100091Y-101351740D01*
X133518667Y-101435000D01*
X133801333Y-101435000D01*
X134219909Y-101351740D01*
X134694577Y-101034577D01*
X134712505Y-101007745D01*
X138171861Y-101007745D01*
X138245995Y-101253864D01*
X138783223Y-101446965D01*
X139353454Y-101419778D01*
X139754005Y-101253864D01*
X139828139Y-101007745D01*
X139000000Y-100179605D01*
X138171861Y-101007745D01*
X134712505Y-101007745D01*
X134880786Y-100755896D01*
X135081837Y-100715904D01*
X135333229Y-100547929D01*
X135375631Y-100484470D01*
X136076878Y-99783223D01*
X137553035Y-99783223D01*
X137580222Y-100353454D01*
X137746136Y-100754005D01*
X137992255Y-100828139D01*
X138820395Y-100000000D01*
X139179605Y-100000000D01*
X140007745Y-100828139D01*
X140253864Y-100754005D01*
X140446965Y-100216777D01*
X140419778Y-99646546D01*
X140253864Y-99245995D01*
X140007745Y-99171861D01*
X139179605Y-100000000D01*
X138820395Y-100000000D01*
X137992255Y-99171861D01*
X137746136Y-99245995D01*
X137553035Y-99783223D01*
X136076878Y-99783223D01*
X137553811Y-98306291D01*
X137601843Y-98547765D01*
X137742191Y-98757809D01*
X137952235Y-98898157D01*
X138186187Y-98944693D01*
X138171861Y-98992255D01*
X139000000Y-99820395D01*
X139828139Y-98992255D01*
X139813813Y-98944693D01*
X140047765Y-98898157D01*
X140257809Y-98757809D01*
X140398157Y-98547765D01*
X140447440Y-98300000D01*
X140447440Y-97507745D01*
X150171861Y-97507745D01*
X150245995Y-97753864D01*
X150783223Y-97946965D01*
X151353454Y-97919778D01*
X151754005Y-97753864D01*
X151828139Y-97507745D01*
X151000000Y-96679605D01*
X150171861Y-97507745D01*
X140447440Y-97507745D01*
X140447440Y-96700000D01*
X140398157Y-96452235D01*
X140285226Y-96283223D01*
X149553035Y-96283223D01*
X149580222Y-96853454D01*
X149746136Y-97254005D01*
X149992255Y-97328139D01*
X150820395Y-96500000D01*
X149992255Y-95671861D01*
X149746136Y-95745995D01*
X149553035Y-96283223D01*
X140285226Y-96283223D01*
X140257809Y-96242191D01*
X140047765Y-96101843D01*
X139800000Y-96052560D01*
X138200000Y-96052560D01*
X137952235Y-96101843D01*
X137742191Y-96242191D01*
X137601843Y-96452235D01*
X137552560Y-96700000D01*
X137552560Y-96740000D01*
X137360147Y-96740000D01*
X137285300Y-96725112D01*
X137210453Y-96740000D01*
X137210448Y-96740000D01*
X136988763Y-96784096D01*
X136737371Y-96952071D01*
X136694971Y-97015527D01*
X134714804Y-98995695D01*
X134694577Y-98965423D01*
X134219909Y-98648260D01*
X133801333Y-98565000D01*
X133518667Y-98565000D01*
X133100091Y-98648260D01*
X132625423Y-98965423D01*
X132441957Y-99240000D01*
X131354802Y-99240000D01*
X128499801Y-96385000D01*
X128855494Y-96385000D01*
X129364540Y-96174147D01*
X129754147Y-95784540D01*
X129965000Y-95275494D01*
X129965000Y-94724506D01*
X129946772Y-94680500D01*
X131676099Y-94680500D01*
X132614971Y-95619373D01*
X132657371Y-95682829D01*
X132908763Y-95850804D01*
X133130448Y-95894900D01*
X133130453Y-95894900D01*
X133205300Y-95909788D01*
X133280147Y-95894900D01*
X143108289Y-95894900D01*
X143225720Y-96012331D01*
X143606126Y-96169900D01*
X144017874Y-96169900D01*
X144398280Y-96012331D01*
X144689431Y-95721180D01*
X144816528Y-95414340D01*
X145123880Y-95287031D01*
X145415031Y-94995880D01*
X145572600Y-94615474D01*
X145572600Y-94203726D01*
X145415031Y-93823320D01*
X145373000Y-93781289D01*
X145373000Y-93487000D01*
X145627000Y-93487000D01*
X145627000Y-94630629D01*
X145849041Y-94751914D01*
X146355134Y-94512389D01*
X146731041Y-94097423D01*
X146891904Y-93709039D01*
X146769915Y-93487000D01*
X145627000Y-93487000D01*
X145373000Y-93487000D01*
X145014832Y-93487000D01*
X144743474Y-93374600D01*
X144331726Y-93374600D01*
X143951320Y-93532169D01*
X143833889Y-93649600D01*
X143749901Y-93649600D01*
X144207539Y-93191963D01*
X144230085Y-93233000D01*
X145373000Y-93233000D01*
X145373000Y-93213000D01*
X145627000Y-93213000D01*
X145627000Y-93233000D01*
X146769915Y-93233000D01*
X146891904Y-93010961D01*
X146870175Y-92958500D01*
X148452099Y-92958500D01*
X150477073Y-94983476D01*
G36*
X156902000Y-100818000D02*
X156922000Y-100818000D01*
X156922000Y-101072000D01*
X156902000Y-101072000D01*
X156902000Y-101092000D01*
X156648000Y-101092000D01*
X156648000Y-101072000D01*
X156628000Y-101072000D01*
X156628000Y-100818000D01*
X156648000Y-100818000D01*
X156648000Y-100798000D01*
X156902000Y-100798000D01*
X156902000Y-100818000D01*
X156902000Y-100818000D01*
G37*
X156902000Y-100818000D02*
X156922000Y-100818000D01*
X156922000Y-101072000D01*
X156902000Y-101072000D01*
X156902000Y-101092000D01*
X156648000Y-101092000D01*
X156648000Y-101072000D01*
X156628000Y-101072000D01*
X156628000Y-100818000D01*
X156648000Y-100818000D01*
X156648000Y-100798000D01*
X156902000Y-100798000D01*
X156902000Y-100818000D01*
G36*
X182656887Y-92740000D02*
X182768260Y-93299909D01*
X183085423Y-93774577D01*
X183560091Y-94091740D01*
X183958623Y-94171013D01*
X183687138Y-94283466D01*
X183283466Y-94687138D01*
X183256475Y-94752299D01*
X183253864Y-94745995D01*
X183007745Y-94671861D01*
X182179605Y-95500000D01*
X182193748Y-95514142D01*
X182014142Y-95693748D01*
X182000000Y-95679605D01*
X181171861Y-96507745D01*
X181245995Y-96753864D01*
X181783223Y-96946965D01*
X182353454Y-96919778D01*
X182416730Y-96893568D01*
X178260299Y-101050000D01*
X177861668Y-101050000D01*
X177963113Y-100540000D01*
X177851740Y-99980091D01*
X177534577Y-99505423D01*
X177413894Y-99424785D01*
X177547765Y-99398157D01*
X177757809Y-99257809D01*
X177898157Y-99047765D01*
X177947440Y-98800000D01*
X177947440Y-97200000D01*
X177898157Y-96952235D01*
X177757809Y-96742191D01*
X177547765Y-96601843D01*
X177300000Y-96552560D01*
X175700000Y-96552560D01*
X175452235Y-96601843D01*
X175242191Y-96742191D01*
X175101843Y-96952235D01*
X175052560Y-97200000D01*
X175052560Y-98800000D01*
X175101843Y-99047765D01*
X175104082Y-99051116D01*
X173900300Y-100254898D01*
X173900300Y-97909048D01*
X173915188Y-97834200D01*
X173900300Y-97759352D01*
X173900300Y-97759348D01*
X173856204Y-97537663D01*
X173856204Y-97537662D01*
X173730629Y-97349727D01*
X173688229Y-97286271D01*
X173624773Y-97243871D01*
X173142063Y-96761162D01*
X173366740Y-96424909D01*
X173478113Y-95865000D01*
X173398269Y-95463600D01*
X177948153Y-95463600D01*
X178023000Y-95478488D01*
X178097847Y-95463600D01*
X178097852Y-95463600D01*
X178319537Y-95419504D01*
X178523495Y-95283223D01*
X180553035Y-95283223D01*
X180580222Y-95853454D01*
X180746136Y-96254005D01*
X180992255Y-96328139D01*
X181820395Y-95500000D01*
X180992255Y-94671861D01*
X180746136Y-94745995D01*
X180553035Y-95283223D01*
X178523495Y-95283223D01*
X178570929Y-95251529D01*
X178613331Y-95188070D01*
X179309146Y-94492255D01*
X181171861Y-94492255D01*
X182000000Y-95320395D01*
X182828139Y-94492255D01*
X182754005Y-94246136D01*
X182216777Y-94053035D01*
X181646546Y-94080222D01*
X181245995Y-94246136D01*
X181171861Y-94492255D01*
X179309146Y-94492255D01*
X180250502Y-93550900D01*
X180416574Y-93550900D01*
X180796980Y-93393331D01*
X181088131Y-93102180D01*
X181245700Y-92721774D01*
X181245700Y-92310026D01*
X181212552Y-92230000D01*
X182758332Y-92230000D01*
X182656887Y-92740000D01*
X182656887Y-92740000D01*
G37*
X182656887Y-92740000D02*
X182768260Y-93299909D01*
X183085423Y-93774577D01*
X183560091Y-94091740D01*
X183958623Y-94171013D01*
X183687138Y-94283466D01*
X183283466Y-94687138D01*
X183256475Y-94752299D01*
X183253864Y-94745995D01*
X183007745Y-94671861D01*
X182179605Y-95500000D01*
X182193748Y-95514142D01*
X182014142Y-95693748D01*
X182000000Y-95679605D01*
X181171861Y-96507745D01*
X181245995Y-96753864D01*
X181783223Y-96946965D01*
X182353454Y-96919778D01*
X182416730Y-96893568D01*
X178260299Y-101050000D01*
X177861668Y-101050000D01*
X177963113Y-100540000D01*
X177851740Y-99980091D01*
X177534577Y-99505423D01*
X177413894Y-99424785D01*
X177547765Y-99398157D01*
X177757809Y-99257809D01*
X177898157Y-99047765D01*
X177947440Y-98800000D01*
X177947440Y-97200000D01*
X177898157Y-96952235D01*
X177757809Y-96742191D01*
X177547765Y-96601843D01*
X177300000Y-96552560D01*
X175700000Y-96552560D01*
X175452235Y-96601843D01*
X175242191Y-96742191D01*
X175101843Y-96952235D01*
X175052560Y-97200000D01*
X175052560Y-98800000D01*
X175101843Y-99047765D01*
X175104082Y-99051116D01*
X173900300Y-100254898D01*
X173900300Y-97909048D01*
X173915188Y-97834200D01*
X173900300Y-97759352D01*
X173900300Y-97759348D01*
X173856204Y-97537663D01*
X173856204Y-97537662D01*
X173730629Y-97349727D01*
X173688229Y-97286271D01*
X173624773Y-97243871D01*
X173142063Y-96761162D01*
X173366740Y-96424909D01*
X173478113Y-95865000D01*
X173398269Y-95463600D01*
X177948153Y-95463600D01*
X178023000Y-95478488D01*
X178097847Y-95463600D01*
X178097852Y-95463600D01*
X178319537Y-95419504D01*
X178523495Y-95283223D01*
X180553035Y-95283223D01*
X180580222Y-95853454D01*
X180746136Y-96254005D01*
X180992255Y-96328139D01*
X181820395Y-95500000D01*
X180992255Y-94671861D01*
X180746136Y-94745995D01*
X180553035Y-95283223D01*
X178523495Y-95283223D01*
X178570929Y-95251529D01*
X178613331Y-95188070D01*
X179309146Y-94492255D01*
X181171861Y-94492255D01*
X182000000Y-95320395D01*
X182828139Y-94492255D01*
X182754005Y-94246136D01*
X182216777Y-94053035D01*
X181646546Y-94080222D01*
X181245995Y-94246136D01*
X181171861Y-94492255D01*
X179309146Y-94492255D01*
X180250502Y-93550900D01*
X180416574Y-93550900D01*
X180796980Y-93393331D01*
X181088131Y-93102180D01*
X181245700Y-92721774D01*
X181245700Y-92310026D01*
X181212552Y-92230000D01*
X182758332Y-92230000D01*
X182656887Y-92740000D01*
G36*
X155423260Y-95305091D02*
X155311887Y-95865000D01*
X155423260Y-96424909D01*
X155740423Y-96899577D01*
X156092758Y-97135000D01*
X155740423Y-97370423D01*
X155423260Y-97845091D01*
X155311887Y-98405000D01*
X155423260Y-98964909D01*
X155740423Y-99439577D01*
X156124108Y-99695947D01*
X155919866Y-99792611D01*
X155543959Y-100207577D01*
X155476075Y-100371474D01*
X154848681Y-99744080D01*
X154971740Y-99559909D01*
X155083113Y-99000000D01*
X154971740Y-98440091D01*
X154654577Y-97965423D01*
X154293865Y-97724403D01*
X154312862Y-97716534D01*
X154716534Y-97312862D01*
X154935000Y-96785439D01*
X154935000Y-96214561D01*
X154716534Y-95687138D01*
X154312862Y-95283466D01*
X154253796Y-95259000D01*
X155454057Y-95259000D01*
X155423260Y-95305091D01*
X155423260Y-95305091D01*
G37*
X155423260Y-95305091D02*
X155311887Y-95865000D01*
X155423260Y-96424909D01*
X155740423Y-96899577D01*
X156092758Y-97135000D01*
X155740423Y-97370423D01*
X155423260Y-97845091D01*
X155311887Y-98405000D01*
X155423260Y-98964909D01*
X155740423Y-99439577D01*
X156124108Y-99695947D01*
X155919866Y-99792611D01*
X155543959Y-100207577D01*
X155476075Y-100371474D01*
X154848681Y-99744080D01*
X154971740Y-99559909D01*
X155083113Y-99000000D01*
X154971740Y-98440091D01*
X154654577Y-97965423D01*
X154293865Y-97724403D01*
X154312862Y-97716534D01*
X154716534Y-97312862D01*
X154935000Y-96785439D01*
X154935000Y-96214561D01*
X154716534Y-95687138D01*
X154312862Y-95283466D01*
X154253796Y-95259000D01*
X155454057Y-95259000D01*
X155423260Y-95305091D01*
G36*
X194656887Y-94740000D02*
X194768260Y-95299909D01*
X195085423Y-95774577D01*
X195560091Y-96091740D01*
X195958623Y-96171013D01*
X195687138Y-96283466D01*
X195283466Y-96687138D01*
X195256475Y-96752299D01*
X195253864Y-96745995D01*
X195007745Y-96671861D01*
X194179605Y-97500000D01*
X195007745Y-98328139D01*
X195253864Y-98254005D01*
X195256290Y-98247254D01*
X195283466Y-98312862D01*
X195687138Y-98716534D01*
X196214561Y-98935000D01*
X196785439Y-98935000D01*
X196965200Y-98860540D01*
X196965200Y-99338885D01*
X196679909Y-99148260D01*
X196261333Y-99065000D01*
X195978667Y-99065000D01*
X195560091Y-99148260D01*
X195098605Y-99456615D01*
X194500754Y-98858764D01*
X194754005Y-98753864D01*
X194828139Y-98507745D01*
X194000000Y-97679605D01*
X193985858Y-97693748D01*
X193806253Y-97514143D01*
X193820395Y-97500000D01*
X192992255Y-96671861D01*
X192746136Y-96745995D01*
X192616814Y-97105783D01*
X192411786Y-97065000D01*
X192319700Y-97046683D01*
X192227614Y-97065000D01*
X191540301Y-97065000D01*
X192113046Y-96492255D01*
X193171861Y-96492255D01*
X194000000Y-97320395D01*
X194828139Y-96492255D01*
X194754005Y-96246136D01*
X194216777Y-96053035D01*
X193646546Y-96080222D01*
X193245995Y-96246136D01*
X193171861Y-96492255D01*
X192113046Y-96492255D01*
X194375302Y-94230000D01*
X194758332Y-94230000D01*
X194656887Y-94740000D01*
X194656887Y-94740000D01*
G37*
X194656887Y-94740000D02*
X194768260Y-95299909D01*
X195085423Y-95774577D01*
X195560091Y-96091740D01*
X195958623Y-96171013D01*
X195687138Y-96283466D01*
X195283466Y-96687138D01*
X195256475Y-96752299D01*
X195253864Y-96745995D01*
X195007745Y-96671861D01*
X194179605Y-97500000D01*
X195007745Y-98328139D01*
X195253864Y-98254005D01*
X195256290Y-98247254D01*
X195283466Y-98312862D01*
X195687138Y-98716534D01*
X196214561Y-98935000D01*
X196785439Y-98935000D01*
X196965200Y-98860540D01*
X196965200Y-99338885D01*
X196679909Y-99148260D01*
X196261333Y-99065000D01*
X195978667Y-99065000D01*
X195560091Y-99148260D01*
X195098605Y-99456615D01*
X194500754Y-98858764D01*
X194754005Y-98753864D01*
X194828139Y-98507745D01*
X194000000Y-97679605D01*
X193985858Y-97693748D01*
X193806253Y-97514143D01*
X193820395Y-97500000D01*
X192992255Y-96671861D01*
X192746136Y-96745995D01*
X192616814Y-97105783D01*
X192411786Y-97065000D01*
X192319700Y-97046683D01*
X192227614Y-97065000D01*
X191540301Y-97065000D01*
X192113046Y-96492255D01*
X193171861Y-96492255D01*
X194000000Y-97320395D01*
X194828139Y-96492255D01*
X194754005Y-96246136D01*
X194216777Y-96053035D01*
X193646546Y-96080222D01*
X193245995Y-96246136D01*
X193171861Y-96492255D01*
X192113046Y-96492255D01*
X194375302Y-94230000D01*
X194758332Y-94230000D01*
X194656887Y-94740000D01*
G36*
X187148260Y-92759909D02*
X187465423Y-93234577D01*
X187849108Y-93490947D01*
X187644866Y-93587611D01*
X187268959Y-94002577D01*
X187108096Y-94390961D01*
X187230085Y-94613000D01*
X188373000Y-94613000D01*
X188373000Y-94593000D01*
X188627000Y-94593000D01*
X188627000Y-94613000D01*
X189769915Y-94613000D01*
X189891904Y-94390961D01*
X189731041Y-94002577D01*
X189355134Y-93587611D01*
X189150892Y-93490947D01*
X189534577Y-93234577D01*
X189718043Y-92960000D01*
X193487228Y-92960000D01*
X193470171Y-92985527D01*
X190366399Y-96089300D01*
X188939080Y-96089300D01*
X189355134Y-95892389D01*
X189731041Y-95477423D01*
X189891904Y-95089039D01*
X189769915Y-94867000D01*
X188627000Y-94867000D01*
X188627000Y-94887000D01*
X188373000Y-94887000D01*
X188373000Y-94867000D01*
X187230085Y-94867000D01*
X187108096Y-95089039D01*
X187268959Y-95477423D01*
X187644866Y-95892389D01*
X188060920Y-96089300D01*
X185809137Y-96089300D01*
X185935000Y-95785439D01*
X185935000Y-95214561D01*
X185716534Y-94687138D01*
X185312862Y-94283466D01*
X184785439Y-94065000D01*
X184719928Y-94065000D01*
X185154577Y-93774577D01*
X185471740Y-93299909D01*
X185583113Y-92740000D01*
X185481668Y-92230000D01*
X187042854Y-92230000D01*
X187148260Y-92759909D01*
X187148260Y-92759909D01*
G37*
X187148260Y-92759909D02*
X187465423Y-93234577D01*
X187849108Y-93490947D01*
X187644866Y-93587611D01*
X187268959Y-94002577D01*
X187108096Y-94390961D01*
X187230085Y-94613000D01*
X188373000Y-94613000D01*
X188373000Y-94593000D01*
X188627000Y-94593000D01*
X188627000Y-94613000D01*
X189769915Y-94613000D01*
X189891904Y-94390961D01*
X189731041Y-94002577D01*
X189355134Y-93587611D01*
X189150892Y-93490947D01*
X189534577Y-93234577D01*
X189718043Y-92960000D01*
X193487228Y-92960000D01*
X193470171Y-92985527D01*
X190366399Y-96089300D01*
X188939080Y-96089300D01*
X189355134Y-95892389D01*
X189731041Y-95477423D01*
X189891904Y-95089039D01*
X189769915Y-94867000D01*
X188627000Y-94867000D01*
X188627000Y-94887000D01*
X188373000Y-94887000D01*
X188373000Y-94867000D01*
X187230085Y-94867000D01*
X187108096Y-95089039D01*
X187268959Y-95477423D01*
X187644866Y-95892389D01*
X188060920Y-96089300D01*
X185809137Y-96089300D01*
X185935000Y-95785439D01*
X185935000Y-95214561D01*
X185716534Y-94687138D01*
X185312862Y-94283466D01*
X184785439Y-94065000D01*
X184719928Y-94065000D01*
X185154577Y-93774577D01*
X185471740Y-93299909D01*
X185583113Y-92740000D01*
X185481668Y-92230000D01*
X187042854Y-92230000D01*
X187148260Y-92759909D01*
G36*
X175108096Y-92390961D02*
X175230085Y-92613000D01*
X176373000Y-92613000D01*
X176373000Y-92593000D01*
X176627000Y-92593000D01*
X176627000Y-92613000D01*
X177769915Y-92613000D01*
X177891904Y-92390961D01*
X177825236Y-92230000D01*
X179208848Y-92230000D01*
X179175700Y-92310026D01*
X179175700Y-92476098D01*
X177708199Y-93943600D01*
X177246930Y-93943600D01*
X177355134Y-93892389D01*
X177731041Y-93477423D01*
X177891904Y-93089039D01*
X177769915Y-92867000D01*
X176627000Y-92867000D01*
X176627000Y-92887000D01*
X176373000Y-92887000D01*
X176373000Y-92867000D01*
X175230085Y-92867000D01*
X175108096Y-93089039D01*
X175268959Y-93477423D01*
X175644866Y-93892389D01*
X175753070Y-93943600D01*
X173327524Y-93943600D01*
X173366740Y-93884909D01*
X173478113Y-93325000D01*
X173366740Y-92765091D01*
X173245764Y-92584037D01*
X173599802Y-92230000D01*
X175174764Y-92230000D01*
X175108096Y-92390961D01*
X175108096Y-92390961D01*
G37*
X175108096Y-92390961D02*
X175230085Y-92613000D01*
X176373000Y-92613000D01*
X176373000Y-92593000D01*
X176627000Y-92593000D01*
X176627000Y-92613000D01*
X177769915Y-92613000D01*
X177891904Y-92390961D01*
X177825236Y-92230000D01*
X179208848Y-92230000D01*
X179175700Y-92310026D01*
X179175700Y-92476098D01*
X177708199Y-93943600D01*
X177246930Y-93943600D01*
X177355134Y-93892389D01*
X177731041Y-93477423D01*
X177891904Y-93089039D01*
X177769915Y-92867000D01*
X176627000Y-92867000D01*
X176627000Y-92887000D01*
X176373000Y-92887000D01*
X176373000Y-92867000D01*
X175230085Y-92867000D01*
X175108096Y-93089039D01*
X175268959Y-93477423D01*
X175644866Y-93892389D01*
X175753070Y-93943600D01*
X173327524Y-93943600D01*
X173366740Y-93884909D01*
X173478113Y-93325000D01*
X173366740Y-92765091D01*
X173245764Y-92584037D01*
X173599802Y-92230000D01*
X175174764Y-92230000D01*
X175108096Y-92390961D01*
G36*
X133627000Y-93233000D02*
X133647000Y-93233000D01*
X133647000Y-93487000D01*
X133627000Y-93487000D01*
X133627000Y-93507000D01*
X133373000Y-93507000D01*
X133373000Y-93487000D01*
X133353000Y-93487000D01*
X133353000Y-93233000D01*
X133373000Y-93233000D01*
X133373000Y-93213000D01*
X133627000Y-93213000D01*
X133627000Y-93233000D01*
X133627000Y-93233000D01*
G37*
X133627000Y-93233000D02*
X133647000Y-93233000D01*
X133647000Y-93487000D01*
X133627000Y-93487000D01*
X133627000Y-93507000D01*
X133373000Y-93507000D01*
X133373000Y-93487000D01*
X133353000Y-93487000D01*
X133353000Y-93233000D01*
X133373000Y-93233000D01*
X133373000Y-93213000D01*
X133627000Y-93213000D01*
X133627000Y-93233000D01*
G36*
X187465423Y-88154577D02*
X187761386Y-88352333D01*
X187744104Y-88439214D01*
X187465423Y-88625423D01*
X187148260Y-89100091D01*
X187036887Y-89660000D01*
X187148260Y-90219909D01*
X187395207Y-90589491D01*
X187274699Y-90710000D01*
X185445236Y-90710000D01*
X185511904Y-90549039D01*
X185389915Y-90327000D01*
X184247000Y-90327000D01*
X184247000Y-90347000D01*
X183993000Y-90347000D01*
X183993000Y-90327000D01*
X182850085Y-90327000D01*
X182728096Y-90549039D01*
X182794764Y-90710000D01*
X177861668Y-90710000D01*
X177963113Y-90200000D01*
X177890430Y-89834600D01*
X182734872Y-89834600D01*
X182728096Y-89850961D01*
X182850085Y-90073000D01*
X183993000Y-90073000D01*
X183993000Y-90053000D01*
X184247000Y-90053000D01*
X184247000Y-90073000D01*
X185389915Y-90073000D01*
X185511904Y-89850961D01*
X185504353Y-89832730D01*
X185716637Y-89790504D01*
X185968029Y-89622529D01*
X186010431Y-89559070D01*
X187445196Y-88124306D01*
X187465423Y-88154577D01*
X187465423Y-88154577D01*
G37*
X187465423Y-88154577D02*
X187761386Y-88352333D01*
X187744104Y-88439214D01*
X187465423Y-88625423D01*
X187148260Y-89100091D01*
X187036887Y-89660000D01*
X187148260Y-90219909D01*
X187395207Y-90589491D01*
X187274699Y-90710000D01*
X185445236Y-90710000D01*
X185511904Y-90549039D01*
X185389915Y-90327000D01*
X184247000Y-90327000D01*
X184247000Y-90347000D01*
X183993000Y-90347000D01*
X183993000Y-90327000D01*
X182850085Y-90327000D01*
X182728096Y-90549039D01*
X182794764Y-90710000D01*
X177861668Y-90710000D01*
X177963113Y-90200000D01*
X177890430Y-89834600D01*
X182734872Y-89834600D01*
X182728096Y-89850961D01*
X182850085Y-90073000D01*
X183993000Y-90073000D01*
X183993000Y-90053000D01*
X184247000Y-90053000D01*
X184247000Y-90073000D01*
X185389915Y-90073000D01*
X185511904Y-89850961D01*
X185504353Y-89832730D01*
X185716637Y-89790504D01*
X185968029Y-89622529D01*
X186010431Y-89559070D01*
X187445196Y-88124306D01*
X187465423Y-88154577D01*
G36*
X182728096Y-84770961D02*
X182850085Y-84993000D01*
X183993000Y-84993000D01*
X183993000Y-84973000D01*
X184247000Y-84973000D01*
X184247000Y-84993000D01*
X185389915Y-84993000D01*
X185511904Y-84770961D01*
X185493282Y-84726000D01*
X185770999Y-84726000D01*
X187331240Y-86286242D01*
X187279214Y-86364104D01*
X187145866Y-86390629D01*
X187078162Y-86404096D01*
X186923242Y-86507611D01*
X186826771Y-86572071D01*
X186784371Y-86635527D01*
X185539217Y-87880682D01*
X185583113Y-87660000D01*
X185471740Y-87100091D01*
X185154577Y-86625423D01*
X184770892Y-86369053D01*
X184975134Y-86272389D01*
X185351041Y-85857423D01*
X185511904Y-85469039D01*
X185389915Y-85247000D01*
X184247000Y-85247000D01*
X184247000Y-85267000D01*
X183993000Y-85267000D01*
X183993000Y-85247000D01*
X182850085Y-85247000D01*
X182728096Y-85469039D01*
X182888959Y-85857423D01*
X183264866Y-86272389D01*
X183469108Y-86369053D01*
X183085423Y-86625423D01*
X182768260Y-87100091D01*
X182656887Y-87660000D01*
X182768260Y-88219909D01*
X182831530Y-88314600D01*
X177765345Y-88314600D01*
X177891904Y-88009039D01*
X177769915Y-87787000D01*
X176627000Y-87787000D01*
X176627000Y-87807000D01*
X176373000Y-87807000D01*
X176373000Y-87787000D01*
X175230085Y-87787000D01*
X175108096Y-88009039D01*
X175234655Y-88314600D01*
X174145501Y-88314600D01*
X175122650Y-87337452D01*
X175230085Y-87533000D01*
X176373000Y-87533000D01*
X176373000Y-87513000D01*
X176627000Y-87513000D01*
X176627000Y-87533000D01*
X177769915Y-87533000D01*
X177891904Y-87310961D01*
X177825236Y-87150000D01*
X178857353Y-87150000D01*
X178932200Y-87164888D01*
X179007047Y-87150000D01*
X179007052Y-87150000D01*
X179228737Y-87105904D01*
X179480129Y-86937929D01*
X179522531Y-86874470D01*
X181671002Y-84726000D01*
X182746718Y-84726000D01*
X182728096Y-84770961D01*
X182728096Y-84770961D01*
G37*
X182728096Y-84770961D02*
X182850085Y-84993000D01*
X183993000Y-84993000D01*
X183993000Y-84973000D01*
X184247000Y-84973000D01*
X184247000Y-84993000D01*
X185389915Y-84993000D01*
X185511904Y-84770961D01*
X185493282Y-84726000D01*
X185770999Y-84726000D01*
X187331240Y-86286242D01*
X187279214Y-86364104D01*
X187145866Y-86390629D01*
X187078162Y-86404096D01*
X186923242Y-86507611D01*
X186826771Y-86572071D01*
X186784371Y-86635527D01*
X185539217Y-87880682D01*
X185583113Y-87660000D01*
X185471740Y-87100091D01*
X185154577Y-86625423D01*
X184770892Y-86369053D01*
X184975134Y-86272389D01*
X185351041Y-85857423D01*
X185511904Y-85469039D01*
X185389915Y-85247000D01*
X184247000Y-85247000D01*
X184247000Y-85267000D01*
X183993000Y-85267000D01*
X183993000Y-85247000D01*
X182850085Y-85247000D01*
X182728096Y-85469039D01*
X182888959Y-85857423D01*
X183264866Y-86272389D01*
X183469108Y-86369053D01*
X183085423Y-86625423D01*
X182768260Y-87100091D01*
X182656887Y-87660000D01*
X182768260Y-88219909D01*
X182831530Y-88314600D01*
X177765345Y-88314600D01*
X177891904Y-88009039D01*
X177769915Y-87787000D01*
X176627000Y-87787000D01*
X176627000Y-87807000D01*
X176373000Y-87807000D01*
X176373000Y-87787000D01*
X175230085Y-87787000D01*
X175108096Y-88009039D01*
X175234655Y-88314600D01*
X174145501Y-88314600D01*
X175122650Y-87337452D01*
X175230085Y-87533000D01*
X176373000Y-87533000D01*
X176373000Y-87513000D01*
X176627000Y-87513000D01*
X176627000Y-87533000D01*
X177769915Y-87533000D01*
X177891904Y-87310961D01*
X177825236Y-87150000D01*
X178857353Y-87150000D01*
X178932200Y-87164888D01*
X179007047Y-87150000D01*
X179007052Y-87150000D01*
X179228737Y-87105904D01*
X179480129Y-86937929D01*
X179522531Y-86874470D01*
X181671002Y-84726000D01*
X182746718Y-84726000D01*
X182728096Y-84770961D01*
G36*
X175349375Y-66929375D02*
X175021161Y-67420582D01*
X174905908Y-68000000D01*
X175021161Y-68579418D01*
X175349375Y-69070625D01*
X175840582Y-69398839D01*
X176273744Y-69485000D01*
X176566256Y-69485000D01*
X176999418Y-69398839D01*
X177490625Y-69070625D01*
X177690000Y-68772239D01*
X177889375Y-69070625D01*
X178380582Y-69398839D01*
X178813744Y-69485000D01*
X179106256Y-69485000D01*
X179539418Y-69398839D01*
X179595504Y-69361363D01*
X179650830Y-69398331D01*
X182666970Y-72414472D01*
X182709371Y-72477929D01*
X182772827Y-72520329D01*
X182960762Y-72645904D01*
X183008905Y-72655480D01*
X183182448Y-72690000D01*
X183182452Y-72690000D01*
X183257300Y-72704888D01*
X183332148Y-72690000D01*
X183912785Y-72690000D01*
X183687138Y-72783466D01*
X183283466Y-73187138D01*
X183256475Y-73252299D01*
X183253864Y-73245995D01*
X183007745Y-73171861D01*
X182179605Y-74000000D01*
X183007745Y-74828139D01*
X183253864Y-74754005D01*
X183256290Y-74747254D01*
X183283466Y-74812862D01*
X183687138Y-75216534D01*
X184214561Y-75435000D01*
X184785439Y-75435000D01*
X185312862Y-75216534D01*
X185716534Y-74812862D01*
X185935000Y-74285439D01*
X185935000Y-73714561D01*
X185869691Y-73556890D01*
X189208524Y-73556890D01*
X189378355Y-73966924D01*
X189768642Y-74395183D01*
X190293108Y-74641486D01*
X190523000Y-74520819D01*
X190523000Y-73327000D01*
X189329845Y-73327000D01*
X189208524Y-73556890D01*
X185869691Y-73556890D01*
X185716534Y-73187138D01*
X185312862Y-72783466D01*
X185087215Y-72690000D01*
X189271940Y-72690000D01*
X189208524Y-72843110D01*
X189329845Y-73073000D01*
X190523000Y-73073000D01*
X190523000Y-73053000D01*
X190777000Y-73053000D01*
X190777000Y-73073000D01*
X190797000Y-73073000D01*
X190797000Y-73327000D01*
X190777000Y-73327000D01*
X190777000Y-74520819D01*
X191006892Y-74641486D01*
X191531358Y-74395183D01*
X191921645Y-73966924D01*
X191948086Y-73903087D01*
X193277913Y-75232915D01*
X193245995Y-75246136D01*
X193171861Y-75492255D01*
X194000000Y-76320395D01*
X194014142Y-76306252D01*
X194193748Y-76485858D01*
X194179605Y-76500000D01*
X194193748Y-76514143D01*
X194014143Y-76693748D01*
X194000000Y-76679605D01*
X193985858Y-76693748D01*
X193806252Y-76514142D01*
X193820395Y-76500000D01*
X192992255Y-75671861D01*
X192746136Y-75745995D01*
X192553035Y-76283223D01*
X192566469Y-76565000D01*
X185221112Y-76565000D01*
X185154577Y-76465423D01*
X184679909Y-76148260D01*
X184261333Y-76065000D01*
X183978667Y-76065000D01*
X183560091Y-76148260D01*
X183085423Y-76465423D01*
X182768260Y-76940091D01*
X182656887Y-77500000D01*
X182768260Y-78059909D01*
X183085423Y-78534577D01*
X183469108Y-78790947D01*
X183264866Y-78887611D01*
X182888959Y-79302577D01*
X182728096Y-79690961D01*
X182850085Y-79913000D01*
X183993000Y-79913000D01*
X183993000Y-79893000D01*
X184247000Y-79893000D01*
X184247000Y-79913000D01*
X185389915Y-79913000D01*
X185511904Y-79690961D01*
X185351041Y-79302577D01*
X184975134Y-78887611D01*
X184770892Y-78790947D01*
X185154577Y-78534577D01*
X185221112Y-78435000D01*
X187113359Y-78435000D01*
X187101843Y-78452235D01*
X187052560Y-78700000D01*
X187052560Y-80300000D01*
X187101843Y-80547765D01*
X187242191Y-80757809D01*
X187452235Y-80898157D01*
X187586106Y-80924785D01*
X187465423Y-81005423D01*
X187445196Y-81035695D01*
X187377831Y-80968330D01*
X187335429Y-80904871D01*
X187084037Y-80736896D01*
X186862352Y-80692800D01*
X186862347Y-80692800D01*
X186787500Y-80677912D01*
X186712653Y-80692800D01*
X185386091Y-80692800D01*
X185511904Y-80389039D01*
X185389915Y-80167000D01*
X184247000Y-80167000D01*
X184247000Y-80187000D01*
X183993000Y-80187000D01*
X183993000Y-80167000D01*
X182850085Y-80167000D01*
X182728096Y-80389039D01*
X182853909Y-80692800D01*
X177789672Y-80692800D01*
X177851740Y-80599909D01*
X177963113Y-80040000D01*
X177851740Y-79480091D01*
X177534577Y-79005423D01*
X177413894Y-78924785D01*
X177547765Y-78898157D01*
X177757809Y-78757809D01*
X177898157Y-78547765D01*
X177947440Y-78300000D01*
X177947440Y-76700000D01*
X177898157Y-76452235D01*
X177757809Y-76242191D01*
X177547765Y-76101843D01*
X177300000Y-76052560D01*
X177260000Y-76052560D01*
X177260000Y-75973246D01*
X177274888Y-75898399D01*
X177260000Y-75823552D01*
X177260000Y-75823548D01*
X177215904Y-75601863D01*
X177138534Y-75486071D01*
X177090329Y-75413926D01*
X177090327Y-75413924D01*
X177047929Y-75350471D01*
X176984476Y-75308073D01*
X176684148Y-75007745D01*
X181171861Y-75007745D01*
X181245995Y-75253864D01*
X181783223Y-75446965D01*
X182353454Y-75419778D01*
X182754005Y-75253864D01*
X182828139Y-75007745D01*
X182000000Y-74179605D01*
X181171861Y-75007745D01*
X176684148Y-75007745D01*
X175459626Y-73783223D01*
X180553035Y-73783223D01*
X180580222Y-74353454D01*
X180746136Y-74754005D01*
X180992255Y-74828139D01*
X181820395Y-74000000D01*
X180992255Y-73171861D01*
X180746136Y-73245995D01*
X180553035Y-73783223D01*
X175459626Y-73783223D01*
X174668658Y-72992255D01*
X181171861Y-72992255D01*
X182000000Y-73820395D01*
X182828139Y-72992255D01*
X182754005Y-72746136D01*
X182216777Y-72553035D01*
X181646546Y-72580222D01*
X181245995Y-72746136D01*
X181171861Y-72992255D01*
X174668658Y-72992255D01*
X173100206Y-71423805D01*
X173366740Y-71024909D01*
X173478113Y-70465000D01*
X173366740Y-69905091D01*
X173049577Y-69430423D01*
X172697242Y-69195000D01*
X173049577Y-68959577D01*
X173366740Y-68484909D01*
X173478113Y-67925000D01*
X173366740Y-67365091D01*
X173049577Y-66890423D01*
X172633935Y-66612700D01*
X175823313Y-66612700D01*
X175349375Y-66929375D01*
X175349375Y-66929375D01*
G37*
X175349375Y-66929375D02*
X175021161Y-67420582D01*
X174905908Y-68000000D01*
X175021161Y-68579418D01*
X175349375Y-69070625D01*
X175840582Y-69398839D01*
X176273744Y-69485000D01*
X176566256Y-69485000D01*
X176999418Y-69398839D01*
X177490625Y-69070625D01*
X177690000Y-68772239D01*
X177889375Y-69070625D01*
X178380582Y-69398839D01*
X178813744Y-69485000D01*
X179106256Y-69485000D01*
X179539418Y-69398839D01*
X179595504Y-69361363D01*
X179650830Y-69398331D01*
X182666970Y-72414472D01*
X182709371Y-72477929D01*
X182772827Y-72520329D01*
X182960762Y-72645904D01*
X183008905Y-72655480D01*
X183182448Y-72690000D01*
X183182452Y-72690000D01*
X183257300Y-72704888D01*
X183332148Y-72690000D01*
X183912785Y-72690000D01*
X183687138Y-72783466D01*
X183283466Y-73187138D01*
X183256475Y-73252299D01*
X183253864Y-73245995D01*
X183007745Y-73171861D01*
X182179605Y-74000000D01*
X183007745Y-74828139D01*
X183253864Y-74754005D01*
X183256290Y-74747254D01*
X183283466Y-74812862D01*
X183687138Y-75216534D01*
X184214561Y-75435000D01*
X184785439Y-75435000D01*
X185312862Y-75216534D01*
X185716534Y-74812862D01*
X185935000Y-74285439D01*
X185935000Y-73714561D01*
X185869691Y-73556890D01*
X189208524Y-73556890D01*
X189378355Y-73966924D01*
X189768642Y-74395183D01*
X190293108Y-74641486D01*
X190523000Y-74520819D01*
X190523000Y-73327000D01*
X189329845Y-73327000D01*
X189208524Y-73556890D01*
X185869691Y-73556890D01*
X185716534Y-73187138D01*
X185312862Y-72783466D01*
X185087215Y-72690000D01*
X189271940Y-72690000D01*
X189208524Y-72843110D01*
X189329845Y-73073000D01*
X190523000Y-73073000D01*
X190523000Y-73053000D01*
X190777000Y-73053000D01*
X190777000Y-73073000D01*
X190797000Y-73073000D01*
X190797000Y-73327000D01*
X190777000Y-73327000D01*
X190777000Y-74520819D01*
X191006892Y-74641486D01*
X191531358Y-74395183D01*
X191921645Y-73966924D01*
X191948086Y-73903087D01*
X193277913Y-75232915D01*
X193245995Y-75246136D01*
X193171861Y-75492255D01*
X194000000Y-76320395D01*
X194014142Y-76306252D01*
X194193748Y-76485858D01*
X194179605Y-76500000D01*
X194193748Y-76514143D01*
X194014143Y-76693748D01*
X194000000Y-76679605D01*
X193985858Y-76693748D01*
X193806252Y-76514142D01*
X193820395Y-76500000D01*
X192992255Y-75671861D01*
X192746136Y-75745995D01*
X192553035Y-76283223D01*
X192566469Y-76565000D01*
X185221112Y-76565000D01*
X185154577Y-76465423D01*
X184679909Y-76148260D01*
X184261333Y-76065000D01*
X183978667Y-76065000D01*
X183560091Y-76148260D01*
X183085423Y-76465423D01*
X182768260Y-76940091D01*
X182656887Y-77500000D01*
X182768260Y-78059909D01*
X183085423Y-78534577D01*
X183469108Y-78790947D01*
X183264866Y-78887611D01*
X182888959Y-79302577D01*
X182728096Y-79690961D01*
X182850085Y-79913000D01*
X183993000Y-79913000D01*
X183993000Y-79893000D01*
X184247000Y-79893000D01*
X184247000Y-79913000D01*
X185389915Y-79913000D01*
X185511904Y-79690961D01*
X185351041Y-79302577D01*
X184975134Y-78887611D01*
X184770892Y-78790947D01*
X185154577Y-78534577D01*
X185221112Y-78435000D01*
X187113359Y-78435000D01*
X187101843Y-78452235D01*
X187052560Y-78700000D01*
X187052560Y-80300000D01*
X187101843Y-80547765D01*
X187242191Y-80757809D01*
X187452235Y-80898157D01*
X187586106Y-80924785D01*
X187465423Y-81005423D01*
X187445196Y-81035695D01*
X187377831Y-80968330D01*
X187335429Y-80904871D01*
X187084037Y-80736896D01*
X186862352Y-80692800D01*
X186862347Y-80692800D01*
X186787500Y-80677912D01*
X186712653Y-80692800D01*
X185386091Y-80692800D01*
X185511904Y-80389039D01*
X185389915Y-80167000D01*
X184247000Y-80167000D01*
X184247000Y-80187000D01*
X183993000Y-80187000D01*
X183993000Y-80167000D01*
X182850085Y-80167000D01*
X182728096Y-80389039D01*
X182853909Y-80692800D01*
X177789672Y-80692800D01*
X177851740Y-80599909D01*
X177963113Y-80040000D01*
X177851740Y-79480091D01*
X177534577Y-79005423D01*
X177413894Y-78924785D01*
X177547765Y-78898157D01*
X177757809Y-78757809D01*
X177898157Y-78547765D01*
X177947440Y-78300000D01*
X177947440Y-76700000D01*
X177898157Y-76452235D01*
X177757809Y-76242191D01*
X177547765Y-76101843D01*
X177300000Y-76052560D01*
X177260000Y-76052560D01*
X177260000Y-75973246D01*
X177274888Y-75898399D01*
X177260000Y-75823552D01*
X177260000Y-75823548D01*
X177215904Y-75601863D01*
X177138534Y-75486071D01*
X177090329Y-75413926D01*
X177090327Y-75413924D01*
X177047929Y-75350471D01*
X176984476Y-75308073D01*
X176684148Y-75007745D01*
X181171861Y-75007745D01*
X181245995Y-75253864D01*
X181783223Y-75446965D01*
X182353454Y-75419778D01*
X182754005Y-75253864D01*
X182828139Y-75007745D01*
X182000000Y-74179605D01*
X181171861Y-75007745D01*
X176684148Y-75007745D01*
X175459626Y-73783223D01*
X180553035Y-73783223D01*
X180580222Y-74353454D01*
X180746136Y-74754005D01*
X180992255Y-74828139D01*
X181820395Y-74000000D01*
X180992255Y-73171861D01*
X180746136Y-73245995D01*
X180553035Y-73783223D01*
X175459626Y-73783223D01*
X174668658Y-72992255D01*
X181171861Y-72992255D01*
X182000000Y-73820395D01*
X182828139Y-72992255D01*
X182754005Y-72746136D01*
X182216777Y-72553035D01*
X181646546Y-72580222D01*
X181245995Y-72746136D01*
X181171861Y-72992255D01*
X174668658Y-72992255D01*
X173100206Y-71423805D01*
X173366740Y-71024909D01*
X173478113Y-70465000D01*
X173366740Y-69905091D01*
X173049577Y-69430423D01*
X172697242Y-69195000D01*
X173049577Y-68959577D01*
X173366740Y-68484909D01*
X173478113Y-67925000D01*
X173366740Y-67365091D01*
X173049577Y-66890423D01*
X172633935Y-66612700D01*
X175823313Y-66612700D01*
X175349375Y-66929375D01*
G36*
X127586897Y-79161698D02*
X127565000Y-79214561D01*
X127565000Y-79785439D01*
X127612453Y-79900000D01*
X126292071Y-79900000D01*
X126391914Y-79689041D01*
X126270629Y-79467000D01*
X125127000Y-79467000D01*
X125127000Y-79487000D01*
X124873000Y-79487000D01*
X124873000Y-79467000D01*
X123729371Y-79467000D01*
X123608086Y-79689041D01*
X123707929Y-79900000D01*
X121247907Y-79900000D01*
X121441740Y-79609909D01*
X121553113Y-79050000D01*
X121541369Y-78990959D01*
X123608086Y-78990959D01*
X123729371Y-79213000D01*
X124873000Y-79213000D01*
X124873000Y-78070085D01*
X125127000Y-78070085D01*
X125127000Y-79213000D01*
X126270629Y-79213000D01*
X126391914Y-78990959D01*
X126152389Y-78484866D01*
X125737423Y-78108959D01*
X125349039Y-77948096D01*
X125127000Y-78070085D01*
X124873000Y-78070085D01*
X124650961Y-77948096D01*
X124262577Y-78108959D01*
X123847611Y-78484866D01*
X123608086Y-78990959D01*
X121541369Y-78990959D01*
X121441740Y-78490091D01*
X121124577Y-78015423D01*
X120845896Y-77829214D01*
X120828614Y-77742333D01*
X121124577Y-77544577D01*
X121308043Y-77270000D01*
X125695199Y-77270000D01*
X127586897Y-79161698D01*
X127586897Y-79161698D01*
G37*
X127586897Y-79161698D02*
X127565000Y-79214561D01*
X127565000Y-79785439D01*
X127612453Y-79900000D01*
X126292071Y-79900000D01*
X126391914Y-79689041D01*
X126270629Y-79467000D01*
X125127000Y-79467000D01*
X125127000Y-79487000D01*
X124873000Y-79487000D01*
X124873000Y-79467000D01*
X123729371Y-79467000D01*
X123608086Y-79689041D01*
X123707929Y-79900000D01*
X121247907Y-79900000D01*
X121441740Y-79609909D01*
X121553113Y-79050000D01*
X121541369Y-78990959D01*
X123608086Y-78990959D01*
X123729371Y-79213000D01*
X124873000Y-79213000D01*
X124873000Y-78070085D01*
X125127000Y-78070085D01*
X125127000Y-79213000D01*
X126270629Y-79213000D01*
X126391914Y-78990959D01*
X126152389Y-78484866D01*
X125737423Y-78108959D01*
X125349039Y-77948096D01*
X125127000Y-78070085D01*
X124873000Y-78070085D01*
X124650961Y-77948096D01*
X124262577Y-78108959D01*
X123847611Y-78484866D01*
X123608086Y-78990959D01*
X121541369Y-78990959D01*
X121441740Y-78490091D01*
X121124577Y-78015423D01*
X120845896Y-77829214D01*
X120828614Y-77742333D01*
X121124577Y-77544577D01*
X121308043Y-77270000D01*
X125695199Y-77270000D01*
X127586897Y-79161698D01*
G36*
X137492253Y-66671861D02*
X137246136Y-66745995D01*
X137053035Y-67283223D01*
X137080222Y-67853454D01*
X137246136Y-68254005D01*
X137492255Y-68328139D01*
X138320395Y-67500000D01*
X138306252Y-67485858D01*
X138485858Y-67306252D01*
X138500000Y-67320395D01*
X138514142Y-67306252D01*
X138693748Y-67485858D01*
X138679605Y-67500000D01*
X139507745Y-68328139D01*
X139753864Y-68254005D01*
X139756290Y-68247254D01*
X139783466Y-68312862D01*
X140187138Y-68716534D01*
X140714561Y-68935000D01*
X141285439Y-68935000D01*
X141812862Y-68716534D01*
X142094396Y-68435000D01*
X147657211Y-68435000D01*
X150109500Y-70887289D01*
X150109501Y-73740442D01*
X150107037Y-73738796D01*
X149885352Y-73694700D01*
X149885347Y-73694700D01*
X149810500Y-73679812D01*
X149735653Y-73694700D01*
X146788403Y-73694700D01*
X146851740Y-73599909D01*
X146963113Y-73040000D01*
X146851740Y-72480091D01*
X146534577Y-72005423D01*
X146428082Y-71934265D01*
X146659698Y-71838327D01*
X146838327Y-71659699D01*
X146935000Y-71426310D01*
X146935000Y-70785750D01*
X146776250Y-70627000D01*
X145627000Y-70627000D01*
X145627000Y-70647000D01*
X145373000Y-70647000D01*
X145373000Y-70627000D01*
X144223750Y-70627000D01*
X144065000Y-70785750D01*
X144065000Y-71426310D01*
X144161673Y-71659699D01*
X144340302Y-71838327D01*
X144571918Y-71934265D01*
X144465423Y-72005423D01*
X144148260Y-72480091D01*
X144036887Y-73040000D01*
X144148260Y-73599909D01*
X144211597Y-73694700D01*
X143445448Y-73694700D01*
X143370600Y-73679812D01*
X143295752Y-73694700D01*
X143295748Y-73694700D01*
X143074063Y-73738796D01*
X142822671Y-73906771D01*
X142780271Y-73970227D01*
X142174804Y-74575695D01*
X142154577Y-74545423D01*
X141802242Y-74310000D01*
X142154577Y-74074577D01*
X142471740Y-73599909D01*
X142583113Y-73040000D01*
X142471740Y-72480091D01*
X142154577Y-72005423D01*
X141802242Y-71770000D01*
X142154577Y-71534577D01*
X142471740Y-71059909D01*
X142583113Y-70500000D01*
X142471740Y-69940091D01*
X142226919Y-69573690D01*
X144065000Y-69573690D01*
X144065000Y-70214250D01*
X144223750Y-70373000D01*
X145373000Y-70373000D01*
X145373000Y-69223750D01*
X145627000Y-69223750D01*
X145627000Y-70373000D01*
X146776250Y-70373000D01*
X146935000Y-70214250D01*
X146935000Y-69573690D01*
X146838327Y-69340301D01*
X146659698Y-69161673D01*
X146426309Y-69065000D01*
X145785750Y-69065000D01*
X145627000Y-69223750D01*
X145373000Y-69223750D01*
X145214250Y-69065000D01*
X144573691Y-69065000D01*
X144340302Y-69161673D01*
X144161673Y-69340301D01*
X144065000Y-69573690D01*
X142226919Y-69573690D01*
X142154577Y-69465423D01*
X141679909Y-69148260D01*
X141261333Y-69065000D01*
X140978667Y-69065000D01*
X140560091Y-69148260D01*
X140085423Y-69465423D01*
X139768260Y-69940091D01*
X139656887Y-70500000D01*
X139768260Y-71059909D01*
X140085423Y-71534577D01*
X140437758Y-71770000D01*
X140085423Y-72005423D01*
X139768260Y-72480091D01*
X139656887Y-73040000D01*
X139768260Y-73599909D01*
X140085423Y-74074577D01*
X140437758Y-74310000D01*
X140085423Y-74545423D01*
X139768260Y-75020091D01*
X139656887Y-75580000D01*
X139729550Y-75945300D01*
X136065402Y-75945300D01*
X135215631Y-75095530D01*
X135173229Y-75032071D01*
X134921837Y-74864096D01*
X134720786Y-74824104D01*
X134534577Y-74545423D01*
X134182242Y-74310000D01*
X134534577Y-74074577D01*
X134851740Y-73599909D01*
X134963113Y-73040000D01*
X134851740Y-72480091D01*
X134534577Y-72005423D01*
X134428082Y-71934265D01*
X134659698Y-71838327D01*
X134838327Y-71659699D01*
X134935000Y-71426310D01*
X134935000Y-70785750D01*
X134776250Y-70627000D01*
X133627000Y-70627000D01*
X133627000Y-70647000D01*
X133373000Y-70647000D01*
X133373000Y-70627000D01*
X132223750Y-70627000D01*
X132065000Y-70785750D01*
X132065000Y-71426310D01*
X132161673Y-71659699D01*
X132340302Y-71838327D01*
X132571918Y-71934265D01*
X132465423Y-72005423D01*
X132148260Y-72480091D01*
X132036887Y-73040000D01*
X132148260Y-73599909D01*
X132465423Y-74074577D01*
X132817758Y-74310000D01*
X132465423Y-74545423D01*
X132148260Y-75020091D01*
X132036887Y-75580000D01*
X132148260Y-76139909D01*
X132465423Y-76614577D01*
X132817758Y-76850000D01*
X132465423Y-77085423D01*
X132148260Y-77560091D01*
X132036887Y-78120000D01*
X132148260Y-78679909D01*
X132465423Y-79154577D01*
X132817758Y-79390000D01*
X132465423Y-79625423D01*
X132281957Y-79900000D01*
X130387547Y-79900000D01*
X130435000Y-79785439D01*
X130435000Y-79214561D01*
X130216534Y-78687138D01*
X129812862Y-78283466D01*
X129285439Y-78065000D01*
X128714561Y-78065000D01*
X128661698Y-78086897D01*
X126600331Y-76025530D01*
X126557929Y-75962071D01*
X126306537Y-75794096D01*
X126084852Y-75750000D01*
X126084847Y-75750000D01*
X126010000Y-75735112D01*
X125935153Y-75750000D01*
X122566239Y-75750000D01*
X122583231Y-75724570D01*
X123737226Y-74570575D01*
X123825853Y-74784540D01*
X124215460Y-75174147D01*
X124724506Y-75385000D01*
X125275494Y-75385000D01*
X125784540Y-75174147D01*
X126174147Y-74784540D01*
X126184312Y-74760000D01*
X128065000Y-74760000D01*
X128065000Y-74785439D01*
X128283466Y-75312862D01*
X128687138Y-75716534D01*
X129214561Y-75935000D01*
X129785439Y-75935000D01*
X130312862Y-75716534D01*
X130716534Y-75312862D01*
X130935000Y-74785439D01*
X130935000Y-74214561D01*
X130716534Y-73687138D01*
X130312862Y-73283466D01*
X130247701Y-73256475D01*
X130254005Y-73253864D01*
X130328139Y-73007745D01*
X129500000Y-72179605D01*
X128671861Y-73007745D01*
X128741819Y-73240000D01*
X126184312Y-73240000D01*
X126174147Y-73215460D01*
X125784540Y-72825853D01*
X125570576Y-72737226D01*
X125665548Y-72642254D01*
X125735600Y-72656188D01*
X125810447Y-72641300D01*
X125810452Y-72641300D01*
X126032137Y-72597204D01*
X126283529Y-72429229D01*
X126325931Y-72365770D01*
X126908478Y-71783223D01*
X128053035Y-71783223D01*
X128080222Y-72353454D01*
X128246136Y-72754005D01*
X128492255Y-72828139D01*
X129320395Y-72000000D01*
X129679605Y-72000000D01*
X130507745Y-72828139D01*
X130753864Y-72754005D01*
X130946965Y-72216777D01*
X130919778Y-71646546D01*
X130753864Y-71245995D01*
X130507745Y-71171861D01*
X129679605Y-72000000D01*
X129320395Y-72000000D01*
X128492255Y-71171861D01*
X128246136Y-71245995D01*
X128053035Y-71783223D01*
X126908478Y-71783223D01*
X127964673Y-70727029D01*
X128028129Y-70684629D01*
X128196104Y-70433237D01*
X128240200Y-70211552D01*
X128240200Y-70211547D01*
X128240622Y-70209427D01*
X128283466Y-70312862D01*
X128687138Y-70716534D01*
X128752299Y-70743525D01*
X128745995Y-70746136D01*
X128671861Y-70992255D01*
X129500000Y-71820395D01*
X130328139Y-70992255D01*
X130254005Y-70746136D01*
X130247254Y-70743710D01*
X130312862Y-70716534D01*
X130716534Y-70312862D01*
X130935000Y-69785439D01*
X130935000Y-69573690D01*
X132065000Y-69573690D01*
X132065000Y-70214250D01*
X132223750Y-70373000D01*
X133373000Y-70373000D01*
X133373000Y-69223750D01*
X133627000Y-69223750D01*
X133627000Y-70373000D01*
X134776250Y-70373000D01*
X134935000Y-70214250D01*
X134935000Y-69573690D01*
X134838327Y-69340301D01*
X134659698Y-69161673D01*
X134426309Y-69065000D01*
X133785750Y-69065000D01*
X133627000Y-69223750D01*
X133373000Y-69223750D01*
X133214250Y-69065000D01*
X132573691Y-69065000D01*
X132340302Y-69161673D01*
X132161673Y-69340301D01*
X132065000Y-69573690D01*
X130935000Y-69573690D01*
X130935000Y-69214561D01*
X130716534Y-68687138D01*
X130537141Y-68507745D01*
X137671861Y-68507745D01*
X137745995Y-68753864D01*
X138283223Y-68946965D01*
X138853454Y-68919778D01*
X139254005Y-68753864D01*
X139328139Y-68507745D01*
X138500000Y-67679605D01*
X137671861Y-68507745D01*
X130537141Y-68507745D01*
X130312862Y-68283466D01*
X130247701Y-68256475D01*
X130254005Y-68253864D01*
X130328139Y-68007745D01*
X129500000Y-67179605D01*
X128671861Y-68007745D01*
X128745995Y-68253864D01*
X128752746Y-68256290D01*
X128687138Y-68283466D01*
X128283466Y-68687138D01*
X128240200Y-68791591D01*
X128240200Y-67739674D01*
X128246136Y-67754005D01*
X128492255Y-67828139D01*
X129320395Y-67000000D01*
X129306253Y-66985858D01*
X129485858Y-66806252D01*
X129500000Y-66820395D01*
X129514143Y-66806253D01*
X129693748Y-66985858D01*
X129679605Y-67000000D01*
X130507745Y-67828139D01*
X130753864Y-67754005D01*
X130946965Y-67216777D01*
X130919778Y-66646546D01*
X130905758Y-66612700D01*
X137433092Y-66612700D01*
X137492253Y-66671861D01*
X137492253Y-66671861D01*
G37*
X137492253Y-66671861D02*
X137246136Y-66745995D01*
X137053035Y-67283223D01*
X137080222Y-67853454D01*
X137246136Y-68254005D01*
X137492255Y-68328139D01*
X138320395Y-67500000D01*
X138306252Y-67485858D01*
X138485858Y-67306252D01*
X138500000Y-67320395D01*
X138514142Y-67306252D01*
X138693748Y-67485858D01*
X138679605Y-67500000D01*
X139507745Y-68328139D01*
X139753864Y-68254005D01*
X139756290Y-68247254D01*
X139783466Y-68312862D01*
X140187138Y-68716534D01*
X140714561Y-68935000D01*
X141285439Y-68935000D01*
X141812862Y-68716534D01*
X142094396Y-68435000D01*
X147657211Y-68435000D01*
X150109500Y-70887289D01*
X150109501Y-73740442D01*
X150107037Y-73738796D01*
X149885352Y-73694700D01*
X149885347Y-73694700D01*
X149810500Y-73679812D01*
X149735653Y-73694700D01*
X146788403Y-73694700D01*
X146851740Y-73599909D01*
X146963113Y-73040000D01*
X146851740Y-72480091D01*
X146534577Y-72005423D01*
X146428082Y-71934265D01*
X146659698Y-71838327D01*
X146838327Y-71659699D01*
X146935000Y-71426310D01*
X146935000Y-70785750D01*
X146776250Y-70627000D01*
X145627000Y-70627000D01*
X145627000Y-70647000D01*
X145373000Y-70647000D01*
X145373000Y-70627000D01*
X144223750Y-70627000D01*
X144065000Y-70785750D01*
X144065000Y-71426310D01*
X144161673Y-71659699D01*
X144340302Y-71838327D01*
X144571918Y-71934265D01*
X144465423Y-72005423D01*
X144148260Y-72480091D01*
X144036887Y-73040000D01*
X144148260Y-73599909D01*
X144211597Y-73694700D01*
X143445448Y-73694700D01*
X143370600Y-73679812D01*
X143295752Y-73694700D01*
X143295748Y-73694700D01*
X143074063Y-73738796D01*
X142822671Y-73906771D01*
X142780271Y-73970227D01*
X142174804Y-74575695D01*
X142154577Y-74545423D01*
X141802242Y-74310000D01*
X142154577Y-74074577D01*
X142471740Y-73599909D01*
X142583113Y-73040000D01*
X142471740Y-72480091D01*
X142154577Y-72005423D01*
X141802242Y-71770000D01*
X142154577Y-71534577D01*
X142471740Y-71059909D01*
X142583113Y-70500000D01*
X142471740Y-69940091D01*
X142226919Y-69573690D01*
X144065000Y-69573690D01*
X144065000Y-70214250D01*
X144223750Y-70373000D01*
X145373000Y-70373000D01*
X145373000Y-69223750D01*
X145627000Y-69223750D01*
X145627000Y-70373000D01*
X146776250Y-70373000D01*
X146935000Y-70214250D01*
X146935000Y-69573690D01*
X146838327Y-69340301D01*
X146659698Y-69161673D01*
X146426309Y-69065000D01*
X145785750Y-69065000D01*
X145627000Y-69223750D01*
X145373000Y-69223750D01*
X145214250Y-69065000D01*
X144573691Y-69065000D01*
X144340302Y-69161673D01*
X144161673Y-69340301D01*
X144065000Y-69573690D01*
X142226919Y-69573690D01*
X142154577Y-69465423D01*
X141679909Y-69148260D01*
X141261333Y-69065000D01*
X140978667Y-69065000D01*
X140560091Y-69148260D01*
X140085423Y-69465423D01*
X139768260Y-69940091D01*
X139656887Y-70500000D01*
X139768260Y-71059909D01*
X140085423Y-71534577D01*
X140437758Y-71770000D01*
X140085423Y-72005423D01*
X139768260Y-72480091D01*
X139656887Y-73040000D01*
X139768260Y-73599909D01*
X140085423Y-74074577D01*
X140437758Y-74310000D01*
X140085423Y-74545423D01*
X139768260Y-75020091D01*
X139656887Y-75580000D01*
X139729550Y-75945300D01*
X136065402Y-75945300D01*
X135215631Y-75095530D01*
X135173229Y-75032071D01*
X134921837Y-74864096D01*
X134720786Y-74824104D01*
X134534577Y-74545423D01*
X134182242Y-74310000D01*
X134534577Y-74074577D01*
X134851740Y-73599909D01*
X134963113Y-73040000D01*
X134851740Y-72480091D01*
X134534577Y-72005423D01*
X134428082Y-71934265D01*
X134659698Y-71838327D01*
X134838327Y-71659699D01*
X134935000Y-71426310D01*
X134935000Y-70785750D01*
X134776250Y-70627000D01*
X133627000Y-70627000D01*
X133627000Y-70647000D01*
X133373000Y-70647000D01*
X133373000Y-70627000D01*
X132223750Y-70627000D01*
X132065000Y-70785750D01*
X132065000Y-71426310D01*
X132161673Y-71659699D01*
X132340302Y-71838327D01*
X132571918Y-71934265D01*
X132465423Y-72005423D01*
X132148260Y-72480091D01*
X132036887Y-73040000D01*
X132148260Y-73599909D01*
X132465423Y-74074577D01*
X132817758Y-74310000D01*
X132465423Y-74545423D01*
X132148260Y-75020091D01*
X132036887Y-75580000D01*
X132148260Y-76139909D01*
X132465423Y-76614577D01*
X132817758Y-76850000D01*
X132465423Y-77085423D01*
X132148260Y-77560091D01*
X132036887Y-78120000D01*
X132148260Y-78679909D01*
X132465423Y-79154577D01*
X132817758Y-79390000D01*
X132465423Y-79625423D01*
X132281957Y-79900000D01*
X130387547Y-79900000D01*
X130435000Y-79785439D01*
X130435000Y-79214561D01*
X130216534Y-78687138D01*
X129812862Y-78283466D01*
X129285439Y-78065000D01*
X128714561Y-78065000D01*
X128661698Y-78086897D01*
X126600331Y-76025530D01*
X126557929Y-75962071D01*
X126306537Y-75794096D01*
X126084852Y-75750000D01*
X126084847Y-75750000D01*
X126010000Y-75735112D01*
X125935153Y-75750000D01*
X122566239Y-75750000D01*
X122583231Y-75724570D01*
X123737226Y-74570575D01*
X123825853Y-74784540D01*
X124215460Y-75174147D01*
X124724506Y-75385000D01*
X125275494Y-75385000D01*
X125784540Y-75174147D01*
X126174147Y-74784540D01*
X126184312Y-74760000D01*
X128065000Y-74760000D01*
X128065000Y-74785439D01*
X128283466Y-75312862D01*
X128687138Y-75716534D01*
X129214561Y-75935000D01*
X129785439Y-75935000D01*
X130312862Y-75716534D01*
X130716534Y-75312862D01*
X130935000Y-74785439D01*
X130935000Y-74214561D01*
X130716534Y-73687138D01*
X130312862Y-73283466D01*
X130247701Y-73256475D01*
X130254005Y-73253864D01*
X130328139Y-73007745D01*
X129500000Y-72179605D01*
X128671861Y-73007745D01*
X128741819Y-73240000D01*
X126184312Y-73240000D01*
X126174147Y-73215460D01*
X125784540Y-72825853D01*
X125570576Y-72737226D01*
X125665548Y-72642254D01*
X125735600Y-72656188D01*
X125810447Y-72641300D01*
X125810452Y-72641300D01*
X126032137Y-72597204D01*
X126283529Y-72429229D01*
X126325931Y-72365770D01*
X126908478Y-71783223D01*
X128053035Y-71783223D01*
X128080222Y-72353454D01*
X128246136Y-72754005D01*
X128492255Y-72828139D01*
X129320395Y-72000000D01*
X129679605Y-72000000D01*
X130507745Y-72828139D01*
X130753864Y-72754005D01*
X130946965Y-72216777D01*
X130919778Y-71646546D01*
X130753864Y-71245995D01*
X130507745Y-71171861D01*
X129679605Y-72000000D01*
X129320395Y-72000000D01*
X128492255Y-71171861D01*
X128246136Y-71245995D01*
X128053035Y-71783223D01*
X126908478Y-71783223D01*
X127964673Y-70727029D01*
X128028129Y-70684629D01*
X128196104Y-70433237D01*
X128240200Y-70211552D01*
X128240200Y-70211547D01*
X128240622Y-70209427D01*
X128283466Y-70312862D01*
X128687138Y-70716534D01*
X128752299Y-70743525D01*
X128745995Y-70746136D01*
X128671861Y-70992255D01*
X129500000Y-71820395D01*
X130328139Y-70992255D01*
X130254005Y-70746136D01*
X130247254Y-70743710D01*
X130312862Y-70716534D01*
X130716534Y-70312862D01*
X130935000Y-69785439D01*
X130935000Y-69573690D01*
X132065000Y-69573690D01*
X132065000Y-70214250D01*
X132223750Y-70373000D01*
X133373000Y-70373000D01*
X133373000Y-69223750D01*
X133627000Y-69223750D01*
X133627000Y-70373000D01*
X134776250Y-70373000D01*
X134935000Y-70214250D01*
X134935000Y-69573690D01*
X134838327Y-69340301D01*
X134659698Y-69161673D01*
X134426309Y-69065000D01*
X133785750Y-69065000D01*
X133627000Y-69223750D01*
X133373000Y-69223750D01*
X133214250Y-69065000D01*
X132573691Y-69065000D01*
X132340302Y-69161673D01*
X132161673Y-69340301D01*
X132065000Y-69573690D01*
X130935000Y-69573690D01*
X130935000Y-69214561D01*
X130716534Y-68687138D01*
X130537141Y-68507745D01*
X137671861Y-68507745D01*
X137745995Y-68753864D01*
X138283223Y-68946965D01*
X138853454Y-68919778D01*
X139254005Y-68753864D01*
X139328139Y-68507745D01*
X138500000Y-67679605D01*
X137671861Y-68507745D01*
X130537141Y-68507745D01*
X130312862Y-68283466D01*
X130247701Y-68256475D01*
X130254005Y-68253864D01*
X130328139Y-68007745D01*
X129500000Y-67179605D01*
X128671861Y-68007745D01*
X128745995Y-68253864D01*
X128752746Y-68256290D01*
X128687138Y-68283466D01*
X128283466Y-68687138D01*
X128240200Y-68791591D01*
X128240200Y-67739674D01*
X128246136Y-67754005D01*
X128492255Y-67828139D01*
X129320395Y-67000000D01*
X129306253Y-66985858D01*
X129485858Y-66806252D01*
X129500000Y-66820395D01*
X129514143Y-66806253D01*
X129693748Y-66985858D01*
X129679605Y-67000000D01*
X130507745Y-67828139D01*
X130753864Y-67754005D01*
X130946965Y-67216777D01*
X130919778Y-66646546D01*
X130905758Y-66612700D01*
X137433092Y-66612700D01*
X137492253Y-66671861D01*
G36*
X162053035Y-75783223D02*
X162080222Y-76353454D01*
X162246136Y-76754005D01*
X162492255Y-76828139D01*
X163320395Y-76000000D01*
X163306253Y-75985858D01*
X163485858Y-75806253D01*
X163500000Y-75820395D01*
X163514143Y-75806253D01*
X163693748Y-75985858D01*
X163679605Y-76000000D01*
X164507745Y-76828139D01*
X164753864Y-76754005D01*
X164756290Y-76747254D01*
X164783466Y-76812862D01*
X165187138Y-77216534D01*
X165714561Y-77435000D01*
X166285439Y-77435000D01*
X166812862Y-77216534D01*
X167216534Y-76812862D01*
X167435000Y-76285439D01*
X167435000Y-75714561D01*
X167397323Y-75623600D01*
X169893499Y-75623600D01*
X170299371Y-76029473D01*
X170341771Y-76092929D01*
X170593163Y-76260904D01*
X170794214Y-76300896D01*
X170980423Y-76579577D01*
X171332758Y-76815000D01*
X170980423Y-77050423D01*
X170794214Y-77329104D01*
X170593163Y-77369096D01*
X170540782Y-77404096D01*
X170405226Y-77494671D01*
X170405224Y-77494673D01*
X170341771Y-77537071D01*
X170299373Y-77600524D01*
X169414499Y-78485400D01*
X158158468Y-78485400D01*
X158238113Y-78085000D01*
X158143629Y-77610000D01*
X158809953Y-77610000D01*
X158884800Y-77624888D01*
X158959647Y-77610000D01*
X158959652Y-77610000D01*
X159181337Y-77565904D01*
X159432729Y-77397929D01*
X159475131Y-77334470D01*
X159801856Y-77007745D01*
X162671861Y-77007745D01*
X162745995Y-77253864D01*
X163283223Y-77446965D01*
X163853454Y-77419778D01*
X164254005Y-77253864D01*
X164328139Y-77007745D01*
X163500000Y-76179605D01*
X162671861Y-77007745D01*
X159801856Y-77007745D01*
X161186002Y-75623600D01*
X162110410Y-75623600D01*
X162053035Y-75783223D01*
X162053035Y-75783223D01*
G37*
X162053035Y-75783223D02*
X162080222Y-76353454D01*
X162246136Y-76754005D01*
X162492255Y-76828139D01*
X163320395Y-76000000D01*
X163306253Y-75985858D01*
X163485858Y-75806253D01*
X163500000Y-75820395D01*
X163514143Y-75806253D01*
X163693748Y-75985858D01*
X163679605Y-76000000D01*
X164507745Y-76828139D01*
X164753864Y-76754005D01*
X164756290Y-76747254D01*
X164783466Y-76812862D01*
X165187138Y-77216534D01*
X165714561Y-77435000D01*
X166285439Y-77435000D01*
X166812862Y-77216534D01*
X167216534Y-76812862D01*
X167435000Y-76285439D01*
X167435000Y-75714561D01*
X167397323Y-75623600D01*
X169893499Y-75623600D01*
X170299371Y-76029473D01*
X170341771Y-76092929D01*
X170593163Y-76260904D01*
X170794214Y-76300896D01*
X170980423Y-76579577D01*
X171332758Y-76815000D01*
X170980423Y-77050423D01*
X170794214Y-77329104D01*
X170593163Y-77369096D01*
X170540782Y-77404096D01*
X170405226Y-77494671D01*
X170405224Y-77494673D01*
X170341771Y-77537071D01*
X170299373Y-77600524D01*
X169414499Y-78485400D01*
X158158468Y-78485400D01*
X158238113Y-78085000D01*
X158143629Y-77610000D01*
X158809953Y-77610000D01*
X158884800Y-77624888D01*
X158959647Y-77610000D01*
X158959652Y-77610000D01*
X159181337Y-77565904D01*
X159432729Y-77397929D01*
X159475131Y-77334470D01*
X159801856Y-77007745D01*
X162671861Y-77007745D01*
X162745995Y-77253864D01*
X163283223Y-77446965D01*
X163853454Y-77419778D01*
X164254005Y-77253864D01*
X164328139Y-77007745D01*
X163500000Y-76179605D01*
X162671861Y-77007745D01*
X159801856Y-77007745D01*
X161186002Y-75623600D01*
X162110410Y-75623600D01*
X162053035Y-75783223D01*
G36*
X116553035Y-59283223D02*
X116580222Y-59853454D01*
X116746136Y-60254005D01*
X116992255Y-60328139D01*
X117820395Y-59500000D01*
X117806252Y-59485858D01*
X117985858Y-59306253D01*
X118000000Y-59320395D01*
X118014143Y-59306253D01*
X118193748Y-59485858D01*
X118179605Y-59500000D01*
X119007745Y-60328139D01*
X119253864Y-60254005D01*
X119446965Y-59716777D01*
X119419778Y-59146546D01*
X119390888Y-59076800D01*
X125669000Y-59076800D01*
X125529817Y-59203642D01*
X125283514Y-59728108D01*
X125404181Y-59958000D01*
X126598000Y-59958000D01*
X126598000Y-59938000D01*
X126852000Y-59938000D01*
X126852000Y-59958000D01*
X129138000Y-59958000D01*
X129138000Y-59938000D01*
X129392000Y-59938000D01*
X129392000Y-59958000D01*
X129412000Y-59958000D01*
X129412000Y-60212000D01*
X129392000Y-60212000D01*
X129392000Y-60232000D01*
X129138000Y-60232000D01*
X129138000Y-60212000D01*
X126852000Y-60212000D01*
X126852000Y-60232000D01*
X126598000Y-60232000D01*
X126598000Y-60212000D01*
X125404181Y-60212000D01*
X125283514Y-60441892D01*
X125529817Y-60966358D01*
X125736855Y-61155039D01*
X125627235Y-61176843D01*
X125417191Y-61317191D01*
X125415206Y-61320162D01*
X125114519Y-61119250D01*
X124841786Y-61065000D01*
X124749700Y-61046683D01*
X124657614Y-61065000D01*
X119420587Y-61065000D01*
X119398157Y-60952235D01*
X119257809Y-60742191D01*
X119047765Y-60601843D01*
X118813813Y-60555307D01*
X118828139Y-60507745D01*
X118000000Y-59679605D01*
X117171861Y-60507745D01*
X117186187Y-60555307D01*
X116952235Y-60601843D01*
X116742191Y-60742191D01*
X116601843Y-60952235D01*
X116552560Y-61200000D01*
X116552560Y-62800000D01*
X116601843Y-63047765D01*
X116742191Y-63257809D01*
X116952235Y-63398157D01*
X117200000Y-63447440D01*
X118800000Y-63447440D01*
X119047765Y-63398157D01*
X119257809Y-63257809D01*
X119398157Y-63047765D01*
X119420587Y-62935000D01*
X124362411Y-62935000D01*
X124467710Y-63040300D01*
X120875346Y-63040300D01*
X120800499Y-63025412D01*
X120725652Y-63040300D01*
X120725648Y-63040300D01*
X120503963Y-63084396D01*
X120503961Y-63084397D01*
X120503962Y-63084397D01*
X120316026Y-63209971D01*
X120316024Y-63209973D01*
X120252571Y-63252371D01*
X120210173Y-63315824D01*
X116634399Y-66891600D01*
X116468326Y-66891600D01*
X116087920Y-67049169D01*
X115796769Y-67340320D01*
X115639200Y-67720726D01*
X115639200Y-68132474D01*
X115796769Y-68512880D01*
X116087920Y-68804031D01*
X116468326Y-68961600D01*
X116880074Y-68961600D01*
X117260480Y-68804031D01*
X117551631Y-68512880D01*
X117709200Y-68132474D01*
X117709200Y-67966401D01*
X118749248Y-66926354D01*
X119055423Y-67384577D01*
X119407758Y-67620000D01*
X119055423Y-67855423D01*
X118738260Y-68330091D01*
X118626887Y-68890000D01*
X118738260Y-69449909D01*
X118794114Y-69533500D01*
X118074211Y-69533500D01*
X117956780Y-69416069D01*
X117576374Y-69258500D01*
X117164626Y-69258500D01*
X116784220Y-69416069D01*
X116493069Y-69707220D01*
X116335500Y-70087626D01*
X116335500Y-70499374D01*
X116493069Y-70879780D01*
X116784220Y-71170931D01*
X117164626Y-71328500D01*
X117576374Y-71328500D01*
X117956780Y-71170931D01*
X118074211Y-71053500D01*
X118701778Y-71053500D01*
X118626887Y-71430000D01*
X118738260Y-71989909D01*
X118801530Y-72084600D01*
X109715546Y-72084600D01*
X109640699Y-72069712D01*
X109565852Y-72084600D01*
X109565848Y-72084600D01*
X109344163Y-72128696D01*
X109316913Y-72146904D01*
X109156226Y-72254271D01*
X109156224Y-72254273D01*
X109092771Y-72296671D01*
X109050373Y-72360124D01*
X105904804Y-75505695D01*
X105884577Y-75475423D01*
X105588614Y-75277667D01*
X105605896Y-75190786D01*
X105884577Y-75004577D01*
X106201740Y-74529909D01*
X106313113Y-73970000D01*
X106201740Y-73410091D01*
X105884577Y-72935423D01*
X105588614Y-72737667D01*
X105605896Y-72650786D01*
X105884577Y-72464577D01*
X106201740Y-71989909D01*
X106313113Y-71430000D01*
X106201740Y-70870091D01*
X105884577Y-70395423D01*
X105532242Y-70160000D01*
X105884577Y-69924577D01*
X106201740Y-69449909D01*
X106313113Y-68890000D01*
X106201740Y-68330091D01*
X105884577Y-67855423D01*
X105763894Y-67774785D01*
X105897765Y-67748157D01*
X106107809Y-67607809D01*
X106248157Y-67397765D01*
X106297440Y-67150000D01*
X106297440Y-65550000D01*
X106248157Y-65302235D01*
X106107809Y-65092191D01*
X105897765Y-64951843D01*
X105650000Y-64902560D01*
X105295141Y-64902560D01*
X111120902Y-59076800D01*
X116627232Y-59076800D01*
X116553035Y-59283223D01*
X116553035Y-59283223D01*
G37*
X116553035Y-59283223D02*
X116580222Y-59853454D01*
X116746136Y-60254005D01*
X116992255Y-60328139D01*
X117820395Y-59500000D01*
X117806252Y-59485858D01*
X117985858Y-59306253D01*
X118000000Y-59320395D01*
X118014143Y-59306253D01*
X118193748Y-59485858D01*
X118179605Y-59500000D01*
X119007745Y-60328139D01*
X119253864Y-60254005D01*
X119446965Y-59716777D01*
X119419778Y-59146546D01*
X119390888Y-59076800D01*
X125669000Y-59076800D01*
X125529817Y-59203642D01*
X125283514Y-59728108D01*
X125404181Y-59958000D01*
X126598000Y-59958000D01*
X126598000Y-59938000D01*
X126852000Y-59938000D01*
X126852000Y-59958000D01*
X129138000Y-59958000D01*
X129138000Y-59938000D01*
X129392000Y-59938000D01*
X129392000Y-59958000D01*
X129412000Y-59958000D01*
X129412000Y-60212000D01*
X129392000Y-60212000D01*
X129392000Y-60232000D01*
X129138000Y-60232000D01*
X129138000Y-60212000D01*
X126852000Y-60212000D01*
X126852000Y-60232000D01*
X126598000Y-60232000D01*
X126598000Y-60212000D01*
X125404181Y-60212000D01*
X125283514Y-60441892D01*
X125529817Y-60966358D01*
X125736855Y-61155039D01*
X125627235Y-61176843D01*
X125417191Y-61317191D01*
X125415206Y-61320162D01*
X125114519Y-61119250D01*
X124841786Y-61065000D01*
X124749700Y-61046683D01*
X124657614Y-61065000D01*
X119420587Y-61065000D01*
X119398157Y-60952235D01*
X119257809Y-60742191D01*
X119047765Y-60601843D01*
X118813813Y-60555307D01*
X118828139Y-60507745D01*
X118000000Y-59679605D01*
X117171861Y-60507745D01*
X117186187Y-60555307D01*
X116952235Y-60601843D01*
X116742191Y-60742191D01*
X116601843Y-60952235D01*
X116552560Y-61200000D01*
X116552560Y-62800000D01*
X116601843Y-63047765D01*
X116742191Y-63257809D01*
X116952235Y-63398157D01*
X117200000Y-63447440D01*
X118800000Y-63447440D01*
X119047765Y-63398157D01*
X119257809Y-63257809D01*
X119398157Y-63047765D01*
X119420587Y-62935000D01*
X124362411Y-62935000D01*
X124467710Y-63040300D01*
X120875346Y-63040300D01*
X120800499Y-63025412D01*
X120725652Y-63040300D01*
X120725648Y-63040300D01*
X120503963Y-63084396D01*
X120503961Y-63084397D01*
X120503962Y-63084397D01*
X120316026Y-63209971D01*
X120316024Y-63209973D01*
X120252571Y-63252371D01*
X120210173Y-63315824D01*
X116634399Y-66891600D01*
X116468326Y-66891600D01*
X116087920Y-67049169D01*
X115796769Y-67340320D01*
X115639200Y-67720726D01*
X115639200Y-68132474D01*
X115796769Y-68512880D01*
X116087920Y-68804031D01*
X116468326Y-68961600D01*
X116880074Y-68961600D01*
X117260480Y-68804031D01*
X117551631Y-68512880D01*
X117709200Y-68132474D01*
X117709200Y-67966401D01*
X118749248Y-66926354D01*
X119055423Y-67384577D01*
X119407758Y-67620000D01*
X119055423Y-67855423D01*
X118738260Y-68330091D01*
X118626887Y-68890000D01*
X118738260Y-69449909D01*
X118794114Y-69533500D01*
X118074211Y-69533500D01*
X117956780Y-69416069D01*
X117576374Y-69258500D01*
X117164626Y-69258500D01*
X116784220Y-69416069D01*
X116493069Y-69707220D01*
X116335500Y-70087626D01*
X116335500Y-70499374D01*
X116493069Y-70879780D01*
X116784220Y-71170931D01*
X117164626Y-71328500D01*
X117576374Y-71328500D01*
X117956780Y-71170931D01*
X118074211Y-71053500D01*
X118701778Y-71053500D01*
X118626887Y-71430000D01*
X118738260Y-71989909D01*
X118801530Y-72084600D01*
X109715546Y-72084600D01*
X109640699Y-72069712D01*
X109565852Y-72084600D01*
X109565848Y-72084600D01*
X109344163Y-72128696D01*
X109316913Y-72146904D01*
X109156226Y-72254271D01*
X109156224Y-72254273D01*
X109092771Y-72296671D01*
X109050373Y-72360124D01*
X105904804Y-75505695D01*
X105884577Y-75475423D01*
X105588614Y-75277667D01*
X105605896Y-75190786D01*
X105884577Y-75004577D01*
X106201740Y-74529909D01*
X106313113Y-73970000D01*
X106201740Y-73410091D01*
X105884577Y-72935423D01*
X105588614Y-72737667D01*
X105605896Y-72650786D01*
X105884577Y-72464577D01*
X106201740Y-71989909D01*
X106313113Y-71430000D01*
X106201740Y-70870091D01*
X105884577Y-70395423D01*
X105532242Y-70160000D01*
X105884577Y-69924577D01*
X106201740Y-69449909D01*
X106313113Y-68890000D01*
X106201740Y-68330091D01*
X105884577Y-67855423D01*
X105763894Y-67774785D01*
X105897765Y-67748157D01*
X106107809Y-67607809D01*
X106248157Y-67397765D01*
X106297440Y-67150000D01*
X106297440Y-65550000D01*
X106248157Y-65302235D01*
X106107809Y-65092191D01*
X105897765Y-64951843D01*
X105650000Y-64902560D01*
X105295141Y-64902560D01*
X111120902Y-59076800D01*
X116627232Y-59076800D01*
X116553035Y-59283223D01*
G36*
X151193748Y-67485858D02*
X151179605Y-67500000D01*
X152007745Y-68328139D01*
X152253864Y-68254005D01*
X152256290Y-68247254D01*
X152283466Y-68312862D01*
X152687138Y-68716534D01*
X153214561Y-68935000D01*
X153785439Y-68935000D01*
X154312862Y-68716534D01*
X154716534Y-68312862D01*
X154935000Y-67785439D01*
X154935000Y-67559700D01*
X155327560Y-67559700D01*
X155327560Y-68725000D01*
X155376843Y-68972765D01*
X155517191Y-69182809D01*
X155727235Y-69323157D01*
X155861106Y-69349785D01*
X155740423Y-69430423D01*
X155423260Y-69905091D01*
X155311887Y-70465000D01*
X155423260Y-71024909D01*
X155740423Y-71499577D01*
X156092758Y-71735000D01*
X155740423Y-71970423D01*
X155554214Y-72249104D01*
X155353163Y-72289096D01*
X155341825Y-72296672D01*
X155165226Y-72414671D01*
X155165224Y-72414673D01*
X155101771Y-72457071D01*
X155059373Y-72520524D01*
X154575943Y-73003955D01*
X154471740Y-72480091D01*
X154154577Y-72005423D01*
X153802242Y-71770000D01*
X154154577Y-71534577D01*
X154471740Y-71059909D01*
X154583113Y-70500000D01*
X154471740Y-69940091D01*
X154154577Y-69465423D01*
X153679909Y-69148260D01*
X153261333Y-69065000D01*
X152978667Y-69065000D01*
X152560091Y-69148260D01*
X152085423Y-69465423D01*
X152018888Y-69565000D01*
X151431789Y-69565000D01*
X150812365Y-68945576D01*
X151353454Y-68919778D01*
X151754005Y-68753864D01*
X151828139Y-68507745D01*
X151000000Y-67679605D01*
X150985858Y-67693748D01*
X150806253Y-67514143D01*
X150820395Y-67500000D01*
X150806252Y-67485858D01*
X150985858Y-67306252D01*
X151000000Y-67320395D01*
X151014142Y-67306252D01*
X151193748Y-67485858D01*
X151193748Y-67485858D01*
G37*
X151193748Y-67485858D02*
X151179605Y-67500000D01*
X152007745Y-68328139D01*
X152253864Y-68254005D01*
X152256290Y-68247254D01*
X152283466Y-68312862D01*
X152687138Y-68716534D01*
X153214561Y-68935000D01*
X153785439Y-68935000D01*
X154312862Y-68716534D01*
X154716534Y-68312862D01*
X154935000Y-67785439D01*
X154935000Y-67559700D01*
X155327560Y-67559700D01*
X155327560Y-68725000D01*
X155376843Y-68972765D01*
X155517191Y-69182809D01*
X155727235Y-69323157D01*
X155861106Y-69349785D01*
X155740423Y-69430423D01*
X155423260Y-69905091D01*
X155311887Y-70465000D01*
X155423260Y-71024909D01*
X155740423Y-71499577D01*
X156092758Y-71735000D01*
X155740423Y-71970423D01*
X155554214Y-72249104D01*
X155353163Y-72289096D01*
X155341825Y-72296672D01*
X155165226Y-72414671D01*
X155165224Y-72414673D01*
X155101771Y-72457071D01*
X155059373Y-72520524D01*
X154575943Y-73003955D01*
X154471740Y-72480091D01*
X154154577Y-72005423D01*
X153802242Y-71770000D01*
X154154577Y-71534577D01*
X154471740Y-71059909D01*
X154583113Y-70500000D01*
X154471740Y-69940091D01*
X154154577Y-69465423D01*
X153679909Y-69148260D01*
X153261333Y-69065000D01*
X152978667Y-69065000D01*
X152560091Y-69148260D01*
X152085423Y-69465423D01*
X152018888Y-69565000D01*
X151431789Y-69565000D01*
X150812365Y-68945576D01*
X151353454Y-68919778D01*
X151754005Y-68753864D01*
X151828139Y-68507745D01*
X151000000Y-67679605D01*
X150985858Y-67693748D01*
X150806253Y-67514143D01*
X150820395Y-67500000D01*
X150806252Y-67485858D01*
X150985858Y-67306252D01*
X151000000Y-67320395D01*
X151014142Y-67306252D01*
X151193748Y-67485858D01*
G04 #@! TD*
M02*
