G04 #@! TF.GenerationSoftware,KiCad,Pcbnew,(5.0.0-3-g5ebb6b6)*
G04 #@! TF.CreationDate,2019-09-02T20:41:48+09:00*
G04 #@! TF.ProjectId,KZ80-TMS9918A,4B5A38302D544D5339393138412E6B69,rev?*
G04 #@! TF.SameCoordinates,Original*
G04 #@! TF.FileFunction,Copper,L2,Bot,Signal*
G04 #@! TF.FilePolarity,Positive*
%FSLAX46Y46*%
G04 Gerber Fmt 4.6, Leading zero omitted, Abs format (unit mm)*
G04 Created by KiCad (PCBNEW (5.0.0-3-g5ebb6b6)) date *
%MOMM*%
%LPD*%
G01*
G04 APERTURE LIST*
G04 #@! TA.AperFunction,ComponentPad*
%ADD10R,1.700000X1.700000*%
G04 #@! TD*
G04 #@! TA.AperFunction,ComponentPad*
%ADD11O,1.700000X1.700000*%
G04 #@! TD*
G04 #@! TA.AperFunction,ComponentPad*
%ADD12R,1.600000X1.600000*%
G04 #@! TD*
G04 #@! TA.AperFunction,ComponentPad*
%ADD13C,1.600000*%
G04 #@! TD*
G04 #@! TA.AperFunction,ComponentPad*
%ADD14O,3.500000X2.300000*%
G04 #@! TD*
G04 #@! TA.AperFunction,ComponentPad*
%ADD15O,2.300000X3.500000*%
G04 #@! TD*
G04 #@! TA.AperFunction,ComponentPad*
%ADD16O,1.600000X1.600000*%
G04 #@! TD*
G04 #@! TA.AperFunction,ComponentPad*
%ADD17C,1.500000*%
G04 #@! TD*
G04 #@! TA.AperFunction,ComponentPad*
%ADD18R,1.500000X1.500000*%
G04 #@! TD*
G04 #@! TA.AperFunction,ViaPad*
%ADD19C,0.800000*%
G04 #@! TD*
G04 #@! TA.AperFunction,Conductor*
%ADD20C,0.250000*%
G04 #@! TD*
G04 #@! TA.AperFunction,Conductor*
%ADD21C,0.600000*%
G04 #@! TD*
G04 #@! TA.AperFunction,Conductor*
%ADD22C,0.254000*%
G04 #@! TD*
G04 APERTURE END LIST*
D10*
G04 #@! TO.P,JP2,1*
G04 #@! TO.N,/INT*
X181500000Y-68000000D03*
D11*
G04 #@! TO.P,JP2,2*
G04 #@! TO.N,Net-(JP2-Pad2)*
X178960000Y-68000000D03*
G04 #@! TO.P,JP2,3*
G04 #@! TO.N,/INT80*
X176420000Y-68000000D03*
G04 #@! TD*
D12*
G04 #@! TO.P,C3,1*
G04 #@! TO.N,Net-(C14-Pad1)*
X139000000Y-97500000D03*
D13*
G04 #@! TO.P,C3,2*
G04 #@! TO.N,GND*
X139000000Y-100000000D03*
G04 #@! TD*
D12*
G04 #@! TO.P,C15,1*
G04 #@! TO.N,Net-(C15-Pad1)*
X138000000Y-106500000D03*
D13*
G04 #@! TO.P,C15,2*
G04 #@! TO.N,Net-(C15-Pad2)*
X141500000Y-106500000D03*
G04 #@! TD*
G04 #@! TO.P,C14,1*
G04 #@! TO.N,Net-(C14-Pad1)*
X127000000Y-107500000D03*
G04 #@! TO.P,C14,2*
G04 #@! TO.N,GND*
X129500000Y-107500000D03*
G04 #@! TD*
D14*
G04 #@! TO.P,J1,2*
G04 #@! TO.N,GND*
X128000000Y-117500000D03*
D15*
G04 #@! TO.P,J1,1*
G04 #@! TO.N,Net-(C15-Pad2)*
X128000000Y-113000000D03*
G04 #@! TD*
D16*
G04 #@! TO.P,R4,2*
G04 #@! TO.N,Net-(C15-Pad2)*
X141000000Y-112340000D03*
D13*
G04 #@! TO.P,R4,1*
G04 #@! TO.N,Net-(C14-Pad1)*
X141000000Y-122500000D03*
G04 #@! TD*
G04 #@! TO.P,R5,1*
G04 #@! TO.N,Net-(C15-Pad2)*
X136500000Y-112500000D03*
D16*
G04 #@! TO.P,R5,2*
G04 #@! TO.N,GND*
X136500000Y-122660000D03*
G04 #@! TD*
D12*
G04 #@! TO.P,C13,1*
G04 #@! TO.N,VCC*
X118000000Y-62000000D03*
D13*
G04 #@! TO.P,C13,2*
G04 #@! TO.N,GND*
X118000000Y-59500000D03*
G04 #@! TD*
G04 #@! TO.P,C1,2*
G04 #@! TO.N,GND*
X129500000Y-72000000D03*
G04 #@! TO.P,C1,1*
G04 #@! TO.N,Net-(C1-Pad1)*
X129500000Y-74500000D03*
G04 #@! TD*
G04 #@! TO.P,C2,1*
G04 #@! TO.N,Net-(C2-Pad1)*
X129500000Y-69500000D03*
G04 #@! TO.P,C2,2*
G04 #@! TO.N,GND*
X129500000Y-67000000D03*
G04 #@! TD*
G04 #@! TO.P,C4,1*
G04 #@! TO.N,VCC*
X113500000Y-94500000D03*
G04 #@! TO.P,C4,2*
G04 #@! TO.N,GND*
X111000000Y-94500000D03*
G04 #@! TD*
G04 #@! TO.P,C5,2*
G04 #@! TO.N,GND*
X138500000Y-67500000D03*
G04 #@! TO.P,C5,1*
G04 #@! TO.N,VCC*
X141000000Y-67500000D03*
G04 #@! TD*
G04 #@! TO.P,C6,1*
G04 #@! TO.N,VCC*
X153500000Y-67500000D03*
G04 #@! TO.P,C6,2*
G04 #@! TO.N,GND*
X151000000Y-67500000D03*
G04 #@! TD*
G04 #@! TO.P,C7,2*
G04 #@! TO.N,GND*
X163500000Y-76000000D03*
G04 #@! TO.P,C7,1*
G04 #@! TO.N,VCC*
X166000000Y-76000000D03*
G04 #@! TD*
G04 #@! TO.P,C8,1*
G04 #@! TO.N,VCC*
X184500000Y-74000000D03*
G04 #@! TO.P,C8,2*
G04 #@! TO.N,GND*
X182000000Y-74000000D03*
G04 #@! TD*
G04 #@! TO.P,C9,2*
G04 #@! TO.N,GND*
X182000000Y-95500000D03*
G04 #@! TO.P,C9,1*
G04 #@! TO.N,VCC*
X184500000Y-95500000D03*
G04 #@! TD*
G04 #@! TO.P,C10,1*
G04 #@! TO.N,VCC*
X196500000Y-76500000D03*
G04 #@! TO.P,C10,2*
G04 #@! TO.N,GND*
X194000000Y-76500000D03*
G04 #@! TD*
G04 #@! TO.P,C11,2*
G04 #@! TO.N,GND*
X151000000Y-96500000D03*
G04 #@! TO.P,C11,1*
G04 #@! TO.N,VCC*
X153500000Y-96500000D03*
G04 #@! TD*
G04 #@! TO.P,C12,1*
G04 #@! TO.N,VCC*
X196500000Y-97500000D03*
G04 #@! TO.P,C12,2*
G04 #@! TO.N,GND*
X194000000Y-97500000D03*
G04 #@! TD*
D10*
G04 #@! TO.P,JP1,1*
G04 #@! TO.N,/A7*
X162000000Y-105500000D03*
D11*
G04 #@! TO.P,JP1,2*
G04 #@! TO.N,Net-(JP1-Pad2)*
X164540000Y-105500000D03*
G04 #@! TO.P,JP1,3*
G04 #@! TO.N,Net-(JP1-Pad3)*
X167080000Y-105500000D03*
G04 #@! TD*
D10*
G04 #@! TO.P,J3,1*
G04 #@! TO.N,/CLK*
X190650000Y-60500000D03*
D11*
G04 #@! TO.P,J3,2*
G04 #@! TO.N,/CPUCLK*
X190650000Y-63040000D03*
G04 #@! TO.P,J3,3*
G04 #@! TO.N,/GROMCLK*
X190650000Y-65580000D03*
G04 #@! TO.P,J3,4*
G04 #@! TO.N,/EXTVDP*
X190650000Y-68120000D03*
G04 #@! TO.P,J3,5*
G04 #@! TO.N,/INT*
X190650000Y-70660000D03*
G04 #@! TO.P,J3,6*
G04 #@! TO.N,GND*
X190650000Y-73200000D03*
G04 #@! TD*
G04 #@! TO.P,J4,8*
G04 #@! TO.N,Net-(J4-Pad2)*
X170040000Y-118620000D03*
G04 #@! TO.P,J4,7*
G04 #@! TO.N,Net-(J4-Pad7)*
X167500000Y-118620000D03*
G04 #@! TO.P,J4,6*
G04 #@! TO.N,Net-(J4-Pad2)*
X170040000Y-116080000D03*
G04 #@! TO.P,J4,5*
G04 #@! TO.N,Net-(J4-Pad5)*
X167500000Y-116080000D03*
G04 #@! TO.P,J4,4*
G04 #@! TO.N,Net-(J4-Pad2)*
X170040000Y-113540000D03*
G04 #@! TO.P,J4,3*
G04 #@! TO.N,Net-(J4-Pad3)*
X167500000Y-113540000D03*
G04 #@! TO.P,J4,2*
G04 #@! TO.N,Net-(J4-Pad2)*
X170040000Y-111000000D03*
D10*
G04 #@! TO.P,J4,1*
G04 #@! TO.N,Net-(J4-Pad1)*
X167500000Y-111000000D03*
G04 #@! TD*
G04 #@! TO.P,J5,1*
G04 #@! TO.N,Net-(J5-Pad1)*
X160000000Y-111000000D03*
D11*
G04 #@! TO.P,J5,2*
G04 #@! TO.N,Net-(J5-Pad2)*
X162540000Y-111000000D03*
G04 #@! TO.P,J5,3*
G04 #@! TO.N,Net-(J5-Pad3)*
X160000000Y-113540000D03*
G04 #@! TO.P,J5,4*
G04 #@! TO.N,Net-(J5-Pad2)*
X162540000Y-113540000D03*
G04 #@! TO.P,J5,5*
G04 #@! TO.N,Net-(J5-Pad5)*
X160000000Y-116080000D03*
G04 #@! TO.P,J5,6*
G04 #@! TO.N,Net-(J5-Pad2)*
X162540000Y-116080000D03*
G04 #@! TO.P,J5,7*
G04 #@! TO.N,Net-(J5-Pad7)*
X160000000Y-118620000D03*
G04 #@! TO.P,J5,8*
G04 #@! TO.N,Net-(J5-Pad2)*
X162540000Y-118620000D03*
G04 #@! TD*
D10*
G04 #@! TO.P,J2,1*
G04 #@! TO.N,VCC*
X126725000Y-62625000D03*
D11*
G04 #@! TO.P,J2,2*
G04 #@! TO.N,GND*
X126725000Y-60085000D03*
G04 #@! TO.P,J2,3*
G04 #@! TO.N,VCC*
X129265000Y-62625000D03*
G04 #@! TO.P,J2,4*
G04 #@! TO.N,GND*
X129265000Y-60085000D03*
G04 #@! TO.P,J2,5*
G04 #@! TO.N,Net-(J2-Pad5)*
X131805000Y-62625000D03*
G04 #@! TO.P,J2,6*
G04 #@! TO.N,Net-(J2-Pad6)*
X131805000Y-60085000D03*
G04 #@! TO.P,J2,7*
G04 #@! TO.N,Net-(J2-Pad7)*
X134345000Y-62625000D03*
G04 #@! TO.P,J2,8*
G04 #@! TO.N,/CLK*
X134345000Y-60085000D03*
G04 #@! TO.P,J2,9*
G04 #@! TO.N,/D0*
X136885000Y-62625000D03*
G04 #@! TO.P,J2,10*
G04 #@! TO.N,/D1*
X136885000Y-60085000D03*
G04 #@! TO.P,J2,11*
G04 #@! TO.N,/D2*
X139425000Y-62625000D03*
G04 #@! TO.P,J2,12*
G04 #@! TO.N,/D3*
X139425000Y-60085000D03*
G04 #@! TO.P,J2,13*
G04 #@! TO.N,/D4*
X141965000Y-62625000D03*
G04 #@! TO.P,J2,14*
G04 #@! TO.N,/D5*
X141965000Y-60085000D03*
G04 #@! TO.P,J2,15*
G04 #@! TO.N,/D6*
X144505000Y-62625000D03*
G04 #@! TO.P,J2,16*
G04 #@! TO.N,/D7*
X144505000Y-60085000D03*
G04 #@! TO.P,J2,17*
G04 #@! TO.N,/~IOR*
X147045000Y-62625000D03*
G04 #@! TO.P,J2,18*
G04 #@! TO.N,Net-(J2-Pad18)*
X147045000Y-60085000D03*
G04 #@! TO.P,J2,19*
G04 #@! TO.N,/~IOW*
X149585000Y-62625000D03*
G04 #@! TO.P,J2,20*
G04 #@! TO.N,Net-(J2-Pad20)*
X149585000Y-60085000D03*
G04 #@! TO.P,J2,21*
G04 #@! TO.N,/RES*
X152125000Y-62625000D03*
G04 #@! TO.P,J2,22*
G04 #@! TO.N,Net-(J2-Pad22)*
X152125000Y-60085000D03*
G04 #@! TO.P,J2,23*
G04 #@! TO.N,/INT80*
X154665000Y-62625000D03*
G04 #@! TO.P,J2,24*
G04 #@! TO.N,Net-(J2-Pad24)*
X154665000Y-60085000D03*
G04 #@! TO.P,J2,25*
G04 #@! TO.N,/A0*
X157205000Y-62625000D03*
G04 #@! TO.P,J2,26*
G04 #@! TO.N,Net-(J2-Pad26)*
X157205000Y-60085000D03*
G04 #@! TO.P,J2,27*
G04 #@! TO.N,Net-(J2-Pad27)*
X159745000Y-62625000D03*
G04 #@! TO.P,J2,28*
G04 #@! TO.N,/A3*
X159745000Y-60085000D03*
G04 #@! TO.P,J2,29*
G04 #@! TO.N,/A4*
X162285000Y-62625000D03*
G04 #@! TO.P,J2,30*
G04 #@! TO.N,/A5*
X162285000Y-60085000D03*
G04 #@! TO.P,J2,31*
G04 #@! TO.N,/A6*
X164825000Y-62625000D03*
G04 #@! TO.P,J2,32*
G04 #@! TO.N,/A7*
X164825000Y-60085000D03*
G04 #@! TO.P,J2,33*
G04 #@! TO.N,Net-(J2-Pad33)*
X167365000Y-62625000D03*
G04 #@! TO.P,J2,34*
G04 #@! TO.N,Net-(J2-Pad34)*
X167365000Y-60085000D03*
G04 #@! TO.P,J2,35*
G04 #@! TO.N,Net-(J2-Pad35)*
X169905000Y-62625000D03*
G04 #@! TO.P,J2,36*
G04 #@! TO.N,Net-(J2-Pad36)*
X169905000Y-60085000D03*
G04 #@! TO.P,J2,37*
G04 #@! TO.N,Net-(J2-Pad37)*
X172445000Y-62625000D03*
G04 #@! TO.P,J2,38*
G04 #@! TO.N,Net-(J2-Pad38)*
X172445000Y-60085000D03*
G04 #@! TO.P,J2,39*
G04 #@! TO.N,Net-(J2-Pad39)*
X174985000Y-62625000D03*
G04 #@! TO.P,J2,40*
G04 #@! TO.N,Net-(J2-Pad40)*
X174985000Y-60085000D03*
G04 #@! TD*
D17*
G04 #@! TO.P,Y1,1*
G04 #@! TO.N,Net-(C1-Pad1)*
X125000000Y-74000000D03*
G04 #@! TO.P,Y1,2*
G04 #@! TO.N,Net-(C2-Pad1)*
X125000000Y-69120000D03*
G04 #@! TD*
D13*
G04 #@! TO.P,L1,1*
G04 #@! TO.N,VCC*
X123500000Y-100000000D03*
D16*
G04 #@! TO.P,L1,2*
G04 #@! TO.N,Net-(C14-Pad1)*
X133660000Y-100000000D03*
G04 #@! TD*
D12*
G04 #@! TO.P,U1,1*
G04 #@! TO.N,/R~W*
X188500000Y-79500000D03*
D16*
G04 #@! TO.P,U1,8*
G04 #@! TO.N,Net-(U1-Pad11)*
X196120000Y-94740000D03*
G04 #@! TO.P,U1,2*
G04 #@! TO.N,/~R~W*
X188500000Y-82040000D03*
G04 #@! TO.P,U1,9*
G04 #@! TO.N,Net-(U1-Pad6)*
X196120000Y-92200000D03*
G04 #@! TO.P,U1,3*
G04 #@! TO.N,/~RAS*
X188500000Y-84580000D03*
G04 #@! TO.P,U1,10*
G04 #@! TO.N,/COL*
X196120000Y-89660000D03*
G04 #@! TO.P,U1,4*
G04 #@! TO.N,/ROW*
X188500000Y-87120000D03*
G04 #@! TO.P,U1,11*
G04 #@! TO.N,Net-(U1-Pad11)*
X196120000Y-87120000D03*
G04 #@! TO.P,U1,5*
G04 #@! TO.N,/~CAS*
X188500000Y-89660000D03*
G04 #@! TO.P,U1,12*
G04 #@! TO.N,Net-(JP2-Pad2)*
X196120000Y-84580000D03*
G04 #@! TO.P,U1,6*
G04 #@! TO.N,Net-(U1-Pad6)*
X188500000Y-92200000D03*
G04 #@! TO.P,U1,13*
G04 #@! TO.N,/~INT*
X196120000Y-82040000D03*
G04 #@! TO.P,U1,7*
G04 #@! TO.N,GND*
X188500000Y-94740000D03*
G04 #@! TO.P,U1,14*
G04 #@! TO.N,VCC*
X196120000Y-79500000D03*
G04 #@! TD*
G04 #@! TO.P,U3,14*
G04 #@! TO.N,VCC*
X196120000Y-100500000D03*
G04 #@! TO.P,U3,7*
G04 #@! TO.N,GND*
X188500000Y-115740000D03*
G04 #@! TO.P,U3,13*
X196120000Y-103040000D03*
G04 #@! TO.P,U3,6*
G04 #@! TO.N,/~CSW*
X188500000Y-113200000D03*
G04 #@! TO.P,U3,12*
G04 #@! TO.N,GND*
X196120000Y-105580000D03*
G04 #@! TO.P,U3,5*
G04 #@! TO.N,/~IOW*
X188500000Y-110660000D03*
G04 #@! TO.P,U3,11*
G04 #@! TO.N,Net-(U3-Pad11)*
X196120000Y-108120000D03*
G04 #@! TO.P,U3,4*
G04 #@! TO.N,Net-(J4-Pad2)*
X188500000Y-108120000D03*
G04 #@! TO.P,U3,10*
G04 #@! TO.N,GND*
X196120000Y-110660000D03*
G04 #@! TO.P,U3,3*
G04 #@! TO.N,/~CSR*
X188500000Y-105580000D03*
G04 #@! TO.P,U3,9*
G04 #@! TO.N,GND*
X196120000Y-113200000D03*
G04 #@! TO.P,U3,2*
G04 #@! TO.N,/~IOR*
X188500000Y-103040000D03*
G04 #@! TO.P,U3,8*
G04 #@! TO.N,Net-(U3-Pad8)*
X196120000Y-115740000D03*
D12*
G04 #@! TO.P,U3,1*
G04 #@! TO.N,Net-(J4-Pad2)*
X188500000Y-100500000D03*
G04 #@! TD*
G04 #@! TO.P,U5,1*
G04 #@! TO.N,/A7*
X176500000Y-77500000D03*
D16*
G04 #@! TO.P,U5,8*
G04 #@! TO.N,Net-(U5-Pad8)*
X184120000Y-92740000D03*
G04 #@! TO.P,U5,2*
G04 #@! TO.N,Net-(JP1-Pad3)*
X176500000Y-80040000D03*
G04 #@! TO.P,U5,9*
G04 #@! TO.N,GND*
X184120000Y-90200000D03*
G04 #@! TO.P,U5,3*
G04 #@! TO.N,/RES*
X176500000Y-82580000D03*
G04 #@! TO.P,U5,10*
G04 #@! TO.N,Net-(U5-Pad10)*
X184120000Y-87660000D03*
G04 #@! TO.P,U5,4*
G04 #@! TO.N,/~RES*
X176500000Y-85120000D03*
G04 #@! TO.P,U5,11*
G04 #@! TO.N,GND*
X184120000Y-85120000D03*
G04 #@! TO.P,U5,5*
X176500000Y-87660000D03*
G04 #@! TO.P,U5,12*
G04 #@! TO.N,Net-(U5-Pad12)*
X184120000Y-82580000D03*
G04 #@! TO.P,U5,6*
G04 #@! TO.N,Net-(U5-Pad6)*
X176500000Y-90200000D03*
G04 #@! TO.P,U5,13*
G04 #@! TO.N,GND*
X184120000Y-80040000D03*
G04 #@! TO.P,U5,7*
X176500000Y-92740000D03*
G04 #@! TO.P,U5,14*
G04 #@! TO.N,VCC*
X184120000Y-77500000D03*
G04 #@! TD*
G04 #@! TO.P,U2,16*
G04 #@! TO.N,VCC*
X184120000Y-98000000D03*
G04 #@! TO.P,U2,8*
G04 #@! TO.N,GND*
X176500000Y-115780000D03*
G04 #@! TO.P,U2,15*
G04 #@! TO.N,Net-(J5-Pad2)*
X184120000Y-100540000D03*
G04 #@! TO.P,U2,7*
G04 #@! TO.N,Net-(J5-Pad7)*
X176500000Y-113240000D03*
G04 #@! TO.P,U2,14*
G04 #@! TO.N,/A3*
X184120000Y-103080000D03*
G04 #@! TO.P,U2,6*
G04 #@! TO.N,Net-(J5-Pad5)*
X176500000Y-110700000D03*
G04 #@! TO.P,U2,13*
G04 #@! TO.N,/A4*
X184120000Y-105620000D03*
G04 #@! TO.P,U2,5*
G04 #@! TO.N,Net-(J5-Pad3)*
X176500000Y-108160000D03*
G04 #@! TO.P,U2,12*
G04 #@! TO.N,Net-(J4-Pad1)*
X184120000Y-108160000D03*
G04 #@! TO.P,U2,4*
G04 #@! TO.N,Net-(J5-Pad1)*
X176500000Y-105620000D03*
G04 #@! TO.P,U2,11*
G04 #@! TO.N,Net-(J4-Pad3)*
X184120000Y-110700000D03*
G04 #@! TO.P,U2,3*
G04 #@! TO.N,/A6*
X176500000Y-103080000D03*
G04 #@! TO.P,U2,10*
G04 #@! TO.N,Net-(J4-Pad5)*
X184120000Y-113240000D03*
G04 #@! TO.P,U2,2*
G04 #@! TO.N,/A5*
X176500000Y-100540000D03*
G04 #@! TO.P,U2,9*
G04 #@! TO.N,Net-(J4-Pad7)*
X184120000Y-115780000D03*
D12*
G04 #@! TO.P,U2,1*
G04 #@! TO.N,Net-(JP1-Pad2)*
X176500000Y-98000000D03*
G04 #@! TD*
G04 #@! TO.P,U6,1*
G04 #@! TO.N,/R~W*
X146000000Y-99000000D03*
D16*
G04 #@! TO.P,U6,11*
G04 #@! TO.N,/~R~W*
X153620000Y-121860000D03*
G04 #@! TO.P,U6,2*
G04 #@! TO.N,/AD0*
X146000000Y-101540000D03*
G04 #@! TO.P,U6,12*
G04 #@! TO.N,/VD7*
X153620000Y-119320000D03*
G04 #@! TO.P,U6,3*
G04 #@! TO.N,/AD1*
X146000000Y-104080000D03*
G04 #@! TO.P,U6,13*
G04 #@! TO.N,/VD6*
X153620000Y-116780000D03*
G04 #@! TO.P,U6,4*
G04 #@! TO.N,/AD2*
X146000000Y-106620000D03*
G04 #@! TO.P,U6,14*
G04 #@! TO.N,/VD5*
X153620000Y-114240000D03*
G04 #@! TO.P,U6,5*
G04 #@! TO.N,/AD3*
X146000000Y-109160000D03*
G04 #@! TO.P,U6,15*
G04 #@! TO.N,/VD4*
X153620000Y-111700000D03*
G04 #@! TO.P,U6,6*
G04 #@! TO.N,/AD4*
X146000000Y-111700000D03*
G04 #@! TO.P,U6,16*
G04 #@! TO.N,/VD3*
X153620000Y-109160000D03*
G04 #@! TO.P,U6,7*
G04 #@! TO.N,/AD5*
X146000000Y-114240000D03*
G04 #@! TO.P,U6,17*
G04 #@! TO.N,/VD2*
X153620000Y-106620000D03*
G04 #@! TO.P,U6,8*
G04 #@! TO.N,/AD6*
X146000000Y-116780000D03*
G04 #@! TO.P,U6,18*
G04 #@! TO.N,/VD1*
X153620000Y-104080000D03*
G04 #@! TO.P,U6,9*
G04 #@! TO.N,/AD7*
X146000000Y-119320000D03*
G04 #@! TO.P,U6,19*
G04 #@! TO.N,/VD0*
X153620000Y-101540000D03*
G04 #@! TO.P,U6,10*
G04 #@! TO.N,GND*
X146000000Y-121860000D03*
G04 #@! TO.P,U6,20*
G04 #@! TO.N,VCC*
X153620000Y-99000000D03*
G04 #@! TD*
G04 #@! TO.P,U7,20*
G04 #@! TO.N,VCC*
X153120000Y-70500000D03*
G04 #@! TO.P,U7,10*
G04 #@! TO.N,GND*
X145500000Y-93360000D03*
G04 #@! TO.P,U7,19*
G04 #@! TO.N,Net-(U7-Pad19)*
X153120000Y-73040000D03*
G04 #@! TO.P,U7,9*
G04 #@! TO.N,/AD7*
X145500000Y-90820000D03*
G04 #@! TO.P,U7,18*
G04 #@! TO.N,/VA0*
X153120000Y-75580000D03*
G04 #@! TO.P,U7,8*
G04 #@! TO.N,/AD6*
X145500000Y-88280000D03*
G04 #@! TO.P,U7,17*
G04 #@! TO.N,/VA1*
X153120000Y-78120000D03*
G04 #@! TO.P,U7,7*
G04 #@! TO.N,/AD5*
X145500000Y-85740000D03*
G04 #@! TO.P,U7,16*
G04 #@! TO.N,/VA2*
X153120000Y-80660000D03*
G04 #@! TO.P,U7,6*
G04 #@! TO.N,/AD4*
X145500000Y-83200000D03*
G04 #@! TO.P,U7,15*
G04 #@! TO.N,/VA3*
X153120000Y-83200000D03*
G04 #@! TO.P,U7,5*
G04 #@! TO.N,/AD3*
X145500000Y-80660000D03*
G04 #@! TO.P,U7,14*
G04 #@! TO.N,/VA4*
X153120000Y-85740000D03*
G04 #@! TO.P,U7,4*
G04 #@! TO.N,/AD2*
X145500000Y-78120000D03*
G04 #@! TO.P,U7,13*
G04 #@! TO.N,/VA5*
X153120000Y-88280000D03*
G04 #@! TO.P,U7,3*
G04 #@! TO.N,/AD1*
X145500000Y-75580000D03*
G04 #@! TO.P,U7,12*
G04 #@! TO.N,/VA6*
X153120000Y-90820000D03*
G04 #@! TO.P,U7,2*
G04 #@! TO.N,/AD0*
X145500000Y-73040000D03*
G04 #@! TO.P,U7,11*
G04 #@! TO.N,/ROW*
X153120000Y-93360000D03*
D12*
G04 #@! TO.P,U7,1*
G04 #@! TO.N,GND*
X145500000Y-70500000D03*
G04 #@! TD*
G04 #@! TO.P,U9,1*
G04 #@! TO.N,GND*
X133500000Y-70500000D03*
D16*
G04 #@! TO.P,U9,11*
G04 #@! TO.N,/COL*
X141120000Y-93360000D03*
G04 #@! TO.P,U9,2*
G04 #@! TO.N,/AD0*
X133500000Y-73040000D03*
G04 #@! TO.P,U9,12*
G04 #@! TO.N,/VA13*
X141120000Y-90820000D03*
G04 #@! TO.P,U9,3*
G04 #@! TO.N,/AD1*
X133500000Y-75580000D03*
G04 #@! TO.P,U9,13*
G04 #@! TO.N,/VA12*
X141120000Y-88280000D03*
G04 #@! TO.P,U9,4*
G04 #@! TO.N,/AD2*
X133500000Y-78120000D03*
G04 #@! TO.P,U9,14*
G04 #@! TO.N,/VA11*
X141120000Y-85740000D03*
G04 #@! TO.P,U9,5*
G04 #@! TO.N,/AD3*
X133500000Y-80660000D03*
G04 #@! TO.P,U9,15*
G04 #@! TO.N,/VA10*
X141120000Y-83200000D03*
G04 #@! TO.P,U9,6*
G04 #@! TO.N,/AD4*
X133500000Y-83200000D03*
G04 #@! TO.P,U9,16*
G04 #@! TO.N,/VA9*
X141120000Y-80660000D03*
G04 #@! TO.P,U9,7*
G04 #@! TO.N,/AD5*
X133500000Y-85740000D03*
G04 #@! TO.P,U9,17*
G04 #@! TO.N,/VA8*
X141120000Y-78120000D03*
G04 #@! TO.P,U9,8*
G04 #@! TO.N,/AD6*
X133500000Y-88280000D03*
G04 #@! TO.P,U9,18*
G04 #@! TO.N,/VA7*
X141120000Y-75580000D03*
G04 #@! TO.P,U9,9*
G04 #@! TO.N,/AD7*
X133500000Y-90820000D03*
G04 #@! TO.P,U9,19*
G04 #@! TO.N,Net-(U9-Pad19)*
X141120000Y-73040000D03*
G04 #@! TO.P,U9,10*
G04 #@! TO.N,GND*
X133500000Y-93360000D03*
G04 #@! TO.P,U9,20*
G04 #@! TO.N,VCC*
X141120000Y-70500000D03*
G04 #@! TD*
D12*
G04 #@! TO.P,U8,1*
G04 #@! TO.N,/VA13*
X156775000Y-67925000D03*
D16*
G04 #@! TO.P,U8,15*
G04 #@! TO.N,/VD3*
X172015000Y-100945000D03*
G04 #@! TO.P,U8,2*
G04 #@! TO.N,/VA12*
X156775000Y-70465000D03*
G04 #@! TO.P,U8,16*
G04 #@! TO.N,/VD4*
X172015000Y-98405000D03*
G04 #@! TO.P,U8,3*
G04 #@! TO.N,/VA7*
X156775000Y-73005000D03*
G04 #@! TO.P,U8,17*
G04 #@! TO.N,/VD5*
X172015000Y-95865000D03*
G04 #@! TO.P,U8,4*
G04 #@! TO.N,/VA6*
X156775000Y-75545000D03*
G04 #@! TO.P,U8,18*
G04 #@! TO.N,/VD6*
X172015000Y-93325000D03*
G04 #@! TO.P,U8,5*
G04 #@! TO.N,/VA5*
X156775000Y-78085000D03*
G04 #@! TO.P,U8,19*
G04 #@! TO.N,/VD7*
X172015000Y-90785000D03*
G04 #@! TO.P,U8,6*
G04 #@! TO.N,/VA4*
X156775000Y-80625000D03*
G04 #@! TO.P,U8,20*
G04 #@! TO.N,/~CAS*
X172015000Y-88245000D03*
G04 #@! TO.P,U8,7*
G04 #@! TO.N,/VA3*
X156775000Y-83165000D03*
G04 #@! TO.P,U8,21*
G04 #@! TO.N,/VA10*
X172015000Y-85705000D03*
G04 #@! TO.P,U8,8*
G04 #@! TO.N,/VA2*
X156775000Y-85705000D03*
G04 #@! TO.P,U8,22*
G04 #@! TO.N,/~R~W*
X172015000Y-83165000D03*
G04 #@! TO.P,U8,9*
G04 #@! TO.N,/VA1*
X156775000Y-88245000D03*
G04 #@! TO.P,U8,23*
G04 #@! TO.N,/VA11*
X172015000Y-80625000D03*
G04 #@! TO.P,U8,10*
G04 #@! TO.N,/VA0*
X156775000Y-90785000D03*
G04 #@! TO.P,U8,24*
G04 #@! TO.N,/VA9*
X172015000Y-78085000D03*
G04 #@! TO.P,U8,11*
G04 #@! TO.N,/VD0*
X156775000Y-93325000D03*
G04 #@! TO.P,U8,25*
G04 #@! TO.N,/VA8*
X172015000Y-75545000D03*
G04 #@! TO.P,U8,12*
G04 #@! TO.N,/VD1*
X156775000Y-95865000D03*
G04 #@! TO.P,U8,26*
G04 #@! TO.N,/VA13*
X172015000Y-73005000D03*
G04 #@! TO.P,U8,13*
G04 #@! TO.N,/VD2*
X156775000Y-98405000D03*
G04 #@! TO.P,U8,27*
G04 #@! TO.N,/R~W*
X172015000Y-70465000D03*
G04 #@! TO.P,U8,14*
G04 #@! TO.N,GND*
X156775000Y-100945000D03*
G04 #@! TO.P,U8,28*
G04 #@! TO.N,VCC*
X172015000Y-67925000D03*
G04 #@! TD*
D12*
G04 #@! TO.P,U4,1*
G04 #@! TO.N,/~RAS*
X104850000Y-66350000D03*
D16*
G04 #@! TO.P,U4,21*
G04 #@! TO.N,/D4*
X120090000Y-114610000D03*
G04 #@! TO.P,U4,2*
G04 #@! TO.N,/~CAS*
X104850000Y-68890000D03*
G04 #@! TO.P,U4,22*
G04 #@! TO.N,/D5*
X120090000Y-112070000D03*
G04 #@! TO.P,U4,3*
G04 #@! TO.N,/AD7*
X104850000Y-71430000D03*
G04 #@! TO.P,U4,23*
G04 #@! TO.N,/D6*
X120090000Y-109530000D03*
G04 #@! TO.P,U4,4*
G04 #@! TO.N,/AD6*
X104850000Y-73970000D03*
G04 #@! TO.P,U4,24*
G04 #@! TO.N,/D7*
X120090000Y-106990000D03*
G04 #@! TO.P,U4,5*
G04 #@! TO.N,/AD5*
X104850000Y-76510000D03*
G04 #@! TO.P,U4,25*
G04 #@! TO.N,/VD7*
X120090000Y-104450000D03*
G04 #@! TO.P,U4,6*
G04 #@! TO.N,/AD4*
X104850000Y-79050000D03*
G04 #@! TO.P,U4,26*
G04 #@! TO.N,/VD6*
X120090000Y-101910000D03*
G04 #@! TO.P,U4,7*
G04 #@! TO.N,/AD3*
X104850000Y-81590000D03*
G04 #@! TO.P,U4,27*
G04 #@! TO.N,/VD5*
X120090000Y-99370000D03*
G04 #@! TO.P,U4,8*
G04 #@! TO.N,/AD2*
X104850000Y-84130000D03*
G04 #@! TO.P,U4,28*
G04 #@! TO.N,/VD4*
X120090000Y-96830000D03*
G04 #@! TO.P,U4,9*
G04 #@! TO.N,/AD1*
X104850000Y-86670000D03*
G04 #@! TO.P,U4,29*
G04 #@! TO.N,/VD3*
X120090000Y-94290000D03*
G04 #@! TO.P,U4,10*
G04 #@! TO.N,/AD0*
X104850000Y-89210000D03*
G04 #@! TO.P,U4,30*
G04 #@! TO.N,/VD2*
X120090000Y-91750000D03*
G04 #@! TO.P,U4,11*
G04 #@! TO.N,/R~W*
X104850000Y-91750000D03*
G04 #@! TO.P,U4,31*
G04 #@! TO.N,/VD1*
X120090000Y-89210000D03*
G04 #@! TO.P,U4,12*
G04 #@! TO.N,GND*
X104850000Y-94290000D03*
G04 #@! TO.P,U4,32*
G04 #@! TO.N,/VD0*
X120090000Y-86670000D03*
G04 #@! TO.P,U4,13*
G04 #@! TO.N,/A0*
X104850000Y-96830000D03*
G04 #@! TO.P,U4,33*
G04 #@! TO.N,VCC*
X120090000Y-84130000D03*
G04 #@! TO.P,U4,14*
G04 #@! TO.N,/~CSW*
X104850000Y-99370000D03*
G04 #@! TO.P,U4,34*
G04 #@! TO.N,/~RES*
X120090000Y-81590000D03*
G04 #@! TO.P,U4,15*
G04 #@! TO.N,/~CSR*
X104850000Y-101910000D03*
G04 #@! TO.P,U4,35*
G04 #@! TO.N,/EXTVDP*
X120090000Y-79050000D03*
G04 #@! TO.P,U4,16*
G04 #@! TO.N,/~INT*
X104850000Y-104450000D03*
G04 #@! TO.P,U4,36*
G04 #@! TO.N,Net-(R2-Pad1)*
X120090000Y-76510000D03*
G04 #@! TO.P,U4,17*
G04 #@! TO.N,/D0*
X104850000Y-106990000D03*
G04 #@! TO.P,U4,37*
G04 #@! TO.N,/GROMCLK*
X120090000Y-73970000D03*
G04 #@! TO.P,U4,18*
G04 #@! TO.N,/D1*
X104850000Y-109530000D03*
G04 #@! TO.P,U4,38*
G04 #@! TO.N,/CPUCLK*
X120090000Y-71430000D03*
G04 #@! TO.P,U4,19*
G04 #@! TO.N,/D2*
X104850000Y-112070000D03*
G04 #@! TO.P,U4,39*
G04 #@! TO.N,Net-(C1-Pad1)*
X120090000Y-68890000D03*
G04 #@! TO.P,U4,20*
G04 #@! TO.N,/D3*
X104850000Y-114610000D03*
G04 #@! TO.P,U4,40*
G04 #@! TO.N,Net-(C2-Pad1)*
X120090000Y-66350000D03*
G04 #@! TD*
D17*
G04 #@! TO.P,Q1,2*
G04 #@! TO.N,Net-(C14-Pad1)*
X126040000Y-95000000D03*
G04 #@! TO.P,Q1,3*
G04 #@! TO.N,Net-(Q1-Pad3)*
X128580000Y-95000000D03*
D18*
G04 #@! TO.P,Q1,1*
G04 #@! TO.N,Net-(C15-Pad1)*
X123500000Y-95000000D03*
G04 #@! TD*
D13*
G04 #@! TO.P,R1,1*
G04 #@! TO.N,Net-(C15-Pad1)*
X123500000Y-104000000D03*
D16*
G04 #@! TO.P,R1,2*
G04 #@! TO.N,GND*
X133660000Y-104000000D03*
G04 #@! TD*
G04 #@! TO.P,R2,2*
G04 #@! TO.N,Net-(Q1-Pad3)*
X129000000Y-89660000D03*
D13*
G04 #@! TO.P,R2,1*
G04 #@! TO.N,Net-(R2-Pad1)*
X129000000Y-79500000D03*
G04 #@! TD*
G04 #@! TO.P,R3,1*
G04 #@! TO.N,Net-(Q1-Pad3)*
X125000000Y-89500000D03*
D16*
G04 #@! TO.P,R3,2*
G04 #@! TO.N,GND*
X125000000Y-79340000D03*
G04 #@! TD*
D19*
G04 #@! TO.N,/D0*
X116674200Y-67926600D03*
G04 #@! TO.N,/AD5*
X122208300Y-83245900D03*
X121506400Y-72844600D03*
G04 #@! TO.N,/AD2*
X130172900Y-87928600D03*
G04 #@! TO.N,/AD1*
X122365000Y-97905100D03*
X118678400Y-88840200D03*
G04 #@! TO.N,/VD3*
X143812000Y-95134900D03*
G04 #@! TO.N,/AD0*
X132085800Y-93001600D03*
G04 #@! TO.N,/VD2*
X144537600Y-94409600D03*
G04 #@! TO.N,/R~W*
X180210700Y-92515900D03*
G04 #@! TO.N,/VD1*
X130303100Y-103725700D03*
G04 #@! TO.N,VCC*
X151044500Y-74663000D03*
X163621700Y-72521800D03*
G04 #@! TO.N,/D7*
X118618400Y-99026600D03*
G04 #@! TO.N,/D4*
X117370500Y-70293500D03*
G04 #@! TO.N,/ROW*
X155535100Y-91832100D03*
G04 #@! TO.N,/A7*
X170589000Y-71879600D03*
G04 #@! TD*
D20*
G04 #@! TO.N,Net-(Q1-Pad3)*
X129000000Y-90785300D02*
X128580000Y-91205300D01*
X128580000Y-91205300D02*
X128580000Y-95000000D01*
X129000000Y-89660000D02*
X129000000Y-90785300D01*
D21*
G04 #@! TO.N,GND*
X133500000Y-93360000D02*
X133500000Y-94660300D01*
X139000000Y-100000000D02*
X133660300Y-94660300D01*
X133660300Y-94660300D02*
X133500000Y-94660300D01*
X163500000Y-76000000D02*
X162393000Y-74893000D01*
X162393000Y-74893000D02*
X162393000Y-71225600D01*
X162393000Y-71225600D02*
X157359800Y-66192400D01*
X157359800Y-66192400D02*
X152307600Y-66192400D01*
X152307600Y-66192400D02*
X151000000Y-67500000D01*
X156775000Y-100945000D02*
X163500000Y-94220000D01*
X163500000Y-94220000D02*
X163500000Y-76000000D01*
X194000000Y-97500000D02*
X192560300Y-97500000D01*
X192560300Y-97500000D02*
X189800300Y-94740000D01*
X188500000Y-94740000D02*
X189800300Y-94740000D01*
X196120000Y-103040000D02*
X194000000Y-100920000D01*
X194000000Y-100920000D02*
X194000000Y-97500000D01*
X126725000Y-60085000D02*
X127914700Y-60085000D01*
X129265000Y-60085000D02*
X127914700Y-60085000D01*
X129500000Y-67000000D02*
X128684400Y-67000000D01*
X128684400Y-67000000D02*
X125374600Y-63690200D01*
X125374600Y-63690200D02*
X125374600Y-61435400D01*
X125374600Y-61435400D02*
X126725000Y-60085000D01*
X145500000Y-70500000D02*
X146800300Y-70500000D01*
X129546600Y-114406200D02*
X129695100Y-114257700D01*
X129695100Y-114257700D02*
X129695100Y-107695100D01*
X129695100Y-107695100D02*
X129500000Y-107500000D01*
X128000000Y-115849700D02*
X128103100Y-115849700D01*
X128103100Y-115849700D02*
X129546600Y-114406200D01*
X136500000Y-121359700D02*
X129546600Y-114406200D01*
X136500000Y-122660000D02*
X136500000Y-121359700D01*
X133660000Y-104000000D02*
X132359700Y-104000000D01*
X132359700Y-104000000D02*
X132359700Y-104640300D01*
X132359700Y-104640300D02*
X129500000Y-107500000D01*
X128000000Y-117500000D02*
X128000000Y-115849700D01*
X176500000Y-115780000D02*
X175199700Y-115780000D01*
X146000000Y-121860000D02*
X147300300Y-121860000D01*
X147300300Y-121860000D02*
X148609300Y-123169000D01*
X148609300Y-123169000D02*
X167810700Y-123169000D01*
X167810700Y-123169000D02*
X175199700Y-115780000D01*
X146800300Y-70500000D02*
X149800300Y-67500000D01*
X149800300Y-67500000D02*
X151000000Y-67500000D01*
X176500000Y-87660000D02*
X175189700Y-88970300D01*
X175189700Y-88970300D02*
X175189700Y-91429700D01*
X175189700Y-91429700D02*
X176500000Y-92740000D01*
X151000000Y-96500000D02*
X147860000Y-93360000D01*
X147860000Y-93360000D02*
X146800300Y-93360000D01*
X125000000Y-79340000D02*
X125000000Y-78039700D01*
X129500000Y-72000000D02*
X125000000Y-76500000D01*
X125000000Y-76500000D02*
X125000000Y-78039700D01*
X185420300Y-85120000D02*
X185420300Y-81340300D01*
X185420300Y-81340300D02*
X184120000Y-80040000D01*
X184120000Y-85120000D02*
X185420300Y-85120000D01*
X185420300Y-85120000D02*
X185420300Y-90200000D01*
X185420300Y-94120000D02*
X183380000Y-94120000D01*
X183380000Y-94120000D02*
X182000000Y-95500000D01*
X187199700Y-94740000D02*
X186579700Y-94120000D01*
X186579700Y-94120000D02*
X185420300Y-94120000D01*
X185420300Y-94120000D02*
X185420300Y-90200000D01*
X184120000Y-90200000D02*
X185420300Y-90200000D01*
X188500000Y-94740000D02*
X187199700Y-94740000D01*
X145500000Y-93360000D02*
X146800300Y-93360000D01*
X196120000Y-103040000D02*
X196120000Y-105580000D01*
X176500000Y-115780000D02*
X177800300Y-115780000D01*
X188500000Y-115740000D02*
X187199700Y-115740000D01*
X187199700Y-115740000D02*
X185859400Y-117080300D01*
X185859400Y-117080300D02*
X179100600Y-117080300D01*
X179100600Y-117080300D02*
X177800300Y-115780000D01*
X190650000Y-73200000D02*
X192000300Y-73200000D01*
X192000300Y-73200000D02*
X192000300Y-74500300D01*
X192000300Y-74500300D02*
X194000000Y-76500000D01*
X196120000Y-110660000D02*
X197430500Y-109349500D01*
X197430500Y-109349500D02*
X197430500Y-106890500D01*
X197430500Y-106890500D02*
X196120000Y-105580000D01*
X196120000Y-113200000D02*
X196120000Y-110660000D01*
D20*
G04 #@! TO.N,/~RAS*
X188500000Y-83454700D02*
X188781400Y-83454700D01*
X188781400Y-83454700D02*
X190075600Y-82160500D01*
X190075600Y-82160500D02*
X190075600Y-77850800D01*
X190075600Y-77850800D02*
X187825000Y-75600200D01*
X187825000Y-75600200D02*
X187825000Y-70625800D01*
X187825000Y-70625800D02*
X172828500Y-55629300D01*
X172828500Y-55629300D02*
X116696000Y-55629300D01*
X116696000Y-55629300D02*
X105975300Y-66350000D01*
X188500000Y-84580000D02*
X188500000Y-83454700D01*
X104850000Y-66350000D02*
X105975300Y-66350000D01*
G04 #@! TO.N,/D3*
X104850000Y-114610000D02*
X104850000Y-113484700D01*
X104850000Y-113484700D02*
X104568700Y-113484700D01*
X104568700Y-113484700D02*
X103243500Y-112159500D01*
X103243500Y-112159500D02*
X103243500Y-101861700D01*
X103243500Y-101861700D02*
X104465200Y-100640000D01*
X104465200Y-100640000D02*
X105188000Y-100640000D01*
X105188000Y-100640000D02*
X106425700Y-99402300D01*
X106425700Y-99402300D02*
X106425700Y-75811400D01*
X106425700Y-75811400D02*
X125222000Y-57015100D01*
X125222000Y-57015100D02*
X136355100Y-57015100D01*
X136355100Y-57015100D02*
X139425000Y-60085000D01*
G04 #@! TO.N,/~CAS*
X188500000Y-88534700D02*
X188218600Y-88534700D01*
X188218600Y-88534700D02*
X187374700Y-87690800D01*
X187374700Y-87690800D02*
X187374700Y-81526500D01*
X187374700Y-81526500D02*
X188275800Y-80625400D01*
X188275800Y-80625400D02*
X189434700Y-80625400D01*
X189434700Y-80625400D02*
X189625300Y-80434800D01*
X189625300Y-80434800D02*
X189625300Y-78519600D01*
X189625300Y-78519600D02*
X187215500Y-76109800D01*
X187215500Y-76109800D02*
X187215500Y-70653200D01*
X187215500Y-70653200D02*
X172641900Y-56079600D01*
X172641900Y-56079600D02*
X118785700Y-56079600D01*
X118785700Y-56079600D02*
X105975300Y-68890000D01*
X188500000Y-89660000D02*
X188500000Y-88534700D01*
X104850000Y-68890000D02*
X105975300Y-68890000D01*
G04 #@! TO.N,/D2*
X104850000Y-110944700D02*
X104568700Y-110944700D01*
X104568700Y-110944700D02*
X103693900Y-110069900D01*
X103693900Y-110069900D02*
X103693900Y-103970500D01*
X103693900Y-103970500D02*
X104484400Y-103180000D01*
X104484400Y-103180000D02*
X105174800Y-103180000D01*
X105174800Y-103180000D02*
X107776700Y-100578100D01*
X107776700Y-100578100D02*
X107776700Y-75097300D01*
X107776700Y-75097300D02*
X125408500Y-57465500D01*
X125408500Y-57465500D02*
X135931900Y-57465500D01*
X135931900Y-57465500D02*
X138249700Y-59783300D01*
X138249700Y-59783300D02*
X138249700Y-60641800D01*
X138249700Y-60641800D02*
X139057600Y-61449700D01*
X139057600Y-61449700D02*
X139425000Y-61449700D01*
X139425000Y-62625000D02*
X139425000Y-61449700D01*
X104850000Y-112070000D02*
X104850000Y-110944700D01*
G04 #@! TO.N,/AD7*
X146000000Y-118194700D02*
X146281300Y-118194700D01*
X146281300Y-118194700D02*
X149009800Y-115466200D01*
X149009800Y-115466200D02*
X149009800Y-103206400D01*
X149009800Y-103206400D02*
X148600400Y-102797000D01*
X148600400Y-102797000D02*
X148600400Y-98155100D01*
X148600400Y-98155100D02*
X146848200Y-96402900D01*
X146848200Y-96402900D02*
X144017800Y-96402900D01*
X144017800Y-96402900D02*
X143081900Y-95467000D01*
X143081900Y-95467000D02*
X143081900Y-94082100D01*
X143081900Y-94082100D02*
X145218700Y-91945300D01*
X145218700Y-91945300D02*
X145500000Y-91945300D01*
X146000000Y-119320000D02*
X146000000Y-118194700D01*
X145500000Y-90820000D02*
X145500000Y-91945300D01*
G04 #@! TO.N,/D1*
X104850000Y-108404700D02*
X105131400Y-108404700D01*
X105131400Y-108404700D02*
X108970600Y-104565500D01*
X108970600Y-104565500D02*
X108970600Y-77338500D01*
X108970600Y-77338500D02*
X117420600Y-68888500D01*
X117420600Y-68888500D02*
X117420600Y-66092100D01*
X117420600Y-66092100D02*
X125565800Y-57946900D01*
X125565800Y-57946900D02*
X133938900Y-57946900D01*
X133938900Y-57946900D02*
X135709700Y-59717700D01*
X135709700Y-59717700D02*
X135709700Y-60085000D01*
X136885000Y-60085000D02*
X135709700Y-60085000D01*
X104850000Y-109530000D02*
X104850000Y-108404700D01*
G04 #@! TO.N,/AD6*
X146000000Y-115654700D02*
X146281400Y-115654700D01*
X146281400Y-115654700D02*
X148559500Y-113376600D01*
X148559500Y-113376600D02*
X148559500Y-103393000D01*
X148559500Y-103393000D02*
X148121000Y-102954500D01*
X148121000Y-102954500D02*
X148121000Y-98312600D01*
X148121000Y-98312600D02*
X146820900Y-97012500D01*
X146820900Y-97012500D02*
X143173700Y-97012500D01*
X143173700Y-97012500D02*
X139950000Y-93788800D01*
X139950000Y-93788800D02*
X139950000Y-89550000D01*
X139950000Y-89550000D02*
X143104700Y-89550000D01*
X143104700Y-89550000D02*
X144374700Y-88280000D01*
X134625300Y-88280000D02*
X135895300Y-89550000D01*
X135895300Y-89550000D02*
X139950000Y-89550000D01*
X145500000Y-88280000D02*
X144374700Y-88280000D01*
X133500000Y-88280000D02*
X134625300Y-88280000D01*
X146000000Y-116780000D02*
X146000000Y-115654700D01*
G04 #@! TO.N,/D0*
X104850000Y-105864700D02*
X105131300Y-105864700D01*
X105131300Y-105864700D02*
X108298500Y-102697500D01*
X108298500Y-102697500D02*
X108298500Y-76302300D01*
X108298500Y-76302300D02*
X116674200Y-67926600D01*
X104850000Y-106990000D02*
X104850000Y-105864700D01*
G04 #@! TO.N,/AD5*
X133500000Y-86865300D02*
X143249400Y-86865300D01*
X143249400Y-86865300D02*
X144374700Y-85740000D01*
X146000000Y-113114700D02*
X146281300Y-113114700D01*
X146281300Y-113114700D02*
X148109200Y-111286800D01*
X148109200Y-111286800D02*
X148109200Y-103579700D01*
X148109200Y-103579700D02*
X147658900Y-103129400D01*
X147658900Y-103129400D02*
X147658900Y-98539100D01*
X147658900Y-98539100D02*
X146966000Y-97846200D01*
X146966000Y-97846200D02*
X142762300Y-97846200D01*
X142762300Y-97846200D02*
X134466100Y-89550000D01*
X134466100Y-89550000D02*
X133178400Y-89550000D01*
X133178400Y-89550000D02*
X132374600Y-88746200D01*
X132374600Y-88746200D02*
X132374600Y-87709500D01*
X132374600Y-87709500D02*
X133218700Y-86865400D01*
X133218700Y-86865400D02*
X133500000Y-86865400D01*
X133500000Y-86865400D02*
X133500000Y-86865300D01*
X133500000Y-85740000D02*
X133500000Y-86865300D01*
X145500000Y-85740000D02*
X144374700Y-85740000D01*
X122208300Y-83245900D02*
X122208300Y-73546500D01*
X122208300Y-73546500D02*
X121506400Y-72844600D01*
X146000000Y-114240000D02*
X146000000Y-113114700D01*
G04 #@! TO.N,/VD7*
X152494700Y-119320000D02*
X152494700Y-113761000D01*
X152494700Y-113761000D02*
X153393700Y-112862000D01*
X153393700Y-112862000D02*
X154069600Y-112862000D01*
X154069600Y-112862000D02*
X154745300Y-112186300D01*
X154745300Y-112186300D02*
X154745300Y-108655400D01*
X154745300Y-108655400D02*
X171490400Y-91910300D01*
X171490400Y-91910300D02*
X172015000Y-91910300D01*
X153620000Y-119320000D02*
X152494700Y-119320000D01*
X120090000Y-105575300D02*
X120332600Y-105575300D01*
X120332600Y-105575300D02*
X121718900Y-106961600D01*
X121718900Y-106961600D02*
X121718900Y-114011400D01*
X121718900Y-114011400D02*
X131534100Y-123826600D01*
X131534100Y-123826600D02*
X142422300Y-123826600D01*
X142422300Y-123826600D02*
X145803600Y-120445300D01*
X145803600Y-120445300D02*
X151369400Y-120445300D01*
X151369400Y-120445300D02*
X152494700Y-119320000D01*
X172015000Y-90785000D02*
X172015000Y-91910300D01*
X120090000Y-104450000D02*
X120090000Y-105575300D01*
G04 #@! TO.N,/AD4*
X146000000Y-111700000D02*
X146000000Y-110574700D01*
X144374700Y-83200000D02*
X143249400Y-84325300D01*
X143249400Y-84325300D02*
X133571000Y-84325300D01*
X133571000Y-84325300D02*
X133500000Y-84254300D01*
X133500000Y-84254300D02*
X133394100Y-84254300D01*
X133394100Y-84254300D02*
X131920500Y-85727900D01*
X131920500Y-85727900D02*
X131920500Y-90862500D01*
X131920500Y-90862500D02*
X133148000Y-92090000D01*
X133148000Y-92090000D02*
X135741500Y-92090000D01*
X135741500Y-92090000D02*
X143776900Y-100125400D01*
X143776900Y-100125400D02*
X146183700Y-100125400D01*
X146183700Y-100125400D02*
X147125400Y-101067100D01*
X147125400Y-101067100D02*
X147125400Y-103457700D01*
X147125400Y-103457700D02*
X147658900Y-103991200D01*
X147658900Y-103991200D02*
X147658900Y-109197200D01*
X147658900Y-109197200D02*
X146281400Y-110574700D01*
X146281400Y-110574700D02*
X146000000Y-110574700D01*
X133500000Y-84212700D02*
X133500000Y-84254300D01*
X145500000Y-83200000D02*
X144374700Y-83200000D01*
X133500000Y-83200000D02*
X133500000Y-84212700D01*
G04 #@! TO.N,/VD6*
X153620000Y-115654700D02*
X153901400Y-115654700D01*
X153901400Y-115654700D02*
X155195600Y-114360500D01*
X155195600Y-114360500D02*
X155195600Y-108842000D01*
X155195600Y-108842000D02*
X170712600Y-93325000D01*
X170712600Y-93325000D02*
X170889700Y-93325000D01*
X172015000Y-93325000D02*
X170889700Y-93325000D01*
X153620000Y-116780000D02*
X153620000Y-115654700D01*
G04 #@! TO.N,/AD3*
X133500000Y-80660000D02*
X131019900Y-83140100D01*
X131019900Y-83140100D02*
X131019900Y-94282400D01*
X131019900Y-94282400D02*
X138727900Y-101990400D01*
X138727900Y-101990400D02*
X142110200Y-101990400D01*
X142110200Y-101990400D02*
X145469800Y-105350000D01*
X145469800Y-105350000D02*
X146322000Y-105350000D01*
X146322000Y-105350000D02*
X147174100Y-106202100D01*
X147174100Y-106202100D02*
X147174100Y-107077800D01*
X147174100Y-107077800D02*
X146217200Y-108034700D01*
X146217200Y-108034700D02*
X146000000Y-108034700D01*
X146000000Y-109160000D02*
X146000000Y-108034700D01*
G04 #@! TO.N,/AD2*
X130172900Y-87928600D02*
X130553700Y-87928600D01*
X130553700Y-87928600D02*
X130553700Y-94453100D01*
X130553700Y-94453100D02*
X138855800Y-102755200D01*
X138855800Y-102755200D02*
X141009900Y-102755200D01*
X141009900Y-102755200D02*
X144874700Y-106620000D01*
X133500000Y-79245300D02*
X133218700Y-79245300D01*
X133218700Y-79245300D02*
X130553700Y-81910300D01*
X130553700Y-81910300D02*
X130553700Y-87928600D01*
X146000000Y-106620000D02*
X144874700Y-106620000D01*
X133500000Y-78120000D02*
X133500000Y-79245300D01*
G04 #@! TO.N,/AD1*
X122365000Y-97905100D02*
X121872900Y-98397200D01*
X121872900Y-98397200D02*
X121872900Y-104022800D01*
X121872900Y-104022800D02*
X122987500Y-105137400D01*
X122987500Y-105137400D02*
X124026600Y-105137400D01*
X124026600Y-105137400D02*
X127359000Y-101805000D01*
X127359000Y-101805000D02*
X127359000Y-84468100D01*
X127359000Y-84468100D02*
X132374700Y-79452400D01*
X132374700Y-79452400D02*
X132374700Y-77549200D01*
X132374700Y-77549200D02*
X133218600Y-76705300D01*
X133218600Y-76705300D02*
X133500000Y-76705300D01*
X118678400Y-88840200D02*
X119442500Y-88076100D01*
X119442500Y-88076100D02*
X120605900Y-88076100D01*
X120605900Y-88076100D02*
X122364900Y-89835100D01*
X122364900Y-89835100D02*
X122364900Y-97905100D01*
X122364900Y-97905100D02*
X122365000Y-97905100D01*
X133500000Y-75580000D02*
X133500000Y-76705300D01*
G04 #@! TO.N,/VD3*
X153620000Y-108034700D02*
X153338700Y-108034700D01*
X153338700Y-108034700D02*
X149460100Y-104156100D01*
X149460100Y-104156100D02*
X149460100Y-103019800D01*
X149460100Y-103019800D02*
X149455000Y-103014700D01*
X149455000Y-103014700D02*
X149455000Y-98372800D01*
X149455000Y-98372800D02*
X146217100Y-95134900D01*
X146217100Y-95134900D02*
X143812000Y-95134900D01*
X153620000Y-109160000D02*
X153620000Y-108034700D01*
G04 #@! TO.N,/AD0*
X134625300Y-75009200D02*
X134625300Y-81209200D01*
X134625300Y-81209200D02*
X133759900Y-82074600D01*
X133759900Y-82074600D02*
X133021400Y-82074600D01*
X133021400Y-82074600D02*
X131470200Y-83625800D01*
X131470200Y-83625800D02*
X131470200Y-92386000D01*
X131470200Y-92386000D02*
X132085800Y-93001600D01*
X145500000Y-73040000D02*
X144374700Y-73040000D01*
X134625300Y-75009200D02*
X133781400Y-74165300D01*
X133781400Y-74165300D02*
X133500000Y-74165300D01*
X144374700Y-73040000D02*
X143249400Y-74165300D01*
X143249400Y-74165300D02*
X135469200Y-74165300D01*
X135469200Y-74165300D02*
X134625300Y-75009200D01*
X133500000Y-73040000D02*
X133500000Y-74165300D01*
X144874700Y-101540000D02*
X138914500Y-101540000D01*
X138914500Y-101540000D02*
X132085800Y-94711300D01*
X132085800Y-94711300D02*
X132085800Y-93001600D01*
X146000000Y-101540000D02*
X144874700Y-101540000D01*
G04 #@! TO.N,/VD2*
X153620000Y-105494700D02*
X153356300Y-105494700D01*
X153356300Y-105494700D02*
X149905300Y-102043700D01*
X149905300Y-102043700D02*
X149905300Y-98186200D01*
X149905300Y-98186200D02*
X146217700Y-94498600D01*
X146217700Y-94498600D02*
X144626600Y-94498600D01*
X144626600Y-94498600D02*
X144537600Y-94409600D01*
X153620000Y-106620000D02*
X153620000Y-105494700D01*
X156775000Y-99530300D02*
X156493600Y-99530300D01*
X156493600Y-99530300D02*
X155649700Y-100374200D01*
X155649700Y-100374200D02*
X155649700Y-103647600D01*
X155649700Y-103647600D02*
X153802600Y-105494700D01*
X153802600Y-105494700D02*
X153620000Y-105494700D01*
X156775000Y-98405000D02*
X156775000Y-99530300D01*
G04 #@! TO.N,/R~W*
X181375500Y-78867900D02*
X181375500Y-78400100D01*
X181375500Y-78400100D02*
X173440400Y-70465000D01*
X173440400Y-70465000D02*
X173140300Y-70465000D01*
X180210700Y-92515900D02*
X181375500Y-91351100D01*
X181375500Y-91351100D02*
X181375500Y-78867900D01*
X187374700Y-79500000D02*
X186742600Y-78867900D01*
X186742600Y-78867900D02*
X181375500Y-78867900D01*
X188500000Y-79500000D02*
X187374700Y-79500000D01*
X172015000Y-70465000D02*
X173140300Y-70465000D01*
G04 #@! TO.N,/VD1*
X120090000Y-90335300D02*
X120267000Y-90335300D01*
X120267000Y-90335300D02*
X121422600Y-91490900D01*
X121422600Y-91490900D02*
X121422600Y-104209400D01*
X121422600Y-104209400D02*
X122800900Y-105587700D01*
X122800900Y-105587700D02*
X128441100Y-105587700D01*
X128441100Y-105587700D02*
X130303100Y-103725700D01*
X153620000Y-102954700D02*
X153901300Y-102954700D01*
X153901300Y-102954700D02*
X155195700Y-101660300D01*
X155195700Y-101660300D02*
X155195700Y-98288300D01*
X155195700Y-98288300D02*
X156493700Y-96990300D01*
X156493700Y-96990300D02*
X156775000Y-96990300D01*
X120090000Y-89210000D02*
X120090000Y-90335300D01*
X156775000Y-95865000D02*
X156775000Y-96990300D01*
X153620000Y-104080000D02*
X153620000Y-102954700D01*
G04 #@! TO.N,/VD0*
X153620000Y-101540000D02*
X153620000Y-100414700D01*
X156775000Y-93325000D02*
X156775000Y-94450300D01*
X156775000Y-94450300D02*
X156493700Y-94450300D01*
X156493700Y-94450300D02*
X154745300Y-96198700D01*
X154745300Y-96198700D02*
X154745300Y-99570800D01*
X154745300Y-99570800D02*
X153901400Y-100414700D01*
X153901400Y-100414700D02*
X153620000Y-100414700D01*
G04 #@! TO.N,/A0*
X157205000Y-62625000D02*
X157205000Y-61449700D01*
X104850000Y-96830000D02*
X104850000Y-95704700D01*
X104850000Y-95704700D02*
X105131400Y-95704700D01*
X105131400Y-95704700D02*
X105975300Y-94860800D01*
X105975300Y-94860800D02*
X105975300Y-71932700D01*
X105975300Y-71932700D02*
X117033400Y-60874600D01*
X117033400Y-60874600D02*
X118614000Y-60874600D01*
X118614000Y-60874600D02*
X122958600Y-56530000D01*
X122958600Y-56530000D02*
X152787000Y-56530000D01*
X152787000Y-56530000D02*
X156029700Y-59772700D01*
X156029700Y-59772700D02*
X156029700Y-60641800D01*
X156029700Y-60641800D02*
X156837600Y-61449700D01*
X156837600Y-61449700D02*
X157205000Y-61449700D01*
D21*
G04 #@! TO.N,VCC*
X153620000Y-99000000D02*
X153620000Y-97699700D01*
X153620000Y-97699700D02*
X153500000Y-97579700D01*
X153500000Y-97579700D02*
X153500000Y-96500000D01*
X151044500Y-74663000D02*
X150436600Y-75270900D01*
X150436600Y-75270900D02*
X150436600Y-93436600D01*
X150436600Y-93436600D02*
X153500000Y-96500000D01*
X120090000Y-84130000D02*
X121390300Y-84130000D01*
X122581300Y-84146200D02*
X123108600Y-83618900D01*
X123108600Y-83618900D02*
X123108600Y-83091400D01*
X123108600Y-83091400D02*
X130800400Y-75399600D01*
X130800400Y-75399600D02*
X130800400Y-70857000D01*
X130800400Y-70857000D02*
X132843900Y-68813500D01*
X121390300Y-84130000D02*
X121406500Y-84146200D01*
X121406500Y-84146200D02*
X122581300Y-84146200D01*
X122581300Y-84146200D02*
X126306500Y-87871400D01*
X126306500Y-87871400D02*
X126306500Y-91007100D01*
X126306500Y-91007100D02*
X124770100Y-92543500D01*
X124770100Y-92543500D02*
X124770100Y-98729900D01*
X124770100Y-98729900D02*
X123500000Y-100000000D01*
X132843900Y-68813500D02*
X132843900Y-67554200D01*
X132843900Y-67554200D02*
X129265000Y-63975300D01*
X141000000Y-68813500D02*
X132843900Y-68813500D01*
X113500000Y-94500000D02*
X113500000Y-90720000D01*
X113500000Y-90720000D02*
X120090000Y-84130000D01*
X196120000Y-79500000D02*
X196120000Y-78199700D01*
X196120000Y-78199700D02*
X196500000Y-77819700D01*
X196500000Y-77819700D02*
X196500000Y-76500000D01*
X196500000Y-97500000D02*
X194780000Y-95780000D01*
X194780000Y-95780000D02*
X194780000Y-80840000D01*
X194780000Y-80840000D02*
X196120000Y-79500000D01*
X163621700Y-72521800D02*
X166000000Y-74900100D01*
X166000000Y-74900100D02*
X166000000Y-76000000D01*
X153120000Y-70500000D02*
X153120000Y-69199700D01*
X153120000Y-69199700D02*
X153500000Y-68819700D01*
X153500000Y-68819700D02*
X153500000Y-67500000D01*
X129265000Y-62625000D02*
X129265000Y-63975300D01*
X129265000Y-62625000D02*
X128075300Y-62625000D01*
X126725000Y-62625000D02*
X128075300Y-62625000D01*
X184169500Y-74000000D02*
X184169500Y-76150200D01*
X184169500Y-76150200D02*
X184120000Y-76199700D01*
X173315300Y-67925000D02*
X177453800Y-72063500D01*
X177453800Y-72063500D02*
X182233000Y-72063500D01*
X182233000Y-72063500D02*
X184169500Y-74000000D01*
X184169500Y-74000000D02*
X184500000Y-74000000D01*
X184120000Y-77500000D02*
X184120000Y-76199700D01*
X172015000Y-67925000D02*
X173315300Y-67925000D01*
X141000000Y-68813500D02*
X141000000Y-67500000D01*
X141120000Y-69199700D02*
X141000000Y-69079700D01*
X141000000Y-69079700D02*
X141000000Y-68813500D01*
X184120000Y-98000000D02*
X184120000Y-96699700D01*
X184120000Y-96699700D02*
X184500000Y-96319700D01*
X184500000Y-96319700D02*
X184500000Y-95500000D01*
X141120000Y-70500000D02*
X141120000Y-69199700D01*
X196120000Y-99199700D02*
X196500000Y-98819700D01*
X196500000Y-98819700D02*
X196500000Y-97500000D01*
X196120000Y-100500000D02*
X196120000Y-99199700D01*
D20*
G04 #@! TO.N,/D7*
X120090000Y-106990000D02*
X118618400Y-105518400D01*
X118618400Y-105518400D02*
X118618400Y-99026600D01*
G04 #@! TO.N,/D6*
X120090000Y-108404700D02*
X119808700Y-108404700D01*
X119808700Y-108404700D02*
X112330600Y-100926600D01*
X112330600Y-100926600D02*
X112330600Y-91005000D01*
X112330600Y-91005000D02*
X118771400Y-84564200D01*
X118771400Y-84564200D02*
X118771400Y-66047300D01*
X118771400Y-66047300D02*
X125961100Y-58857600D01*
X125961100Y-58857600D02*
X129702400Y-58857600D01*
X129702400Y-58857600D02*
X130440400Y-59595600D01*
X130440400Y-59595600D02*
X130440400Y-62994800D01*
X130440400Y-62994800D02*
X131696200Y-64250600D01*
X131696200Y-64250600D02*
X142071500Y-64250600D01*
X142071500Y-64250600D02*
X143329700Y-62992400D01*
X143329700Y-62992400D02*
X143329700Y-62625000D01*
X144505000Y-62625000D02*
X143329700Y-62625000D01*
X120090000Y-109530000D02*
X120090000Y-108404700D01*
G04 #@! TO.N,/D5*
X120090000Y-110944700D02*
X119808700Y-110944700D01*
X119808700Y-110944700D02*
X109871200Y-101007200D01*
X109871200Y-101007200D02*
X109871200Y-79948600D01*
X109871200Y-79948600D02*
X118095800Y-71724000D01*
X118095800Y-71724000D02*
X118095800Y-66053800D01*
X118095800Y-66053800D02*
X125752400Y-58397200D01*
X125752400Y-58397200D02*
X131801800Y-58397200D01*
X131801800Y-58397200D02*
X133075000Y-59670400D01*
X133075000Y-59670400D02*
X133075000Y-60564800D01*
X133075000Y-60564800D02*
X133770600Y-61260400D01*
X133770600Y-61260400D02*
X134644600Y-61260400D01*
X134644600Y-61260400D02*
X135615000Y-62230800D01*
X135615000Y-62230800D02*
X135615000Y-63113700D01*
X135615000Y-63113700D02*
X136301600Y-63800300D01*
X136301600Y-63800300D02*
X139914000Y-63800300D01*
X139914000Y-63800300D02*
X140789700Y-62924600D01*
X140789700Y-62924600D02*
X140789700Y-62068200D01*
X140789700Y-62068200D02*
X141597600Y-61260300D01*
X141597600Y-61260300D02*
X141965000Y-61260300D01*
X141965000Y-60085000D02*
X141965000Y-61260300D01*
X120090000Y-112070000D02*
X120090000Y-110944700D01*
G04 #@! TO.N,Net-(C1-Pad1)*
X120090000Y-68890000D02*
X120090000Y-70015300D01*
X120090000Y-70015300D02*
X121015300Y-70015300D01*
X121015300Y-70015300D02*
X125000000Y-74000000D01*
G04 #@! TO.N,/D4*
X120090000Y-113484700D02*
X119808700Y-113484700D01*
X119808700Y-113484700D02*
X109420900Y-103096900D01*
X109420900Y-103096900D02*
X109420900Y-78243100D01*
X109420900Y-78243100D02*
X117370500Y-70293500D01*
X120090000Y-114610000D02*
X120090000Y-113484700D01*
G04 #@! TO.N,Net-(C2-Pad1)*
X125000000Y-69120000D02*
X129120000Y-69120000D01*
X129120000Y-69120000D02*
X129500000Y-69500000D01*
G04 #@! TO.N,/VA13*
X142245300Y-90820000D02*
X142882100Y-90820000D01*
X142882100Y-90820000D02*
X144007400Y-89694700D01*
X144007400Y-89694700D02*
X145690100Y-89694700D01*
X145690100Y-89694700D02*
X147680000Y-87704800D01*
X147680000Y-87704800D02*
X147680000Y-76916800D01*
X147680000Y-76916800D02*
X150705100Y-73891700D01*
X150705100Y-73891700D02*
X151466800Y-73891700D01*
X151466800Y-73891700D02*
X151749200Y-74174100D01*
X151749200Y-74174100D02*
X153962200Y-74174100D01*
X153962200Y-74174100D02*
X156401300Y-71735000D01*
X156401300Y-71735000D02*
X157130200Y-71735000D01*
X157130200Y-71735000D02*
X157924600Y-70940600D01*
X157924600Y-70940600D02*
X157924600Y-69918600D01*
X157924600Y-69918600D02*
X157056300Y-69050300D01*
X157056300Y-69050300D02*
X156775000Y-69050300D01*
X141120000Y-90820000D02*
X142245300Y-90820000D01*
X156775000Y-67925000D02*
X156775000Y-69050300D01*
G04 #@! TO.N,/VA12*
X155649700Y-70465000D02*
X154281400Y-71833300D01*
X154281400Y-71833300D02*
X152126600Y-71833300D01*
X152126600Y-71833300D02*
X147144800Y-76815100D01*
X147144800Y-76815100D02*
X147144800Y-85738000D01*
X147144800Y-85738000D02*
X146017400Y-86865400D01*
X146017400Y-86865400D02*
X145152400Y-86865400D01*
X145152400Y-86865400D02*
X143737800Y-88280000D01*
X143737800Y-88280000D02*
X141120000Y-88280000D01*
X156775000Y-70465000D02*
X155649700Y-70465000D01*
G04 #@! TO.N,/VA6*
X153120000Y-89694700D02*
X152895100Y-89694700D01*
X152895100Y-89694700D02*
X151092600Y-87892200D01*
X151092600Y-87892200D02*
X151092600Y-78488700D01*
X151092600Y-78488700D02*
X152615800Y-76965500D01*
X152615800Y-76965500D02*
X154229200Y-76965500D01*
X154229200Y-76965500D02*
X155649700Y-75545000D01*
X153120000Y-90820000D02*
X153120000Y-89694700D01*
X156775000Y-75545000D02*
X155649700Y-75545000D01*
G04 #@! TO.N,/VA5*
X156775000Y-78085000D02*
X155649700Y-78085000D01*
X155649700Y-78085000D02*
X154344700Y-79390000D01*
X154344700Y-79390000D02*
X152771000Y-79390000D01*
X152771000Y-79390000D02*
X151543000Y-80618000D01*
X151543000Y-80618000D02*
X151543000Y-86703000D01*
X151543000Y-86703000D02*
X153120000Y-88280000D01*
G04 #@! TO.N,/VA4*
X153120000Y-85740000D02*
X153120000Y-84614700D01*
X156775000Y-80625000D02*
X156775000Y-81750300D01*
X156775000Y-81750300D02*
X156493600Y-81750300D01*
X156493600Y-81750300D02*
X153629200Y-84614700D01*
X153629200Y-84614700D02*
X153120000Y-84614700D01*
G04 #@! TO.N,/VA2*
X153120000Y-80660000D02*
X153120000Y-81785300D01*
X156775000Y-85705000D02*
X155649700Y-85705000D01*
X155649700Y-85705000D02*
X154483900Y-86870800D01*
X154483900Y-86870800D02*
X152642700Y-86870800D01*
X152642700Y-86870800D02*
X151994700Y-86222800D01*
X151994700Y-86222800D02*
X151994700Y-82629200D01*
X151994700Y-82629200D02*
X152838600Y-81785300D01*
X152838600Y-81785300D02*
X153120000Y-81785300D01*
G04 #@! TO.N,/~R~W*
X153620000Y-120734700D02*
X153901300Y-120734700D01*
X153901300Y-120734700D02*
X158824600Y-115811400D01*
X158824600Y-115811400D02*
X158824600Y-105849900D01*
X158824600Y-105849900D02*
X170079400Y-94595100D01*
X170079400Y-94595100D02*
X172379100Y-94595100D01*
X172379100Y-94595100D02*
X173163900Y-93810300D01*
X173163900Y-93810300D02*
X173163900Y-85157900D01*
X173163900Y-85157900D02*
X172296300Y-84290300D01*
X172296300Y-84290300D02*
X172015000Y-84290300D01*
X153620000Y-121860000D02*
X153620000Y-120734700D01*
X172015000Y-83165000D02*
X172015000Y-84290300D01*
G04 #@! TO.N,/VA1*
X156775000Y-88245000D02*
X156775000Y-87119700D01*
X156775000Y-87119700D02*
X157056300Y-87119700D01*
X157056300Y-87119700D02*
X157940600Y-86235400D01*
X157940600Y-86235400D02*
X157940600Y-77625100D01*
X157940600Y-77625100D02*
X157265500Y-76950000D01*
X157265500Y-76950000D02*
X156147800Y-76950000D01*
X156147800Y-76950000D02*
X154977800Y-78120000D01*
X154977800Y-78120000D02*
X153120000Y-78120000D01*
G04 #@! TO.N,/VA0*
X156775000Y-89659700D02*
X156961400Y-89659700D01*
X156961400Y-89659700D02*
X158390900Y-88230200D01*
X158390900Y-88230200D02*
X158390900Y-75512700D01*
X158390900Y-75512700D02*
X157247300Y-74369100D01*
X157247300Y-74369100D02*
X155456200Y-74369100D01*
X155456200Y-74369100D02*
X154245300Y-75580000D01*
X153120000Y-75580000D02*
X154245300Y-75580000D01*
X156775000Y-90785000D02*
X156775000Y-89659700D01*
G04 #@! TO.N,/ROW*
X153120000Y-93360000D02*
X154245300Y-93360000D01*
X154245300Y-93360000D02*
X154245300Y-93121900D01*
X154245300Y-93121900D02*
X155535100Y-91832100D01*
G04 #@! TO.N,/A5*
X162285000Y-60085000D02*
X162285000Y-61260300D01*
X176500000Y-100540000D02*
X176500000Y-99414700D01*
X176500000Y-99414700D02*
X177203400Y-99414700D01*
X177203400Y-99414700D02*
X178563900Y-98054200D01*
X178563900Y-98054200D02*
X178563900Y-77499200D01*
X178563900Y-77499200D02*
X177411600Y-76346900D01*
X177411600Y-76346900D02*
X174336800Y-76346900D01*
X174336800Y-76346900D02*
X173980500Y-76703200D01*
X173980500Y-76703200D02*
X171577500Y-76703200D01*
X171577500Y-76703200D02*
X163460300Y-68586000D01*
X163460300Y-68586000D02*
X163460300Y-62068200D01*
X163460300Y-62068200D02*
X162652400Y-61260300D01*
X162652400Y-61260300D02*
X162285000Y-61260300D01*
G04 #@! TO.N,/A6*
X176500000Y-101954700D02*
X176781300Y-101954700D01*
X176781300Y-101954700D02*
X179014200Y-99721800D01*
X179014200Y-99721800D02*
X179014200Y-77312600D01*
X179014200Y-77312600D02*
X175976600Y-74275000D01*
X175976600Y-74275000D02*
X171644600Y-74275000D01*
X171644600Y-74275000D02*
X164825000Y-67455400D01*
X164825000Y-67455400D02*
X164825000Y-62625000D01*
X176500000Y-103080000D02*
X176500000Y-101954700D01*
G04 #@! TO.N,Net-(J5-Pad2)*
X162540000Y-113540000D02*
X162540000Y-114904700D01*
X162540000Y-111000000D02*
X162540000Y-113540000D01*
X162540000Y-116080000D02*
X162540000Y-114904700D01*
G04 #@! TO.N,Net-(J4-Pad3)*
X167500000Y-113540000D02*
X168675300Y-113540000D01*
X184120000Y-110700000D02*
X182994700Y-110700000D01*
X182994700Y-110700000D02*
X181869400Y-111825300D01*
X181869400Y-111825300D02*
X173825400Y-111825300D01*
X173825400Y-111825300D02*
X173286000Y-112364700D01*
X173286000Y-112364700D02*
X169483200Y-112364700D01*
X169483200Y-112364700D02*
X168675300Y-113172600D01*
X168675300Y-113172600D02*
X168675300Y-113540000D01*
G04 #@! TO.N,Net-(J4-Pad2)*
X187374700Y-106150800D02*
X188218600Y-106994700D01*
X188218600Y-106994700D02*
X188500000Y-106994700D01*
X188500000Y-101625300D02*
X188218700Y-101625300D01*
X188218700Y-101625300D02*
X187374700Y-102469300D01*
X187374700Y-102469300D02*
X187374700Y-106150800D01*
X187374700Y-106150800D02*
X186635500Y-106890000D01*
X186635500Y-106890000D02*
X175325300Y-106890000D01*
X175325300Y-106890000D02*
X171215300Y-111000000D01*
X170040000Y-111000000D02*
X171215300Y-111000000D01*
X188500000Y-108120000D02*
X188500000Y-106994700D01*
X188500000Y-100500000D02*
X188500000Y-101625300D01*
X170040000Y-113540000D02*
X170040000Y-114715300D01*
X169927500Y-114725700D02*
X169927500Y-114792200D01*
X169927500Y-114792200D02*
X170040000Y-114904700D01*
X170040000Y-114715300D02*
X169937900Y-114715300D01*
X169937900Y-114715300D02*
X169927500Y-114725700D01*
X168864700Y-111000000D02*
X168864700Y-110192000D01*
X168864700Y-110192000D02*
X168497300Y-109824600D01*
X168497300Y-109824600D02*
X166481400Y-109824600D01*
X166481400Y-109824600D02*
X166324600Y-109981400D01*
X166324600Y-109981400D02*
X166324600Y-114044100D01*
X166324600Y-114044100D02*
X167006200Y-114725700D01*
X167006200Y-114725700D02*
X169927500Y-114725700D01*
X170040000Y-116080000D02*
X170040000Y-114904700D01*
X170040000Y-111000000D02*
X168864700Y-111000000D01*
G04 #@! TO.N,/A3*
X184120000Y-101954700D02*
X183838700Y-101954700D01*
X183838700Y-101954700D02*
X179464500Y-97580500D01*
X179464500Y-97580500D02*
X179464500Y-77126000D01*
X179464500Y-77126000D02*
X174073500Y-71735000D01*
X174073500Y-71735000D02*
X171677600Y-71735000D01*
X171677600Y-71735000D02*
X168635000Y-68692400D01*
X168635000Y-68692400D02*
X168635000Y-62203100D01*
X168635000Y-62203100D02*
X167804800Y-61372900D01*
X167804800Y-61372900D02*
X166988600Y-61372900D01*
X166988600Y-61372900D02*
X166163900Y-60548200D01*
X166163900Y-60548200D02*
X166163900Y-59739500D01*
X166163900Y-59739500D02*
X165331000Y-58906600D01*
X165331000Y-58906600D02*
X161752700Y-58906600D01*
X161752700Y-58906600D02*
X160920300Y-59739000D01*
X160920300Y-59739000D02*
X160920300Y-60085000D01*
X184120000Y-103080000D02*
X184120000Y-101954700D01*
X159745000Y-60085000D02*
X160920300Y-60085000D01*
G04 #@! TO.N,/A7*
X176500000Y-78625300D02*
X176676900Y-78625300D01*
X176676900Y-78625300D02*
X178086100Y-80034500D01*
X178086100Y-80034500D02*
X178086100Y-94319500D01*
X178086100Y-94319500D02*
X175356100Y-97049500D01*
X175356100Y-97049500D02*
X175356100Y-99270400D01*
X175356100Y-99270400D02*
X167951200Y-106675300D01*
X167951200Y-106675300D02*
X163983200Y-106675300D01*
X163983200Y-106675300D02*
X163175300Y-105867400D01*
X163175300Y-105867400D02*
X163175300Y-105500000D01*
X170589000Y-71879600D02*
X166164100Y-67454700D01*
X166164100Y-67454700D02*
X166164100Y-62231700D01*
X166164100Y-62231700D02*
X165192700Y-61260300D01*
X165192700Y-61260300D02*
X164825000Y-61260300D01*
X162000000Y-105500000D02*
X163175300Y-105500000D01*
X176500000Y-77500000D02*
X176500000Y-78625300D01*
X164825000Y-60085000D02*
X164825000Y-61260300D01*
G04 #@! TO.N,Net-(JP1-Pad3)*
X176500000Y-81165300D02*
X176781300Y-81165300D01*
X176781300Y-81165300D02*
X177626800Y-82010800D01*
X177626800Y-82010800D02*
X177626800Y-94098100D01*
X177626800Y-94098100D02*
X173230500Y-98494400D01*
X173230500Y-98494400D02*
X173230500Y-98789700D01*
X173230500Y-98789700D02*
X172345200Y-99675000D01*
X172345200Y-99675000D02*
X171617400Y-99675000D01*
X171617400Y-99675000D02*
X167080000Y-104212400D01*
X167080000Y-104212400D02*
X167080000Y-105500000D01*
X176500000Y-80040000D02*
X176500000Y-81165300D01*
G04 #@! TO.N,/RES*
X152125000Y-62625000D02*
X153300300Y-62625000D01*
X176500000Y-82580000D02*
X175374700Y-82580000D01*
X175374700Y-82580000D02*
X175374700Y-82298700D01*
X175374700Y-82298700D02*
X172575600Y-79499600D01*
X172575600Y-79499600D02*
X171790300Y-79499600D01*
X171790300Y-79499600D02*
X170399400Y-78108700D01*
X170399400Y-78108700D02*
X170399400Y-77607200D01*
X170399400Y-77607200D02*
X157142800Y-64350600D01*
X157142800Y-64350600D02*
X154658600Y-64350600D01*
X154658600Y-64350600D02*
X153300300Y-62992300D01*
X153300300Y-62992300D02*
X153300300Y-62625000D01*
G04 #@! TO.N,/~IOR*
X148220300Y-62625000D02*
X148220300Y-62992300D01*
X148220300Y-62992300D02*
X150710800Y-65482800D01*
X150710800Y-65482800D02*
X157614500Y-65482800D01*
X157614500Y-65482800D02*
X167709400Y-75577700D01*
X167709400Y-75577700D02*
X167709400Y-77932200D01*
X167709400Y-77932200D02*
X171672200Y-81895000D01*
X171672200Y-81895000D02*
X172337900Y-81895000D01*
X172337900Y-81895000D02*
X173633000Y-83190100D01*
X173633000Y-83190100D02*
X173633000Y-95871000D01*
X173633000Y-95871000D02*
X172369000Y-97135000D01*
X172369000Y-97135000D02*
X168176400Y-97135000D01*
X168176400Y-97135000D02*
X160810900Y-104500500D01*
X160810900Y-104500500D02*
X160810900Y-106471000D01*
X160810900Y-106471000D02*
X161507000Y-107167100D01*
X161507000Y-107167100D02*
X169853700Y-107167100D01*
X169853700Y-107167100D02*
X172670800Y-104350000D01*
X172670800Y-104350000D02*
X184442500Y-104350000D01*
X184442500Y-104350000D02*
X186404100Y-102388400D01*
X186404100Y-102388400D02*
X186404100Y-100506100D01*
X186404100Y-100506100D02*
X187582000Y-99328200D01*
X187582000Y-99328200D02*
X189422700Y-99328200D01*
X189422700Y-99328200D02*
X189628800Y-99534300D01*
X189628800Y-99534300D02*
X189628800Y-101911200D01*
X189628800Y-101911200D02*
X188500000Y-103040000D01*
X147045000Y-62625000D02*
X148220300Y-62625000D01*
G04 #@! TO.N,Net-(U1-Pad11)*
X196120000Y-94740000D02*
X196120000Y-93614700D01*
X196120000Y-87120000D02*
X196120000Y-88245300D01*
X196120000Y-88245300D02*
X196401300Y-88245300D01*
X196401300Y-88245300D02*
X197245300Y-89089300D01*
X197245300Y-89089300D02*
X197245300Y-92770800D01*
X197245300Y-92770800D02*
X196401400Y-93614700D01*
X196401400Y-93614700D02*
X196120000Y-93614700D01*
G04 #@! TO.N,Net-(C15-Pad2)*
X141000000Y-112340000D02*
X141000000Y-111214700D01*
X141000000Y-111214700D02*
X141500000Y-110714700D01*
X141500000Y-110714700D02*
X141500000Y-106500000D01*
G04 #@! TO.N,Net-(C15-Pad1)*
X123500000Y-104000000D02*
X122364800Y-102864800D01*
X122364800Y-102864800D02*
X122364800Y-99286100D01*
X122364800Y-99286100D02*
X123500000Y-98150900D01*
X123500000Y-98150900D02*
X123500000Y-96075300D01*
X123500000Y-95000000D02*
X123500000Y-96075300D01*
G04 #@! TO.N,Net-(C14-Pad1)*
X133168800Y-101900100D02*
X127568900Y-107500000D01*
X127568900Y-107500000D02*
X127000000Y-107500000D01*
X133660000Y-101125300D02*
X133660000Y-101408900D01*
X133660000Y-101408900D02*
X133168800Y-101900100D01*
X141000000Y-122500000D02*
X134785300Y-116285300D01*
X134785300Y-116285300D02*
X134785300Y-103516700D01*
X134785300Y-103516700D02*
X133168800Y-101900100D01*
X133660000Y-100000000D02*
X133660000Y-101125300D01*
G04 #@! TO.N,Net-(J5-Pad7)*
X160000000Y-118620000D02*
X161175300Y-118620000D01*
X176500000Y-113240000D02*
X175374700Y-113240000D01*
X175374700Y-113240000D02*
X171170000Y-117444700D01*
X171170000Y-117444700D02*
X161983200Y-117444700D01*
X161983200Y-117444700D02*
X161175300Y-118252600D01*
X161175300Y-118252600D02*
X161175300Y-118620000D01*
G04 #@! TO.N,/INT80*
X176420000Y-68000000D02*
X175244700Y-68000000D01*
X154665000Y-62625000D02*
X155840300Y-62625000D01*
X155840300Y-62625000D02*
X155840300Y-62992300D01*
X155840300Y-62992300D02*
X156698300Y-63850300D01*
X156698300Y-63850300D02*
X157673300Y-63850300D01*
X157673300Y-63850300D02*
X158475000Y-63048600D01*
X158475000Y-63048600D02*
X158475000Y-59627300D01*
X158475000Y-59627300D02*
X159704000Y-58398300D01*
X159704000Y-58398300D02*
X167383600Y-58398300D01*
X167383600Y-58398300D02*
X168540300Y-59555000D01*
X168540300Y-59555000D02*
X168540300Y-60384600D01*
X168540300Y-60384600D02*
X169605300Y-61449600D01*
X169605300Y-61449600D02*
X170430600Y-61449600D01*
X170430600Y-61449600D02*
X171175000Y-62194000D01*
X171175000Y-62194000D02*
X171175000Y-63930300D01*
X171175000Y-63930300D02*
X175244700Y-68000000D01*
G04 #@! TD*
D22*
G04 #@! TO.N,GND*
G36*
X199265000Y-124265000D02*
X143058701Y-124265000D01*
X144756459Y-122567243D01*
X144768959Y-122597423D01*
X145144866Y-123012389D01*
X145650959Y-123251914D01*
X145873000Y-123130629D01*
X145873000Y-121987000D01*
X146127000Y-121987000D01*
X146127000Y-123130629D01*
X146349041Y-123251914D01*
X146855134Y-123012389D01*
X147231041Y-122597423D01*
X147391904Y-122209039D01*
X147269915Y-121987000D01*
X146127000Y-121987000D01*
X145873000Y-121987000D01*
X145853000Y-121987000D01*
X145853000Y-121733000D01*
X145873000Y-121733000D01*
X145873000Y-121713000D01*
X146127000Y-121713000D01*
X146127000Y-121733000D01*
X147269915Y-121733000D01*
X147391904Y-121510961D01*
X147265304Y-121205300D01*
X151294553Y-121205300D01*
X151369400Y-121220188D01*
X151444247Y-121205300D01*
X151444252Y-121205300D01*
X151665937Y-121161204D01*
X151917329Y-120993229D01*
X151959731Y-120929770D01*
X152565196Y-120324305D01*
X152585423Y-120354577D01*
X152881386Y-120552333D01*
X152864104Y-120639214D01*
X152585423Y-120825423D01*
X152268260Y-121300091D01*
X152156887Y-121860000D01*
X152268260Y-122419909D01*
X152585423Y-122894577D01*
X153060091Y-123211740D01*
X153478667Y-123295000D01*
X153761333Y-123295000D01*
X154179909Y-123211740D01*
X154654577Y-122894577D01*
X154971740Y-122419909D01*
X155083113Y-121860000D01*
X154971740Y-121300091D01*
X154747023Y-120963778D01*
X158781495Y-116929307D01*
X158929375Y-117150625D01*
X159227761Y-117350000D01*
X158929375Y-117549375D01*
X158601161Y-118040582D01*
X158485908Y-118620000D01*
X158601161Y-119199418D01*
X158929375Y-119690625D01*
X159420582Y-120018839D01*
X159853744Y-120105000D01*
X160146256Y-120105000D01*
X160579418Y-120018839D01*
X161070625Y-119690625D01*
X161270000Y-119392239D01*
X161469375Y-119690625D01*
X161960582Y-120018839D01*
X162393744Y-120105000D01*
X162686256Y-120105000D01*
X163119418Y-120018839D01*
X163610625Y-119690625D01*
X163938839Y-119199418D01*
X164054092Y-118620000D01*
X163971484Y-118204700D01*
X166068516Y-118204700D01*
X165985908Y-118620000D01*
X166101161Y-119199418D01*
X166429375Y-119690625D01*
X166920582Y-120018839D01*
X167353744Y-120105000D01*
X167646256Y-120105000D01*
X168079418Y-120018839D01*
X168570625Y-119690625D01*
X168770000Y-119392239D01*
X168969375Y-119690625D01*
X169460582Y-120018839D01*
X169893744Y-120105000D01*
X170186256Y-120105000D01*
X170435456Y-120055431D01*
X192265000Y-120055431D01*
X192265000Y-120944569D01*
X192605259Y-121766026D01*
X193233974Y-122394741D01*
X194055431Y-122735000D01*
X194944569Y-122735000D01*
X195766026Y-122394741D01*
X196394741Y-121766026D01*
X196735000Y-120944569D01*
X196735000Y-120055431D01*
X196394741Y-119233974D01*
X195766026Y-118605259D01*
X194944569Y-118265000D01*
X194055431Y-118265000D01*
X193233974Y-118605259D01*
X192605259Y-119233974D01*
X192265000Y-120055431D01*
X170435456Y-120055431D01*
X170619418Y-120018839D01*
X171110625Y-119690625D01*
X171438839Y-119199418D01*
X171554092Y-118620000D01*
X171462858Y-118161336D01*
X171466537Y-118160604D01*
X171717929Y-117992629D01*
X171760331Y-117929170D01*
X173560462Y-116129039D01*
X175108096Y-116129039D01*
X175268959Y-116517423D01*
X175644866Y-116932389D01*
X176150959Y-117171914D01*
X176373000Y-117050629D01*
X176373000Y-115907000D01*
X176627000Y-115907000D01*
X176627000Y-117050629D01*
X176849041Y-117171914D01*
X177355134Y-116932389D01*
X177731041Y-116517423D01*
X177891904Y-116129039D01*
X177769915Y-115907000D01*
X176627000Y-115907000D01*
X176373000Y-115907000D01*
X175230085Y-115907000D01*
X175108096Y-116129039D01*
X173560462Y-116129039D01*
X175445196Y-114244306D01*
X175465423Y-114274577D01*
X175849108Y-114530947D01*
X175644866Y-114627611D01*
X175268959Y-115042577D01*
X175108096Y-115430961D01*
X175230085Y-115653000D01*
X176373000Y-115653000D01*
X176373000Y-115633000D01*
X176627000Y-115633000D01*
X176627000Y-115653000D01*
X177769915Y-115653000D01*
X177891904Y-115430961D01*
X177731041Y-115042577D01*
X177355134Y-114627611D01*
X177150892Y-114530947D01*
X177534577Y-114274577D01*
X177851740Y-113799909D01*
X177963113Y-113240000D01*
X177851740Y-112680091D01*
X177788403Y-112585300D01*
X181794553Y-112585300D01*
X181869400Y-112600188D01*
X181944247Y-112585300D01*
X181944252Y-112585300D01*
X182165937Y-112541204D01*
X182417329Y-112373229D01*
X182459731Y-112309770D01*
X183065196Y-111704305D01*
X183085423Y-111734577D01*
X183437758Y-111970000D01*
X183085423Y-112205423D01*
X182768260Y-112680091D01*
X182656887Y-113240000D01*
X182768260Y-113799909D01*
X183085423Y-114274577D01*
X183437758Y-114510000D01*
X183085423Y-114745423D01*
X182768260Y-115220091D01*
X182656887Y-115780000D01*
X182768260Y-116339909D01*
X183085423Y-116814577D01*
X183560091Y-117131740D01*
X183978667Y-117215000D01*
X184261333Y-117215000D01*
X184679909Y-117131740D01*
X185154577Y-116814577D01*
X185471740Y-116339909D01*
X185521641Y-116089039D01*
X187108096Y-116089039D01*
X187268959Y-116477423D01*
X187644866Y-116892389D01*
X188150959Y-117131914D01*
X188373000Y-117010629D01*
X188373000Y-115867000D01*
X188627000Y-115867000D01*
X188627000Y-117010629D01*
X188849041Y-117131914D01*
X189355134Y-116892389D01*
X189731041Y-116477423D01*
X189891904Y-116089039D01*
X189769915Y-115867000D01*
X188627000Y-115867000D01*
X188373000Y-115867000D01*
X187230085Y-115867000D01*
X187108096Y-116089039D01*
X185521641Y-116089039D01*
X185583113Y-115780000D01*
X185575157Y-115740000D01*
X194656887Y-115740000D01*
X194768260Y-116299909D01*
X195085423Y-116774577D01*
X195560091Y-117091740D01*
X195978667Y-117175000D01*
X196261333Y-117175000D01*
X196679909Y-117091740D01*
X197154577Y-116774577D01*
X197471740Y-116299909D01*
X197583113Y-115740000D01*
X197471740Y-115180091D01*
X197154577Y-114705423D01*
X196770892Y-114449053D01*
X196975134Y-114352389D01*
X197351041Y-113937423D01*
X197511904Y-113549039D01*
X197389915Y-113327000D01*
X196247000Y-113327000D01*
X196247000Y-113347000D01*
X195993000Y-113347000D01*
X195993000Y-113327000D01*
X194850085Y-113327000D01*
X194728096Y-113549039D01*
X194888959Y-113937423D01*
X195264866Y-114352389D01*
X195469108Y-114449053D01*
X195085423Y-114705423D01*
X194768260Y-115180091D01*
X194656887Y-115740000D01*
X185575157Y-115740000D01*
X185471740Y-115220091D01*
X185154577Y-114745423D01*
X184802242Y-114510000D01*
X185154577Y-114274577D01*
X185471740Y-113799909D01*
X185583113Y-113240000D01*
X185471740Y-112680091D01*
X185154577Y-112205423D01*
X184802242Y-111970000D01*
X185154577Y-111734577D01*
X185471740Y-111259909D01*
X185583113Y-110700000D01*
X185471740Y-110140091D01*
X185154577Y-109665423D01*
X184802242Y-109430000D01*
X185154577Y-109194577D01*
X185471740Y-108719909D01*
X185583113Y-108160000D01*
X185481668Y-107650000D01*
X186560653Y-107650000D01*
X186635500Y-107664888D01*
X186710347Y-107650000D01*
X186710352Y-107650000D01*
X186932037Y-107605904D01*
X187183429Y-107437929D01*
X187225831Y-107374470D01*
X187365836Y-107234465D01*
X187148260Y-107560091D01*
X187036887Y-108120000D01*
X187148260Y-108679909D01*
X187465423Y-109154577D01*
X187817758Y-109390000D01*
X187465423Y-109625423D01*
X187148260Y-110100091D01*
X187036887Y-110660000D01*
X187148260Y-111219909D01*
X187465423Y-111694577D01*
X187817758Y-111930000D01*
X187465423Y-112165423D01*
X187148260Y-112640091D01*
X187036887Y-113200000D01*
X187148260Y-113759909D01*
X187465423Y-114234577D01*
X187849108Y-114490947D01*
X187644866Y-114587611D01*
X187268959Y-115002577D01*
X187108096Y-115390961D01*
X187230085Y-115613000D01*
X188373000Y-115613000D01*
X188373000Y-115593000D01*
X188627000Y-115593000D01*
X188627000Y-115613000D01*
X189769915Y-115613000D01*
X189891904Y-115390961D01*
X189731041Y-115002577D01*
X189355134Y-114587611D01*
X189150892Y-114490947D01*
X189534577Y-114234577D01*
X189851740Y-113759909D01*
X189963113Y-113200000D01*
X189851740Y-112640091D01*
X189534577Y-112165423D01*
X189182242Y-111930000D01*
X189534577Y-111694577D01*
X189851740Y-111219909D01*
X189893684Y-111009039D01*
X194728096Y-111009039D01*
X194888959Y-111397423D01*
X195264866Y-111812389D01*
X195513367Y-111930000D01*
X195264866Y-112047611D01*
X194888959Y-112462577D01*
X194728096Y-112850961D01*
X194850085Y-113073000D01*
X195993000Y-113073000D01*
X195993000Y-110787000D01*
X196247000Y-110787000D01*
X196247000Y-113073000D01*
X197389915Y-113073000D01*
X197511904Y-112850961D01*
X197351041Y-112462577D01*
X196975134Y-112047611D01*
X196726633Y-111930000D01*
X196975134Y-111812389D01*
X197351041Y-111397423D01*
X197511904Y-111009039D01*
X197389915Y-110787000D01*
X196247000Y-110787000D01*
X195993000Y-110787000D01*
X194850085Y-110787000D01*
X194728096Y-111009039D01*
X189893684Y-111009039D01*
X189963113Y-110660000D01*
X189851740Y-110100091D01*
X189534577Y-109625423D01*
X189182242Y-109390000D01*
X189534577Y-109154577D01*
X189851740Y-108679909D01*
X189963113Y-108120000D01*
X194656887Y-108120000D01*
X194768260Y-108679909D01*
X195085423Y-109154577D01*
X195469108Y-109410947D01*
X195264866Y-109507611D01*
X194888959Y-109922577D01*
X194728096Y-110310961D01*
X194850085Y-110533000D01*
X195993000Y-110533000D01*
X195993000Y-110513000D01*
X196247000Y-110513000D01*
X196247000Y-110533000D01*
X197389915Y-110533000D01*
X197511904Y-110310961D01*
X197351041Y-109922577D01*
X196975134Y-109507611D01*
X196770892Y-109410947D01*
X197154577Y-109154577D01*
X197471740Y-108679909D01*
X197583113Y-108120000D01*
X197471740Y-107560091D01*
X197154577Y-107085423D01*
X196770892Y-106829053D01*
X196975134Y-106732389D01*
X197351041Y-106317423D01*
X197511904Y-105929039D01*
X197389915Y-105707000D01*
X196247000Y-105707000D01*
X196247000Y-105727000D01*
X195993000Y-105727000D01*
X195993000Y-105707000D01*
X194850085Y-105707000D01*
X194728096Y-105929039D01*
X194888959Y-106317423D01*
X195264866Y-106732389D01*
X195469108Y-106829053D01*
X195085423Y-107085423D01*
X194768260Y-107560091D01*
X194656887Y-108120000D01*
X189963113Y-108120000D01*
X189851740Y-107560091D01*
X189534577Y-107085423D01*
X189255896Y-106899214D01*
X189238614Y-106812333D01*
X189534577Y-106614577D01*
X189851740Y-106139909D01*
X189963113Y-105580000D01*
X189851740Y-105020091D01*
X189534577Y-104545423D01*
X189182242Y-104310000D01*
X189534577Y-104074577D01*
X189851740Y-103599909D01*
X189893684Y-103389039D01*
X194728096Y-103389039D01*
X194888959Y-103777423D01*
X195264866Y-104192389D01*
X195513367Y-104310000D01*
X195264866Y-104427611D01*
X194888959Y-104842577D01*
X194728096Y-105230961D01*
X194850085Y-105453000D01*
X195993000Y-105453000D01*
X195993000Y-103167000D01*
X196247000Y-103167000D01*
X196247000Y-105453000D01*
X197389915Y-105453000D01*
X197511904Y-105230961D01*
X197351041Y-104842577D01*
X196975134Y-104427611D01*
X196726633Y-104310000D01*
X196975134Y-104192389D01*
X197351041Y-103777423D01*
X197511904Y-103389039D01*
X197389915Y-103167000D01*
X196247000Y-103167000D01*
X195993000Y-103167000D01*
X194850085Y-103167000D01*
X194728096Y-103389039D01*
X189893684Y-103389039D01*
X189963113Y-103040000D01*
X189898688Y-102716114D01*
X190113273Y-102501529D01*
X190176729Y-102459129D01*
X190344704Y-102207737D01*
X190388800Y-101986052D01*
X190388800Y-101986048D01*
X190403688Y-101911201D01*
X190388800Y-101836354D01*
X190388800Y-99609146D01*
X190403688Y-99534299D01*
X190388800Y-99459452D01*
X190388800Y-99459448D01*
X190344704Y-99237763D01*
X190176729Y-98986371D01*
X190113272Y-98943971D01*
X190013030Y-98843729D01*
X189970629Y-98780271D01*
X189719237Y-98612296D01*
X189497552Y-98568200D01*
X189497547Y-98568200D01*
X189422700Y-98553312D01*
X189347853Y-98568200D01*
X187656846Y-98568200D01*
X187581999Y-98553312D01*
X187507152Y-98568200D01*
X187507148Y-98568200D01*
X187285463Y-98612296D01*
X187034071Y-98780271D01*
X186991671Y-98843727D01*
X185919628Y-99915771D01*
X185856172Y-99958171D01*
X185813772Y-100021627D01*
X185813771Y-100021628D01*
X185688197Y-100209563D01*
X185629212Y-100506100D01*
X185644101Y-100580952D01*
X185644100Y-102073597D01*
X185361938Y-102355760D01*
X185154577Y-102045423D01*
X184875896Y-101859214D01*
X184863734Y-101798071D01*
X184858614Y-101772333D01*
X185154577Y-101574577D01*
X185471740Y-101099909D01*
X185583113Y-100540000D01*
X185471740Y-99980091D01*
X185154577Y-99505423D01*
X184802242Y-99270000D01*
X185154577Y-99034577D01*
X185471740Y-98559909D01*
X185482116Y-98507745D01*
X193171861Y-98507745D01*
X193245995Y-98753864D01*
X193783223Y-98946965D01*
X194353454Y-98919778D01*
X194754005Y-98753864D01*
X194828139Y-98507745D01*
X194000000Y-97679605D01*
X193171861Y-98507745D01*
X185482116Y-98507745D01*
X185583113Y-98000000D01*
X185471740Y-97440091D01*
X185366925Y-97283223D01*
X192553035Y-97283223D01*
X192580222Y-97853454D01*
X192746136Y-98254005D01*
X192992255Y-98328139D01*
X193820395Y-97500000D01*
X192992255Y-96671861D01*
X192746136Y-96745995D01*
X192553035Y-97283223D01*
X185366925Y-97283223D01*
X185173709Y-96994056D01*
X185174097Y-96993797D01*
X185380750Y-96684519D01*
X185389657Y-96639739D01*
X185537141Y-96492255D01*
X193171861Y-96492255D01*
X194000000Y-97320395D01*
X194014143Y-97306253D01*
X194193748Y-97485858D01*
X194179605Y-97500000D01*
X195007745Y-98328139D01*
X195253864Y-98254005D01*
X195256290Y-98247254D01*
X195283466Y-98312862D01*
X195476058Y-98505454D01*
X195445904Y-98525603D01*
X195393742Y-98603669D01*
X195393741Y-98603670D01*
X195239250Y-98834882D01*
X195166683Y-99199700D01*
X195185001Y-99291790D01*
X195185001Y-99398887D01*
X195085423Y-99465423D01*
X194768260Y-99940091D01*
X194656887Y-100500000D01*
X194768260Y-101059909D01*
X195085423Y-101534577D01*
X195469108Y-101790947D01*
X195264866Y-101887611D01*
X194888959Y-102302577D01*
X194728096Y-102690961D01*
X194850085Y-102913000D01*
X195993000Y-102913000D01*
X195993000Y-102893000D01*
X196247000Y-102893000D01*
X196247000Y-102913000D01*
X197389915Y-102913000D01*
X197511904Y-102690961D01*
X197351041Y-102302577D01*
X196975134Y-101887611D01*
X196770892Y-101790947D01*
X197154577Y-101534577D01*
X197471740Y-101059909D01*
X197583113Y-100500000D01*
X197471740Y-99940091D01*
X197173709Y-99494056D01*
X197174097Y-99493797D01*
X197380750Y-99184519D01*
X197400300Y-99086237D01*
X197453317Y-98819701D01*
X197435000Y-98727615D01*
X197435000Y-98594396D01*
X197716534Y-98312862D01*
X197935000Y-97785439D01*
X197935000Y-97214561D01*
X197716534Y-96687138D01*
X197312862Y-96283466D01*
X196785439Y-96065000D01*
X196719928Y-96065000D01*
X197154577Y-95774577D01*
X197471740Y-95299909D01*
X197583113Y-94740000D01*
X197471740Y-94180091D01*
X197247063Y-93843838D01*
X197729773Y-93361129D01*
X197793229Y-93318729D01*
X197882584Y-93185000D01*
X197961204Y-93067338D01*
X197986879Y-92938260D01*
X198005300Y-92845652D01*
X198005300Y-92845648D01*
X198020188Y-92770800D01*
X198005300Y-92695952D01*
X198005300Y-89164146D01*
X198020188Y-89089299D01*
X198005300Y-89014452D01*
X198005300Y-89014448D01*
X197961204Y-88792763D01*
X197793229Y-88541371D01*
X197729773Y-88498971D01*
X197247023Y-88016222D01*
X197471740Y-87679909D01*
X197583113Y-87120000D01*
X197471740Y-86560091D01*
X197154577Y-86085423D01*
X196802242Y-85850000D01*
X197154577Y-85614577D01*
X197471740Y-85139909D01*
X197583113Y-84580000D01*
X197471740Y-84020091D01*
X197154577Y-83545423D01*
X196802242Y-83310000D01*
X197154577Y-83074577D01*
X197471740Y-82599909D01*
X197583113Y-82040000D01*
X197471740Y-81480091D01*
X197154577Y-81005423D01*
X196802242Y-80770000D01*
X197154577Y-80534577D01*
X197471740Y-80059909D01*
X197583113Y-79500000D01*
X197471740Y-78940091D01*
X197173709Y-78494056D01*
X197174097Y-78493797D01*
X197380750Y-78184519D01*
X197395831Y-78108700D01*
X197453317Y-77819701D01*
X197435000Y-77727615D01*
X197435000Y-77594396D01*
X197716534Y-77312862D01*
X197935000Y-76785439D01*
X197935000Y-76214561D01*
X197716534Y-75687138D01*
X197312862Y-75283466D01*
X196785439Y-75065000D01*
X196214561Y-75065000D01*
X195687138Y-75283466D01*
X195283466Y-75687138D01*
X195256475Y-75752299D01*
X195253864Y-75745995D01*
X195007745Y-75671861D01*
X194179605Y-76500000D01*
X195007745Y-77328139D01*
X195253864Y-77254005D01*
X195256290Y-77247254D01*
X195283466Y-77312862D01*
X195476058Y-77505454D01*
X195445904Y-77525603D01*
X195393742Y-77603669D01*
X195393741Y-77603670D01*
X195239250Y-77834882D01*
X195166683Y-78199700D01*
X195185001Y-78291790D01*
X195185001Y-78398887D01*
X195085423Y-78465423D01*
X194768260Y-78940091D01*
X194656887Y-79500000D01*
X194680251Y-79617459D01*
X194183970Y-80113741D01*
X194105904Y-80165903D01*
X194053742Y-80243969D01*
X194053741Y-80243970D01*
X193899250Y-80475182D01*
X193826683Y-80840000D01*
X193845001Y-80932091D01*
X193845000Y-95687914D01*
X193826683Y-95780000D01*
X193860791Y-95951472D01*
X193884148Y-96068894D01*
X193646546Y-96080222D01*
X193245995Y-96246136D01*
X193171861Y-96492255D01*
X185537141Y-96492255D01*
X185716534Y-96312862D01*
X185935000Y-95785439D01*
X185935000Y-95214561D01*
X185883008Y-95089039D01*
X187108096Y-95089039D01*
X187268959Y-95477423D01*
X187644866Y-95892389D01*
X188150959Y-96131914D01*
X188373000Y-96010629D01*
X188373000Y-94867000D01*
X188627000Y-94867000D01*
X188627000Y-96010629D01*
X188849041Y-96131914D01*
X189355134Y-95892389D01*
X189731041Y-95477423D01*
X189891904Y-95089039D01*
X189769915Y-94867000D01*
X188627000Y-94867000D01*
X188373000Y-94867000D01*
X187230085Y-94867000D01*
X187108096Y-95089039D01*
X185883008Y-95089039D01*
X185716534Y-94687138D01*
X185312862Y-94283466D01*
X184785439Y-94065000D01*
X184719928Y-94065000D01*
X185154577Y-93774577D01*
X185471740Y-93299909D01*
X185583113Y-92740000D01*
X185471740Y-92180091D01*
X185154577Y-91705423D01*
X184770892Y-91449053D01*
X184975134Y-91352389D01*
X185351041Y-90937423D01*
X185511904Y-90549039D01*
X185389915Y-90327000D01*
X184247000Y-90327000D01*
X184247000Y-90347000D01*
X183993000Y-90347000D01*
X183993000Y-90327000D01*
X182850085Y-90327000D01*
X182728096Y-90549039D01*
X182888959Y-90937423D01*
X183264866Y-91352389D01*
X183469108Y-91449053D01*
X183085423Y-91705423D01*
X182768260Y-92180091D01*
X182656887Y-92740000D01*
X182768260Y-93299909D01*
X183085423Y-93774577D01*
X183560091Y-94091740D01*
X183958623Y-94171013D01*
X183687138Y-94283466D01*
X183283466Y-94687138D01*
X183256475Y-94752299D01*
X183253864Y-94745995D01*
X183007745Y-94671861D01*
X182179605Y-95500000D01*
X183007745Y-96328139D01*
X183253864Y-96254005D01*
X183256290Y-96247254D01*
X183272176Y-96285605D01*
X183239250Y-96334882D01*
X183166683Y-96699700D01*
X183185001Y-96791790D01*
X183185001Y-96898887D01*
X183085423Y-96965423D01*
X182768260Y-97440091D01*
X182656887Y-98000000D01*
X182768260Y-98559909D01*
X183085423Y-99034577D01*
X183437758Y-99270000D01*
X183085423Y-99505423D01*
X182836606Y-99877804D01*
X180224500Y-97265699D01*
X180224500Y-96507745D01*
X181171861Y-96507745D01*
X181245995Y-96753864D01*
X181783223Y-96946965D01*
X182353454Y-96919778D01*
X182754005Y-96753864D01*
X182828139Y-96507745D01*
X182000000Y-95679605D01*
X181171861Y-96507745D01*
X180224500Y-96507745D01*
X180224500Y-95283223D01*
X180553035Y-95283223D01*
X180580222Y-95853454D01*
X180746136Y-96254005D01*
X180992255Y-96328139D01*
X181820395Y-95500000D01*
X180992255Y-94671861D01*
X180746136Y-94745995D01*
X180553035Y-95283223D01*
X180224500Y-95283223D01*
X180224500Y-94492255D01*
X181171861Y-94492255D01*
X182000000Y-95320395D01*
X182828139Y-94492255D01*
X182754005Y-94246136D01*
X182216777Y-94053035D01*
X181646546Y-94080222D01*
X181245995Y-94246136D01*
X181171861Y-94492255D01*
X180224500Y-94492255D01*
X180224500Y-93550900D01*
X180416574Y-93550900D01*
X180796980Y-93393331D01*
X181088131Y-93102180D01*
X181245700Y-92721774D01*
X181245700Y-92555701D01*
X181859973Y-91941429D01*
X181923429Y-91899029D01*
X182091404Y-91647637D01*
X182135500Y-91425952D01*
X182135500Y-91425947D01*
X182150388Y-91351100D01*
X182135500Y-91276253D01*
X182135500Y-87660000D01*
X182656887Y-87660000D01*
X182768260Y-88219909D01*
X183085423Y-88694577D01*
X183469108Y-88950947D01*
X183264866Y-89047611D01*
X182888959Y-89462577D01*
X182728096Y-89850961D01*
X182850085Y-90073000D01*
X183993000Y-90073000D01*
X183993000Y-90053000D01*
X184247000Y-90053000D01*
X184247000Y-90073000D01*
X185389915Y-90073000D01*
X185511904Y-89850961D01*
X185351041Y-89462577D01*
X184975134Y-89047611D01*
X184770892Y-88950947D01*
X185154577Y-88694577D01*
X185471740Y-88219909D01*
X185583113Y-87660000D01*
X185471740Y-87100091D01*
X185154577Y-86625423D01*
X184770892Y-86369053D01*
X184975134Y-86272389D01*
X185351041Y-85857423D01*
X185511904Y-85469039D01*
X185389915Y-85247000D01*
X184247000Y-85247000D01*
X184247000Y-85267000D01*
X183993000Y-85267000D01*
X183993000Y-85247000D01*
X182850085Y-85247000D01*
X182728096Y-85469039D01*
X182888959Y-85857423D01*
X183264866Y-86272389D01*
X183469108Y-86369053D01*
X183085423Y-86625423D01*
X182768260Y-87100091D01*
X182656887Y-87660000D01*
X182135500Y-87660000D01*
X182135500Y-82580000D01*
X182656887Y-82580000D01*
X182768260Y-83139909D01*
X183085423Y-83614577D01*
X183469108Y-83870947D01*
X183264866Y-83967611D01*
X182888959Y-84382577D01*
X182728096Y-84770961D01*
X182850085Y-84993000D01*
X183993000Y-84993000D01*
X183993000Y-84973000D01*
X184247000Y-84973000D01*
X184247000Y-84993000D01*
X185389915Y-84993000D01*
X185511904Y-84770961D01*
X185351041Y-84382577D01*
X184975134Y-83967611D01*
X184770892Y-83870947D01*
X185154577Y-83614577D01*
X185471740Y-83139909D01*
X185583113Y-82580000D01*
X185471740Y-82020091D01*
X185154577Y-81545423D01*
X184770892Y-81289053D01*
X184975134Y-81192389D01*
X185351041Y-80777423D01*
X185511904Y-80389039D01*
X185389915Y-80167000D01*
X184247000Y-80167000D01*
X184247000Y-80187000D01*
X183993000Y-80187000D01*
X183993000Y-80167000D01*
X182850085Y-80167000D01*
X182728096Y-80389039D01*
X182888959Y-80777423D01*
X183264866Y-81192389D01*
X183469108Y-81289053D01*
X183085423Y-81545423D01*
X182768260Y-82020091D01*
X182656887Y-82580000D01*
X182135500Y-82580000D01*
X182135500Y-79627900D01*
X182754215Y-79627900D01*
X182728096Y-79690961D01*
X182850085Y-79913000D01*
X183993000Y-79913000D01*
X183993000Y-79893000D01*
X184247000Y-79893000D01*
X184247000Y-79913000D01*
X185389915Y-79913000D01*
X185511904Y-79690961D01*
X185485785Y-79627900D01*
X186427798Y-79627900D01*
X186784372Y-79984475D01*
X186826771Y-80047929D01*
X186890224Y-80090327D01*
X186890226Y-80090329D01*
X186979531Y-80150000D01*
X187052560Y-80198797D01*
X187052560Y-80300000D01*
X187101843Y-80547765D01*
X187172656Y-80653743D01*
X186890228Y-80936171D01*
X186826772Y-80978571D01*
X186784372Y-81042027D01*
X186784371Y-81042028D01*
X186711756Y-81150704D01*
X186658797Y-81229963D01*
X186622881Y-81410527D01*
X186599812Y-81526500D01*
X186614701Y-81601352D01*
X186614700Y-87615953D01*
X186599812Y-87690800D01*
X186614700Y-87765647D01*
X186614700Y-87765651D01*
X186658796Y-87987336D01*
X186826771Y-88238729D01*
X186890230Y-88281131D01*
X187372937Y-88763838D01*
X187148260Y-89100091D01*
X187036887Y-89660000D01*
X187148260Y-90219909D01*
X187465423Y-90694577D01*
X187817758Y-90930000D01*
X187465423Y-91165423D01*
X187148260Y-91640091D01*
X187036887Y-92200000D01*
X187148260Y-92759909D01*
X187465423Y-93234577D01*
X187849108Y-93490947D01*
X187644866Y-93587611D01*
X187268959Y-94002577D01*
X187108096Y-94390961D01*
X187230085Y-94613000D01*
X188373000Y-94613000D01*
X188373000Y-94593000D01*
X188627000Y-94593000D01*
X188627000Y-94613000D01*
X189769915Y-94613000D01*
X189891904Y-94390961D01*
X189731041Y-94002577D01*
X189355134Y-93587611D01*
X189150892Y-93490947D01*
X189534577Y-93234577D01*
X189851740Y-92759909D01*
X189963113Y-92200000D01*
X189851740Y-91640091D01*
X189534577Y-91165423D01*
X189182242Y-90930000D01*
X189534577Y-90694577D01*
X189851740Y-90219909D01*
X189963113Y-89660000D01*
X189851740Y-89100091D01*
X189534577Y-88625423D01*
X189255896Y-88439214D01*
X189238614Y-88352333D01*
X189534577Y-88154577D01*
X189851740Y-87679909D01*
X189963113Y-87120000D01*
X189851740Y-86560091D01*
X189534577Y-86085423D01*
X189182242Y-85850000D01*
X189534577Y-85614577D01*
X189851740Y-85139909D01*
X189963113Y-84580000D01*
X189851740Y-84020091D01*
X189627063Y-83683838D01*
X190560073Y-82750829D01*
X190623529Y-82708429D01*
X190791504Y-82457037D01*
X190835600Y-82235352D01*
X190835600Y-82235348D01*
X190850488Y-82160501D01*
X190835600Y-82085654D01*
X190835600Y-77925646D01*
X190850488Y-77850799D01*
X190835600Y-77775952D01*
X190835600Y-77775948D01*
X190791504Y-77554263D01*
X190760422Y-77507745D01*
X193171861Y-77507745D01*
X193245995Y-77753864D01*
X193783223Y-77946965D01*
X194353454Y-77919778D01*
X194754005Y-77753864D01*
X194828139Y-77507745D01*
X194000000Y-76679605D01*
X193171861Y-77507745D01*
X190760422Y-77507745D01*
X190623529Y-77302871D01*
X190560073Y-77260471D01*
X189582825Y-76283223D01*
X192553035Y-76283223D01*
X192580222Y-76853454D01*
X192746136Y-77254005D01*
X192992255Y-77328139D01*
X193820395Y-76500000D01*
X192992255Y-75671861D01*
X192746136Y-75745995D01*
X192553035Y-76283223D01*
X189582825Y-76283223D01*
X188791857Y-75492255D01*
X193171861Y-75492255D01*
X194000000Y-76320395D01*
X194828139Y-75492255D01*
X194754005Y-75246136D01*
X194216777Y-75053035D01*
X193646546Y-75080222D01*
X193245995Y-75246136D01*
X193171861Y-75492255D01*
X188791857Y-75492255D01*
X188585000Y-75285399D01*
X188585000Y-73556890D01*
X189208524Y-73556890D01*
X189378355Y-73966924D01*
X189768642Y-74395183D01*
X190293108Y-74641486D01*
X190523000Y-74520819D01*
X190523000Y-73327000D01*
X190777000Y-73327000D01*
X190777000Y-74520819D01*
X191006892Y-74641486D01*
X191531358Y-74395183D01*
X191921645Y-73966924D01*
X192091476Y-73556890D01*
X191970155Y-73327000D01*
X190777000Y-73327000D01*
X190523000Y-73327000D01*
X189329845Y-73327000D01*
X189208524Y-73556890D01*
X188585000Y-73556890D01*
X188585000Y-70700648D01*
X188599888Y-70625800D01*
X188585000Y-70550952D01*
X188585000Y-70550948D01*
X188540904Y-70329263D01*
X188540904Y-70329262D01*
X188415329Y-70141327D01*
X188372929Y-70077871D01*
X188309473Y-70035471D01*
X181314002Y-63040000D01*
X189135908Y-63040000D01*
X189251161Y-63619418D01*
X189579375Y-64110625D01*
X189877761Y-64310000D01*
X189579375Y-64509375D01*
X189251161Y-65000582D01*
X189135908Y-65580000D01*
X189251161Y-66159418D01*
X189579375Y-66650625D01*
X189877761Y-66850000D01*
X189579375Y-67049375D01*
X189251161Y-67540582D01*
X189135908Y-68120000D01*
X189251161Y-68699418D01*
X189579375Y-69190625D01*
X189877761Y-69390000D01*
X189579375Y-69589375D01*
X189251161Y-70080582D01*
X189135908Y-70660000D01*
X189251161Y-71239418D01*
X189579375Y-71730625D01*
X189898478Y-71943843D01*
X189768642Y-72004817D01*
X189378355Y-72433076D01*
X189208524Y-72843110D01*
X189329845Y-73073000D01*
X190523000Y-73073000D01*
X190523000Y-73053000D01*
X190777000Y-73053000D01*
X190777000Y-73073000D01*
X191970155Y-73073000D01*
X192091476Y-72843110D01*
X191921645Y-72433076D01*
X191531358Y-72004817D01*
X191401522Y-71943843D01*
X191720625Y-71730625D01*
X192048839Y-71239418D01*
X192164092Y-70660000D01*
X192048839Y-70080582D01*
X191720625Y-69589375D01*
X191422239Y-69390000D01*
X191720625Y-69190625D01*
X192048839Y-68699418D01*
X192164092Y-68120000D01*
X192048839Y-67540582D01*
X191720625Y-67049375D01*
X191422239Y-66850000D01*
X191720625Y-66650625D01*
X192048839Y-66159418D01*
X192164092Y-65580000D01*
X192048839Y-65000582D01*
X191720625Y-64509375D01*
X191422239Y-64310000D01*
X191720625Y-64110625D01*
X192048839Y-63619418D01*
X192164092Y-63040000D01*
X192048839Y-62460582D01*
X191720625Y-61969375D01*
X191702381Y-61957184D01*
X191747765Y-61948157D01*
X191957809Y-61807809D01*
X192098157Y-61597765D01*
X192147440Y-61350000D01*
X192147440Y-59650000D01*
X192098157Y-59402235D01*
X191957809Y-59192191D01*
X191747765Y-59051843D01*
X191500000Y-59002560D01*
X189800000Y-59002560D01*
X189552235Y-59051843D01*
X189342191Y-59192191D01*
X189201843Y-59402235D01*
X189152560Y-59650000D01*
X189152560Y-61350000D01*
X189201843Y-61597765D01*
X189342191Y-61807809D01*
X189552235Y-61948157D01*
X189597619Y-61957184D01*
X189579375Y-61969375D01*
X189251161Y-62460582D01*
X189135908Y-63040000D01*
X181314002Y-63040000D01*
X173418831Y-55144830D01*
X173376429Y-55081371D01*
X173125037Y-54913396D01*
X172903352Y-54869300D01*
X172903347Y-54869300D01*
X172828500Y-54854412D01*
X172753653Y-54869300D01*
X116770846Y-54869300D01*
X116695999Y-54854412D01*
X116621152Y-54869300D01*
X116621148Y-54869300D01*
X116399463Y-54913396D01*
X116336902Y-54955198D01*
X116211526Y-55038971D01*
X116211524Y-55038973D01*
X116148071Y-55081371D01*
X116105673Y-55144824D01*
X106128036Y-65122463D01*
X106107809Y-65092191D01*
X105897765Y-64951843D01*
X105650000Y-64902560D01*
X104050000Y-64902560D01*
X103802235Y-64951843D01*
X103592191Y-65092191D01*
X103451843Y-65302235D01*
X103402560Y-65550000D01*
X103402560Y-67150000D01*
X103451843Y-67397765D01*
X103592191Y-67607809D01*
X103802235Y-67748157D01*
X103936106Y-67774785D01*
X103815423Y-67855423D01*
X103498260Y-68330091D01*
X103386887Y-68890000D01*
X103498260Y-69449909D01*
X103815423Y-69924577D01*
X104167758Y-70160000D01*
X103815423Y-70395423D01*
X103498260Y-70870091D01*
X103386887Y-71430000D01*
X103498260Y-71989909D01*
X103815423Y-72464577D01*
X104167758Y-72700000D01*
X103815423Y-72935423D01*
X103498260Y-73410091D01*
X103386887Y-73970000D01*
X103498260Y-74529909D01*
X103815423Y-75004577D01*
X104167758Y-75240000D01*
X103815423Y-75475423D01*
X103498260Y-75950091D01*
X103386887Y-76510000D01*
X103498260Y-77069909D01*
X103815423Y-77544577D01*
X104167758Y-77780000D01*
X103815423Y-78015423D01*
X103498260Y-78490091D01*
X103386887Y-79050000D01*
X103498260Y-79609909D01*
X103815423Y-80084577D01*
X104167758Y-80320000D01*
X103815423Y-80555423D01*
X103498260Y-81030091D01*
X103386887Y-81590000D01*
X103498260Y-82149909D01*
X103815423Y-82624577D01*
X104167758Y-82860000D01*
X103815423Y-83095423D01*
X103498260Y-83570091D01*
X103386887Y-84130000D01*
X103498260Y-84689909D01*
X103815423Y-85164577D01*
X104167758Y-85400000D01*
X103815423Y-85635423D01*
X103498260Y-86110091D01*
X103386887Y-86670000D01*
X103498260Y-87229909D01*
X103815423Y-87704577D01*
X104167758Y-87940000D01*
X103815423Y-88175423D01*
X103498260Y-88650091D01*
X103386887Y-89210000D01*
X103498260Y-89769909D01*
X103815423Y-90244577D01*
X104167758Y-90480000D01*
X103815423Y-90715423D01*
X103498260Y-91190091D01*
X103386887Y-91750000D01*
X103498260Y-92309909D01*
X103815423Y-92784577D01*
X104199108Y-93040947D01*
X103994866Y-93137611D01*
X103618959Y-93552577D01*
X103458096Y-93940961D01*
X103580085Y-94163000D01*
X104723000Y-94163000D01*
X104723000Y-94143000D01*
X104977000Y-94143000D01*
X104977000Y-94163000D01*
X104997000Y-94163000D01*
X104997000Y-94417000D01*
X104977000Y-94417000D01*
X104977000Y-94437000D01*
X104723000Y-94437000D01*
X104723000Y-94417000D01*
X103580085Y-94417000D01*
X103458096Y-94639039D01*
X103618959Y-95027423D01*
X103994866Y-95442389D01*
X104115894Y-95499670D01*
X104094104Y-95609214D01*
X103815423Y-95795423D01*
X103498260Y-96270091D01*
X103386887Y-96830000D01*
X103498260Y-97389909D01*
X103815423Y-97864577D01*
X104167758Y-98100000D01*
X103815423Y-98335423D01*
X103498260Y-98810091D01*
X103386887Y-99370000D01*
X103498260Y-99929909D01*
X103739479Y-100290919D01*
X102759028Y-101271371D01*
X102695572Y-101313771D01*
X102653172Y-101377227D01*
X102653171Y-101377228D01*
X102527597Y-101565163D01*
X102499695Y-101705438D01*
X102468612Y-101861700D01*
X102483501Y-101936552D01*
X102483500Y-112084653D01*
X102468612Y-112159500D01*
X102483500Y-112234347D01*
X102483500Y-112234351D01*
X102527596Y-112456036D01*
X102695571Y-112707429D01*
X102759030Y-112749831D01*
X103722977Y-113713779D01*
X103498260Y-114050091D01*
X103386887Y-114610000D01*
X103498260Y-115169909D01*
X103815423Y-115644577D01*
X104290091Y-115961740D01*
X104708667Y-116045000D01*
X104991333Y-116045000D01*
X105409909Y-115961740D01*
X105884577Y-115644577D01*
X106201740Y-115169909D01*
X106313113Y-114610000D01*
X106201740Y-114050091D01*
X105884577Y-113575423D01*
X105605896Y-113389214D01*
X105588614Y-113302333D01*
X105884577Y-113104577D01*
X106201740Y-112629909D01*
X106313113Y-112070000D01*
X106201740Y-111510091D01*
X105884577Y-111035423D01*
X105605896Y-110849214D01*
X105588614Y-110762333D01*
X105884577Y-110564577D01*
X106201740Y-110089909D01*
X106313113Y-109530000D01*
X106201740Y-108970091D01*
X105977063Y-108633838D01*
X109455073Y-105155829D01*
X109518529Y-105113429D01*
X109587486Y-105010228D01*
X109686504Y-104862038D01*
X109710080Y-104743512D01*
X109730600Y-104640352D01*
X109730600Y-104640348D01*
X109745488Y-104565500D01*
X109730600Y-104490652D01*
X109730600Y-104481401D01*
X118962977Y-113713779D01*
X118738260Y-114050091D01*
X118626887Y-114610000D01*
X118738260Y-115169909D01*
X119055423Y-115644577D01*
X119530091Y-115961740D01*
X119948667Y-116045000D01*
X120231333Y-116045000D01*
X120649909Y-115961740D01*
X121124577Y-115644577D01*
X121441740Y-115169909D01*
X121501612Y-114868913D01*
X130897698Y-124265000D01*
X100735000Y-124265000D01*
X100735000Y-120055431D01*
X103265000Y-120055431D01*
X103265000Y-120944569D01*
X103605259Y-121766026D01*
X104233974Y-122394741D01*
X105055431Y-122735000D01*
X105944569Y-122735000D01*
X106766026Y-122394741D01*
X107394741Y-121766026D01*
X107735000Y-120944569D01*
X107735000Y-120314833D01*
X122065000Y-120314833D01*
X122065000Y-120985167D01*
X122321526Y-121604476D01*
X122795524Y-122078474D01*
X123414833Y-122335000D01*
X124085167Y-122335000D01*
X124704476Y-122078474D01*
X125178474Y-121604476D01*
X125435000Y-120985167D01*
X125435000Y-120314833D01*
X125178474Y-119695524D01*
X124704476Y-119221526D01*
X124085167Y-118965000D01*
X123414833Y-118965000D01*
X122795524Y-119221526D01*
X122321526Y-119695524D01*
X122065000Y-120314833D01*
X107735000Y-120314833D01*
X107735000Y-120055431D01*
X107394741Y-119233974D01*
X106766026Y-118605259D01*
X105944569Y-118265000D01*
X105055431Y-118265000D01*
X104233974Y-118605259D01*
X103605259Y-119233974D01*
X103265000Y-120055431D01*
X100735000Y-120055431D01*
X100735000Y-54055431D01*
X103265000Y-54055431D01*
X103265000Y-54944569D01*
X103605259Y-55766026D01*
X104233974Y-56394741D01*
X105055431Y-56735000D01*
X105944569Y-56735000D01*
X106766026Y-56394741D01*
X107394741Y-55766026D01*
X107735000Y-54944569D01*
X107735000Y-54055431D01*
X192265000Y-54055431D01*
X192265000Y-54944569D01*
X192605259Y-55766026D01*
X193233974Y-56394741D01*
X194055431Y-56735000D01*
X194944569Y-56735000D01*
X195766026Y-56394741D01*
X196394741Y-55766026D01*
X196735000Y-54944569D01*
X196735000Y-54055431D01*
X196394741Y-53233974D01*
X195766026Y-52605259D01*
X194944569Y-52265000D01*
X194055431Y-52265000D01*
X193233974Y-52605259D01*
X192605259Y-53233974D01*
X192265000Y-54055431D01*
X107735000Y-54055431D01*
X107394741Y-53233974D01*
X106766026Y-52605259D01*
X105944569Y-52265000D01*
X105055431Y-52265000D01*
X104233974Y-52605259D01*
X103605259Y-53233974D01*
X103265000Y-54055431D01*
X100735000Y-54055431D01*
X100735000Y-50735000D01*
X199265001Y-50735000D01*
X199265000Y-124265000D01*
X199265000Y-124265000D01*
G37*
X199265000Y-124265000D02*
X143058701Y-124265000D01*
X144756459Y-122567243D01*
X144768959Y-122597423D01*
X145144866Y-123012389D01*
X145650959Y-123251914D01*
X145873000Y-123130629D01*
X145873000Y-121987000D01*
X146127000Y-121987000D01*
X146127000Y-123130629D01*
X146349041Y-123251914D01*
X146855134Y-123012389D01*
X147231041Y-122597423D01*
X147391904Y-122209039D01*
X147269915Y-121987000D01*
X146127000Y-121987000D01*
X145873000Y-121987000D01*
X145853000Y-121987000D01*
X145853000Y-121733000D01*
X145873000Y-121733000D01*
X145873000Y-121713000D01*
X146127000Y-121713000D01*
X146127000Y-121733000D01*
X147269915Y-121733000D01*
X147391904Y-121510961D01*
X147265304Y-121205300D01*
X151294553Y-121205300D01*
X151369400Y-121220188D01*
X151444247Y-121205300D01*
X151444252Y-121205300D01*
X151665937Y-121161204D01*
X151917329Y-120993229D01*
X151959731Y-120929770D01*
X152565196Y-120324305D01*
X152585423Y-120354577D01*
X152881386Y-120552333D01*
X152864104Y-120639214D01*
X152585423Y-120825423D01*
X152268260Y-121300091D01*
X152156887Y-121860000D01*
X152268260Y-122419909D01*
X152585423Y-122894577D01*
X153060091Y-123211740D01*
X153478667Y-123295000D01*
X153761333Y-123295000D01*
X154179909Y-123211740D01*
X154654577Y-122894577D01*
X154971740Y-122419909D01*
X155083113Y-121860000D01*
X154971740Y-121300091D01*
X154747023Y-120963778D01*
X158781495Y-116929307D01*
X158929375Y-117150625D01*
X159227761Y-117350000D01*
X158929375Y-117549375D01*
X158601161Y-118040582D01*
X158485908Y-118620000D01*
X158601161Y-119199418D01*
X158929375Y-119690625D01*
X159420582Y-120018839D01*
X159853744Y-120105000D01*
X160146256Y-120105000D01*
X160579418Y-120018839D01*
X161070625Y-119690625D01*
X161270000Y-119392239D01*
X161469375Y-119690625D01*
X161960582Y-120018839D01*
X162393744Y-120105000D01*
X162686256Y-120105000D01*
X163119418Y-120018839D01*
X163610625Y-119690625D01*
X163938839Y-119199418D01*
X164054092Y-118620000D01*
X163971484Y-118204700D01*
X166068516Y-118204700D01*
X165985908Y-118620000D01*
X166101161Y-119199418D01*
X166429375Y-119690625D01*
X166920582Y-120018839D01*
X167353744Y-120105000D01*
X167646256Y-120105000D01*
X168079418Y-120018839D01*
X168570625Y-119690625D01*
X168770000Y-119392239D01*
X168969375Y-119690625D01*
X169460582Y-120018839D01*
X169893744Y-120105000D01*
X170186256Y-120105000D01*
X170435456Y-120055431D01*
X192265000Y-120055431D01*
X192265000Y-120944569D01*
X192605259Y-121766026D01*
X193233974Y-122394741D01*
X194055431Y-122735000D01*
X194944569Y-122735000D01*
X195766026Y-122394741D01*
X196394741Y-121766026D01*
X196735000Y-120944569D01*
X196735000Y-120055431D01*
X196394741Y-119233974D01*
X195766026Y-118605259D01*
X194944569Y-118265000D01*
X194055431Y-118265000D01*
X193233974Y-118605259D01*
X192605259Y-119233974D01*
X192265000Y-120055431D01*
X170435456Y-120055431D01*
X170619418Y-120018839D01*
X171110625Y-119690625D01*
X171438839Y-119199418D01*
X171554092Y-118620000D01*
X171462858Y-118161336D01*
X171466537Y-118160604D01*
X171717929Y-117992629D01*
X171760331Y-117929170D01*
X173560462Y-116129039D01*
X175108096Y-116129039D01*
X175268959Y-116517423D01*
X175644866Y-116932389D01*
X176150959Y-117171914D01*
X176373000Y-117050629D01*
X176373000Y-115907000D01*
X176627000Y-115907000D01*
X176627000Y-117050629D01*
X176849041Y-117171914D01*
X177355134Y-116932389D01*
X177731041Y-116517423D01*
X177891904Y-116129039D01*
X177769915Y-115907000D01*
X176627000Y-115907000D01*
X176373000Y-115907000D01*
X175230085Y-115907000D01*
X175108096Y-116129039D01*
X173560462Y-116129039D01*
X175445196Y-114244306D01*
X175465423Y-114274577D01*
X175849108Y-114530947D01*
X175644866Y-114627611D01*
X175268959Y-115042577D01*
X175108096Y-115430961D01*
X175230085Y-115653000D01*
X176373000Y-115653000D01*
X176373000Y-115633000D01*
X176627000Y-115633000D01*
X176627000Y-115653000D01*
X177769915Y-115653000D01*
X177891904Y-115430961D01*
X177731041Y-115042577D01*
X177355134Y-114627611D01*
X177150892Y-114530947D01*
X177534577Y-114274577D01*
X177851740Y-113799909D01*
X177963113Y-113240000D01*
X177851740Y-112680091D01*
X177788403Y-112585300D01*
X181794553Y-112585300D01*
X181869400Y-112600188D01*
X181944247Y-112585300D01*
X181944252Y-112585300D01*
X182165937Y-112541204D01*
X182417329Y-112373229D01*
X182459731Y-112309770D01*
X183065196Y-111704305D01*
X183085423Y-111734577D01*
X183437758Y-111970000D01*
X183085423Y-112205423D01*
X182768260Y-112680091D01*
X182656887Y-113240000D01*
X182768260Y-113799909D01*
X183085423Y-114274577D01*
X183437758Y-114510000D01*
X183085423Y-114745423D01*
X182768260Y-115220091D01*
X182656887Y-115780000D01*
X182768260Y-116339909D01*
X183085423Y-116814577D01*
X183560091Y-117131740D01*
X183978667Y-117215000D01*
X184261333Y-117215000D01*
X184679909Y-117131740D01*
X185154577Y-116814577D01*
X185471740Y-116339909D01*
X185521641Y-116089039D01*
X187108096Y-116089039D01*
X187268959Y-116477423D01*
X187644866Y-116892389D01*
X188150959Y-117131914D01*
X188373000Y-117010629D01*
X188373000Y-115867000D01*
X188627000Y-115867000D01*
X188627000Y-117010629D01*
X188849041Y-117131914D01*
X189355134Y-116892389D01*
X189731041Y-116477423D01*
X189891904Y-116089039D01*
X189769915Y-115867000D01*
X188627000Y-115867000D01*
X188373000Y-115867000D01*
X187230085Y-115867000D01*
X187108096Y-116089039D01*
X185521641Y-116089039D01*
X185583113Y-115780000D01*
X185575157Y-115740000D01*
X194656887Y-115740000D01*
X194768260Y-116299909D01*
X195085423Y-116774577D01*
X195560091Y-117091740D01*
X195978667Y-117175000D01*
X196261333Y-117175000D01*
X196679909Y-117091740D01*
X197154577Y-116774577D01*
X197471740Y-116299909D01*
X197583113Y-115740000D01*
X197471740Y-115180091D01*
X197154577Y-114705423D01*
X196770892Y-114449053D01*
X196975134Y-114352389D01*
X197351041Y-113937423D01*
X197511904Y-113549039D01*
X197389915Y-113327000D01*
X196247000Y-113327000D01*
X196247000Y-113347000D01*
X195993000Y-113347000D01*
X195993000Y-113327000D01*
X194850085Y-113327000D01*
X194728096Y-113549039D01*
X194888959Y-113937423D01*
X195264866Y-114352389D01*
X195469108Y-114449053D01*
X195085423Y-114705423D01*
X194768260Y-115180091D01*
X194656887Y-115740000D01*
X185575157Y-115740000D01*
X185471740Y-115220091D01*
X185154577Y-114745423D01*
X184802242Y-114510000D01*
X185154577Y-114274577D01*
X185471740Y-113799909D01*
X185583113Y-113240000D01*
X185471740Y-112680091D01*
X185154577Y-112205423D01*
X184802242Y-111970000D01*
X185154577Y-111734577D01*
X185471740Y-111259909D01*
X185583113Y-110700000D01*
X185471740Y-110140091D01*
X185154577Y-109665423D01*
X184802242Y-109430000D01*
X185154577Y-109194577D01*
X185471740Y-108719909D01*
X185583113Y-108160000D01*
X185481668Y-107650000D01*
X186560653Y-107650000D01*
X186635500Y-107664888D01*
X186710347Y-107650000D01*
X186710352Y-107650000D01*
X186932037Y-107605904D01*
X187183429Y-107437929D01*
X187225831Y-107374470D01*
X187365836Y-107234465D01*
X187148260Y-107560091D01*
X187036887Y-108120000D01*
X187148260Y-108679909D01*
X187465423Y-109154577D01*
X187817758Y-109390000D01*
X187465423Y-109625423D01*
X187148260Y-110100091D01*
X187036887Y-110660000D01*
X187148260Y-111219909D01*
X187465423Y-111694577D01*
X187817758Y-111930000D01*
X187465423Y-112165423D01*
X187148260Y-112640091D01*
X187036887Y-113200000D01*
X187148260Y-113759909D01*
X187465423Y-114234577D01*
X187849108Y-114490947D01*
X187644866Y-114587611D01*
X187268959Y-115002577D01*
X187108096Y-115390961D01*
X187230085Y-115613000D01*
X188373000Y-115613000D01*
X188373000Y-115593000D01*
X188627000Y-115593000D01*
X188627000Y-115613000D01*
X189769915Y-115613000D01*
X189891904Y-115390961D01*
X189731041Y-115002577D01*
X189355134Y-114587611D01*
X189150892Y-114490947D01*
X189534577Y-114234577D01*
X189851740Y-113759909D01*
X189963113Y-113200000D01*
X189851740Y-112640091D01*
X189534577Y-112165423D01*
X189182242Y-111930000D01*
X189534577Y-111694577D01*
X189851740Y-111219909D01*
X189893684Y-111009039D01*
X194728096Y-111009039D01*
X194888959Y-111397423D01*
X195264866Y-111812389D01*
X195513367Y-111930000D01*
X195264866Y-112047611D01*
X194888959Y-112462577D01*
X194728096Y-112850961D01*
X194850085Y-113073000D01*
X195993000Y-113073000D01*
X195993000Y-110787000D01*
X196247000Y-110787000D01*
X196247000Y-113073000D01*
X197389915Y-113073000D01*
X197511904Y-112850961D01*
X197351041Y-112462577D01*
X196975134Y-112047611D01*
X196726633Y-111930000D01*
X196975134Y-111812389D01*
X197351041Y-111397423D01*
X197511904Y-111009039D01*
X197389915Y-110787000D01*
X196247000Y-110787000D01*
X195993000Y-110787000D01*
X194850085Y-110787000D01*
X194728096Y-111009039D01*
X189893684Y-111009039D01*
X189963113Y-110660000D01*
X189851740Y-110100091D01*
X189534577Y-109625423D01*
X189182242Y-109390000D01*
X189534577Y-109154577D01*
X189851740Y-108679909D01*
X189963113Y-108120000D01*
X194656887Y-108120000D01*
X194768260Y-108679909D01*
X195085423Y-109154577D01*
X195469108Y-109410947D01*
X195264866Y-109507611D01*
X194888959Y-109922577D01*
X194728096Y-110310961D01*
X194850085Y-110533000D01*
X195993000Y-110533000D01*
X195993000Y-110513000D01*
X196247000Y-110513000D01*
X196247000Y-110533000D01*
X197389915Y-110533000D01*
X197511904Y-110310961D01*
X197351041Y-109922577D01*
X196975134Y-109507611D01*
X196770892Y-109410947D01*
X197154577Y-109154577D01*
X197471740Y-108679909D01*
X197583113Y-108120000D01*
X197471740Y-107560091D01*
X197154577Y-107085423D01*
X196770892Y-106829053D01*
X196975134Y-106732389D01*
X197351041Y-106317423D01*
X197511904Y-105929039D01*
X197389915Y-105707000D01*
X196247000Y-105707000D01*
X196247000Y-105727000D01*
X195993000Y-105727000D01*
X195993000Y-105707000D01*
X194850085Y-105707000D01*
X194728096Y-105929039D01*
X194888959Y-106317423D01*
X195264866Y-106732389D01*
X195469108Y-106829053D01*
X195085423Y-107085423D01*
X194768260Y-107560091D01*
X194656887Y-108120000D01*
X189963113Y-108120000D01*
X189851740Y-107560091D01*
X189534577Y-107085423D01*
X189255896Y-106899214D01*
X189238614Y-106812333D01*
X189534577Y-106614577D01*
X189851740Y-106139909D01*
X189963113Y-105580000D01*
X189851740Y-105020091D01*
X189534577Y-104545423D01*
X189182242Y-104310000D01*
X189534577Y-104074577D01*
X189851740Y-103599909D01*
X189893684Y-103389039D01*
X194728096Y-103389039D01*
X194888959Y-103777423D01*
X195264866Y-104192389D01*
X195513367Y-104310000D01*
X195264866Y-104427611D01*
X194888959Y-104842577D01*
X194728096Y-105230961D01*
X194850085Y-105453000D01*
X195993000Y-105453000D01*
X195993000Y-103167000D01*
X196247000Y-103167000D01*
X196247000Y-105453000D01*
X197389915Y-105453000D01*
X197511904Y-105230961D01*
X197351041Y-104842577D01*
X196975134Y-104427611D01*
X196726633Y-104310000D01*
X196975134Y-104192389D01*
X197351041Y-103777423D01*
X197511904Y-103389039D01*
X197389915Y-103167000D01*
X196247000Y-103167000D01*
X195993000Y-103167000D01*
X194850085Y-103167000D01*
X194728096Y-103389039D01*
X189893684Y-103389039D01*
X189963113Y-103040000D01*
X189898688Y-102716114D01*
X190113273Y-102501529D01*
X190176729Y-102459129D01*
X190344704Y-102207737D01*
X190388800Y-101986052D01*
X190388800Y-101986048D01*
X190403688Y-101911201D01*
X190388800Y-101836354D01*
X190388800Y-99609146D01*
X190403688Y-99534299D01*
X190388800Y-99459452D01*
X190388800Y-99459448D01*
X190344704Y-99237763D01*
X190176729Y-98986371D01*
X190113272Y-98943971D01*
X190013030Y-98843729D01*
X189970629Y-98780271D01*
X189719237Y-98612296D01*
X189497552Y-98568200D01*
X189497547Y-98568200D01*
X189422700Y-98553312D01*
X189347853Y-98568200D01*
X187656846Y-98568200D01*
X187581999Y-98553312D01*
X187507152Y-98568200D01*
X187507148Y-98568200D01*
X187285463Y-98612296D01*
X187034071Y-98780271D01*
X186991671Y-98843727D01*
X185919628Y-99915771D01*
X185856172Y-99958171D01*
X185813772Y-100021627D01*
X185813771Y-100021628D01*
X185688197Y-100209563D01*
X185629212Y-100506100D01*
X185644101Y-100580952D01*
X185644100Y-102073597D01*
X185361938Y-102355760D01*
X185154577Y-102045423D01*
X184875896Y-101859214D01*
X184863734Y-101798071D01*
X184858614Y-101772333D01*
X185154577Y-101574577D01*
X185471740Y-101099909D01*
X185583113Y-100540000D01*
X185471740Y-99980091D01*
X185154577Y-99505423D01*
X184802242Y-99270000D01*
X185154577Y-99034577D01*
X185471740Y-98559909D01*
X185482116Y-98507745D01*
X193171861Y-98507745D01*
X193245995Y-98753864D01*
X193783223Y-98946965D01*
X194353454Y-98919778D01*
X194754005Y-98753864D01*
X194828139Y-98507745D01*
X194000000Y-97679605D01*
X193171861Y-98507745D01*
X185482116Y-98507745D01*
X185583113Y-98000000D01*
X185471740Y-97440091D01*
X185366925Y-97283223D01*
X192553035Y-97283223D01*
X192580222Y-97853454D01*
X192746136Y-98254005D01*
X192992255Y-98328139D01*
X193820395Y-97500000D01*
X192992255Y-96671861D01*
X192746136Y-96745995D01*
X192553035Y-97283223D01*
X185366925Y-97283223D01*
X185173709Y-96994056D01*
X185174097Y-96993797D01*
X185380750Y-96684519D01*
X185389657Y-96639739D01*
X185537141Y-96492255D01*
X193171861Y-96492255D01*
X194000000Y-97320395D01*
X194014143Y-97306253D01*
X194193748Y-97485858D01*
X194179605Y-97500000D01*
X195007745Y-98328139D01*
X195253864Y-98254005D01*
X195256290Y-98247254D01*
X195283466Y-98312862D01*
X195476058Y-98505454D01*
X195445904Y-98525603D01*
X195393742Y-98603669D01*
X195393741Y-98603670D01*
X195239250Y-98834882D01*
X195166683Y-99199700D01*
X195185001Y-99291790D01*
X195185001Y-99398887D01*
X195085423Y-99465423D01*
X194768260Y-99940091D01*
X194656887Y-100500000D01*
X194768260Y-101059909D01*
X195085423Y-101534577D01*
X195469108Y-101790947D01*
X195264866Y-101887611D01*
X194888959Y-102302577D01*
X194728096Y-102690961D01*
X194850085Y-102913000D01*
X195993000Y-102913000D01*
X195993000Y-102893000D01*
X196247000Y-102893000D01*
X196247000Y-102913000D01*
X197389915Y-102913000D01*
X197511904Y-102690961D01*
X197351041Y-102302577D01*
X196975134Y-101887611D01*
X196770892Y-101790947D01*
X197154577Y-101534577D01*
X197471740Y-101059909D01*
X197583113Y-100500000D01*
X197471740Y-99940091D01*
X197173709Y-99494056D01*
X197174097Y-99493797D01*
X197380750Y-99184519D01*
X197400300Y-99086237D01*
X197453317Y-98819701D01*
X197435000Y-98727615D01*
X197435000Y-98594396D01*
X197716534Y-98312862D01*
X197935000Y-97785439D01*
X197935000Y-97214561D01*
X197716534Y-96687138D01*
X197312862Y-96283466D01*
X196785439Y-96065000D01*
X196719928Y-96065000D01*
X197154577Y-95774577D01*
X197471740Y-95299909D01*
X197583113Y-94740000D01*
X197471740Y-94180091D01*
X197247063Y-93843838D01*
X197729773Y-93361129D01*
X197793229Y-93318729D01*
X197882584Y-93185000D01*
X197961204Y-93067338D01*
X197986879Y-92938260D01*
X198005300Y-92845652D01*
X198005300Y-92845648D01*
X198020188Y-92770800D01*
X198005300Y-92695952D01*
X198005300Y-89164146D01*
X198020188Y-89089299D01*
X198005300Y-89014452D01*
X198005300Y-89014448D01*
X197961204Y-88792763D01*
X197793229Y-88541371D01*
X197729773Y-88498971D01*
X197247023Y-88016222D01*
X197471740Y-87679909D01*
X197583113Y-87120000D01*
X197471740Y-86560091D01*
X197154577Y-86085423D01*
X196802242Y-85850000D01*
X197154577Y-85614577D01*
X197471740Y-85139909D01*
X197583113Y-84580000D01*
X197471740Y-84020091D01*
X197154577Y-83545423D01*
X196802242Y-83310000D01*
X197154577Y-83074577D01*
X197471740Y-82599909D01*
X197583113Y-82040000D01*
X197471740Y-81480091D01*
X197154577Y-81005423D01*
X196802242Y-80770000D01*
X197154577Y-80534577D01*
X197471740Y-80059909D01*
X197583113Y-79500000D01*
X197471740Y-78940091D01*
X197173709Y-78494056D01*
X197174097Y-78493797D01*
X197380750Y-78184519D01*
X197395831Y-78108700D01*
X197453317Y-77819701D01*
X197435000Y-77727615D01*
X197435000Y-77594396D01*
X197716534Y-77312862D01*
X197935000Y-76785439D01*
X197935000Y-76214561D01*
X197716534Y-75687138D01*
X197312862Y-75283466D01*
X196785439Y-75065000D01*
X196214561Y-75065000D01*
X195687138Y-75283466D01*
X195283466Y-75687138D01*
X195256475Y-75752299D01*
X195253864Y-75745995D01*
X195007745Y-75671861D01*
X194179605Y-76500000D01*
X195007745Y-77328139D01*
X195253864Y-77254005D01*
X195256290Y-77247254D01*
X195283466Y-77312862D01*
X195476058Y-77505454D01*
X195445904Y-77525603D01*
X195393742Y-77603669D01*
X195393741Y-77603670D01*
X195239250Y-77834882D01*
X195166683Y-78199700D01*
X195185001Y-78291790D01*
X195185001Y-78398887D01*
X195085423Y-78465423D01*
X194768260Y-78940091D01*
X194656887Y-79500000D01*
X194680251Y-79617459D01*
X194183970Y-80113741D01*
X194105904Y-80165903D01*
X194053742Y-80243969D01*
X194053741Y-80243970D01*
X193899250Y-80475182D01*
X193826683Y-80840000D01*
X193845001Y-80932091D01*
X193845000Y-95687914D01*
X193826683Y-95780000D01*
X193860791Y-95951472D01*
X193884148Y-96068894D01*
X193646546Y-96080222D01*
X193245995Y-96246136D01*
X193171861Y-96492255D01*
X185537141Y-96492255D01*
X185716534Y-96312862D01*
X185935000Y-95785439D01*
X185935000Y-95214561D01*
X185883008Y-95089039D01*
X187108096Y-95089039D01*
X187268959Y-95477423D01*
X187644866Y-95892389D01*
X188150959Y-96131914D01*
X188373000Y-96010629D01*
X188373000Y-94867000D01*
X188627000Y-94867000D01*
X188627000Y-96010629D01*
X188849041Y-96131914D01*
X189355134Y-95892389D01*
X189731041Y-95477423D01*
X189891904Y-95089039D01*
X189769915Y-94867000D01*
X188627000Y-94867000D01*
X188373000Y-94867000D01*
X187230085Y-94867000D01*
X187108096Y-95089039D01*
X185883008Y-95089039D01*
X185716534Y-94687138D01*
X185312862Y-94283466D01*
X184785439Y-94065000D01*
X184719928Y-94065000D01*
X185154577Y-93774577D01*
X185471740Y-93299909D01*
X185583113Y-92740000D01*
X185471740Y-92180091D01*
X185154577Y-91705423D01*
X184770892Y-91449053D01*
X184975134Y-91352389D01*
X185351041Y-90937423D01*
X185511904Y-90549039D01*
X185389915Y-90327000D01*
X184247000Y-90327000D01*
X184247000Y-90347000D01*
X183993000Y-90347000D01*
X183993000Y-90327000D01*
X182850085Y-90327000D01*
X182728096Y-90549039D01*
X182888959Y-90937423D01*
X183264866Y-91352389D01*
X183469108Y-91449053D01*
X183085423Y-91705423D01*
X182768260Y-92180091D01*
X182656887Y-92740000D01*
X182768260Y-93299909D01*
X183085423Y-93774577D01*
X183560091Y-94091740D01*
X183958623Y-94171013D01*
X183687138Y-94283466D01*
X183283466Y-94687138D01*
X183256475Y-94752299D01*
X183253864Y-94745995D01*
X183007745Y-94671861D01*
X182179605Y-95500000D01*
X183007745Y-96328139D01*
X183253864Y-96254005D01*
X183256290Y-96247254D01*
X183272176Y-96285605D01*
X183239250Y-96334882D01*
X183166683Y-96699700D01*
X183185001Y-96791790D01*
X183185001Y-96898887D01*
X183085423Y-96965423D01*
X182768260Y-97440091D01*
X182656887Y-98000000D01*
X182768260Y-98559909D01*
X183085423Y-99034577D01*
X183437758Y-99270000D01*
X183085423Y-99505423D01*
X182836606Y-99877804D01*
X180224500Y-97265699D01*
X180224500Y-96507745D01*
X181171861Y-96507745D01*
X181245995Y-96753864D01*
X181783223Y-96946965D01*
X182353454Y-96919778D01*
X182754005Y-96753864D01*
X182828139Y-96507745D01*
X182000000Y-95679605D01*
X181171861Y-96507745D01*
X180224500Y-96507745D01*
X180224500Y-95283223D01*
X180553035Y-95283223D01*
X180580222Y-95853454D01*
X180746136Y-96254005D01*
X180992255Y-96328139D01*
X181820395Y-95500000D01*
X180992255Y-94671861D01*
X180746136Y-94745995D01*
X180553035Y-95283223D01*
X180224500Y-95283223D01*
X180224500Y-94492255D01*
X181171861Y-94492255D01*
X182000000Y-95320395D01*
X182828139Y-94492255D01*
X182754005Y-94246136D01*
X182216777Y-94053035D01*
X181646546Y-94080222D01*
X181245995Y-94246136D01*
X181171861Y-94492255D01*
X180224500Y-94492255D01*
X180224500Y-93550900D01*
X180416574Y-93550900D01*
X180796980Y-93393331D01*
X181088131Y-93102180D01*
X181245700Y-92721774D01*
X181245700Y-92555701D01*
X181859973Y-91941429D01*
X181923429Y-91899029D01*
X182091404Y-91647637D01*
X182135500Y-91425952D01*
X182135500Y-91425947D01*
X182150388Y-91351100D01*
X182135500Y-91276253D01*
X182135500Y-87660000D01*
X182656887Y-87660000D01*
X182768260Y-88219909D01*
X183085423Y-88694577D01*
X183469108Y-88950947D01*
X183264866Y-89047611D01*
X182888959Y-89462577D01*
X182728096Y-89850961D01*
X182850085Y-90073000D01*
X183993000Y-90073000D01*
X183993000Y-90053000D01*
X184247000Y-90053000D01*
X184247000Y-90073000D01*
X185389915Y-90073000D01*
X185511904Y-89850961D01*
X185351041Y-89462577D01*
X184975134Y-89047611D01*
X184770892Y-88950947D01*
X185154577Y-88694577D01*
X185471740Y-88219909D01*
X185583113Y-87660000D01*
X185471740Y-87100091D01*
X185154577Y-86625423D01*
X184770892Y-86369053D01*
X184975134Y-86272389D01*
X185351041Y-85857423D01*
X185511904Y-85469039D01*
X185389915Y-85247000D01*
X184247000Y-85247000D01*
X184247000Y-85267000D01*
X183993000Y-85267000D01*
X183993000Y-85247000D01*
X182850085Y-85247000D01*
X182728096Y-85469039D01*
X182888959Y-85857423D01*
X183264866Y-86272389D01*
X183469108Y-86369053D01*
X183085423Y-86625423D01*
X182768260Y-87100091D01*
X182656887Y-87660000D01*
X182135500Y-87660000D01*
X182135500Y-82580000D01*
X182656887Y-82580000D01*
X182768260Y-83139909D01*
X183085423Y-83614577D01*
X183469108Y-83870947D01*
X183264866Y-83967611D01*
X182888959Y-84382577D01*
X182728096Y-84770961D01*
X182850085Y-84993000D01*
X183993000Y-84993000D01*
X183993000Y-84973000D01*
X184247000Y-84973000D01*
X184247000Y-84993000D01*
X185389915Y-84993000D01*
X185511904Y-84770961D01*
X185351041Y-84382577D01*
X184975134Y-83967611D01*
X184770892Y-83870947D01*
X185154577Y-83614577D01*
X185471740Y-83139909D01*
X185583113Y-82580000D01*
X185471740Y-82020091D01*
X185154577Y-81545423D01*
X184770892Y-81289053D01*
X184975134Y-81192389D01*
X185351041Y-80777423D01*
X185511904Y-80389039D01*
X185389915Y-80167000D01*
X184247000Y-80167000D01*
X184247000Y-80187000D01*
X183993000Y-80187000D01*
X183993000Y-80167000D01*
X182850085Y-80167000D01*
X182728096Y-80389039D01*
X182888959Y-80777423D01*
X183264866Y-81192389D01*
X183469108Y-81289053D01*
X183085423Y-81545423D01*
X182768260Y-82020091D01*
X182656887Y-82580000D01*
X182135500Y-82580000D01*
X182135500Y-79627900D01*
X182754215Y-79627900D01*
X182728096Y-79690961D01*
X182850085Y-79913000D01*
X183993000Y-79913000D01*
X183993000Y-79893000D01*
X184247000Y-79893000D01*
X184247000Y-79913000D01*
X185389915Y-79913000D01*
X185511904Y-79690961D01*
X185485785Y-79627900D01*
X186427798Y-79627900D01*
X186784372Y-79984475D01*
X186826771Y-80047929D01*
X186890224Y-80090327D01*
X186890226Y-80090329D01*
X186979531Y-80150000D01*
X187052560Y-80198797D01*
X187052560Y-80300000D01*
X187101843Y-80547765D01*
X187172656Y-80653743D01*
X186890228Y-80936171D01*
X186826772Y-80978571D01*
X186784372Y-81042027D01*
X186784371Y-81042028D01*
X186711756Y-81150704D01*
X186658797Y-81229963D01*
X186622881Y-81410527D01*
X186599812Y-81526500D01*
X186614701Y-81601352D01*
X186614700Y-87615953D01*
X186599812Y-87690800D01*
X186614700Y-87765647D01*
X186614700Y-87765651D01*
X186658796Y-87987336D01*
X186826771Y-88238729D01*
X186890230Y-88281131D01*
X187372937Y-88763838D01*
X187148260Y-89100091D01*
X187036887Y-89660000D01*
X187148260Y-90219909D01*
X187465423Y-90694577D01*
X187817758Y-90930000D01*
X187465423Y-91165423D01*
X187148260Y-91640091D01*
X187036887Y-92200000D01*
X187148260Y-92759909D01*
X187465423Y-93234577D01*
X187849108Y-93490947D01*
X187644866Y-93587611D01*
X187268959Y-94002577D01*
X187108096Y-94390961D01*
X187230085Y-94613000D01*
X188373000Y-94613000D01*
X188373000Y-94593000D01*
X188627000Y-94593000D01*
X188627000Y-94613000D01*
X189769915Y-94613000D01*
X189891904Y-94390961D01*
X189731041Y-94002577D01*
X189355134Y-93587611D01*
X189150892Y-93490947D01*
X189534577Y-93234577D01*
X189851740Y-92759909D01*
X189963113Y-92200000D01*
X189851740Y-91640091D01*
X189534577Y-91165423D01*
X189182242Y-90930000D01*
X189534577Y-90694577D01*
X189851740Y-90219909D01*
X189963113Y-89660000D01*
X189851740Y-89100091D01*
X189534577Y-88625423D01*
X189255896Y-88439214D01*
X189238614Y-88352333D01*
X189534577Y-88154577D01*
X189851740Y-87679909D01*
X189963113Y-87120000D01*
X189851740Y-86560091D01*
X189534577Y-86085423D01*
X189182242Y-85850000D01*
X189534577Y-85614577D01*
X189851740Y-85139909D01*
X189963113Y-84580000D01*
X189851740Y-84020091D01*
X189627063Y-83683838D01*
X190560073Y-82750829D01*
X190623529Y-82708429D01*
X190791504Y-82457037D01*
X190835600Y-82235352D01*
X190835600Y-82235348D01*
X190850488Y-82160501D01*
X190835600Y-82085654D01*
X190835600Y-77925646D01*
X190850488Y-77850799D01*
X190835600Y-77775952D01*
X190835600Y-77775948D01*
X190791504Y-77554263D01*
X190760422Y-77507745D01*
X193171861Y-77507745D01*
X193245995Y-77753864D01*
X193783223Y-77946965D01*
X194353454Y-77919778D01*
X194754005Y-77753864D01*
X194828139Y-77507745D01*
X194000000Y-76679605D01*
X193171861Y-77507745D01*
X190760422Y-77507745D01*
X190623529Y-77302871D01*
X190560073Y-77260471D01*
X189582825Y-76283223D01*
X192553035Y-76283223D01*
X192580222Y-76853454D01*
X192746136Y-77254005D01*
X192992255Y-77328139D01*
X193820395Y-76500000D01*
X192992255Y-75671861D01*
X192746136Y-75745995D01*
X192553035Y-76283223D01*
X189582825Y-76283223D01*
X188791857Y-75492255D01*
X193171861Y-75492255D01*
X194000000Y-76320395D01*
X194828139Y-75492255D01*
X194754005Y-75246136D01*
X194216777Y-75053035D01*
X193646546Y-75080222D01*
X193245995Y-75246136D01*
X193171861Y-75492255D01*
X188791857Y-75492255D01*
X188585000Y-75285399D01*
X188585000Y-73556890D01*
X189208524Y-73556890D01*
X189378355Y-73966924D01*
X189768642Y-74395183D01*
X190293108Y-74641486D01*
X190523000Y-74520819D01*
X190523000Y-73327000D01*
X190777000Y-73327000D01*
X190777000Y-74520819D01*
X191006892Y-74641486D01*
X191531358Y-74395183D01*
X191921645Y-73966924D01*
X192091476Y-73556890D01*
X191970155Y-73327000D01*
X190777000Y-73327000D01*
X190523000Y-73327000D01*
X189329845Y-73327000D01*
X189208524Y-73556890D01*
X188585000Y-73556890D01*
X188585000Y-70700648D01*
X188599888Y-70625800D01*
X188585000Y-70550952D01*
X188585000Y-70550948D01*
X188540904Y-70329263D01*
X188540904Y-70329262D01*
X188415329Y-70141327D01*
X188372929Y-70077871D01*
X188309473Y-70035471D01*
X181314002Y-63040000D01*
X189135908Y-63040000D01*
X189251161Y-63619418D01*
X189579375Y-64110625D01*
X189877761Y-64310000D01*
X189579375Y-64509375D01*
X189251161Y-65000582D01*
X189135908Y-65580000D01*
X189251161Y-66159418D01*
X189579375Y-66650625D01*
X189877761Y-66850000D01*
X189579375Y-67049375D01*
X189251161Y-67540582D01*
X189135908Y-68120000D01*
X189251161Y-68699418D01*
X189579375Y-69190625D01*
X189877761Y-69390000D01*
X189579375Y-69589375D01*
X189251161Y-70080582D01*
X189135908Y-70660000D01*
X189251161Y-71239418D01*
X189579375Y-71730625D01*
X189898478Y-71943843D01*
X189768642Y-72004817D01*
X189378355Y-72433076D01*
X189208524Y-72843110D01*
X189329845Y-73073000D01*
X190523000Y-73073000D01*
X190523000Y-73053000D01*
X190777000Y-73053000D01*
X190777000Y-73073000D01*
X191970155Y-73073000D01*
X192091476Y-72843110D01*
X191921645Y-72433076D01*
X191531358Y-72004817D01*
X191401522Y-71943843D01*
X191720625Y-71730625D01*
X192048839Y-71239418D01*
X192164092Y-70660000D01*
X192048839Y-70080582D01*
X191720625Y-69589375D01*
X191422239Y-69390000D01*
X191720625Y-69190625D01*
X192048839Y-68699418D01*
X192164092Y-68120000D01*
X192048839Y-67540582D01*
X191720625Y-67049375D01*
X191422239Y-66850000D01*
X191720625Y-66650625D01*
X192048839Y-66159418D01*
X192164092Y-65580000D01*
X192048839Y-65000582D01*
X191720625Y-64509375D01*
X191422239Y-64310000D01*
X191720625Y-64110625D01*
X192048839Y-63619418D01*
X192164092Y-63040000D01*
X192048839Y-62460582D01*
X191720625Y-61969375D01*
X191702381Y-61957184D01*
X191747765Y-61948157D01*
X191957809Y-61807809D01*
X192098157Y-61597765D01*
X192147440Y-61350000D01*
X192147440Y-59650000D01*
X192098157Y-59402235D01*
X191957809Y-59192191D01*
X191747765Y-59051843D01*
X191500000Y-59002560D01*
X189800000Y-59002560D01*
X189552235Y-59051843D01*
X189342191Y-59192191D01*
X189201843Y-59402235D01*
X189152560Y-59650000D01*
X189152560Y-61350000D01*
X189201843Y-61597765D01*
X189342191Y-61807809D01*
X189552235Y-61948157D01*
X189597619Y-61957184D01*
X189579375Y-61969375D01*
X189251161Y-62460582D01*
X189135908Y-63040000D01*
X181314002Y-63040000D01*
X173418831Y-55144830D01*
X173376429Y-55081371D01*
X173125037Y-54913396D01*
X172903352Y-54869300D01*
X172903347Y-54869300D01*
X172828500Y-54854412D01*
X172753653Y-54869300D01*
X116770846Y-54869300D01*
X116695999Y-54854412D01*
X116621152Y-54869300D01*
X116621148Y-54869300D01*
X116399463Y-54913396D01*
X116336902Y-54955198D01*
X116211526Y-55038971D01*
X116211524Y-55038973D01*
X116148071Y-55081371D01*
X116105673Y-55144824D01*
X106128036Y-65122463D01*
X106107809Y-65092191D01*
X105897765Y-64951843D01*
X105650000Y-64902560D01*
X104050000Y-64902560D01*
X103802235Y-64951843D01*
X103592191Y-65092191D01*
X103451843Y-65302235D01*
X103402560Y-65550000D01*
X103402560Y-67150000D01*
X103451843Y-67397765D01*
X103592191Y-67607809D01*
X103802235Y-67748157D01*
X103936106Y-67774785D01*
X103815423Y-67855423D01*
X103498260Y-68330091D01*
X103386887Y-68890000D01*
X103498260Y-69449909D01*
X103815423Y-69924577D01*
X104167758Y-70160000D01*
X103815423Y-70395423D01*
X103498260Y-70870091D01*
X103386887Y-71430000D01*
X103498260Y-71989909D01*
X103815423Y-72464577D01*
X104167758Y-72700000D01*
X103815423Y-72935423D01*
X103498260Y-73410091D01*
X103386887Y-73970000D01*
X103498260Y-74529909D01*
X103815423Y-75004577D01*
X104167758Y-75240000D01*
X103815423Y-75475423D01*
X103498260Y-75950091D01*
X103386887Y-76510000D01*
X103498260Y-77069909D01*
X103815423Y-77544577D01*
X104167758Y-77780000D01*
X103815423Y-78015423D01*
X103498260Y-78490091D01*
X103386887Y-79050000D01*
X103498260Y-79609909D01*
X103815423Y-80084577D01*
X104167758Y-80320000D01*
X103815423Y-80555423D01*
X103498260Y-81030091D01*
X103386887Y-81590000D01*
X103498260Y-82149909D01*
X103815423Y-82624577D01*
X104167758Y-82860000D01*
X103815423Y-83095423D01*
X103498260Y-83570091D01*
X103386887Y-84130000D01*
X103498260Y-84689909D01*
X103815423Y-85164577D01*
X104167758Y-85400000D01*
X103815423Y-85635423D01*
X103498260Y-86110091D01*
X103386887Y-86670000D01*
X103498260Y-87229909D01*
X103815423Y-87704577D01*
X104167758Y-87940000D01*
X103815423Y-88175423D01*
X103498260Y-88650091D01*
X103386887Y-89210000D01*
X103498260Y-89769909D01*
X103815423Y-90244577D01*
X104167758Y-90480000D01*
X103815423Y-90715423D01*
X103498260Y-91190091D01*
X103386887Y-91750000D01*
X103498260Y-92309909D01*
X103815423Y-92784577D01*
X104199108Y-93040947D01*
X103994866Y-93137611D01*
X103618959Y-93552577D01*
X103458096Y-93940961D01*
X103580085Y-94163000D01*
X104723000Y-94163000D01*
X104723000Y-94143000D01*
X104977000Y-94143000D01*
X104977000Y-94163000D01*
X104997000Y-94163000D01*
X104997000Y-94417000D01*
X104977000Y-94417000D01*
X104977000Y-94437000D01*
X104723000Y-94437000D01*
X104723000Y-94417000D01*
X103580085Y-94417000D01*
X103458096Y-94639039D01*
X103618959Y-95027423D01*
X103994866Y-95442389D01*
X104115894Y-95499670D01*
X104094104Y-95609214D01*
X103815423Y-95795423D01*
X103498260Y-96270091D01*
X103386887Y-96830000D01*
X103498260Y-97389909D01*
X103815423Y-97864577D01*
X104167758Y-98100000D01*
X103815423Y-98335423D01*
X103498260Y-98810091D01*
X103386887Y-99370000D01*
X103498260Y-99929909D01*
X103739479Y-100290919D01*
X102759028Y-101271371D01*
X102695572Y-101313771D01*
X102653172Y-101377227D01*
X102653171Y-101377228D01*
X102527597Y-101565163D01*
X102499695Y-101705438D01*
X102468612Y-101861700D01*
X102483501Y-101936552D01*
X102483500Y-112084653D01*
X102468612Y-112159500D01*
X102483500Y-112234347D01*
X102483500Y-112234351D01*
X102527596Y-112456036D01*
X102695571Y-112707429D01*
X102759030Y-112749831D01*
X103722977Y-113713779D01*
X103498260Y-114050091D01*
X103386887Y-114610000D01*
X103498260Y-115169909D01*
X103815423Y-115644577D01*
X104290091Y-115961740D01*
X104708667Y-116045000D01*
X104991333Y-116045000D01*
X105409909Y-115961740D01*
X105884577Y-115644577D01*
X106201740Y-115169909D01*
X106313113Y-114610000D01*
X106201740Y-114050091D01*
X105884577Y-113575423D01*
X105605896Y-113389214D01*
X105588614Y-113302333D01*
X105884577Y-113104577D01*
X106201740Y-112629909D01*
X106313113Y-112070000D01*
X106201740Y-111510091D01*
X105884577Y-111035423D01*
X105605896Y-110849214D01*
X105588614Y-110762333D01*
X105884577Y-110564577D01*
X106201740Y-110089909D01*
X106313113Y-109530000D01*
X106201740Y-108970091D01*
X105977063Y-108633838D01*
X109455073Y-105155829D01*
X109518529Y-105113429D01*
X109587486Y-105010228D01*
X109686504Y-104862038D01*
X109710080Y-104743512D01*
X109730600Y-104640352D01*
X109730600Y-104640348D01*
X109745488Y-104565500D01*
X109730600Y-104490652D01*
X109730600Y-104481401D01*
X118962977Y-113713779D01*
X118738260Y-114050091D01*
X118626887Y-114610000D01*
X118738260Y-115169909D01*
X119055423Y-115644577D01*
X119530091Y-115961740D01*
X119948667Y-116045000D01*
X120231333Y-116045000D01*
X120649909Y-115961740D01*
X121124577Y-115644577D01*
X121441740Y-115169909D01*
X121501612Y-114868913D01*
X130897698Y-124265000D01*
X100735000Y-124265000D01*
X100735000Y-120055431D01*
X103265000Y-120055431D01*
X103265000Y-120944569D01*
X103605259Y-121766026D01*
X104233974Y-122394741D01*
X105055431Y-122735000D01*
X105944569Y-122735000D01*
X106766026Y-122394741D01*
X107394741Y-121766026D01*
X107735000Y-120944569D01*
X107735000Y-120314833D01*
X122065000Y-120314833D01*
X122065000Y-120985167D01*
X122321526Y-121604476D01*
X122795524Y-122078474D01*
X123414833Y-122335000D01*
X124085167Y-122335000D01*
X124704476Y-122078474D01*
X125178474Y-121604476D01*
X125435000Y-120985167D01*
X125435000Y-120314833D01*
X125178474Y-119695524D01*
X124704476Y-119221526D01*
X124085167Y-118965000D01*
X123414833Y-118965000D01*
X122795524Y-119221526D01*
X122321526Y-119695524D01*
X122065000Y-120314833D01*
X107735000Y-120314833D01*
X107735000Y-120055431D01*
X107394741Y-119233974D01*
X106766026Y-118605259D01*
X105944569Y-118265000D01*
X105055431Y-118265000D01*
X104233974Y-118605259D01*
X103605259Y-119233974D01*
X103265000Y-120055431D01*
X100735000Y-120055431D01*
X100735000Y-54055431D01*
X103265000Y-54055431D01*
X103265000Y-54944569D01*
X103605259Y-55766026D01*
X104233974Y-56394741D01*
X105055431Y-56735000D01*
X105944569Y-56735000D01*
X106766026Y-56394741D01*
X107394741Y-55766026D01*
X107735000Y-54944569D01*
X107735000Y-54055431D01*
X192265000Y-54055431D01*
X192265000Y-54944569D01*
X192605259Y-55766026D01*
X193233974Y-56394741D01*
X194055431Y-56735000D01*
X194944569Y-56735000D01*
X195766026Y-56394741D01*
X196394741Y-55766026D01*
X196735000Y-54944569D01*
X196735000Y-54055431D01*
X196394741Y-53233974D01*
X195766026Y-52605259D01*
X194944569Y-52265000D01*
X194055431Y-52265000D01*
X193233974Y-52605259D01*
X192605259Y-53233974D01*
X192265000Y-54055431D01*
X107735000Y-54055431D01*
X107394741Y-53233974D01*
X106766026Y-52605259D01*
X105944569Y-52265000D01*
X105055431Y-52265000D01*
X104233974Y-52605259D01*
X103605259Y-53233974D01*
X103265000Y-54055431D01*
X100735000Y-54055431D01*
X100735000Y-50735000D01*
X199265001Y-50735000D01*
X199265000Y-124265000D01*
G36*
X132390085Y-103873000D02*
X133533000Y-103873000D01*
X133533000Y-103853000D01*
X133787000Y-103853000D01*
X133787000Y-103873000D01*
X133807000Y-103873000D01*
X133807000Y-104127000D01*
X133787000Y-104127000D01*
X133787000Y-105270629D01*
X134009041Y-105391914D01*
X134025301Y-105384218D01*
X134025300Y-116210453D01*
X134010412Y-116285300D01*
X134025300Y-116360147D01*
X134025300Y-116360151D01*
X134069396Y-116581836D01*
X134237371Y-116833229D01*
X134300830Y-116875631D01*
X139586896Y-122161698D01*
X139565000Y-122214561D01*
X139565000Y-122785439D01*
X139681461Y-123066600D01*
X137864672Y-123066600D01*
X137891914Y-123009041D01*
X137770629Y-122787000D01*
X136627000Y-122787000D01*
X136627000Y-122807000D01*
X136373000Y-122807000D01*
X136373000Y-122787000D01*
X135229371Y-122787000D01*
X135108086Y-123009041D01*
X135135328Y-123066600D01*
X131848902Y-123066600D01*
X129097135Y-120314833D01*
X130565000Y-120314833D01*
X130565000Y-120985167D01*
X130821526Y-121604476D01*
X131295524Y-122078474D01*
X131914833Y-122335000D01*
X132585167Y-122335000D01*
X132643207Y-122310959D01*
X135108086Y-122310959D01*
X135229371Y-122533000D01*
X136373000Y-122533000D01*
X136373000Y-121390085D01*
X136627000Y-121390085D01*
X136627000Y-122533000D01*
X137770629Y-122533000D01*
X137891914Y-122310959D01*
X137652389Y-121804866D01*
X137237423Y-121428959D01*
X136849039Y-121268096D01*
X136627000Y-121390085D01*
X136373000Y-121390085D01*
X136150961Y-121268096D01*
X135762577Y-121428959D01*
X135347611Y-121804866D01*
X135108086Y-122310959D01*
X132643207Y-122310959D01*
X133204476Y-122078474D01*
X133678474Y-121604476D01*
X133935000Y-120985167D01*
X133935000Y-120314833D01*
X133678474Y-119695524D01*
X133204476Y-119221526D01*
X132585167Y-118965000D01*
X131914833Y-118965000D01*
X131295524Y-119221526D01*
X130821526Y-119695524D01*
X130565000Y-120314833D01*
X129097135Y-120314833D01*
X128067302Y-119285000D01*
X128727000Y-119285000D01*
X129400423Y-119100524D01*
X129951988Y-118672383D01*
X130297726Y-118065757D01*
X130338688Y-117903964D01*
X130221283Y-117627000D01*
X128127000Y-117627000D01*
X128127000Y-117647000D01*
X127873000Y-117647000D01*
X127873000Y-117627000D01*
X127853000Y-117627000D01*
X127853000Y-117373000D01*
X127873000Y-117373000D01*
X127873000Y-115715000D01*
X128127000Y-115715000D01*
X128127000Y-117373000D01*
X130221283Y-117373000D01*
X130338688Y-117096036D01*
X130297726Y-116934243D01*
X129951988Y-116327617D01*
X129400423Y-115899476D01*
X128727000Y-115715000D01*
X128127000Y-115715000D01*
X127873000Y-115715000D01*
X127273000Y-115715000D01*
X126599577Y-115899476D01*
X126048012Y-116327617D01*
X125707455Y-116925153D01*
X122478900Y-113696599D01*
X122478900Y-112224194D01*
X126215000Y-112224194D01*
X126215000Y-113775805D01*
X126318567Y-114296471D01*
X126713087Y-114886913D01*
X127303528Y-115281433D01*
X128000000Y-115419970D01*
X128696471Y-115281433D01*
X129286913Y-114886913D01*
X129681433Y-114296472D01*
X129785000Y-113775806D01*
X129785000Y-112224194D01*
X129681433Y-111703528D01*
X129286913Y-111113087D01*
X128696472Y-110718567D01*
X128000000Y-110580030D01*
X127303529Y-110718567D01*
X126713088Y-111113087D01*
X126318567Y-111703528D01*
X126215000Y-112224194D01*
X122478900Y-112224194D01*
X122478900Y-107036446D01*
X122493788Y-106961599D01*
X122478900Y-106886752D01*
X122478900Y-106886748D01*
X122434804Y-106665063D01*
X122266829Y-106413671D01*
X122203373Y-106371271D01*
X121201522Y-105369421D01*
X121324207Y-105185809D01*
X122210571Y-106072173D01*
X122252971Y-106135629D01*
X122504363Y-106303604D01*
X122726048Y-106347700D01*
X122726052Y-106347700D01*
X122800900Y-106362588D01*
X122875748Y-106347700D01*
X126122904Y-106347700D01*
X125783466Y-106687138D01*
X125565000Y-107214561D01*
X125565000Y-107785439D01*
X125783466Y-108312862D01*
X126187138Y-108716534D01*
X126714561Y-108935000D01*
X127285439Y-108935000D01*
X127812862Y-108716534D01*
X128021651Y-108507745D01*
X128671861Y-108507745D01*
X128745995Y-108753864D01*
X129283223Y-108946965D01*
X129853454Y-108919778D01*
X130254005Y-108753864D01*
X130328139Y-108507745D01*
X129500000Y-107679605D01*
X128671861Y-108507745D01*
X128021651Y-108507745D01*
X128216534Y-108312862D01*
X128243525Y-108247701D01*
X128246136Y-108254005D01*
X128492255Y-108328139D01*
X129320395Y-107500000D01*
X129679605Y-107500000D01*
X130507745Y-108328139D01*
X130753864Y-108254005D01*
X130946965Y-107716777D01*
X130919778Y-107146546D01*
X130753864Y-106745995D01*
X130507745Y-106671861D01*
X129679605Y-107500000D01*
X129320395Y-107500000D01*
X129306253Y-107485858D01*
X129485858Y-107306253D01*
X129500000Y-107320395D01*
X130328139Y-106492255D01*
X130254005Y-106246136D01*
X129991809Y-106151892D01*
X131794662Y-104349039D01*
X132268096Y-104349039D01*
X132428959Y-104737423D01*
X132804866Y-105152389D01*
X133310959Y-105391914D01*
X133533000Y-105270629D01*
X133533000Y-104127000D01*
X132390085Y-104127000D01*
X132268096Y-104349039D01*
X131794662Y-104349039D01*
X132347753Y-103795949D01*
X132390085Y-103873000D01*
X132390085Y-103873000D01*
G37*
X132390085Y-103873000D02*
X133533000Y-103873000D01*
X133533000Y-103853000D01*
X133787000Y-103853000D01*
X133787000Y-103873000D01*
X133807000Y-103873000D01*
X133807000Y-104127000D01*
X133787000Y-104127000D01*
X133787000Y-105270629D01*
X134009041Y-105391914D01*
X134025301Y-105384218D01*
X134025300Y-116210453D01*
X134010412Y-116285300D01*
X134025300Y-116360147D01*
X134025300Y-116360151D01*
X134069396Y-116581836D01*
X134237371Y-116833229D01*
X134300830Y-116875631D01*
X139586896Y-122161698D01*
X139565000Y-122214561D01*
X139565000Y-122785439D01*
X139681461Y-123066600D01*
X137864672Y-123066600D01*
X137891914Y-123009041D01*
X137770629Y-122787000D01*
X136627000Y-122787000D01*
X136627000Y-122807000D01*
X136373000Y-122807000D01*
X136373000Y-122787000D01*
X135229371Y-122787000D01*
X135108086Y-123009041D01*
X135135328Y-123066600D01*
X131848902Y-123066600D01*
X129097135Y-120314833D01*
X130565000Y-120314833D01*
X130565000Y-120985167D01*
X130821526Y-121604476D01*
X131295524Y-122078474D01*
X131914833Y-122335000D01*
X132585167Y-122335000D01*
X132643207Y-122310959D01*
X135108086Y-122310959D01*
X135229371Y-122533000D01*
X136373000Y-122533000D01*
X136373000Y-121390085D01*
X136627000Y-121390085D01*
X136627000Y-122533000D01*
X137770629Y-122533000D01*
X137891914Y-122310959D01*
X137652389Y-121804866D01*
X137237423Y-121428959D01*
X136849039Y-121268096D01*
X136627000Y-121390085D01*
X136373000Y-121390085D01*
X136150961Y-121268096D01*
X135762577Y-121428959D01*
X135347611Y-121804866D01*
X135108086Y-122310959D01*
X132643207Y-122310959D01*
X133204476Y-122078474D01*
X133678474Y-121604476D01*
X133935000Y-120985167D01*
X133935000Y-120314833D01*
X133678474Y-119695524D01*
X133204476Y-119221526D01*
X132585167Y-118965000D01*
X131914833Y-118965000D01*
X131295524Y-119221526D01*
X130821526Y-119695524D01*
X130565000Y-120314833D01*
X129097135Y-120314833D01*
X128067302Y-119285000D01*
X128727000Y-119285000D01*
X129400423Y-119100524D01*
X129951988Y-118672383D01*
X130297726Y-118065757D01*
X130338688Y-117903964D01*
X130221283Y-117627000D01*
X128127000Y-117627000D01*
X128127000Y-117647000D01*
X127873000Y-117647000D01*
X127873000Y-117627000D01*
X127853000Y-117627000D01*
X127853000Y-117373000D01*
X127873000Y-117373000D01*
X127873000Y-115715000D01*
X128127000Y-115715000D01*
X128127000Y-117373000D01*
X130221283Y-117373000D01*
X130338688Y-117096036D01*
X130297726Y-116934243D01*
X129951988Y-116327617D01*
X129400423Y-115899476D01*
X128727000Y-115715000D01*
X128127000Y-115715000D01*
X127873000Y-115715000D01*
X127273000Y-115715000D01*
X126599577Y-115899476D01*
X126048012Y-116327617D01*
X125707455Y-116925153D01*
X122478900Y-113696599D01*
X122478900Y-112224194D01*
X126215000Y-112224194D01*
X126215000Y-113775805D01*
X126318567Y-114296471D01*
X126713087Y-114886913D01*
X127303528Y-115281433D01*
X128000000Y-115419970D01*
X128696471Y-115281433D01*
X129286913Y-114886913D01*
X129681433Y-114296472D01*
X129785000Y-113775806D01*
X129785000Y-112224194D01*
X129681433Y-111703528D01*
X129286913Y-111113087D01*
X128696472Y-110718567D01*
X128000000Y-110580030D01*
X127303529Y-110718567D01*
X126713088Y-111113087D01*
X126318567Y-111703528D01*
X126215000Y-112224194D01*
X122478900Y-112224194D01*
X122478900Y-107036446D01*
X122493788Y-106961599D01*
X122478900Y-106886752D01*
X122478900Y-106886748D01*
X122434804Y-106665063D01*
X122266829Y-106413671D01*
X122203373Y-106371271D01*
X121201522Y-105369421D01*
X121324207Y-105185809D01*
X122210571Y-106072173D01*
X122252971Y-106135629D01*
X122504363Y-106303604D01*
X122726048Y-106347700D01*
X122726052Y-106347700D01*
X122800900Y-106362588D01*
X122875748Y-106347700D01*
X126122904Y-106347700D01*
X125783466Y-106687138D01*
X125565000Y-107214561D01*
X125565000Y-107785439D01*
X125783466Y-108312862D01*
X126187138Y-108716534D01*
X126714561Y-108935000D01*
X127285439Y-108935000D01*
X127812862Y-108716534D01*
X128021651Y-108507745D01*
X128671861Y-108507745D01*
X128745995Y-108753864D01*
X129283223Y-108946965D01*
X129853454Y-108919778D01*
X130254005Y-108753864D01*
X130328139Y-108507745D01*
X129500000Y-107679605D01*
X128671861Y-108507745D01*
X128021651Y-108507745D01*
X128216534Y-108312862D01*
X128243525Y-108247701D01*
X128246136Y-108254005D01*
X128492255Y-108328139D01*
X129320395Y-107500000D01*
X129679605Y-107500000D01*
X130507745Y-108328139D01*
X130753864Y-108254005D01*
X130946965Y-107716777D01*
X130919778Y-107146546D01*
X130753864Y-106745995D01*
X130507745Y-106671861D01*
X129679605Y-107500000D01*
X129320395Y-107500000D01*
X129306253Y-107485858D01*
X129485858Y-107306253D01*
X129500000Y-107320395D01*
X130328139Y-106492255D01*
X130254005Y-106246136D01*
X129991809Y-106151892D01*
X131794662Y-104349039D01*
X132268096Y-104349039D01*
X132428959Y-104737423D01*
X132804866Y-105152389D01*
X133310959Y-105391914D01*
X133533000Y-105270629D01*
X133533000Y-104127000D01*
X132390085Y-104127000D01*
X132268096Y-104349039D01*
X131794662Y-104349039D01*
X132347753Y-103795949D01*
X132390085Y-103873000D01*
G36*
X162868343Y-71811446D02*
X162744269Y-71935520D01*
X162586700Y-72315926D01*
X162586700Y-72727674D01*
X162744269Y-73108080D01*
X163035420Y-73399231D01*
X163276842Y-73499231D01*
X164874107Y-75096497D01*
X164783466Y-75187138D01*
X164756475Y-75252299D01*
X164753864Y-75245995D01*
X164507745Y-75171861D01*
X163679605Y-76000000D01*
X164507745Y-76828139D01*
X164753864Y-76754005D01*
X164756290Y-76747254D01*
X164783466Y-76812862D01*
X165187138Y-77216534D01*
X165714561Y-77435000D01*
X166285439Y-77435000D01*
X166812862Y-77216534D01*
X166949401Y-77079995D01*
X166949401Y-77857348D01*
X166934512Y-77932200D01*
X166993497Y-78228737D01*
X167111431Y-78405237D01*
X167161472Y-78480129D01*
X167224928Y-78522529D01*
X170921302Y-82218904D01*
X170663260Y-82605091D01*
X170551887Y-83165000D01*
X170663260Y-83724909D01*
X170980423Y-84199577D01*
X171259104Y-84385786D01*
X171276386Y-84472667D01*
X170980423Y-84670423D01*
X170663260Y-85145091D01*
X170551887Y-85705000D01*
X170663260Y-86264909D01*
X170980423Y-86739577D01*
X171332758Y-86975000D01*
X170980423Y-87210423D01*
X170663260Y-87685091D01*
X170551887Y-88245000D01*
X170663260Y-88804909D01*
X170980423Y-89279577D01*
X171332758Y-89515000D01*
X170980423Y-89750423D01*
X170663260Y-90225091D01*
X170551887Y-90785000D01*
X170663260Y-91344909D01*
X170790524Y-91535374D01*
X154382363Y-107943536D01*
X154375896Y-107939214D01*
X154358614Y-107852333D01*
X154654577Y-107654577D01*
X154971740Y-107179909D01*
X155083113Y-106620000D01*
X154971740Y-106060091D01*
X154707489Y-105664612D01*
X156134173Y-104237929D01*
X156197629Y-104195529D01*
X156365604Y-103944137D01*
X156409700Y-103722452D01*
X156409700Y-103722447D01*
X156424588Y-103647600D01*
X156409700Y-103572753D01*
X156409700Y-102329219D01*
X156425959Y-102336914D01*
X156648000Y-102215629D01*
X156648000Y-101072000D01*
X156902000Y-101072000D01*
X156902000Y-102215629D01*
X157124041Y-102336914D01*
X157630134Y-102097389D01*
X158006041Y-101682423D01*
X158166904Y-101294039D01*
X158044915Y-101072000D01*
X156902000Y-101072000D01*
X156648000Y-101072000D01*
X156628000Y-101072000D01*
X156628000Y-100818000D01*
X156648000Y-100818000D01*
X156648000Y-100798000D01*
X156902000Y-100798000D01*
X156902000Y-100818000D01*
X158044915Y-100818000D01*
X158166904Y-100595961D01*
X158006041Y-100207577D01*
X157630134Y-99792611D01*
X157509106Y-99735330D01*
X157530896Y-99625786D01*
X157809577Y-99439577D01*
X158126740Y-98964909D01*
X158238113Y-98405000D01*
X158126740Y-97845091D01*
X157809577Y-97370423D01*
X157513614Y-97172667D01*
X157530896Y-97085786D01*
X157809577Y-96899577D01*
X158126740Y-96424909D01*
X158238113Y-95865000D01*
X158126740Y-95305091D01*
X157809577Y-94830423D01*
X157513614Y-94632667D01*
X157530896Y-94545786D01*
X157809577Y-94359577D01*
X158126740Y-93884909D01*
X158238113Y-93325000D01*
X158126740Y-92765091D01*
X157809577Y-92290423D01*
X157457242Y-92055000D01*
X157809577Y-91819577D01*
X158126740Y-91344909D01*
X158238113Y-90785000D01*
X158126740Y-90225091D01*
X157864012Y-89831890D01*
X158875376Y-88820527D01*
X158938829Y-88778129D01*
X158981227Y-88714676D01*
X158981229Y-88714674D01*
X159087919Y-88555000D01*
X159106804Y-88526737D01*
X159150900Y-88305052D01*
X159150900Y-88305048D01*
X159165788Y-88230201D01*
X159150900Y-88155354D01*
X159150900Y-77007745D01*
X162671861Y-77007745D01*
X162745995Y-77253864D01*
X163283223Y-77446965D01*
X163853454Y-77419778D01*
X164254005Y-77253864D01*
X164328139Y-77007745D01*
X163500000Y-76179605D01*
X162671861Y-77007745D01*
X159150900Y-77007745D01*
X159150900Y-75783223D01*
X162053035Y-75783223D01*
X162080222Y-76353454D01*
X162246136Y-76754005D01*
X162492255Y-76828139D01*
X163320395Y-76000000D01*
X162492255Y-75171861D01*
X162246136Y-75245995D01*
X162053035Y-75783223D01*
X159150900Y-75783223D01*
X159150900Y-75587548D01*
X159165788Y-75512700D01*
X159150900Y-75437852D01*
X159150900Y-75437848D01*
X159106804Y-75216163D01*
X158957194Y-74992255D01*
X162671861Y-74992255D01*
X163500000Y-75820395D01*
X164328139Y-74992255D01*
X164254005Y-74746136D01*
X163716777Y-74553035D01*
X163146546Y-74580222D01*
X162745995Y-74746136D01*
X162671861Y-74992255D01*
X158957194Y-74992255D01*
X158938829Y-74964771D01*
X158875373Y-74922371D01*
X157882877Y-73929876D01*
X158126740Y-73564909D01*
X158238113Y-73005000D01*
X158126740Y-72445091D01*
X157873665Y-72066337D01*
X158409073Y-71530929D01*
X158472529Y-71488529D01*
X158640504Y-71237137D01*
X158684600Y-71015452D01*
X158684600Y-71015448D01*
X158699488Y-70940601D01*
X158684600Y-70865754D01*
X158684600Y-69993448D01*
X158699488Y-69918600D01*
X158684600Y-69843752D01*
X158684600Y-69843748D01*
X158640504Y-69622063D01*
X158472529Y-69370671D01*
X158409073Y-69328271D01*
X158125256Y-69044454D01*
X158173157Y-68972765D01*
X158222440Y-68725000D01*
X158222440Y-67165541D01*
X162868343Y-71811446D01*
X162868343Y-71811446D01*
G37*
X162868343Y-71811446D02*
X162744269Y-71935520D01*
X162586700Y-72315926D01*
X162586700Y-72727674D01*
X162744269Y-73108080D01*
X163035420Y-73399231D01*
X163276842Y-73499231D01*
X164874107Y-75096497D01*
X164783466Y-75187138D01*
X164756475Y-75252299D01*
X164753864Y-75245995D01*
X164507745Y-75171861D01*
X163679605Y-76000000D01*
X164507745Y-76828139D01*
X164753864Y-76754005D01*
X164756290Y-76747254D01*
X164783466Y-76812862D01*
X165187138Y-77216534D01*
X165714561Y-77435000D01*
X166285439Y-77435000D01*
X166812862Y-77216534D01*
X166949401Y-77079995D01*
X166949401Y-77857348D01*
X166934512Y-77932200D01*
X166993497Y-78228737D01*
X167111431Y-78405237D01*
X167161472Y-78480129D01*
X167224928Y-78522529D01*
X170921302Y-82218904D01*
X170663260Y-82605091D01*
X170551887Y-83165000D01*
X170663260Y-83724909D01*
X170980423Y-84199577D01*
X171259104Y-84385786D01*
X171276386Y-84472667D01*
X170980423Y-84670423D01*
X170663260Y-85145091D01*
X170551887Y-85705000D01*
X170663260Y-86264909D01*
X170980423Y-86739577D01*
X171332758Y-86975000D01*
X170980423Y-87210423D01*
X170663260Y-87685091D01*
X170551887Y-88245000D01*
X170663260Y-88804909D01*
X170980423Y-89279577D01*
X171332758Y-89515000D01*
X170980423Y-89750423D01*
X170663260Y-90225091D01*
X170551887Y-90785000D01*
X170663260Y-91344909D01*
X170790524Y-91535374D01*
X154382363Y-107943536D01*
X154375896Y-107939214D01*
X154358614Y-107852333D01*
X154654577Y-107654577D01*
X154971740Y-107179909D01*
X155083113Y-106620000D01*
X154971740Y-106060091D01*
X154707489Y-105664612D01*
X156134173Y-104237929D01*
X156197629Y-104195529D01*
X156365604Y-103944137D01*
X156409700Y-103722452D01*
X156409700Y-103722447D01*
X156424588Y-103647600D01*
X156409700Y-103572753D01*
X156409700Y-102329219D01*
X156425959Y-102336914D01*
X156648000Y-102215629D01*
X156648000Y-101072000D01*
X156902000Y-101072000D01*
X156902000Y-102215629D01*
X157124041Y-102336914D01*
X157630134Y-102097389D01*
X158006041Y-101682423D01*
X158166904Y-101294039D01*
X158044915Y-101072000D01*
X156902000Y-101072000D01*
X156648000Y-101072000D01*
X156628000Y-101072000D01*
X156628000Y-100818000D01*
X156648000Y-100818000D01*
X156648000Y-100798000D01*
X156902000Y-100798000D01*
X156902000Y-100818000D01*
X158044915Y-100818000D01*
X158166904Y-100595961D01*
X158006041Y-100207577D01*
X157630134Y-99792611D01*
X157509106Y-99735330D01*
X157530896Y-99625786D01*
X157809577Y-99439577D01*
X158126740Y-98964909D01*
X158238113Y-98405000D01*
X158126740Y-97845091D01*
X157809577Y-97370423D01*
X157513614Y-97172667D01*
X157530896Y-97085786D01*
X157809577Y-96899577D01*
X158126740Y-96424909D01*
X158238113Y-95865000D01*
X158126740Y-95305091D01*
X157809577Y-94830423D01*
X157513614Y-94632667D01*
X157530896Y-94545786D01*
X157809577Y-94359577D01*
X158126740Y-93884909D01*
X158238113Y-93325000D01*
X158126740Y-92765091D01*
X157809577Y-92290423D01*
X157457242Y-92055000D01*
X157809577Y-91819577D01*
X158126740Y-91344909D01*
X158238113Y-90785000D01*
X158126740Y-90225091D01*
X157864012Y-89831890D01*
X158875376Y-88820527D01*
X158938829Y-88778129D01*
X158981227Y-88714676D01*
X158981229Y-88714674D01*
X159087919Y-88555000D01*
X159106804Y-88526737D01*
X159150900Y-88305052D01*
X159150900Y-88305048D01*
X159165788Y-88230201D01*
X159150900Y-88155354D01*
X159150900Y-77007745D01*
X162671861Y-77007745D01*
X162745995Y-77253864D01*
X163283223Y-77446965D01*
X163853454Y-77419778D01*
X164254005Y-77253864D01*
X164328139Y-77007745D01*
X163500000Y-76179605D01*
X162671861Y-77007745D01*
X159150900Y-77007745D01*
X159150900Y-75783223D01*
X162053035Y-75783223D01*
X162080222Y-76353454D01*
X162246136Y-76754005D01*
X162492255Y-76828139D01*
X163320395Y-76000000D01*
X162492255Y-75171861D01*
X162246136Y-75245995D01*
X162053035Y-75783223D01*
X159150900Y-75783223D01*
X159150900Y-75587548D01*
X159165788Y-75512700D01*
X159150900Y-75437852D01*
X159150900Y-75437848D01*
X159106804Y-75216163D01*
X158957194Y-74992255D01*
X162671861Y-74992255D01*
X163500000Y-75820395D01*
X164328139Y-74992255D01*
X164254005Y-74746136D01*
X163716777Y-74553035D01*
X163146546Y-74580222D01*
X162745995Y-74746136D01*
X162671861Y-74992255D01*
X158957194Y-74992255D01*
X158938829Y-74964771D01*
X158875373Y-74922371D01*
X157882877Y-73929876D01*
X158126740Y-73564909D01*
X158238113Y-73005000D01*
X158126740Y-72445091D01*
X157873665Y-72066337D01*
X158409073Y-71530929D01*
X158472529Y-71488529D01*
X158640504Y-71237137D01*
X158684600Y-71015452D01*
X158684600Y-71015448D01*
X158699488Y-70940601D01*
X158684600Y-70865754D01*
X158684600Y-69993448D01*
X158699488Y-69918600D01*
X158684600Y-69843752D01*
X158684600Y-69843748D01*
X158640504Y-69622063D01*
X158472529Y-69370671D01*
X158409073Y-69328271D01*
X158125256Y-69044454D01*
X158173157Y-68972765D01*
X158222440Y-68725000D01*
X158222440Y-67165541D01*
X162868343Y-71811446D01*
G36*
X149501601Y-93344509D02*
X149483283Y-93436600D01*
X149555850Y-93801418D01*
X149703882Y-94022963D01*
X149762504Y-94110697D01*
X149840570Y-94162859D01*
X150752864Y-95075153D01*
X150646546Y-95080222D01*
X150245995Y-95246136D01*
X150171861Y-95492255D01*
X151000000Y-96320395D01*
X151014142Y-96306252D01*
X151193748Y-96485858D01*
X151179605Y-96500000D01*
X152007745Y-97328139D01*
X152253864Y-97254005D01*
X152256290Y-97247254D01*
X152283466Y-97312862D01*
X152547284Y-97576680D01*
X152546683Y-97579700D01*
X152595355Y-97824388D01*
X152618952Y-97943020D01*
X152585423Y-97965423D01*
X152268260Y-98440091D01*
X152156887Y-99000000D01*
X152268260Y-99559909D01*
X152585423Y-100034577D01*
X152881386Y-100232333D01*
X152864104Y-100319214D01*
X152585423Y-100505423D01*
X152268260Y-100980091D01*
X152156887Y-101540000D01*
X152268260Y-102099909D01*
X152585423Y-102574577D01*
X152881386Y-102772333D01*
X152864104Y-102859214D01*
X152585423Y-103045423D01*
X152343655Y-103407254D01*
X150665300Y-101728899D01*
X150665300Y-98261047D01*
X150680188Y-98186200D01*
X150665300Y-98111353D01*
X150665300Y-98111348D01*
X150621204Y-97889663D01*
X150620383Y-97888434D01*
X150783223Y-97946965D01*
X151353454Y-97919778D01*
X151754005Y-97753864D01*
X151828139Y-97507745D01*
X151000000Y-96679605D01*
X150985858Y-96693748D01*
X150806252Y-96514142D01*
X150820395Y-96500000D01*
X149992255Y-95671861D01*
X149746136Y-95745995D01*
X149553035Y-96283223D01*
X149576861Y-96782959D01*
X146808031Y-94014130D01*
X146781800Y-93974872D01*
X146891904Y-93709039D01*
X146769915Y-93487000D01*
X145627000Y-93487000D01*
X145627000Y-93507000D01*
X145373000Y-93507000D01*
X145373000Y-93487000D01*
X145353000Y-93487000D01*
X145353000Y-93233000D01*
X145373000Y-93233000D01*
X145373000Y-93213000D01*
X145627000Y-93213000D01*
X145627000Y-93233000D01*
X146769915Y-93233000D01*
X146891904Y-93010961D01*
X146731041Y-92622577D01*
X146355134Y-92207611D01*
X146234106Y-92150330D01*
X146255896Y-92040786D01*
X146534577Y-91854577D01*
X146851740Y-91379909D01*
X146963113Y-90820000D01*
X146851740Y-90260091D01*
X146590493Y-89869108D01*
X148164473Y-88295129D01*
X148227929Y-88252729D01*
X148395904Y-88001337D01*
X148440000Y-87779652D01*
X148440000Y-87779648D01*
X148454888Y-87704800D01*
X148440000Y-87629952D01*
X148440000Y-77231601D01*
X149501600Y-76170002D01*
X149501601Y-93344509D01*
X149501601Y-93344509D01*
G37*
X149501601Y-93344509D02*
X149483283Y-93436600D01*
X149555850Y-93801418D01*
X149703882Y-94022963D01*
X149762504Y-94110697D01*
X149840570Y-94162859D01*
X150752864Y-95075153D01*
X150646546Y-95080222D01*
X150245995Y-95246136D01*
X150171861Y-95492255D01*
X151000000Y-96320395D01*
X151014142Y-96306252D01*
X151193748Y-96485858D01*
X151179605Y-96500000D01*
X152007745Y-97328139D01*
X152253864Y-97254005D01*
X152256290Y-97247254D01*
X152283466Y-97312862D01*
X152547284Y-97576680D01*
X152546683Y-97579700D01*
X152595355Y-97824388D01*
X152618952Y-97943020D01*
X152585423Y-97965423D01*
X152268260Y-98440091D01*
X152156887Y-99000000D01*
X152268260Y-99559909D01*
X152585423Y-100034577D01*
X152881386Y-100232333D01*
X152864104Y-100319214D01*
X152585423Y-100505423D01*
X152268260Y-100980091D01*
X152156887Y-101540000D01*
X152268260Y-102099909D01*
X152585423Y-102574577D01*
X152881386Y-102772333D01*
X152864104Y-102859214D01*
X152585423Y-103045423D01*
X152343655Y-103407254D01*
X150665300Y-101728899D01*
X150665300Y-98261047D01*
X150680188Y-98186200D01*
X150665300Y-98111353D01*
X150665300Y-98111348D01*
X150621204Y-97889663D01*
X150620383Y-97888434D01*
X150783223Y-97946965D01*
X151353454Y-97919778D01*
X151754005Y-97753864D01*
X151828139Y-97507745D01*
X151000000Y-96679605D01*
X150985858Y-96693748D01*
X150806252Y-96514142D01*
X150820395Y-96500000D01*
X149992255Y-95671861D01*
X149746136Y-95745995D01*
X149553035Y-96283223D01*
X149576861Y-96782959D01*
X146808031Y-94014130D01*
X146781800Y-93974872D01*
X146891904Y-93709039D01*
X146769915Y-93487000D01*
X145627000Y-93487000D01*
X145627000Y-93507000D01*
X145373000Y-93507000D01*
X145373000Y-93487000D01*
X145353000Y-93487000D01*
X145353000Y-93233000D01*
X145373000Y-93233000D01*
X145373000Y-93213000D01*
X145627000Y-93213000D01*
X145627000Y-93233000D01*
X146769915Y-93233000D01*
X146891904Y-93010961D01*
X146731041Y-92622577D01*
X146355134Y-92207611D01*
X146234106Y-92150330D01*
X146255896Y-92040786D01*
X146534577Y-91854577D01*
X146851740Y-91379909D01*
X146963113Y-90820000D01*
X146851740Y-90260091D01*
X146590493Y-89869108D01*
X148164473Y-88295129D01*
X148227929Y-88252729D01*
X148395904Y-88001337D01*
X148440000Y-87779652D01*
X148440000Y-87779648D01*
X148454888Y-87704800D01*
X148440000Y-87629952D01*
X148440000Y-77231601D01*
X149501600Y-76170002D01*
X149501601Y-93344509D01*
G36*
X138629259Y-96052560D02*
X138200000Y-96052560D01*
X137952235Y-96101843D01*
X137742191Y-96242191D01*
X137601843Y-96452235D01*
X137552560Y-96700000D01*
X137552560Y-98300000D01*
X137601843Y-98547765D01*
X137742191Y-98757809D01*
X137952235Y-98898157D01*
X138186187Y-98944693D01*
X138171861Y-98992255D01*
X139000000Y-99820395D01*
X139828139Y-98992255D01*
X139813813Y-98944693D01*
X140047765Y-98898157D01*
X140257809Y-98757809D01*
X140398157Y-98547765D01*
X140447440Y-98300000D01*
X140447440Y-97870742D01*
X143186570Y-100609872D01*
X143228971Y-100673329D01*
X143292427Y-100715729D01*
X143388615Y-100780000D01*
X140167563Y-100780000D01*
X140253864Y-100754005D01*
X140446965Y-100216777D01*
X140419778Y-99646546D01*
X140253864Y-99245995D01*
X140007745Y-99171861D01*
X139179605Y-100000000D01*
X139193748Y-100014142D01*
X139014142Y-100193748D01*
X139000000Y-100179605D01*
X138985858Y-100193748D01*
X138806252Y-100014142D01*
X138820395Y-100000000D01*
X137992255Y-99171861D01*
X137746136Y-99245995D01*
X137732694Y-99283392D01*
X133183461Y-94734160D01*
X133373000Y-94630629D01*
X133373000Y-93487000D01*
X133627000Y-93487000D01*
X133627000Y-94630629D01*
X133849041Y-94751914D01*
X134355134Y-94512389D01*
X134731041Y-94097423D01*
X134891904Y-93709039D01*
X134769915Y-93487000D01*
X133627000Y-93487000D01*
X133373000Y-93487000D01*
X133353000Y-93487000D01*
X133353000Y-93233000D01*
X133373000Y-93233000D01*
X133373000Y-93213000D01*
X133627000Y-93213000D01*
X133627000Y-93233000D01*
X134769915Y-93233000D01*
X134891904Y-93010961D01*
X134825236Y-92850000D01*
X135426699Y-92850000D01*
X138629259Y-96052560D01*
X138629259Y-96052560D01*
G37*
X138629259Y-96052560D02*
X138200000Y-96052560D01*
X137952235Y-96101843D01*
X137742191Y-96242191D01*
X137601843Y-96452235D01*
X137552560Y-96700000D01*
X137552560Y-98300000D01*
X137601843Y-98547765D01*
X137742191Y-98757809D01*
X137952235Y-98898157D01*
X138186187Y-98944693D01*
X138171861Y-98992255D01*
X139000000Y-99820395D01*
X139828139Y-98992255D01*
X139813813Y-98944693D01*
X140047765Y-98898157D01*
X140257809Y-98757809D01*
X140398157Y-98547765D01*
X140447440Y-98300000D01*
X140447440Y-97870742D01*
X143186570Y-100609872D01*
X143228971Y-100673329D01*
X143292427Y-100715729D01*
X143388615Y-100780000D01*
X140167563Y-100780000D01*
X140253864Y-100754005D01*
X140446965Y-100216777D01*
X140419778Y-99646546D01*
X140253864Y-99245995D01*
X140007745Y-99171861D01*
X139179605Y-100000000D01*
X139193748Y-100014142D01*
X139014142Y-100193748D01*
X139000000Y-100179605D01*
X138985858Y-100193748D01*
X138806252Y-100014142D01*
X138820395Y-100000000D01*
X137992255Y-99171861D01*
X137746136Y-99245995D01*
X137732694Y-99283392D01*
X133183461Y-94734160D01*
X133373000Y-94630629D01*
X133373000Y-93487000D01*
X133627000Y-93487000D01*
X133627000Y-94630629D01*
X133849041Y-94751914D01*
X134355134Y-94512389D01*
X134731041Y-94097423D01*
X134891904Y-93709039D01*
X134769915Y-93487000D01*
X133627000Y-93487000D01*
X133373000Y-93487000D01*
X133353000Y-93487000D01*
X133353000Y-93233000D01*
X133373000Y-93233000D01*
X133373000Y-93213000D01*
X133627000Y-93213000D01*
X133627000Y-93233000D01*
X134769915Y-93233000D01*
X134891904Y-93010961D01*
X134825236Y-92850000D01*
X135426699Y-92850000D01*
X138629259Y-96052560D01*
G36*
X174604433Y-82603235D02*
X174658796Y-82876537D01*
X174824913Y-83125148D01*
X174826771Y-83127929D01*
X175078163Y-83295904D01*
X175279214Y-83335896D01*
X175465423Y-83614577D01*
X175817758Y-83850000D01*
X175465423Y-84085423D01*
X175148260Y-84560091D01*
X175036887Y-85120000D01*
X175148260Y-85679909D01*
X175465423Y-86154577D01*
X175849108Y-86410947D01*
X175644866Y-86507611D01*
X175268959Y-86922577D01*
X175108096Y-87310961D01*
X175230085Y-87533000D01*
X176373000Y-87533000D01*
X176373000Y-87513000D01*
X176627000Y-87513000D01*
X176627000Y-87533000D01*
X176647000Y-87533000D01*
X176647000Y-87787000D01*
X176627000Y-87787000D01*
X176627000Y-87807000D01*
X176373000Y-87807000D01*
X176373000Y-87787000D01*
X175230085Y-87787000D01*
X175108096Y-88009039D01*
X175268959Y-88397423D01*
X175644866Y-88812389D01*
X175849108Y-88909053D01*
X175465423Y-89165423D01*
X175148260Y-89640091D01*
X175036887Y-90200000D01*
X175148260Y-90759909D01*
X175465423Y-91234577D01*
X175849108Y-91490947D01*
X175644866Y-91587611D01*
X175268959Y-92002577D01*
X175108096Y-92390961D01*
X175230085Y-92613000D01*
X176373000Y-92613000D01*
X176373000Y-92593000D01*
X176627000Y-92593000D01*
X176627000Y-92613000D01*
X176647000Y-92613000D01*
X176647000Y-92867000D01*
X176627000Y-92867000D01*
X176627000Y-92887000D01*
X176373000Y-92887000D01*
X176373000Y-92867000D01*
X175230085Y-92867000D01*
X175108096Y-93089039D01*
X175268959Y-93477423D01*
X175644866Y-93892389D01*
X176150959Y-94131914D01*
X176372998Y-94010630D01*
X176372998Y-94175000D01*
X176475098Y-94175000D01*
X173141742Y-97508357D01*
X173113184Y-97465617D01*
X174117473Y-96461329D01*
X174180929Y-96418929D01*
X174348904Y-96167537D01*
X174393000Y-95945852D01*
X174393000Y-95945847D01*
X174407888Y-95871000D01*
X174393000Y-95796153D01*
X174393000Y-83264947D01*
X174407888Y-83190100D01*
X174393000Y-83115253D01*
X174393000Y-83115248D01*
X174348904Y-82893563D01*
X174180929Y-82642171D01*
X174117473Y-82599771D01*
X173100727Y-81583026D01*
X173294389Y-81293190D01*
X174604433Y-82603235D01*
X174604433Y-82603235D01*
G37*
X174604433Y-82603235D02*
X174658796Y-82876537D01*
X174824913Y-83125148D01*
X174826771Y-83127929D01*
X175078163Y-83295904D01*
X175279214Y-83335896D01*
X175465423Y-83614577D01*
X175817758Y-83850000D01*
X175465423Y-84085423D01*
X175148260Y-84560091D01*
X175036887Y-85120000D01*
X175148260Y-85679909D01*
X175465423Y-86154577D01*
X175849108Y-86410947D01*
X175644866Y-86507611D01*
X175268959Y-86922577D01*
X175108096Y-87310961D01*
X175230085Y-87533000D01*
X176373000Y-87533000D01*
X176373000Y-87513000D01*
X176627000Y-87513000D01*
X176627000Y-87533000D01*
X176647000Y-87533000D01*
X176647000Y-87787000D01*
X176627000Y-87787000D01*
X176627000Y-87807000D01*
X176373000Y-87807000D01*
X176373000Y-87787000D01*
X175230085Y-87787000D01*
X175108096Y-88009039D01*
X175268959Y-88397423D01*
X175644866Y-88812389D01*
X175849108Y-88909053D01*
X175465423Y-89165423D01*
X175148260Y-89640091D01*
X175036887Y-90200000D01*
X175148260Y-90759909D01*
X175465423Y-91234577D01*
X175849108Y-91490947D01*
X175644866Y-91587611D01*
X175268959Y-92002577D01*
X175108096Y-92390961D01*
X175230085Y-92613000D01*
X176373000Y-92613000D01*
X176373000Y-92593000D01*
X176627000Y-92593000D01*
X176627000Y-92613000D01*
X176647000Y-92613000D01*
X176647000Y-92867000D01*
X176627000Y-92867000D01*
X176627000Y-92887000D01*
X176373000Y-92887000D01*
X176373000Y-92867000D01*
X175230085Y-92867000D01*
X175108096Y-93089039D01*
X175268959Y-93477423D01*
X175644866Y-93892389D01*
X176150959Y-94131914D01*
X176372998Y-94010630D01*
X176372998Y-94175000D01*
X176475098Y-94175000D01*
X173141742Y-97508357D01*
X173113184Y-97465617D01*
X174117473Y-96461329D01*
X174180929Y-96418929D01*
X174348904Y-96167537D01*
X174393000Y-95945852D01*
X174393000Y-95945847D01*
X174407888Y-95871000D01*
X174393000Y-95796153D01*
X174393000Y-83264947D01*
X174407888Y-83190100D01*
X174393000Y-83115253D01*
X174393000Y-83115248D01*
X174348904Y-82893563D01*
X174180929Y-82642171D01*
X174117473Y-82599771D01*
X173100727Y-81583026D01*
X173294389Y-81293190D01*
X174604433Y-82603235D01*
G36*
X111193748Y-94485858D02*
X111179605Y-94500000D01*
X111193748Y-94514142D01*
X111014143Y-94693748D01*
X111000000Y-94679605D01*
X110985858Y-94693748D01*
X110806253Y-94514143D01*
X110820395Y-94500000D01*
X110806253Y-94485858D01*
X110985858Y-94306253D01*
X111000000Y-94320395D01*
X111014143Y-94306253D01*
X111193748Y-94485858D01*
X111193748Y-94485858D01*
G37*
X111193748Y-94485858D02*
X111179605Y-94500000D01*
X111193748Y-94514142D01*
X111014143Y-94693748D01*
X111000000Y-94679605D01*
X110985858Y-94693748D01*
X110806253Y-94514143D01*
X110820395Y-94500000D01*
X110806253Y-94485858D01*
X110985858Y-94306253D01*
X111000000Y-94320395D01*
X111014143Y-94306253D01*
X111193748Y-94485858D01*
G36*
X125529817Y-60966358D02*
X125736855Y-61155039D01*
X125627235Y-61176843D01*
X125417191Y-61317191D01*
X125276843Y-61527235D01*
X125227560Y-61775000D01*
X125227560Y-63475000D01*
X125276843Y-63722765D01*
X125417191Y-63932809D01*
X125627235Y-64073157D01*
X125875000Y-64122440D01*
X127575000Y-64122440D01*
X127822765Y-64073157D01*
X128032809Y-63932809D01*
X128173157Y-63722765D01*
X128182184Y-63677381D01*
X128194375Y-63695625D01*
X128330001Y-63786247D01*
X128330001Y-63883210D01*
X128311683Y-63975300D01*
X128384250Y-64340118D01*
X128535316Y-64566204D01*
X128590904Y-64649397D01*
X128668970Y-64701559D01*
X129529380Y-65561970D01*
X129146546Y-65580222D01*
X128745995Y-65746136D01*
X128671861Y-65992255D01*
X129500000Y-66820395D01*
X129514142Y-66806252D01*
X129693748Y-66985858D01*
X129679605Y-67000000D01*
X130507745Y-67828139D01*
X130753864Y-67754005D01*
X130946965Y-67216777D01*
X130935089Y-66967678D01*
X131908901Y-67941491D01*
X131908900Y-68426210D01*
X130935000Y-69400111D01*
X130935000Y-69214561D01*
X130716534Y-68687138D01*
X130312862Y-68283466D01*
X130247701Y-68256475D01*
X130254005Y-68253864D01*
X130328139Y-68007745D01*
X129500000Y-67179605D01*
X128671861Y-68007745D01*
X128745995Y-68253864D01*
X128752746Y-68256290D01*
X128687138Y-68283466D01*
X128610604Y-68360000D01*
X126184312Y-68360000D01*
X126174147Y-68335460D01*
X125784540Y-67945853D01*
X125275494Y-67735000D01*
X124724506Y-67735000D01*
X124215460Y-67945853D01*
X123825853Y-68335460D01*
X123615000Y-68844506D01*
X123615000Y-69395494D01*
X123825853Y-69904540D01*
X124215460Y-70294147D01*
X124724506Y-70505000D01*
X125275494Y-70505000D01*
X125784540Y-70294147D01*
X126174147Y-69904540D01*
X126184312Y-69880000D01*
X128104168Y-69880000D01*
X128283466Y-70312862D01*
X128687138Y-70716534D01*
X128752299Y-70743525D01*
X128745995Y-70746136D01*
X128671861Y-70992255D01*
X129500000Y-71820395D01*
X129514143Y-71806253D01*
X129693748Y-71985858D01*
X129679605Y-72000000D01*
X129693748Y-72014142D01*
X129514143Y-72193748D01*
X129500000Y-72179605D01*
X128671861Y-73007745D01*
X128745995Y-73253864D01*
X128752746Y-73256290D01*
X128687138Y-73283466D01*
X128283466Y-73687138D01*
X128065000Y-74214561D01*
X128065000Y-74785439D01*
X128283466Y-75312862D01*
X128687138Y-75716534D01*
X129022333Y-75855377D01*
X126229634Y-78648077D01*
X126152389Y-78484866D01*
X125737423Y-78108959D01*
X125349039Y-77948096D01*
X125127000Y-78070085D01*
X125127000Y-79213000D01*
X125147000Y-79213000D01*
X125147000Y-79467000D01*
X125127000Y-79467000D01*
X125127000Y-79487000D01*
X124873000Y-79487000D01*
X124873000Y-79467000D01*
X123729371Y-79467000D01*
X123608086Y-79689041D01*
X123847611Y-80195134D01*
X124262577Y-80571041D01*
X124293756Y-80583955D01*
X122968300Y-81909411D01*
X122968300Y-78990959D01*
X123608086Y-78990959D01*
X123729371Y-79213000D01*
X124873000Y-79213000D01*
X124873000Y-78070085D01*
X124650961Y-77948096D01*
X124262577Y-78108959D01*
X123847611Y-78484866D01*
X123608086Y-78990959D01*
X122968300Y-78990959D01*
X122968300Y-73621346D01*
X122983188Y-73546499D01*
X122968300Y-73471652D01*
X122968300Y-73471648D01*
X122924204Y-73249963D01*
X122845183Y-73131700D01*
X122798629Y-73062026D01*
X122798627Y-73062024D01*
X122756229Y-72998571D01*
X122692775Y-72956172D01*
X122541400Y-72804798D01*
X122541400Y-72638726D01*
X122525473Y-72600274D01*
X123625165Y-73699966D01*
X123615000Y-73724506D01*
X123615000Y-74275494D01*
X123825853Y-74784540D01*
X124215460Y-75174147D01*
X124724506Y-75385000D01*
X125275494Y-75385000D01*
X125784540Y-75174147D01*
X126174147Y-74784540D01*
X126385000Y-74275494D01*
X126385000Y-73724506D01*
X126174147Y-73215460D01*
X125784540Y-72825853D01*
X125275494Y-72615000D01*
X124724506Y-72615000D01*
X124699966Y-72625165D01*
X123858024Y-71783223D01*
X128053035Y-71783223D01*
X128080222Y-72353454D01*
X128246136Y-72754005D01*
X128492255Y-72828139D01*
X129320395Y-72000000D01*
X128492255Y-71171861D01*
X128246136Y-71245995D01*
X128053035Y-71783223D01*
X123858024Y-71783223D01*
X121605631Y-69530830D01*
X121563229Y-69467371D01*
X121452927Y-69393669D01*
X121553113Y-68890000D01*
X121441740Y-68330091D01*
X121124577Y-67855423D01*
X120772242Y-67620000D01*
X121124577Y-67384577D01*
X121441740Y-66909909D01*
X121466939Y-66783223D01*
X128053035Y-66783223D01*
X128080222Y-67353454D01*
X128246136Y-67754005D01*
X128492255Y-67828139D01*
X129320395Y-67000000D01*
X128492255Y-66171861D01*
X128246136Y-66245995D01*
X128053035Y-66783223D01*
X121466939Y-66783223D01*
X121553113Y-66350000D01*
X121441740Y-65790091D01*
X121124577Y-65315423D01*
X120796975Y-65096526D01*
X125337230Y-60556272D01*
X125529817Y-60966358D01*
X125529817Y-60966358D01*
G37*
X125529817Y-60966358D02*
X125736855Y-61155039D01*
X125627235Y-61176843D01*
X125417191Y-61317191D01*
X125276843Y-61527235D01*
X125227560Y-61775000D01*
X125227560Y-63475000D01*
X125276843Y-63722765D01*
X125417191Y-63932809D01*
X125627235Y-64073157D01*
X125875000Y-64122440D01*
X127575000Y-64122440D01*
X127822765Y-64073157D01*
X128032809Y-63932809D01*
X128173157Y-63722765D01*
X128182184Y-63677381D01*
X128194375Y-63695625D01*
X128330001Y-63786247D01*
X128330001Y-63883210D01*
X128311683Y-63975300D01*
X128384250Y-64340118D01*
X128535316Y-64566204D01*
X128590904Y-64649397D01*
X128668970Y-64701559D01*
X129529380Y-65561970D01*
X129146546Y-65580222D01*
X128745995Y-65746136D01*
X128671861Y-65992255D01*
X129500000Y-66820395D01*
X129514142Y-66806252D01*
X129693748Y-66985858D01*
X129679605Y-67000000D01*
X130507745Y-67828139D01*
X130753864Y-67754005D01*
X130946965Y-67216777D01*
X130935089Y-66967678D01*
X131908901Y-67941491D01*
X131908900Y-68426210D01*
X130935000Y-69400111D01*
X130935000Y-69214561D01*
X130716534Y-68687138D01*
X130312862Y-68283466D01*
X130247701Y-68256475D01*
X130254005Y-68253864D01*
X130328139Y-68007745D01*
X129500000Y-67179605D01*
X128671861Y-68007745D01*
X128745995Y-68253864D01*
X128752746Y-68256290D01*
X128687138Y-68283466D01*
X128610604Y-68360000D01*
X126184312Y-68360000D01*
X126174147Y-68335460D01*
X125784540Y-67945853D01*
X125275494Y-67735000D01*
X124724506Y-67735000D01*
X124215460Y-67945853D01*
X123825853Y-68335460D01*
X123615000Y-68844506D01*
X123615000Y-69395494D01*
X123825853Y-69904540D01*
X124215460Y-70294147D01*
X124724506Y-70505000D01*
X125275494Y-70505000D01*
X125784540Y-70294147D01*
X126174147Y-69904540D01*
X126184312Y-69880000D01*
X128104168Y-69880000D01*
X128283466Y-70312862D01*
X128687138Y-70716534D01*
X128752299Y-70743525D01*
X128745995Y-70746136D01*
X128671861Y-70992255D01*
X129500000Y-71820395D01*
X129514143Y-71806253D01*
X129693748Y-71985858D01*
X129679605Y-72000000D01*
X129693748Y-72014142D01*
X129514143Y-72193748D01*
X129500000Y-72179605D01*
X128671861Y-73007745D01*
X128745995Y-73253864D01*
X128752746Y-73256290D01*
X128687138Y-73283466D01*
X128283466Y-73687138D01*
X128065000Y-74214561D01*
X128065000Y-74785439D01*
X128283466Y-75312862D01*
X128687138Y-75716534D01*
X129022333Y-75855377D01*
X126229634Y-78648077D01*
X126152389Y-78484866D01*
X125737423Y-78108959D01*
X125349039Y-77948096D01*
X125127000Y-78070085D01*
X125127000Y-79213000D01*
X125147000Y-79213000D01*
X125147000Y-79467000D01*
X125127000Y-79467000D01*
X125127000Y-79487000D01*
X124873000Y-79487000D01*
X124873000Y-79467000D01*
X123729371Y-79467000D01*
X123608086Y-79689041D01*
X123847611Y-80195134D01*
X124262577Y-80571041D01*
X124293756Y-80583955D01*
X122968300Y-81909411D01*
X122968300Y-78990959D01*
X123608086Y-78990959D01*
X123729371Y-79213000D01*
X124873000Y-79213000D01*
X124873000Y-78070085D01*
X124650961Y-77948096D01*
X124262577Y-78108959D01*
X123847611Y-78484866D01*
X123608086Y-78990959D01*
X122968300Y-78990959D01*
X122968300Y-73621346D01*
X122983188Y-73546499D01*
X122968300Y-73471652D01*
X122968300Y-73471648D01*
X122924204Y-73249963D01*
X122845183Y-73131700D01*
X122798629Y-73062026D01*
X122798627Y-73062024D01*
X122756229Y-72998571D01*
X122692775Y-72956172D01*
X122541400Y-72804798D01*
X122541400Y-72638726D01*
X122525473Y-72600274D01*
X123625165Y-73699966D01*
X123615000Y-73724506D01*
X123615000Y-74275494D01*
X123825853Y-74784540D01*
X124215460Y-75174147D01*
X124724506Y-75385000D01*
X125275494Y-75385000D01*
X125784540Y-75174147D01*
X126174147Y-74784540D01*
X126385000Y-74275494D01*
X126385000Y-73724506D01*
X126174147Y-73215460D01*
X125784540Y-72825853D01*
X125275494Y-72615000D01*
X124724506Y-72615000D01*
X124699966Y-72625165D01*
X123858024Y-71783223D01*
X128053035Y-71783223D01*
X128080222Y-72353454D01*
X128246136Y-72754005D01*
X128492255Y-72828139D01*
X129320395Y-72000000D01*
X128492255Y-71171861D01*
X128246136Y-71245995D01*
X128053035Y-71783223D01*
X123858024Y-71783223D01*
X121605631Y-69530830D01*
X121563229Y-69467371D01*
X121452927Y-69393669D01*
X121553113Y-68890000D01*
X121441740Y-68330091D01*
X121124577Y-67855423D01*
X120772242Y-67620000D01*
X121124577Y-67384577D01*
X121441740Y-66909909D01*
X121466939Y-66783223D01*
X128053035Y-66783223D01*
X128080222Y-67353454D01*
X128246136Y-67754005D01*
X128492255Y-67828139D01*
X129320395Y-67000000D01*
X128492255Y-66171861D01*
X128246136Y-66245995D01*
X128053035Y-66783223D01*
X121466939Y-66783223D01*
X121553113Y-66350000D01*
X121441740Y-65790091D01*
X121124577Y-65315423D01*
X120796975Y-65096526D01*
X125337230Y-60556272D01*
X125529817Y-60966358D01*
G36*
X176857769Y-72789759D02*
X177088981Y-72944250D01*
X177453800Y-73016817D01*
X177545886Y-72998500D01*
X180935864Y-72998500D01*
X180877378Y-73056986D01*
X180992253Y-73171861D01*
X180746136Y-73245995D01*
X180553035Y-73783223D01*
X180580222Y-74353454D01*
X180746136Y-74754005D01*
X180992255Y-74828139D01*
X181820395Y-74000000D01*
X181806252Y-73985858D01*
X181985858Y-73806252D01*
X182000000Y-73820395D01*
X182014143Y-73806253D01*
X182193748Y-73985858D01*
X182179605Y-74000000D01*
X183007745Y-74828139D01*
X183234500Y-74759838D01*
X183234501Y-75858758D01*
X183166683Y-76199700D01*
X183185001Y-76291790D01*
X183185001Y-76398887D01*
X183085423Y-76465423D01*
X182768260Y-76940091D01*
X182656887Y-77500000D01*
X182768260Y-78059909D01*
X182800327Y-78107900D01*
X182092267Y-78107900D01*
X182091404Y-78103563D01*
X181923429Y-77852171D01*
X181859973Y-77809771D01*
X179057947Y-75007745D01*
X181171861Y-75007745D01*
X181245995Y-75253864D01*
X181783223Y-75446965D01*
X182353454Y-75419778D01*
X182754005Y-75253864D01*
X182828139Y-75007745D01*
X182000000Y-74179605D01*
X181171861Y-75007745D01*
X179057947Y-75007745D01*
X176804100Y-72753898D01*
X176857769Y-72789759D01*
X176857769Y-72789759D01*
G37*
X176857769Y-72789759D02*
X177088981Y-72944250D01*
X177453800Y-73016817D01*
X177545886Y-72998500D01*
X180935864Y-72998500D01*
X180877378Y-73056986D01*
X180992253Y-73171861D01*
X180746136Y-73245995D01*
X180553035Y-73783223D01*
X180580222Y-74353454D01*
X180746136Y-74754005D01*
X180992255Y-74828139D01*
X181820395Y-74000000D01*
X181806252Y-73985858D01*
X181985858Y-73806252D01*
X182000000Y-73820395D01*
X182014143Y-73806253D01*
X182193748Y-73985858D01*
X182179605Y-74000000D01*
X183007745Y-74828139D01*
X183234500Y-74759838D01*
X183234501Y-75858758D01*
X183166683Y-76199700D01*
X183185001Y-76291790D01*
X183185001Y-76398887D01*
X183085423Y-76465423D01*
X182768260Y-76940091D01*
X182656887Y-77500000D01*
X182768260Y-78059909D01*
X182800327Y-78107900D01*
X182092267Y-78107900D01*
X182091404Y-78103563D01*
X181923429Y-77852171D01*
X181859973Y-77809771D01*
X179057947Y-75007745D01*
X181171861Y-75007745D01*
X181245995Y-75253864D01*
X181783223Y-75446965D01*
X182353454Y-75419778D01*
X182754005Y-75253864D01*
X182828139Y-75007745D01*
X182000000Y-74179605D01*
X181171861Y-75007745D01*
X179057947Y-75007745D01*
X176804100Y-72753898D01*
X176857769Y-72789759D01*
G36*
X145974375Y-63695625D02*
X146465582Y-64023839D01*
X146898744Y-64110000D01*
X147191256Y-64110000D01*
X147624418Y-64023839D01*
X147955689Y-63802491D01*
X150120470Y-65967272D01*
X150162871Y-66030729D01*
X150393691Y-66184958D01*
X150245995Y-66246136D01*
X150171861Y-66492255D01*
X151000000Y-67320395D01*
X151828139Y-66492255D01*
X151754005Y-66246136D01*
X151744724Y-66242800D01*
X152785314Y-66242800D01*
X152687138Y-66283466D01*
X152283466Y-66687138D01*
X152256475Y-66752299D01*
X152253864Y-66745995D01*
X152007745Y-66671861D01*
X151179605Y-67500000D01*
X152007745Y-68328139D01*
X152253864Y-68254005D01*
X152256290Y-68247254D01*
X152283466Y-68312862D01*
X152476058Y-68505454D01*
X152445904Y-68525603D01*
X152393742Y-68603669D01*
X152393741Y-68603670D01*
X152239250Y-68834882D01*
X152166683Y-69199700D01*
X152185001Y-69291790D01*
X152185001Y-69398887D01*
X152085423Y-69465423D01*
X151768260Y-69940091D01*
X151656887Y-70500000D01*
X151768260Y-71059909D01*
X151813892Y-71128201D01*
X151578671Y-71285371D01*
X151536271Y-71348827D01*
X146878197Y-76006902D01*
X146963113Y-75580000D01*
X146851740Y-75020091D01*
X146534577Y-74545423D01*
X146182242Y-74310000D01*
X146534577Y-74074577D01*
X146851740Y-73599909D01*
X146963113Y-73040000D01*
X146851740Y-72480091D01*
X146534577Y-72005423D01*
X146428082Y-71934265D01*
X146659698Y-71838327D01*
X146838327Y-71659699D01*
X146935000Y-71426310D01*
X146935000Y-70785750D01*
X146776250Y-70627000D01*
X145627000Y-70627000D01*
X145627000Y-70647000D01*
X145373000Y-70647000D01*
X145373000Y-70627000D01*
X144223750Y-70627000D01*
X144065000Y-70785750D01*
X144065000Y-71426310D01*
X144161673Y-71659699D01*
X144340302Y-71838327D01*
X144571918Y-71934265D01*
X144465423Y-72005423D01*
X144279214Y-72284104D01*
X144078163Y-72324096D01*
X143826771Y-72492071D01*
X143784371Y-72555527D01*
X142934599Y-73405300D01*
X142510450Y-73405300D01*
X142583113Y-73040000D01*
X142471740Y-72480091D01*
X142154577Y-72005423D01*
X141802242Y-71770000D01*
X142154577Y-71534577D01*
X142471740Y-71059909D01*
X142583113Y-70500000D01*
X142471740Y-69940091D01*
X142226919Y-69573690D01*
X144065000Y-69573690D01*
X144065000Y-70214250D01*
X144223750Y-70373000D01*
X145373000Y-70373000D01*
X145373000Y-69223750D01*
X145627000Y-69223750D01*
X145627000Y-70373000D01*
X146776250Y-70373000D01*
X146935000Y-70214250D01*
X146935000Y-69573690D01*
X146838327Y-69340301D01*
X146659698Y-69161673D01*
X146426309Y-69065000D01*
X145785750Y-69065000D01*
X145627000Y-69223750D01*
X145373000Y-69223750D01*
X145214250Y-69065000D01*
X144573691Y-69065000D01*
X144340302Y-69161673D01*
X144161673Y-69340301D01*
X144065000Y-69573690D01*
X142226919Y-69573690D01*
X142154577Y-69465423D01*
X142055000Y-69398888D01*
X142055000Y-69291786D01*
X142073317Y-69199700D01*
X142053041Y-69097765D01*
X142000750Y-68834881D01*
X141939267Y-68742865D01*
X141935000Y-68721414D01*
X141935000Y-68594396D01*
X142021651Y-68507745D01*
X150171861Y-68507745D01*
X150245995Y-68753864D01*
X150783223Y-68946965D01*
X151353454Y-68919778D01*
X151754005Y-68753864D01*
X151828139Y-68507745D01*
X151000000Y-67679605D01*
X150171861Y-68507745D01*
X142021651Y-68507745D01*
X142216534Y-68312862D01*
X142435000Y-67785439D01*
X142435000Y-67283223D01*
X149553035Y-67283223D01*
X149580222Y-67853454D01*
X149746136Y-68254005D01*
X149992255Y-68328139D01*
X150820395Y-67500000D01*
X149992255Y-66671861D01*
X149746136Y-66745995D01*
X149553035Y-67283223D01*
X142435000Y-67283223D01*
X142435000Y-67214561D01*
X142216534Y-66687138D01*
X141812862Y-66283466D01*
X141285439Y-66065000D01*
X140714561Y-66065000D01*
X140187138Y-66283466D01*
X139783466Y-66687138D01*
X139756475Y-66752299D01*
X139753864Y-66745995D01*
X139507745Y-66671861D01*
X138679605Y-67500000D01*
X138693748Y-67514143D01*
X138514143Y-67693748D01*
X138500000Y-67679605D01*
X138485858Y-67693748D01*
X138306253Y-67514143D01*
X138320395Y-67500000D01*
X137492255Y-66671861D01*
X137246136Y-66745995D01*
X137053035Y-67283223D01*
X137080222Y-67853454D01*
X137090596Y-67878500D01*
X133778900Y-67878500D01*
X133778900Y-67646286D01*
X133797217Y-67554200D01*
X133777565Y-67455400D01*
X133724650Y-67189381D01*
X133517997Y-66880103D01*
X133439931Y-66827941D01*
X133104245Y-66492255D01*
X137671861Y-66492255D01*
X138500000Y-67320395D01*
X139328139Y-66492255D01*
X139254005Y-66246136D01*
X138716777Y-66053035D01*
X138146546Y-66080222D01*
X137745995Y-66246136D01*
X137671861Y-66492255D01*
X133104245Y-66492255D01*
X131622897Y-65010907D01*
X131696199Y-65025488D01*
X131771046Y-65010600D01*
X141996653Y-65010600D01*
X142071500Y-65025488D01*
X142146347Y-65010600D01*
X142146352Y-65010600D01*
X142368037Y-64966504D01*
X142619429Y-64798529D01*
X142661831Y-64735070D01*
X143594371Y-63802531D01*
X143925582Y-64023839D01*
X144358744Y-64110000D01*
X144651256Y-64110000D01*
X145084418Y-64023839D01*
X145575625Y-63695625D01*
X145775000Y-63397239D01*
X145974375Y-63695625D01*
X145974375Y-63695625D01*
G37*
X145974375Y-63695625D02*
X146465582Y-64023839D01*
X146898744Y-64110000D01*
X147191256Y-64110000D01*
X147624418Y-64023839D01*
X147955689Y-63802491D01*
X150120470Y-65967272D01*
X150162871Y-66030729D01*
X150393691Y-66184958D01*
X150245995Y-66246136D01*
X150171861Y-66492255D01*
X151000000Y-67320395D01*
X151828139Y-66492255D01*
X151754005Y-66246136D01*
X151744724Y-66242800D01*
X152785314Y-66242800D01*
X152687138Y-66283466D01*
X152283466Y-66687138D01*
X152256475Y-66752299D01*
X152253864Y-66745995D01*
X152007745Y-66671861D01*
X151179605Y-67500000D01*
X152007745Y-68328139D01*
X152253864Y-68254005D01*
X152256290Y-68247254D01*
X152283466Y-68312862D01*
X152476058Y-68505454D01*
X152445904Y-68525603D01*
X152393742Y-68603669D01*
X152393741Y-68603670D01*
X152239250Y-68834882D01*
X152166683Y-69199700D01*
X152185001Y-69291790D01*
X152185001Y-69398887D01*
X152085423Y-69465423D01*
X151768260Y-69940091D01*
X151656887Y-70500000D01*
X151768260Y-71059909D01*
X151813892Y-71128201D01*
X151578671Y-71285371D01*
X151536271Y-71348827D01*
X146878197Y-76006902D01*
X146963113Y-75580000D01*
X146851740Y-75020091D01*
X146534577Y-74545423D01*
X146182242Y-74310000D01*
X146534577Y-74074577D01*
X146851740Y-73599909D01*
X146963113Y-73040000D01*
X146851740Y-72480091D01*
X146534577Y-72005423D01*
X146428082Y-71934265D01*
X146659698Y-71838327D01*
X146838327Y-71659699D01*
X146935000Y-71426310D01*
X146935000Y-70785750D01*
X146776250Y-70627000D01*
X145627000Y-70627000D01*
X145627000Y-70647000D01*
X145373000Y-70647000D01*
X145373000Y-70627000D01*
X144223750Y-70627000D01*
X144065000Y-70785750D01*
X144065000Y-71426310D01*
X144161673Y-71659699D01*
X144340302Y-71838327D01*
X144571918Y-71934265D01*
X144465423Y-72005423D01*
X144279214Y-72284104D01*
X144078163Y-72324096D01*
X143826771Y-72492071D01*
X143784371Y-72555527D01*
X142934599Y-73405300D01*
X142510450Y-73405300D01*
X142583113Y-73040000D01*
X142471740Y-72480091D01*
X142154577Y-72005423D01*
X141802242Y-71770000D01*
X142154577Y-71534577D01*
X142471740Y-71059909D01*
X142583113Y-70500000D01*
X142471740Y-69940091D01*
X142226919Y-69573690D01*
X144065000Y-69573690D01*
X144065000Y-70214250D01*
X144223750Y-70373000D01*
X145373000Y-70373000D01*
X145373000Y-69223750D01*
X145627000Y-69223750D01*
X145627000Y-70373000D01*
X146776250Y-70373000D01*
X146935000Y-70214250D01*
X146935000Y-69573690D01*
X146838327Y-69340301D01*
X146659698Y-69161673D01*
X146426309Y-69065000D01*
X145785750Y-69065000D01*
X145627000Y-69223750D01*
X145373000Y-69223750D01*
X145214250Y-69065000D01*
X144573691Y-69065000D01*
X144340302Y-69161673D01*
X144161673Y-69340301D01*
X144065000Y-69573690D01*
X142226919Y-69573690D01*
X142154577Y-69465423D01*
X142055000Y-69398888D01*
X142055000Y-69291786D01*
X142073317Y-69199700D01*
X142053041Y-69097765D01*
X142000750Y-68834881D01*
X141939267Y-68742865D01*
X141935000Y-68721414D01*
X141935000Y-68594396D01*
X142021651Y-68507745D01*
X150171861Y-68507745D01*
X150245995Y-68753864D01*
X150783223Y-68946965D01*
X151353454Y-68919778D01*
X151754005Y-68753864D01*
X151828139Y-68507745D01*
X151000000Y-67679605D01*
X150171861Y-68507745D01*
X142021651Y-68507745D01*
X142216534Y-68312862D01*
X142435000Y-67785439D01*
X142435000Y-67283223D01*
X149553035Y-67283223D01*
X149580222Y-67853454D01*
X149746136Y-68254005D01*
X149992255Y-68328139D01*
X150820395Y-67500000D01*
X149992255Y-66671861D01*
X149746136Y-66745995D01*
X149553035Y-67283223D01*
X142435000Y-67283223D01*
X142435000Y-67214561D01*
X142216534Y-66687138D01*
X141812862Y-66283466D01*
X141285439Y-66065000D01*
X140714561Y-66065000D01*
X140187138Y-66283466D01*
X139783466Y-66687138D01*
X139756475Y-66752299D01*
X139753864Y-66745995D01*
X139507745Y-66671861D01*
X138679605Y-67500000D01*
X138693748Y-67514143D01*
X138514143Y-67693748D01*
X138500000Y-67679605D01*
X138485858Y-67693748D01*
X138306253Y-67514143D01*
X138320395Y-67500000D01*
X137492255Y-66671861D01*
X137246136Y-66745995D01*
X137053035Y-67283223D01*
X137080222Y-67853454D01*
X137090596Y-67878500D01*
X133778900Y-67878500D01*
X133778900Y-67646286D01*
X133797217Y-67554200D01*
X133777565Y-67455400D01*
X133724650Y-67189381D01*
X133517997Y-66880103D01*
X133439931Y-66827941D01*
X133104245Y-66492255D01*
X137671861Y-66492255D01*
X138500000Y-67320395D01*
X139328139Y-66492255D01*
X139254005Y-66246136D01*
X138716777Y-66053035D01*
X138146546Y-66080222D01*
X137745995Y-66246136D01*
X137671861Y-66492255D01*
X133104245Y-66492255D01*
X131622897Y-65010907D01*
X131696199Y-65025488D01*
X131771046Y-65010600D01*
X141996653Y-65010600D01*
X142071500Y-65025488D01*
X142146347Y-65010600D01*
X142146352Y-65010600D01*
X142368037Y-64966504D01*
X142619429Y-64798529D01*
X142661831Y-64735070D01*
X143594371Y-63802531D01*
X143925582Y-64023839D01*
X144358744Y-64110000D01*
X144651256Y-64110000D01*
X145084418Y-64023839D01*
X145575625Y-63695625D01*
X145775000Y-63397239D01*
X145974375Y-63695625D01*
G36*
X139768260Y-69940091D02*
X139656887Y-70500000D01*
X139768260Y-71059909D01*
X140085423Y-71534577D01*
X140437758Y-71770000D01*
X140085423Y-72005423D01*
X139768260Y-72480091D01*
X139656887Y-73040000D01*
X139729550Y-73405300D01*
X135544048Y-73405300D01*
X135469200Y-73390412D01*
X135394352Y-73405300D01*
X135394348Y-73405300D01*
X135220805Y-73439820D01*
X135172662Y-73449396D01*
X135008484Y-73559097D01*
X134921271Y-73617371D01*
X134878871Y-73680827D01*
X134634164Y-73925534D01*
X134851740Y-73599909D01*
X134963113Y-73040000D01*
X134851740Y-72480091D01*
X134534577Y-72005423D01*
X134428082Y-71934265D01*
X134659698Y-71838327D01*
X134838327Y-71659699D01*
X134935000Y-71426310D01*
X134935000Y-70785750D01*
X134776250Y-70627000D01*
X133627000Y-70627000D01*
X133627000Y-70647000D01*
X133373000Y-70647000D01*
X133373000Y-70627000D01*
X133353000Y-70627000D01*
X133353000Y-70373000D01*
X133373000Y-70373000D01*
X133373000Y-70353000D01*
X133627000Y-70353000D01*
X133627000Y-70373000D01*
X134776250Y-70373000D01*
X134935000Y-70214250D01*
X134935000Y-69748500D01*
X139896277Y-69748500D01*
X139768260Y-69940091D01*
X139768260Y-69940091D01*
G37*
X139768260Y-69940091D02*
X139656887Y-70500000D01*
X139768260Y-71059909D01*
X140085423Y-71534577D01*
X140437758Y-71770000D01*
X140085423Y-72005423D01*
X139768260Y-72480091D01*
X139656887Y-73040000D01*
X139729550Y-73405300D01*
X135544048Y-73405300D01*
X135469200Y-73390412D01*
X135394352Y-73405300D01*
X135394348Y-73405300D01*
X135220805Y-73439820D01*
X135172662Y-73449396D01*
X135008484Y-73559097D01*
X134921271Y-73617371D01*
X134878871Y-73680827D01*
X134634164Y-73925534D01*
X134851740Y-73599909D01*
X134963113Y-73040000D01*
X134851740Y-72480091D01*
X134534577Y-72005423D01*
X134428082Y-71934265D01*
X134659698Y-71838327D01*
X134838327Y-71659699D01*
X134935000Y-71426310D01*
X134935000Y-70785750D01*
X134776250Y-70627000D01*
X133627000Y-70627000D01*
X133627000Y-70647000D01*
X133373000Y-70647000D01*
X133373000Y-70627000D01*
X133353000Y-70627000D01*
X133353000Y-70373000D01*
X133373000Y-70373000D01*
X133373000Y-70353000D01*
X133627000Y-70353000D01*
X133627000Y-70373000D01*
X134776250Y-70373000D01*
X134935000Y-70214250D01*
X134935000Y-69748500D01*
X139896277Y-69748500D01*
X139768260Y-69940091D01*
G36*
X157534459Y-66477560D02*
X155975000Y-66477560D01*
X155727235Y-66526843D01*
X155517191Y-66667191D01*
X155376843Y-66877235D01*
X155327560Y-67125000D01*
X155327560Y-68725000D01*
X155376843Y-68972765D01*
X155517191Y-69182809D01*
X155727235Y-69323157D01*
X155861106Y-69349785D01*
X155740423Y-69430423D01*
X155554214Y-69709104D01*
X155353163Y-69749096D01*
X155327559Y-69766204D01*
X155165226Y-69874671D01*
X155165224Y-69874673D01*
X155101771Y-69917071D01*
X155059373Y-69980524D01*
X154575943Y-70463955D01*
X154471740Y-69940091D01*
X154173709Y-69494056D01*
X154174097Y-69493797D01*
X154380750Y-69184519D01*
X154425494Y-68959577D01*
X154453317Y-68819701D01*
X154435000Y-68727615D01*
X154435000Y-68594396D01*
X154716534Y-68312862D01*
X154935000Y-67785439D01*
X154935000Y-67214561D01*
X154716534Y-66687138D01*
X154312862Y-66283466D01*
X154214686Y-66242800D01*
X157299699Y-66242800D01*
X157534459Y-66477560D01*
X157534459Y-66477560D01*
G37*
X157534459Y-66477560D02*
X155975000Y-66477560D01*
X155727235Y-66526843D01*
X155517191Y-66667191D01*
X155376843Y-66877235D01*
X155327560Y-67125000D01*
X155327560Y-68725000D01*
X155376843Y-68972765D01*
X155517191Y-69182809D01*
X155727235Y-69323157D01*
X155861106Y-69349785D01*
X155740423Y-69430423D01*
X155554214Y-69709104D01*
X155353163Y-69749096D01*
X155327559Y-69766204D01*
X155165226Y-69874671D01*
X155165224Y-69874673D01*
X155101771Y-69917071D01*
X155059373Y-69980524D01*
X154575943Y-70463955D01*
X154471740Y-69940091D01*
X154173709Y-69494056D01*
X154174097Y-69493797D01*
X154380750Y-69184519D01*
X154425494Y-68959577D01*
X154453317Y-68819701D01*
X154435000Y-68727615D01*
X154435000Y-68594396D01*
X154716534Y-68312862D01*
X154935000Y-67785439D01*
X154935000Y-67214561D01*
X154716534Y-66687138D01*
X154312862Y-66283466D01*
X154214686Y-66242800D01*
X157299699Y-66242800D01*
X157534459Y-66477560D01*
G36*
X126852000Y-59958000D02*
X129138000Y-59958000D01*
X129138000Y-59938000D01*
X129392000Y-59938000D01*
X129392000Y-59958000D01*
X129412000Y-59958000D01*
X129412000Y-60212000D01*
X129392000Y-60212000D01*
X129392000Y-60232000D01*
X129138000Y-60232000D01*
X129138000Y-60212000D01*
X126852000Y-60212000D01*
X126852000Y-60232000D01*
X126598000Y-60232000D01*
X126598000Y-60212000D01*
X126578000Y-60212000D01*
X126578000Y-59958000D01*
X126598000Y-59958000D01*
X126598000Y-59938000D01*
X126852000Y-59938000D01*
X126852000Y-59958000D01*
X126852000Y-59958000D01*
G37*
X126852000Y-59958000D02*
X129138000Y-59958000D01*
X129138000Y-59938000D01*
X129392000Y-59938000D01*
X129392000Y-59958000D01*
X129412000Y-59958000D01*
X129412000Y-60212000D01*
X129392000Y-60212000D01*
X129392000Y-60232000D01*
X129138000Y-60232000D01*
X129138000Y-60212000D01*
X126852000Y-60212000D01*
X126852000Y-60232000D01*
X126598000Y-60232000D01*
X126598000Y-60212000D01*
X126578000Y-60212000D01*
X126578000Y-59958000D01*
X126598000Y-59958000D01*
X126598000Y-59938000D01*
X126852000Y-59938000D01*
X126852000Y-59958000D01*
G36*
X119375104Y-59038694D02*
X119253864Y-58745995D01*
X119007745Y-58671861D01*
X118179605Y-59500000D01*
X118193748Y-59514143D01*
X118014143Y-59693748D01*
X118000000Y-59679605D01*
X117985858Y-59693748D01*
X117806252Y-59514142D01*
X117820395Y-59500000D01*
X117806252Y-59485858D01*
X117985858Y-59306252D01*
X118000000Y-59320395D01*
X118828139Y-58492255D01*
X118754005Y-58246136D01*
X118216777Y-58053035D01*
X117870561Y-58069542D01*
X119100503Y-56839600D01*
X121574198Y-56839600D01*
X119375104Y-59038694D01*
X119375104Y-59038694D01*
G37*
X119375104Y-59038694D02*
X119253864Y-58745995D01*
X119007745Y-58671861D01*
X118179605Y-59500000D01*
X118193748Y-59514143D01*
X118014143Y-59693748D01*
X118000000Y-59679605D01*
X117985858Y-59693748D01*
X117806252Y-59514142D01*
X117820395Y-59500000D01*
X117806252Y-59485858D01*
X117985858Y-59306252D01*
X118000000Y-59320395D01*
X118828139Y-58492255D01*
X118754005Y-58246136D01*
X118216777Y-58053035D01*
X117870561Y-58069542D01*
X119100503Y-56839600D01*
X121574198Y-56839600D01*
X119375104Y-59038694D01*
G04 #@! TD*
M02*
